<svg width="30" height="32" viewBox="0 0 30 32" fill="none" xmlns="http://www.w3.org/2000/svg">
<path fill-rule="evenodd" clip-rule="evenodd" d="M13.9536 0.103847C12.9028 0.48228 12.398 1.70116 12.871 2.7182C13.0477 3.09821 13.4909 3.53277 13.8379 3.66616L14.1223 3.77544V5.97564V8.17589L13.7577 8.21422C12.596 8.33644 11.2784 8.91411 10.3194 9.7217L9.91085 10.0656L9.17975 9.3214L8.4487 8.57723V7.17958V5.78192L8.68373 5.67526C8.98769 5.53731 9.38164 5.13033 9.50881 4.82296C9.56621 4.68416 9.60798 4.42242 9.60677 4.20939C9.60315 3.58009 9.33589 3.11084 8.82026 2.82844C8.00157 2.37997 6.99995 2.67349 6.60974 3.47609C6.20715 4.30427 6.55028 5.30381 7.3639 5.67307L7.6037 5.78192V7.04831V8.31469H6.55958H5.51546L5.4417 8.10944C5.15096 7.30027 4.2147 6.75984 3.36463 6.91054C2.88074 6.99631 2.43193 7.25964 2.16177 7.61614C1.41026 8.6079 1.81085 10.1371 2.93283 10.5595C3.92112 10.9317 4.99174 10.4964 5.40585 9.55393L5.55004 9.22585H6.68337H7.81676L8.56434 9.97998L9.31187 10.7342L8.98914 11.2404C8.45522 12.0778 8.08076 13.1172 7.98672 14.0222L7.94864 14.3891H5.52487H3.10117L3.02729 14.1834C2.98667 14.0704 2.82111 13.8533 2.65935 13.7011C1.84399 12.9335 0.55705 13.1965 0.11952 14.2201C-0.0671042 14.6566 -0.0317953 15.2854 0.201787 15.6865C0.82395 16.755 2.43332 16.7024 2.99071 15.5953L3.13998 15.2988L5.53459 15.3147L7.92914 15.3306L8.00363 15.8469C8.23588 17.457 9.12386 19.0377 10.357 20.0361C10.606 20.2377 10.8477 20.4027 10.8939 20.4027C11.1863 20.4027 11.4605 20.0629 11.3783 19.8024C11.3569 19.7346 11.2526 19.6071 11.1465 19.519C10.022 18.5859 9.2963 17.4853 8.98552 16.2417C8.70371 15.1141 8.84645 13.6533 9.34694 12.5424C9.83432 11.4606 10.8108 10.3631 11.7717 9.81701C15.0077 7.97805 19.0558 9.67967 20.1311 13.3308C20.3237 13.9848 20.3906 15.0322 20.2837 15.7216C20.1797 16.393 19.874 17.2556 19.5445 17.8072C19.3806 18.0817 19.2526 18.3706 19.2526 18.4662C19.2526 18.6932 19.4644 18.8841 19.7163 18.8841C19.9694 18.8841 20.1752 18.6178 20.585 17.7603C20.9061 17.0883 21.0826 16.5094 21.1883 15.782L21.2583 15.3002H23.6649H26.0714L26.1569 15.5061C26.2911 15.8295 26.649 16.1845 26.9894 16.3318C27.2362 16.4387 27.384 16.4618 27.6981 16.4425C28.6562 16.3836 29.2728 15.6781 29.1969 14.7273C29.1494 14.1304 28.8685 13.7048 28.3437 13.4341C27.5659 13.0328 26.5934 13.3576 26.1902 14.1531L26.0705 14.3891H23.6645H21.2583L21.1857 13.8894C21.0491 12.9488 20.6421 11.9045 20.1017 11.1077L19.8672 10.762L20.6321 9.99395L21.397 9.22585H22.5294H23.6617L23.721 9.39289C24.1247 10.5307 25.3584 11.0199 26.4352 10.469C27.0259 10.1668 27.3585 9.625 27.3916 8.91108C27.4207 8.28493 27.2978 7.92448 26.9097 7.49714C26.5305 7.07953 26.1109 6.90052 25.4974 6.89463C25.1506 6.89135 25.0101 6.92148 24.7308 7.059C24.3244 7.25909 23.8711 7.74 23.7706 8.07749L23.7 8.31469H22.6533H21.6066V7.03987V5.7651L21.8027 5.68237C22.0926 5.56009 22.3723 5.30108 22.5584 4.9826C22.7011 4.73829 22.7231 4.63527 22.7223 4.21449C22.7214 3.6658 22.6376 3.44931 22.2814 3.07519C22.0299 2.81101 21.5393 2.60479 21.1624 2.60479C20.2891 2.60479 19.5544 3.35424 19.5544 4.24505C19.5544 4.79417 19.9345 5.40076 20.4298 5.64203L20.7012 5.77427V7.18213V8.58992L19.9783 9.31563L19.2554 10.0413L19.088 9.90545C17.8544 8.90397 16.8261 8.41316 15.5838 8.23269L15.0578 8.15627L15.0432 5.97278L15.0284 3.78929L15.3613 3.64454C15.7909 3.45775 16.2463 2.96645 16.388 2.53694C16.5201 2.13688 16.485 1.47204 16.311 1.07714C15.9397 0.234264 14.8457 -0.217366 13.9536 0.103847ZM14.0921 1.03833C13.1782 1.56625 13.6315 2.99476 14.6806 2.89332C15.6128 2.80318 15.9029 1.63854 15.1357 1.06663C14.883 0.878147 14.3924 0.864905 14.0921 1.03833ZM7.61233 3.66981C7.25248 3.97456 7.24789 4.44368 7.60171 4.76119C7.80499 4.9436 8.26902 4.92927 8.47532 4.73416C9.1078 4.1362 8.27481 3.10884 7.61233 3.66981ZM20.8076 3.61101C20.3528 3.85933 20.3602 4.58163 20.8199 4.8209C21.4174 5.13178 22.0319 4.55727 21.7892 3.91479C21.6631 3.58094 21.1522 3.42288 20.8076 3.61101ZM3.3735 7.8234C2.91026 7.97259 2.61686 8.42318 2.67058 8.90287C2.78206 9.89853 4.09869 10.1151 4.56175 9.21394C4.77409 8.80077 4.56845 8.1307 4.16491 7.92071C3.94406 7.80572 3.57081 7.75986 3.3735 7.8234ZM25.1327 7.88317C24.529 8.15919 24.3435 8.91077 24.7507 9.43171C25.1294 9.91626 26.0175 9.88856 26.3474 9.38196C26.5893 9.01051 26.5712 8.50513 26.3039 8.16314C26.1557 7.97356 25.7555 7.77067 25.5298 7.77067C25.4468 7.77067 25.2682 7.82133 25.1327 7.88317ZM13.9646 10.619C13.2272 10.737 12.4552 11.0869 12.3944 11.3306C12.3395 11.5509 12.434 11.7867 12.6193 11.8913C12.7618 11.9719 12.8119 11.9633 13.233 11.7869C14.3534 11.3174 15.515 11.4311 16.4967 12.1063C18.1443 13.2394 18.4083 15.6352 17.0483 17.1134C16.7429 17.4454 16.2249 17.8515 16.1069 17.8515C16.0811 17.8515 16.0518 17.2296 16.0418 16.4695C16.0215 14.9352 15.9965 14.8215 15.5888 14.4112C15.3157 14.1364 15.0742 14.0207 14.6904 13.9808C14.2468 13.9347 13.8741 14.0529 13.5457 14.3438C13.0346 14.7965 13.0084 14.8948 12.9864 16.4386L12.9672 17.7895L12.8053 17.7051C12.5202 17.5564 12.0848 17.1296 11.8365 16.7554C11.2032 15.8009 11.0887 14.763 11.4895 13.6086C11.6443 13.1625 11.6255 13.0076 11.3971 12.8466C10.9963 12.5641 10.6754 12.9318 10.4316 13.9526C10.3133 14.4482 10.3428 15.3917 10.4936 15.9346C10.8111 17.0778 11.609 18.119 12.5379 18.6023L12.9755 18.83V21.1181C12.9755 23.3465 12.9726 23.403 12.8639 23.2863C12.8025 23.2205 12.488 22.8437 12.1651 22.449C11.5254 21.6673 11.3587 21.5349 10.8792 21.4269C9.65772 21.1518 8.65114 22.4488 9.19906 23.5917C9.2826 23.7659 10.1444 24.8528 11.2204 26.1409L13.0962 28.3864V29.5909C13.0962 30.7888 13.0971 30.7962 13.2444 30.9445C13.4254 31.1267 13.6316 31.1347 13.8425 30.9677L14.0016 30.8418V29.449V28.0563L13.2296 27.13C9.7774 22.9879 9.95751 23.2187 9.95896 22.9389C9.96155 22.4457 10.3937 22.1562 10.8291 22.3558C10.9133 22.3944 11.3404 22.866 11.7782 23.4037C13.1445 25.0814 13.2006 25.1407 13.4227 25.1407C13.5487 25.1407 13.6647 25.0911 13.7485 25.0013L13.8787 24.8618L13.8949 20.0456L13.911 15.2295L14.1082 15.0523C14.4166 14.7749 14.8448 14.8322 15.0479 15.1781C15.1383 15.3322 15.1484 15.6808 15.1484 18.6685V21.9876L15.2965 22.1366C15.4794 22.3207 15.7652 22.3331 15.933 22.1643C16.0376 22.059 16.0537 21.9618 16.0537 21.4353V20.8279H16.5667H17.0798V21.4248C17.0798 21.9701 17.0919 22.033 17.2195 22.1537C17.4171 22.3405 17.7018 22.3281 17.86 22.1257C17.9665 21.9896 17.9851 21.8803 17.9851 21.3943V20.823L18.4831 20.8407L18.981 20.8583L19.0112 21.486C19.0367 22.016 19.0596 22.1271 19.1586 22.1997C19.3222 22.3199 19.5754 22.3069 19.7439 22.1697C19.8725 22.0649 19.8885 21.9968 19.9073 21.4711C19.9268 20.9298 19.937 20.8886 20.0529 20.8886C20.2864 20.8886 20.6919 21.1851 20.8651 21.4825C21.0199 21.7483 21.0345 21.8308 21.0629 22.6027C21.0951 23.4784 21.1342 23.5983 21.3953 23.6242C21.6307 23.6474 21.7287 23.6206 21.848 23.5006C21.9551 23.3929 21.9687 23.2982 21.9687 22.663C21.9687 22.2152 21.9339 21.8112 21.8758 21.5848C21.6997 20.8991 21.2275 20.3675 20.5308 20.0704C20.2713 19.9597 20.0795 19.9483 18.1511 19.9291L16.0537 19.9083V19.4045V18.9008L16.4479 18.7055C17.8511 18.0103 18.7389 16.6399 18.8154 15.0514C18.8655 14.0104 18.6289 13.2163 18.0074 12.3398C17.4968 11.6196 16.4935 10.9417 15.601 10.7139C15.1502 10.5988 14.3722 10.5537 13.9646 10.619ZM1.289 14.2334C1.02802 14.3477 0.904044 14.5509 0.904044 14.8643C0.904044 15.0856 0.938387 15.1647 1.10926 15.3367C1.27741 15.5059 1.36016 15.5432 1.56773 15.5432C2.08065 15.5432 2.40332 15.0779 2.21126 14.6153C2.11372 14.3804 1.80445 14.145 1.59815 14.1487C1.53176 14.1499 1.39264 14.188 1.289 14.2334ZM27.4009 14.1889C27.2153 14.2568 26.9787 14.5384 26.942 14.7348C26.8606 15.172 27.1747 15.5432 27.6263 15.5432C27.8523 15.5432 27.9289 15.5098 28.101 15.3367C28.3353 15.1009 28.3731 14.8168 28.2117 14.5028C28.0775 14.2415 27.6786 14.0871 27.4009 14.1889ZM21.3231 25.2742C21.1636 25.3517 21.0634 25.6152 21.0634 25.957C21.0634 26.6389 20.6934 27.4447 20.0826 28.0934L19.6751 28.5261V29.684V30.8418L19.8342 30.9677C20.0451 31.1347 20.2513 31.1267 20.4323 30.9445C20.5772 30.7987 20.5805 30.7738 20.5805 29.833V28.8707L20.8262 28.6306C21.4439 28.0268 21.9028 26.9634 21.9542 26.0168C21.9838 25.4716 21.9822 25.4639 21.8173 25.3334C21.635 25.1891 21.5252 25.1759 21.3231 25.2742Z" fill="#363636"/>
</svg>
