<svg width="28" height="29" viewBox="0 0 28 29" fill="none" xmlns="http://www.w3.org/2000/svg">
<path d="M26.7242 27.2244H1M24.1518 27.2244V13.076M3.57242 27.2244V13.076" stroke="#363636" stroke-width="1.6537" stroke-linecap="round"/>
<path d="M19.6863 1.5H8.03839C6.49107 1.5 5.71806 1.5 5.09682 1.88458C4.47429 2.26787 4.1283 2.95985 3.43761 4.34381L1.63048 8.90858C1.21375 9.96327 0.848465 11.2058 1.55074 12.0971C1.88157 12.5177 2.33535 12.8247 2.84887 12.9753C3.36239 13.1258 3.91008 13.1125 4.41567 12.9371C4.92126 12.7618 5.35957 12.4331 5.66955 11.9969C5.97954 11.5606 6.14577 11.0386 6.14508 10.5035C6.14508 11.1857 6.41611 11.84 6.89853 12.3225C7.38095 12.8049 8.03526 13.0759 8.71751 13.0759C9.39975 13.0759 10.0541 12.8049 10.5365 12.3225C11.0189 11.84 11.2899 11.1857 11.2899 10.5035C11.2899 11.1857 11.561 11.84 12.0434 12.3225C12.5258 12.8049 13.1801 13.0759 13.8624 13.0759C14.5446 13.0759 15.1989 12.8049 15.6813 12.3225C16.1638 11.84 16.4348 11.1857 16.4348 10.5035C16.4348 11.1857 16.7058 11.84 17.1882 12.3225C17.6706 12.8049 18.3249 13.0759 19.0072 13.0759C19.6894 13.0759 20.3438 12.8049 20.8262 12.3225C21.3086 11.84 21.5796 11.1857 21.5796 10.5035C21.5795 11.0382 21.7461 11.5596 22.0561 11.9953C22.3661 12.431 22.8042 12.7592 23.3094 12.9343C23.8146 13.1095 24.3619 13.1229 24.875 12.9726C25.3882 12.8223 25.8418 12.5158 26.1727 12.0958C26.875 11.2045 26.5097 9.96199 26.0929 8.90729L24.2871 4.34381C23.5964 2.95985 23.2504 2.26787 22.6279 1.88458C22.0066 1.5 21.2336 1.5 19.6863 1.5Z" stroke="#363636" stroke-width="1.6537" stroke-linejoin="round"/>
<path d="M10.6465 26.5812V22.7226C10.6465 21.52 10.6465 20.9193 10.905 20.4717C11.0743 20.1785 11.3179 19.9349 11.6111 19.7656C12.0587 19.5071 12.6594 19.5071 13.862 19.5071C15.0646 19.5071 15.6653 19.5071 16.1129 19.7656C16.4062 19.9349 16.6497 20.1785 16.819 20.4717C17.0775 20.9193 17.0775 21.52 17.0775 22.7226V26.5812" stroke="#363636" stroke-width="1.6537" stroke-linecap="round"/>
</svg>
