<svg width="25" height="30" viewBox="0 0 25 30" fill="none" xmlns="http://www.w3.org/2000/svg">
<path fill-rule="evenodd" clip-rule="evenodd" d="M9.88136 0.586874C9.14381 0.783824 8.56783 1.23651 8.25823 1.86252C8.02794 2.32813 7.9839 2.53656 7.88606 3.62443C7.84643 4.06474 7.78675 4.45752 7.75345 4.49727C7.72008 4.53702 7.47686 4.61383 7.21293 4.66796C6.94899 4.72204 6.43648 4.85092 6.07402 4.95426C1.61478 6.22554 -0.684028 8.757 0.179479 11.4453C0.71819 13.1224 2.52001 14.5665 5.21272 15.4792C5.64523 15.6259 6.02016 15.764 6.04591 15.7861C6.07165 15.8083 6.11642 16.0974 6.14544 16.4285C6.3042 18.2417 7.16861 19.7795 8.60278 20.8L8.94818 21.0458L8.43505 22.4458L7.92186 23.8457L6.1136 23.8466C4.06727 23.8478 3.78137 23.8829 3.09158 24.2178C2.50014 24.505 1.88402 25.1179 1.60863 25.6932C1.41419 26.0993 0.889763 28.0426 0.889763 28.357C0.889763 28.6049 1.10085 28.9305 1.33995 29.0514C1.61687 29.1915 1.81007 29.1922 2.11691 29.054C2.43137 28.9125 2.51837 28.7183 2.81189 27.5026C3.06984 26.4342 3.20805 26.1489 3.60624 25.8628C3.93634 25.6258 4.32403 25.5252 4.90847 25.5252H5.40631V27.0152C5.40631 28.429 5.41241 28.5158 5.52588 28.716C5.66528 28.962 5.99335 29.1641 6.25316 29.1641C6.51298 29.1641 6.84105 28.962 6.98044 28.716C7.09392 28.5158 7.10001 28.429 7.10001 27.0152V25.5252H7.63443H8.1688L8.64473 25.8328C10.7735 27.2088 13.4722 27.2111 15.5953 25.8389L16.0805 25.5252H16.6149H17.1493V27.0152C17.1493 28.429 17.1554 28.5158 17.2689 28.716C17.4083 28.962 17.7364 29.1641 17.9962 29.1641C18.256 29.1641 18.5841 28.962 18.7235 28.716C18.8369 28.5158 18.843 28.429 18.843 27.0152V25.5252H19.3409C20.1757 25.5252 20.6778 25.749 21.0318 26.2789C21.1673 26.4819 21.262 26.7687 21.4455 27.5313C21.7335 28.7285 21.8163 28.9117 22.135 29.0551C22.4406 29.1927 22.6331 29.1912 22.9144 29.0489C23.1496 28.9299 23.3557 28.6011 23.3583 28.3408C23.3614 28.0327 22.8322 26.0923 22.6363 25.6932C22.3497 25.1095 21.7367 24.4976 21.1578 24.2172C20.4672 23.8828 20.1812 23.8478 18.1357 23.8466L16.3275 23.8457L15.8143 22.4458L15.3012 21.0458L15.6466 20.8C16.2789 20.35 16.9119 19.6593 17.3185 18.9754C17.7454 18.2575 18.1007 17.0792 18.1147 16.3351C18.1251 15.7825 18.1158 15.792 18.901 15.5295C22.6625 14.2717 24.6832 12.0222 24.1776 9.65549C23.7011 7.42521 21.0445 5.55172 17.1076 4.66959C16.7785 4.59586 16.4925 4.50847 16.4719 4.47544C16.4513 4.44241 16.4022 4.05724 16.3629 3.61962C16.2697 2.58392 16.2201 2.33384 16.0276 1.92835C15.707 1.25291 15.0206 0.71614 14.2814 0.562689C13.8182 0.466509 10.2588 0.486047 9.88136 0.586874ZM10.0777 2.30456C9.77353 2.4794 9.66502 2.7545 9.5884 3.54516C9.55295 3.91107 9.53579 4.22222 9.5503 4.23661C9.56481 4.25094 9.95995 4.23499 10.4284 4.20112C10.8968 4.16719 11.6601 4.13948 12.1247 4.13948C12.5892 4.13948 13.3525 4.16719 13.8209 4.20112C14.2894 4.23499 14.6845 4.25094 14.699 4.23661C14.7136 4.22222 14.6964 3.91107 14.6609 3.54516C14.5835 2.74543 14.4758 2.47632 14.1636 2.30232C13.9504 2.18353 13.8921 2.18011 12.117 2.18134C10.3437 2.18257 10.2836 2.18621 10.0777 2.30456ZM10.4557 5.87452C7.46941 6.12303 4.95127 6.87422 3.27648 8.01617C2.70434 8.40627 2.10421 9.04941 1.88589 9.50634C1.73007 9.83245 1.70839 9.93602 1.70839 10.3548C1.70839 10.7847 1.72747 10.8703 1.9013 11.2205C2.26387 11.9508 3.19292 12.739 4.38766 13.3301C4.93094 13.5989 5.97449 14.0076 6.01491 13.9676C6.02694 13.9556 5.99532 12.8997 5.94462 11.621L5.85254 9.29607L5.9689 9.06984C6.13291 8.75101 6.365 8.65399 7.50227 8.42872C10.7865 7.77802 14.085 7.81189 17.2342 8.52854C17.952 8.69184 18.1349 8.78701 18.2825 9.07382L18.4005 9.30329L18.3072 11.6253C18.2559 12.9024 18.2257 13.9589 18.24 13.9731C18.2846 14.0173 19.5804 13.4916 20.0851 13.2246C21.1984 12.6354 22.0053 11.9189 22.3502 11.2131C22.5168 10.8721 22.5378 10.7766 22.5393 10.3525C22.5408 9.92158 22.5223 9.83766 22.3484 9.48474C22.1162 9.01363 21.4498 8.32699 20.8366 7.9271C19.331 6.94515 17.1882 6.26366 14.637 5.95536C13.7846 5.85235 11.2994 5.80432 10.4557 5.87452ZM10.6666 9.68196C9.96729 9.73034 8.60617 9.91015 7.97509 10.0376L7.63635 10.1059L7.61992 10.47C7.61089 10.6702 7.65476 12.1304 7.71737 13.7149C7.83796 16.7656 7.86608 17.0142 8.16987 17.7113C8.58776 18.6701 9.51608 19.5538 10.5281 19.9564C13.0056 20.9417 15.8432 19.4139 16.3584 16.8172C16.4622 16.2937 16.6863 10.1373 16.6026 10.1055C16.4637 10.0527 14.7828 9.79399 14.2136 9.73784C13.3728 9.65498 11.4867 9.62525 10.6666 9.68196ZM10.4874 21.7287C10.4874 21.741 10.27 22.342 10.0043 23.0642L9.52116 24.3774L9.6797 24.5034C9.92771 24.7008 10.6324 24.9692 11.2208 25.0904C12.1584 25.2836 13.2146 25.159 14.1191 24.7484C14.3108 24.6614 14.5262 24.5422 14.5978 24.4836L14.7281 24.377L14.2463 23.0676C13.9814 22.3475 13.7574 21.7512 13.7487 21.7425C13.7399 21.7338 13.5805 21.7624 13.3945 21.8059C12.8322 21.9376 11.888 21.9646 11.2494 21.8673C10.9387 21.82 10.6403 21.7645 10.586 21.7439C10.5318 21.7232 10.4874 21.7164 10.4874 21.7287Z" fill="#363636"/>
</svg>
