<svg width="583" height="651" viewBox="0 0 583 651" fill="none" xmlns="http://www.w3.org/2000/svg">
<path d="M150.591 107.773C150.591 107.773 143.069 106.311 141.815 103.594C140.562 100.878 143.696 96.491 136.383 95.4454C129.069 94.3999 128.442 97.3263 125.728 90.0129C123.012 82.6994 117.998 84.5803 118.625 77.6854C119.252 70.7906 121.341 69.9552 119.67 60.7608C117.999 51.5682 119.67 55.1198 124.476 51.5682C129.281 48.0165 130.744 46.3441 128.654 43.8379C126.565 41.3301 123.222 43.6295 123.64 37.1515C124.059 30.6734 116.954 36.1059 115.283 31.7189C113.612 27.3319 114.238 28.5841 109.434 26.4965C104.628 24.4072 104.001 26.4965 104.21 20.8555C104.418 15.2146 101.075 16.4685 106.717 15.0062C106.717 15.0062 107.919 15.7373 109.798 13.5438C111.679 11.3503 114.344 7.43222 116.537 7.43222C118.731 7.43222 119.672 6.17828 121.551 7.43222C123.432 8.68615 123.274 8.99876 125.938 8.99876C128.602 8.99876 127.598 7.43221 127.003 4.76804C126.407 2.10386 131.265 3.04519 135.183 3.04519C139.101 3.04519 139.884 0.851666 142.234 1.00797C144.584 1.16428 152.264 2.41822 155.084 2.73257C157.905 3.04692 160.098 11.3521 161.352 11.9773C162.606 12.6025 169.97 13.2312 173.419 16.5224C176.866 19.8135 176.866 22.1633 181.253 24.5149C185.641 26.8647 183.134 30.7828 185.328 31.4098C187.521 32.0367 194.104 33.9176 194.731 35.1698C195.358 36.422 194.574 39.2442 197.08 39.7149C199.587 40.1856 207.11 36.4238 209.146 35.9548C211.183 35.4842 211.496 31.7241 214.787 31.4098C218.078 31.0972 226.383 31.7224 228.576 30.6265C230.77 29.5289 229.83 28.2767 232.18 29.5289C234.53 30.7828 232.963 32.0367 236.882 32.193C240.8 32.3493 243.462 31.2535 245.499 35.9531C247.537 40.6545 248.476 39.4005 247.066 44.4145C245.656 49.4285 246.752 51.6238 243.775 53.1903C240.798 54.7569 242.991 57.1084 238.29 60.5559C233.589 64.0033 232.335 64.0033 231.551 66.1968C230.768 68.3904 231.708 68.3904 226.379 70.4276C221.051 72.4648 220.424 74.502 221.365 76.8518C222.305 79.2016 223.715 80.4555 221.522 82.3364C219.328 84.2173 220.582 86.4109 223.246 87.0378C225.911 87.6648 229.671 85.4713 229.514 89.2313C229.358 92.9914 230.612 95.343 232.022 97.8491C233.432 100.357 232.335 104.273 230.456 104.744C228.576 105.215 225.127 105.684 223.561 106.937C221.994 108.191 221.524 109.392 219.33 107.773C217.136 106.154 219.33 103.019 216.98 102.549C214.63 102.078 212.123 102.392 211.496 104.742C210.869 107.092 211.339 108.19 213.376 111.01C215.414 113.831 216.668 111.637 216.353 116.024C216.041 120.411 213.845 119.628 220.898 122.448C227.949 125.269 225.443 131.38 228.264 132.007C231.084 132.634 228.734 131.851 232.495 135.299C236.255 138.746 237.823 136.238 241.897 139.373C245.972 142.508 246.378 141.567 247.741 144.387C249.105 147.207 248.792 147.364 254.119 148.932C259.447 150.499 261.797 153.319 260.857 155.044C259.918 156.767 258.193 154.573 256.627 157.237C255.06 159.901 255.687 162.722 252.396 163.349C249.105 163.976 248.949 167.58 248.322 169.46C247.695 171.341 249.888 172.281 246.284 173.847C242.681 175.414 246.284 180.428 244.874 182.465C243.464 184.502 242.681 186.852 245.345 188.733C248.009 190.614 251.769 189.673 253.494 190.614C255.216 191.554 253.65 192.024 257.412 192.651C261.172 193.278 259.449 192.808 262.113 195.472C264.777 198.136 267.754 202.523 273.239 203.621C278.723 204.718 276.686 207.224 281.073 208.008C285.46 208.791 287.341 208.791 290.789 211.299C294.236 213.807 297.056 211.611 297.996 214.275C298.936 216.94 299.877 217.567 303.01 217.567C306.145 217.567 307.084 215.373 312.098 216C317.112 216.627 315.232 219.762 317.896 217.567C320.56 215.373 326.357 214.902 329.805 221.17C333.252 227.438 336.387 227.282 339.52 228.065C342.655 228.849 342.497 229.476 346.571 229.319C350.646 229.163 351.116 227.643 352.839 229.344C354.562 231.044 355.974 231.827 358.324 231.827C360.674 231.827 362.398 230.573 366.316 231.827C370.234 233.081 374.309 234.648 379.792 234.804C385.276 234.96 381.829 234.96 386.53 236.37C391.232 237.781 399.222 234.804 400.32 233.236C401.418 231.667 402.043 224.618 401.73 222.581C401.418 220.543 398.283 217.567 398.754 214.746C399.224 211.926 400.007 211.769 400.947 207.851C401.887 203.933 402.67 202.679 405.021 201.113C407.371 199.546 408.94 197.978 410.662 198.292C412.387 198.605 415.991 202.367 415.207 205.187C414.424 208.008 414.33 212.238 415.317 215.373C416.303 218.508 415.207 222.739 420.378 224.462C425.548 226.186 431.818 224.149 433.384 226.655C434.951 229.163 436.832 224.983 441.01 224.147C445.189 223.312 444.981 223.729 453.755 223.102C462.53 222.475 467.336 223.52 472.558 222.266C477.781 221.012 480.499 221.431 480.916 219.55C481.334 217.669 482.586 207.641 477.156 207.641C471.723 207.641 469.007 207.014 469.215 204.716C469.424 202.419 470.051 197.822 473.185 197.613C476.32 197.405 478.826 198.659 482.588 195.942C486.348 193.226 481.961 191.764 488.648 190.301C495.334 188.839 494.916 189.047 497.005 184.033C499.094 179.02 499.303 175.049 507.66 174.422C516.017 173.795 515.39 168.99 521.241 165.23C527.091 161.47 529.182 159.17 533.36 160.633C537.539 162.095 538.793 163.14 543.39 160.214C547.987 157.289 554.463 153.319 555.926 156.662C557.388 160.006 556.971 159.587 555.926 162.303C554.88 165.02 554.463 164.811 559.896 165.02C565.329 165.228 561.567 170.661 560.731 173.377C559.896 176.093 558.85 180.899 561.15 180.69C563.448 180.482 565.12 176.512 569.926 178.182C574.731 179.853 576.402 178.391 578.283 184.242C580.164 190.093 582.67 190.718 581.835 193.018C580.999 195.315 580.581 191.764 579.954 197.615C579.327 203.464 571.805 204.301 569.507 203.883C567.209 203.464 567.626 201.585 563.031 203.464C558.434 205.345 554.674 208.27 550.285 209.105C545.898 209.941 548.404 218.508 545.061 224.357C541.717 230.207 538.166 241.072 537.12 243.161C536.075 245.25 531.479 243.788 532.523 246.713C533.569 249.637 537.537 252.354 537.329 257.578C537.12 262.802 536.493 264.891 537.956 265.935C539.418 266.979 538.791 271.159 536.285 270.949C533.779 270.739 533.36 268.457 530.225 270.956C527.091 273.455 527.718 282.858 525.42 283.066C523.122 283.275 524.584 282.648 519.36 283.066C514.136 283.485 511.63 281.604 509.749 281.604C507.868 281.604 514.136 289.126 513.509 293.096C512.882 297.066 510.166 304.378 508.495 308.767C506.824 313.154 506.824 314.199 508.287 316.705C509.749 319.213 508.495 324.019 506.197 324.436C503.9 324.854 501.183 323.182 498.884 321.511C496.586 319.84 494.705 318.378 494.914 313.154C495.122 307.93 494.705 299.156 492.616 297.902C490.527 296.648 484.676 299.783 482.796 300.41C480.916 301.037 477.364 302.29 474.021 302.08C470.678 301.872 469.007 300.199 468.797 296.439C468.588 292.679 468.588 285.157 471.094 283.068C473.602 280.979 473.184 280.352 477.362 279.933C481.541 279.515 483.212 279.725 485.928 278.471C488.644 277.217 487.599 271.995 487.809 269.278C488.017 266.562 486.555 265.518 491.152 265.308C495.749 265.1 494.077 259.249 490.106 258.622C486.136 257.995 485.928 257.159 479.868 257.995C473.809 258.83 472.138 254.651 466.706 257.368C461.273 260.084 464.616 260.711 455.84 260.084C447.065 259.457 443.513 260.084 438.499 256.324C433.485 252.564 437.664 245.669 437.453 243.788C437.245 241.907 437.662 238.356 434.529 237.939C431.394 237.52 432.858 240.863 426.588 239.193C420.32 237.522 421.991 234.387 418.021 234.179C414.051 233.97 417.186 238.984 413.215 236.895C409.245 234.806 411.335 231.462 407.783 232.925C404.231 234.387 405.485 241.282 404.023 243.79C402.56 246.298 404.231 249.222 407.837 250.945C411.44 252.668 411.44 255.02 415.202 255.49C418.962 255.961 421.47 258.311 418.65 260.192C415.829 262.073 414.89 261.915 411.911 262.541C408.934 263.168 412.382 267.399 408.464 268.653C404.546 269.907 403.606 270.534 403.292 272.728C402.979 274.921 410.343 279.935 414.417 280.72C418.492 281.503 419.275 282.914 416.298 286.517C413.321 290.121 413.478 295.137 415.671 297.172C417.865 299.209 417.394 300.307 418.179 301.874C418.962 303.44 423.976 304.85 422.566 310.335C421.156 315.82 422.41 314.722 423.037 319.58C423.664 324.437 427.267 327.572 422.41 329.451C417.552 331.332 417.708 329.451 413.948 331.959C410.188 334.467 410.501 330.236 409.403 328.668C408.306 327.102 404.858 328.668 402.038 334.309C399.217 339.95 400.627 339.813 396.24 341.056C391.853 342.3 393.576 342.456 388.092 344.493C382.607 346.531 382.921 349.822 383.078 354.209C383.234 358.596 384.8 361.104 381.667 363.297C378.533 365.491 380.884 369.721 378.22 372.073C375.556 374.423 377.228 374.737 374.59 377.245C371.952 379.753 374.304 379.909 368.348 380.38C362.393 380.851 362.864 382.73 360.356 384.14C357.848 385.55 356.438 387.275 355.498 386.021C354.558 384.767 354.244 382.73 353.148 382.573C352.051 382.417 349.701 382.103 348.447 385.708C347.193 389.312 349.386 388.685 346.724 391.82C344.06 394.955 339.046 396.521 337.479 400.281C335.913 404.041 336.382 404.199 331.995 410.153C327.608 416.108 322.592 417.987 320.086 420.495C317.578 423.003 314.915 423.316 312.095 428.33C309.274 433.344 308.177 435.852 301.282 438.359C294.387 440.867 293.916 441.807 291.096 444.942C288.275 448.077 290.156 449.016 290.783 450.897C291.41 452.778 290.94 457.009 284.359 458.575C277.777 460.142 277.464 459.046 271.823 459.985C266.182 460.925 266.026 467.037 263.205 471.111C260.385 475.186 257.25 474.402 255.057 472.678C252.863 470.955 252.08 470.955 249.101 472.834C246.123 474.713 242.677 479.885 242.677 485.057C242.677 490.229 243.148 509.189 244.244 513.42C245.341 517.651 249.101 519.688 246.593 521.569C244.086 523.45 243.617 526.27 244.869 528.149C246.121 530.029 250.51 530.343 248.16 534.574C245.808 538.804 244.4 548.051 241.265 552.282C238.13 556.512 237.505 556.042 237.191 560.743C236.876 565.444 238.601 575.16 237.191 579.39C235.78 583.621 236.251 581.584 235.154 589.106C234.056 596.628 235.624 597.098 232.646 597.098C229.669 597.098 231.548 595.688 226.848 599.606C222.147 603.524 224.184 608.538 220.424 609.634C216.664 610.732 214 618.723 215.096 618.881C216.193 619.037 219.483 620.291 216.193 621.545C212.904 622.799 211.648 620.291 208.672 623.738C205.695 627.186 204.597 624.209 201.62 630.477C198.644 636.745 202.404 638.782 193.001 643.483C183.598 648.185 188.77 650.849 183.756 649.281C178.742 647.714 181.875 648.81 177.174 646.616C172.472 644.423 172.316 647.087 169.966 641.602C167.617 636.118 166.048 635.491 161.191 630.948C156.333 626.404 159.78 626.561 157.743 619.978C155.706 613.396 154.139 617.158 156.02 611.673C157.901 606.188 158.528 606.188 157.743 601.801C156.96 597.414 155.55 603.524 153.825 601.801C152.1 600.079 154.296 595.533 150.848 588.795C147.401 582.056 147.244 582.213 147.244 578.453C147.244 574.693 141.916 572.185 139.252 567.327C136.588 562.469 137.842 560.119 133.14 554.164C128.439 548.209 127.97 553.225 126.245 542.724C124.523 532.226 124.208 535.202 122.954 523.762C121.7 512.324 122.327 507.623 117.94 500.728C113.553 493.833 114.964 486.938 110.575 483.02C106.188 479.102 98.039 466.566 96.3144 461.081C94.5915 455.597 94.1209 456.38 93.9645 445.881C93.8082 435.383 89.7338 424.257 89.2632 419.085C88.7925 413.913 89.4195 405.922 89.2632 402.631C89.1069 399.34 85.5031 394.17 86.599 384.611C87.6966 375.052 86.9116 371.448 88.1655 367.53C89.4194 363.612 87.6949 352.486 87.226 347.943C86.7553 343.398 85.0324 344.358 87.226 341.058C89.4195 337.758 85.972 335.721 85.0324 333.526C84.0929 331.332 87.5403 327.885 85.0324 326.16C82.5246 324.436 77.3543 326.317 77.9812 331.958C78.6082 337.599 81.4287 340.419 76.7273 343.398C72.0259 346.374 74.8464 353.269 67.0119 353.584C59.1774 353.896 54.0054 354.994 47.7375 354.211C41.4696 353.427 42.8798 347.472 36.9245 344.181C30.9692 340.89 24.545 334.622 20.0016 331.958C15.4565 329.293 15.3002 324.592 13.5774 320.832C11.8528 317.072 12.3235 314.093 15.4583 315.818C18.5931 317.541 17.3392 320.676 20.316 321.459C23.2928 322.242 26.2713 323.34 29.4044 321.303C32.5392 319.265 36.2993 317.541 39.4341 316.289C42.5689 315.035 45.5457 311.431 43.0378 310.021C40.53 308.61 39.903 309.237 31.5979 309.081C23.2928 308.925 24.703 312.216 18.7477 309.081C12.7924 305.946 14.0463 302.657 11.3821 300.463C8.71796 298.27 3.54765 295.762 5.1142 292.942C6.68074 290.121 10.4425 291.061 8.40534 289.65C6.36814 288.24 7.30772 290.121 4.01831 288.867C0.727175 287.613 0.256509 284.793 1.9811 284.166C3.70395 283.539 6.21182 284.478 9.0323 283.068C11.8528 281.658 11.0695 281.658 14.6733 277.896C18.277 274.136 18.5914 273.665 21.7245 275.388C24.8593 277.111 26.1115 278.992 29.2463 278.992C32.3794 278.992 31.7542 282.127 34.8873 281.5C38.0221 280.873 37.7078 277.425 42.8798 276.955C48.0501 276.484 46.9542 273.664 50.8723 276.798C54.7904 279.933 59.0211 276.642 58.8648 274.605C58.7085 272.568 60.4314 263.792 56.0443 261.128C51.6573 258.464 51.0304 257.21 52.4406 253.92C53.8508 250.629 54.9485 249.219 50.8741 249.063C46.7997 248.906 40.5317 250.317 42.0983 243.422C43.6648 236.527 50.7177 232.14 45.0751 230.259C39.4324 228.378 41.7839 229.788 38.1802 227.438C34.5764 225.089 28.7774 219.133 32.0685 216.469C35.3597 213.805 34.889 215.686 39.7467 209.574C44.6044 203.462 46.9542 198.919 50.716 199.388C54.4761 199.859 58.2379 199.544 58.2379 203.462C58.2379 207.381 62.9392 202.209 67.6406 201.269C72.342 200.329 76.5727 202.836 79.7075 199.859C82.8424 196.882 89.2666 194.218 92.7141 185.286C96.1615 176.354 100.707 176.824 104.154 175.256C107.602 173.689 108.855 166.951 111.049 160.527C113.242 154.102 118.256 153.475 120.294 153.161C122.331 152.848 122.958 143.916 128.911 141.094C134.867 138.274 139.41 134.356 138.783 133.416C138.156 132.476 136.59 124.798 137.373 121.036C138.156 117.276 139.881 111.165 143.328 111.007C146.776 110.849 152.104 109.44 152.104 109.44L150.591 107.773Z" stroke="#676B78" stroke-miterlimit="10"/>
<path d="M150.591 107.773C150.591 107.773 154.926 105.84 158.844 104.586C162.762 103.332 161.821 98.9447 162.919 95.0266C164.016 91.1085 167.462 93.6163 170.597 91.2665C173.732 88.9167 176.552 88.6023 179.999 89.073C183.447 89.5436 181.41 94.4013 185.797 95.3409C190.184 96.2805 190.967 94.4013 193.631 95.6535C196.295 96.9057 196.295 97.0638 199.116 96.2805C201.936 95.4972 202.407 96.2805 204.913 100.668C207.421 105.055 211.284 105.789 211.284 105.789" stroke="#676B78" stroke-miterlimit="10" stroke-linecap="round" stroke-linejoin="round" stroke-dasharray="3 3"/>
<path d="M222.403 123.185C222.403 123.185 221.211 125.271 221.211 127.778C221.211 130.286 224.221 131.539 222.403 132.951C220.584 134.361 219.645 133.734 216.98 132.951C214.316 132.167 212.435 131.384 209.302 132.011C206.167 132.638 204.915 130.868 202.095 133.789C199.274 136.711 195.827 137.338 195.67 142.039C195.514 146.74 197.708 148.619 194.417 148.934C191.125 149.246 190.969 145.33 187.209 143.92C183.449 142.51 184.545 140.316 179.843 138.591C175.142 136.867 179.06 136.084 176.24 132.48C173.419 128.876 168.091 131.853 166.368 126.839C164.645 121.825 167.622 120.1 163.704 116.809C159.786 113.518 158.846 104.586 158.846 104.586" stroke="#676B78" stroke-miterlimit="10" stroke-linecap="round" stroke-linejoin="round" stroke-dasharray="3 3"/>
<path d="M120.295 153.164C120.295 153.164 121.549 158.022 125.309 158.335C129.069 158.649 138.942 157.551 141.763 158.335C144.583 159.118 143.173 163.036 145.523 164.29C147.873 165.544 149.126 164.603 151.947 164.29C154.767 163.977 155.707 168.064 157.432 164.924C159.156 161.784 158.686 161.626 163.229 161.94C167.774 162.253 165.579 158.963 167.46 156.768C169.34 154.575 169.967 155.358 172.788 156.141C175.608 156.924 175.923 158.335 177.646 153.164C179.368 147.992 181.564 150.656 181.72 146.74C181.876 142.822 180.935 139.052 180.935 139.052" stroke="#676B78" stroke-miterlimit="10" stroke-linecap="round" stroke-linejoin="round" stroke-dasharray="3 3"/>
<path d="M195.057 148.833C195.057 148.833 196.61 151.911 198.176 156.456C199.743 161.001 201.153 160.374 205.071 162.253C208.989 164.132 211.81 164.968 215.413 166.117C219.017 167.267 220.742 167.581 229.047 167.581C237.352 167.581 240.016 168.835 243.151 167.581C246.286 166.328 249.289 166.117 249.289 166.117" stroke="#676B78" stroke-miterlimit="10" stroke-linecap="round" stroke-linejoin="round" stroke-dasharray="3 3"/>
<path d="M133.928 158.486C133.928 158.486 133.928 172.752 135.651 172.752C137.374 172.752 137.688 170.714 140.509 171.498C143.329 172.281 146.777 170.714 147.56 173.691C148.343 176.668 146.481 176.982 151.016 179.02C155.551 181.057 154.299 181.213 153.357 185.602C152.418 189.989 155.865 189.833 158.842 191.401C161.819 192.967 159.94 199.235 161.506 201.899C163.073 204.564 164.953 201.743 169.028 200.802C173.102 199.862 172.163 196.727 173.102 199.862C174.042 202.997 172.632 208.011 175.61 208.011C178.587 208.011 180.155 206.913 179.997 210.048C179.841 213.181 184.855 214.906 187.206 209.421C189.556 203.937 189.921 210.519 190.914 202.997C191.908 195.475 190.967 194.692 188.46 192.028C185.953 189.364 181.444 195.788 181.739 189.52C182.034 183.252 182.349 178.238 183.759 174.947C185.169 171.656 178.118 169.198 183.288 166.119C188.459 163.04 187.206 158.964 189.086 156.614C190.967 154.264 196.607 152.31 196.607 152.31" stroke="#676B78" stroke-miterlimit="10" stroke-linecap="round" stroke-linejoin="round" stroke-dasharray="3 3"/>
<path d="M58.9116 273.057C58.9116 273.057 62.2114 271.192 65.5547 273.057C68.8979 274.921 68.6878 274.921 74.1203 274.921C79.5529 274.921 80.4925 274.294 83.7836 277.585C87.0747 280.876 86.6041 280.249 90.5222 280.249C94.4403 280.249 96.4775 281.189 98.2004 278.995C99.9232 276.802 101.492 276.487 100.708 281.345C99.925 286.203 99.4543 287.457 102.433 289.494C105.41 291.531 105.097 290.748 106.82 295.291C108.544 299.836 111.051 299.993 114.342 302.186C117.633 304.38 118.416 301.873 120.924 307.358C123.432 312.843 127.504 313.47 128.29 311.745C129.073 310.021 128.446 309.864 130.797 306.261C133.147 302.657 132.678 301.403 133.932 298.739C135.186 296.074 137.067 296.231 135.969 290.121C134.872 284.009 133.462 285.89 134.715 279.935C135.969 273.98 133.34 276.331 136.299 273.353C139.259 270.376 139.573 266.301 141.923 267.085C144.273 267.868 145.841 267.868 145.214 271.159C144.587 274.45 144.082 276.173 145.353 276.331C146.624 276.487 146.624 275.392 150.072 274.921C153.519 274.45 155.086 273.667 155.556 276.331C156.027 278.995 156.81 279.779 155.556 281.189C154.303 282.599 153.99 280.718 154.146 285.263C154.303 289.808 150.543 290.904 150.386 292.158C150.23 293.412 148.349 294.039 150.699 294.979C153.049 295.918 154.874 290.56 156.234 289.793C157.594 289.025 159.631 289.494 161.355 286.83C163.078 284.166 163.863 282.964 165.534 284.322C167.205 285.68 166.057 286.934 169.19 287.142C172.325 287.351 171.279 287.142 173.787 288.605C176.295 290.067 178.593 290.694 177.966 286.307C177.339 281.92 176.608 280.666 178.07 280.352C179.532 280.039 179.324 282.128 180.682 280.247C182.04 278.367 180.89 277.531 180.055 276.592C179.22 275.652 174.831 273.353 177.966 270.428C181.101 267.503 186.115 268.966 186.95 267.712C187.785 266.458 187.681 261.444 184.756 261.756C181.832 262.069 181.205 262.982 178.801 261.742C176.399 260.502 174.622 263.219 172.846 258.623C171.071 254.026 168.771 252.668 173.681 249.012C178.591 245.356 181.411 244.729 185.277 241.072C189.143 237.416 189.665 236.893 194.157 236.579C198.65 236.266 204.918 232.765 204.76 230.415C204.604 228.065 200.53 229.317 198.022 229.005C195.514 228.692 193.791 228.534 194.262 225.245C194.732 221.954 195.828 218.662 192.539 217.566C189.248 216.469 188.308 217.879 188.621 215.059C188.935 212.238 187.799 208.214 187.799 208.214" stroke="#676B78" stroke-miterlimit="10" stroke-linecap="round" stroke-linejoin="round" stroke-dasharray="3 3"/>
<path d="M87.3279 373.959C87.3279 373.959 90.52 371.659 93.2363 370.406C95.9526 369.152 96.6838 370.928 99.8186 368.735C102.953 366.541 102.012 365.183 103.789 362.571C105.565 359.959 105.67 361.526 107.132 362.571C108.594 363.617 111.623 362.78 112.773 360.69C113.923 358.601 114.027 354.004 112.773 353.377C111.519 352.75 110.996 348.884 113.086 347.527C115.175 346.169 116.846 348.154 116.01 344.707C115.175 341.259 111.413 340.528 112.144 337.708C112.875 334.887 115.173 334.992 117.262 334.156C119.352 333.321 121.023 330.604 121.545 326.634C122.068 322.664 121.545 323.499 124.053 321.41C126.561 319.321 126.021 312.506 126.021 312.506" stroke="#676B78" stroke-miterlimit="10" stroke-linecap="round" stroke-linejoin="round" stroke-dasharray="3 3"/>
<path d="M315.889 217.857C315.889 217.857 317.739 224.778 320.247 226.24C322.755 227.702 326.096 227.702 325.261 230.837C324.425 233.972 321.662 229.166 320.641 234.597C319.62 240.03 317.065 241.911 320.641 244.627C324.217 247.343 329.231 247.135 330.485 249.433C331.739 251.73 329.858 252.984 327.56 253.193C325.262 253.401 325.052 252.357 321.711 254.863C318.368 257.371 316.487 260.713 314.607 262.177C312.727 263.639 310.01 261.55 308.34 265.101C306.669 268.653 310.847 273.042 312.101 274.504C313.355 275.967 312.101 278.683 309.593 279.31C307.086 279.937 311.323 288.502 307.95 290.592C304.579 292.681 307.713 294.77 302.907 294.143C298.101 293.516 292.879 295.814 293.296 292.681C293.713 289.548 294.967 288.502 295.804 286.413C296.641 284.324 296.639 279.937 294.133 279.518C291.625 279.1 291.625 282.653 286.403 276.383C281.18 270.114 280.762 267.608 278.254 267.608C275.746 267.608 274.911 268.443 269.688 269.07C264.464 269.697 265.291 271.786 259.968 269.697C254.644 267.608 256.315 265.727 251.72 266.562C247.124 267.397 246.914 267.816 244.825 264.473C242.736 261.129 241.482 267.397 234.587 266.981C227.692 266.564 230.617 262.383 224.349 263.221C218.081 264.058 222.581 260.504 218.345 259.25C214.109 257.996 211.186 263.221 212.021 267.816C212.857 272.413 213.692 274.711 215.991 278.263C218.289 281.814 222.162 287.455 218.345 288.082C214.527 288.709 214.527 281.606 209.722 281.606C204.916 281.606 205.444 280.56 204.763 275.129C204.081 269.697 200.64 263.848 204.763 261.548C208.886 259.25 208.47 257.578 213.484 255.072C218.498 252.564 222.676 246.296 222.259 244.207C221.843 242.117 224.043 238.357 218.345 235.431C212.648 232.506 213.428 228.829 208.886 229.163C204.346 229.496 204.346 229.496 204.346 229.496" stroke="#676B78" stroke-miterlimit="10" stroke-linecap="round" stroke-linejoin="round" stroke-dasharray="3 3"/>
<path d="M400.356 219.663C400.356 219.663 403.821 219.085 407.373 217.857C410.924 216.629 411.343 216.42 412.805 216.42C414.268 216.42 415.57 216.42 415.57 216.42" stroke="#676B78" stroke-miterlimit="10" stroke-linecap="round" stroke-linejoin="round" stroke-dasharray="3 3"/>
<path d="M398.629 234.455C398.629 234.455 404.03 232.431 403.611 234.455C403.193 236.478 401.585 239.821 398.629 242.119C395.673 244.417 396.571 251.103 398.629 253.611C400.687 256.119 396.3 258.625 395.046 259.46C393.792 260.296 401.128 267.818 399.341 270.952C397.554 274.086 399.016 273.669 396.927 278.893C394.837 284.117 390.24 279.101 389.196 285.579C388.153 292.057 389.615 291.684 382.093 294.378C374.571 297.071 374.571 294.147 370.393 297.071C366.214 299.996 365.379 296.444 362.035 298.534C358.692 300.623 358.692 302.712 362.035 306.264C365.379 309.816 368.512 313.084 372.482 312.6C376.452 312.115 374.571 320.889 377.079 323.814C379.587 326.739 376.452 330.082 373.527 329.038C370.603 327.992 369.349 321.516 367.051 321.516C364.753 321.516 363.916 323.161 363.081 329.234C362.245 335.308 359.738 336.978 357.021 333.844C354.305 330.709 351.38 331.546 346.783 331.127C342.186 330.709 347.41 326.113 344.067 324.232C340.724 322.352 339.68 324.832 334.037 325.368C328.396 325.905 324.634 327.548 324.007 325.368C323.381 323.189 323.172 322.353 325.678 319.01C328.186 315.667 329.648 318.1 326.932 312.6C324.216 307.099 321.5 306.891 321.291 302.294C321.083 297.697 320.426 300.623 314.188 295.607C307.948 290.593 307.948 290.593 307.948 290.593" stroke="#676B78" stroke-miterlimit="10" stroke-linecap="round" stroke-linejoin="round" stroke-dasharray="3 3"/>
<path d="M394.002 341.06C394.002 341.06 396.091 337.564 390.45 335.389C384.809 333.215 379.795 332.171 379.168 330.917C378.541 329.663 376.964 328.317 376.964 328.317" stroke="#676B78" stroke-miterlimit="10" stroke-linecap="round" stroke-linejoin="round" stroke-dasharray="3 3"/>
<path d="M117.265 334.157C117.265 334.157 120.712 336.52 124.683 335.39C128.653 334.261 126.563 337.185 130.115 339.902C133.667 342.618 136.383 343.453 140.353 344.08C144.323 344.707 145.367 344.289 148.502 346.797C151.637 349.304 155.605 345.543 158.113 349.304C160.621 353.064 162.292 354.737 166.47 353.902C170.649 353.066 169.814 352.021 174.619 348.261C179.425 344.501 183.395 342.597 186.32 343.234C189.244 343.874 183.812 351.185 191.752 350.977C199.693 350.769 200.11 342.309 205.961 344.136C211.81 345.963 212.02 350.56 217.243 348.261C222.467 345.963 224.346 343.144 228.735 344.136C233.122 345.128 237.092 349.098 242.733 348.471C248.374 347.844 252.971 348.471 253.388 350.352C253.805 352.233 250.253 351.814 251.507 356.411C252.761 361.008 255.963 363.725 253.423 369.574C250.882 375.423 250.672 378.558 252.552 381.693C254.433 384.828 259.029 388.796 255.687 390.469C252.344 392.14 249.838 393.812 247.747 399.453C245.658 405.094 252.552 408.229 248.165 410.318C243.778 412.407 252.552 412.826 253.39 415.124C254.227 417.421 258.395 418.467 259.967 424.108C261.538 429.749 266.136 429.332 268.642 429.122C271.15 428.914 269.477 429.54 273.029 423.062C276.58 416.586 279.715 412.616 281.386 409.9C283.057 407.183 289.116 410.527 288.281 401.959C287.445 393.394 285.565 401.332 285.983 390.886C286.402 380.439 280.969 377.931 284.938 377.514C288.908 377.096 292.668 384.409 295.803 384.409C298.938 384.409 297.892 380.022 295.803 378.56C293.713 377.098 292.22 370.83 291.504 367.278C290.789 363.726 290.162 363.518 293.297 360.383C296.43 357.248 292.67 354.742 298.729 353.28C304.789 351.818 307.295 357.877 309.384 349.101C311.473 340.325 309.176 340.077 315.233 335.397C321.293 330.716 324.009 325.374 324.009 325.374" stroke="#676B78" stroke-miterlimit="10" stroke-linecap="round" stroke-linejoin="round" stroke-dasharray="3 3"/>
<path d="M102.892 473.311C102.892 473.311 107.968 470.069 110.266 471.741C112.564 473.412 116.115 473.831 118.623 469.86C121.131 465.89 123.847 464.037 121.339 460.458C118.831 456.88 117.901 457.114 122.336 451.682C126.772 446.249 124.474 444.368 130.115 444.995C135.756 445.622 136.175 446.249 141.397 440.608C146.621 434.967 143.068 433.086 149.963 434.549C156.858 436.011 161.663 435.803 165.006 430.579C168.35 425.354 167.096 423.057 172.737 421.803C178.378 420.549 178.796 421.594 184.646 415.953C190.495 410.312 190.495 415.326 192.167 405.298C193.838 395.269 194.465 394.852 198.435 393.806C202.406 392.761 201.36 395.06 204.912 390.046C208.463 385.032 209.717 383.36 213.477 384.197C217.237 385.032 217.656 391.092 223.715 391.3C229.775 391.509 232.7 383.987 236.462 390.046C240.222 396.106 236.253 403.628 238.759 407.806C241.267 411.985 246.951 411.481 246.951 411.481" stroke="#676B78" stroke-miterlimit="10" stroke-linecap="round" stroke-linejoin="round" stroke-dasharray="3 3"/>
<path d="M114.209 490.55C114.209 490.55 116.116 492.633 117.16 488.454C118.205 484.275 115.684 472.549 115.684 472.549" stroke="#676B78" stroke-width="0.585595" stroke-miterlimit="10" stroke-linecap="round" stroke-linejoin="round" stroke-dasharray="3 3"/>
<path d="M125.7 539.554C125.7 539.554 137.637 542.986 138.891 547.375C140.144 551.762 141.815 551.972 148.293 554.478C154.77 556.986 155.607 551.762 156.024 558.865C156.44 565.969 161.665 569.52 163.127 571.401C164.589 573.282 165.635 582.056 169.395 583.729C173.155 585.399 168.768 596.683 173.155 599.399C177.542 602.116 180.05 598.145 178.796 607.965C177.542 617.785 181.931 616.949 177.96 623.009C173.99 629.068 176.29 626.352 175.453 631.574C174.617 636.798 177.125 638.469 175.453 640.14C173.782 641.811 169.968 641.602 169.968 641.602" stroke="#676B78" stroke-miterlimit="10" stroke-linecap="round" stroke-linejoin="round" stroke-dasharray="3 3"/>
<path d="M268.639 429.116C268.639 429.116 273.026 428.908 276.788 426.818C280.548 424.729 282.012 425.564 288.28 419.505C294.547 413.445 292.25 409.894 297.055 411.148C301.861 412.402 303.95 413.655 305.623 409.267C307.294 404.88 304.16 403.626 309.801 402.163C315.442 400.701 316.905 397.149 319.204 400.701C321.502 404.253 328.188 406.969 330.696 405.298C333.204 403.627 337.487 400.284 337.487 400.284" stroke="#676B78" stroke-miterlimit="10" stroke-linecap="round" stroke-linejoin="round" stroke-dasharray="3 3"/>
<path d="M156.588 562.077C156.588 562.077 163.962 561.792 165.006 564.089C166.05 566.387 170.855 569.522 172.528 568.06C174.199 566.597 174.471 563.462 179.662 563.254C184.853 563.046 187.361 562.419 189.451 557.195C191.54 551.97 185.272 552.181 187.988 547.375C190.705 542.569 186.943 540.688 192.375 540.688C197.808 540.688 199.27 536.123 200.941 539.554C202.612 542.986 206.374 545.911 207.627 543.195C208.881 540.478 210.135 537.554 214.314 536.927C218.493 536.3 220.582 539.643 223.298 538.597C226.014 537.552 231.028 533.792 231.239 532.121C231.447 530.45 233.484 531.076 239.179 529.613C244.872 528.151 244.21 526.058 244.21 526.058" stroke="#676B78" stroke-miterlimit="10" stroke-linecap="round" stroke-linejoin="round" stroke-dasharray="3 3"/>
<path d="M184.647 415.954C184.647 415.954 189.453 423.476 187.99 426.4C186.528 429.325 183.044 431.414 186.457 434.549C189.87 437.684 185.064 441.863 184.647 447.085C184.229 452.307 189.521 454.555 186.457 456.879C183.393 459.202 184.856 462.964 187.363 464.843C189.871 466.724 189.823 470.276 184.623 471.53C179.423 472.784 178.169 472.157 176.707 475.292C175.244 478.425 179.423 483.23 178.378 486.365C177.332 489.5 173.153 488.043 172.737 491.07C172.318 494.095 168.977 504.752 172.737 504.96C176.497 505.169 184.437 501.409 184.229 506.841C184.02 512.274 179.215 509.349 178.796 513.318C178.378 517.288 183.183 517.915 187.572 517.705C191.961 517.495 194.675 515.824 196.975 519.376C199.272 522.927 195.491 522.085 200.412 526.059C205.332 530.032 206.167 529.405 204.705 533.374C203.243 537.344 200.945 539.553 200.945 539.553" stroke="#676B78" stroke-miterlimit="10" stroke-linecap="round" stroke-linejoin="round" stroke-dasharray="3 3"/>
<path d="M434.535 237.941C434.535 237.941 435.422 233.71 436.52 232.927C437.618 232.143 438.212 225.29 438.212 225.29" stroke="#676B78" stroke-miterlimit="10" stroke-linecap="round" stroke-linejoin="round" stroke-dasharray="3 3"/>
<path d="M437.243 245.176C437.243 245.176 441.847 242.956 447.488 243.112C453.129 243.269 457.36 244.227 460.024 244.141C462.688 244.054 463.159 247.239 467.075 245.176C470.993 243.112 473.343 237.471 478.201 237.942C483.058 238.413 486.035 236.688 485.408 241.077C484.781 245.464 485.723 246.562 489.012 246.874C492.303 247.187 495.124 250.949 494.809 253.142C494.495 255.336 491.502 259.097 491.502 259.097" stroke="#676B78" stroke-miterlimit="10" stroke-linecap="round" stroke-linejoin="round" stroke-dasharray="3 3"/>
<path d="M480.339 220.47C480.339 220.47 478.203 221.177 485.567 218.041C492.932 214.904 500.767 216.314 506.564 214.904C512.361 213.494 513.929 216.785 514.242 209.89C514.555 202.995 516.123 203.622 519.727 201.897C523.33 200.173 521.764 198.45 525.211 197.979C528.659 197.509 530.383 201.583 535.083 196.569C539.784 191.555 544.328 190.457 547.933 189.674C551.537 188.891 553.262 186.07 552.478 190.458C551.695 194.845 547.777 194.218 550.756 197.509C553.732 200.8 555.143 202.054 552.009 205.187C548.875 208.322 547.671 207.158 548.196 210.795" stroke="#676B78" stroke-miterlimit="10" stroke-linecap="round" stroke-linejoin="round" stroke-dasharray="3 3"/>
<path d="M533.267 244.851C533.267 244.851 533.831 241.075 531.794 240.919C529.757 240.763 529.913 245.464 526.78 246.247C523.645 247.03 523.176 245.122 518.631 248.505C514.086 251.888 517.691 251.888 511.266 253.611C504.841 255.334 506.879 260.193 505.625 263.953C504.371 267.713 503.117 270.378 503.744 273.669C504.371 276.96 509.751 281.609 509.751 281.609" stroke="#676B78" stroke-miterlimit="10" stroke-linecap="round" stroke-linejoin="round" stroke-dasharray="3 3"/>
<path d="M485.933 278.474C485.933 278.474 489.955 281.644 489.485 284.473C489.014 287.302 488.884 298.044 488.884 298.044" stroke="#676B78" stroke-miterlimit="10" stroke-linecap="round" stroke-linejoin="round" stroke-dasharray="3 3"/>
<path d="M502.803 273.825C502.803 273.825 502.803 272.727 498.729 273.042C494.655 273.354 498.463 278.683 494.835 279.78C491.207 280.878 488.738 281.609 488.738 281.609" stroke="#676B78" stroke-miterlimit="10" stroke-linecap="round" stroke-linejoin="round" stroke-dasharray="3 3"/>
<path d="M511.266 253.611C511.266 253.611 513.147 250.007 510.639 245.619C508.131 241.232 512.677 238.411 514.243 238.724C515.81 239.036 516.56 239.304 518.458 238.699C520.355 238.097 521.138 230.887 523.958 227.911C526.779 224.934 526.466 226.5 529.914 221.172C533.361 215.844 534.615 214.904 539.629 213.65C544.643 212.396 549.046 209.677 549.046 209.677" stroke="#676B78" stroke-miterlimit="10" stroke-linecap="round" stroke-linejoin="round" stroke-dasharray="3 3"/>
<path d="M156.868 51.9102C164.152 51.9102 170.057 46.0054 170.057 38.7213C170.057 31.4373 164.152 25.5325 156.868 25.5325C149.584 25.5325 143.679 31.4373 143.679 38.7213C143.679 46.0054 149.584 51.9102 156.868 51.9102Z" fill="#26A151"/>
<path d="M164.454 38.7214C164.454 42.9104 161.057 46.3075 156.868 46.3075C152.679 46.3075 149.282 42.9104 149.282 38.7214C149.282 34.5323 152.679 31.1353 156.868 31.1353C161.057 31.1353 164.454 34.5323 164.454 38.7214Z" stroke="white" stroke-width="0.584939" stroke-miterlimit="10"/>
<path d="M156.868 51.9119V61.0281" stroke="#26A151" stroke-width="0.70196" stroke-miterlimit="10" stroke-linecap="round" stroke-linejoin="round"/>
<path d="M159.251 63.7581C159.251 65.0745 158.185 66.1409 156.868 66.1409C155.552 66.1409 154.485 65.0745 154.485 63.7581C154.485 62.4416 155.552 61.3752 156.868 61.3752C158.185 61.3752 159.251 62.4416 159.251 63.7581Z" stroke="#26A151" stroke-width="0.70196" stroke-miterlimit="10" stroke-linecap="round" stroke-linejoin="round"/>
<path d="M127.054 216.45C128.733 209.362 124.348 202.255 117.26 200.576C110.172 198.897 103.065 203.282 101.386 210.37C99.707 217.458 104.092 224.565 111.18 226.244C118.268 227.923 125.375 223.538 127.054 216.45Z" fill="#26A151"/>
<path d="M121.796 213.424C121.796 217.613 118.399 221.01 114.21 221.01C110.021 221.01 106.624 217.613 106.624 213.424C106.624 209.235 110.021 205.838 114.21 205.838C118.401 205.838 121.796 209.235 121.796 213.424Z" stroke="white" stroke-width="0.584939" stroke-miterlimit="10"/>
<path d="M114.21 226.613V235.731" stroke="#26A151" stroke-width="0.70196" stroke-miterlimit="10" stroke-linecap="round" stroke-linejoin="round"/>
<path d="M116.593 238.459C116.593 239.776 115.526 240.842 114.21 240.842C112.893 240.842 111.827 239.776 111.827 238.459C111.827 237.143 112.893 236.077 114.21 236.077C115.526 236.077 116.593 237.143 116.593 238.459Z" stroke="#26A151" stroke-width="0.70196" stroke-miterlimit="10" stroke-linecap="round" stroke-linejoin="round"/>
<path d="M133.929 393.551C141.213 393.551 147.118 387.646 147.118 380.362C147.118 373.078 141.213 367.173 133.929 367.173C126.645 367.173 120.74 373.078 120.74 380.362C120.74 387.646 126.645 393.551 133.929 393.551Z" fill="#26A151"/>
<path d="M141.515 380.362C141.515 384.551 138.118 387.948 133.929 387.948C129.74 387.948 126.343 384.551 126.343 380.362C126.343 376.173 129.74 372.776 133.929 372.776C138.118 372.776 141.515 376.173 141.515 380.362Z" stroke="white" stroke-width="0.584939" stroke-miterlimit="10"/>
<path d="M133.929 393.552V402.669" stroke="#26A151" stroke-width="0.70196" stroke-miterlimit="10" stroke-linecap="round" stroke-linejoin="round"/>
<path d="M136.312 405.399C136.312 406.715 135.245 407.781 133.929 407.781C132.612 407.781 131.546 406.715 131.546 405.399C131.546 404.082 132.612 403.016 133.929 403.016C135.243 403.016 136.312 404.082 136.312 405.399Z" stroke="#26A151" stroke-width="0.70196" stroke-miterlimit="10" stroke-linecap="round" stroke-linejoin="round"/>
<path d="M149.281 497.145C156.565 497.145 162.47 491.24 162.47 483.956C162.47 476.672 156.565 470.767 149.281 470.767C141.997 470.767 136.092 476.672 136.092 483.956C136.092 491.24 141.997 497.145 149.281 497.145Z" fill="#26A151"/>
<path d="M156.868 483.956C156.868 488.145 153.471 491.542 149.282 491.542C145.093 491.542 141.696 488.145 141.696 483.956C141.696 479.767 145.093 476.37 149.282 476.37C153.471 476.37 156.868 479.765 156.868 483.956Z" stroke="white" stroke-width="0.584939" stroke-miterlimit="10"/>
<path d="M149.282 497.145V506.261" stroke="#26A151" stroke-width="0.70196" stroke-miterlimit="10" stroke-linecap="round" stroke-linejoin="round"/>
<path d="M151.665 508.991C151.665 510.308 150.598 511.374 149.282 511.374C147.965 511.374 146.899 510.308 146.899 508.991C146.899 507.675 147.965 506.608 149.282 506.608C150.598 506.608 151.665 507.675 151.665 508.991Z" stroke="#26A151" stroke-width="0.70196" stroke-miterlimit="10" stroke-linecap="round" stroke-linejoin="round"/>
<path d="M248.69 230.952C255.974 230.952 261.879 225.047 261.879 217.763C261.879 210.479 255.974 204.574 248.69 204.574C241.406 204.574 235.501 210.479 235.501 217.763C235.501 225.047 241.406 230.952 248.69 230.952Z" fill="#26A151"/>
<path d="M256.276 217.763C256.276 221.952 252.879 225.349 248.69 225.349C244.501 225.349 241.104 221.952 241.104 217.763C241.104 213.574 244.501 210.177 248.69 210.177C252.881 210.177 256.276 213.573 256.276 217.763Z" stroke="white" stroke-miterlimit="10"/>
<path d="M248.691 230.952V240.068" stroke="#26A151" stroke-miterlimit="10" stroke-linecap="round" stroke-linejoin="round"/>
<path d="M251.074 242.798C251.074 244.114 250.007 245.181 248.691 245.181C247.374 245.181 246.308 244.114 246.308 242.798C246.308 241.481 247.374 240.415 248.691 240.415C250.007 240.415 251.074 241.481 251.074 242.798Z" stroke="#26A151" stroke-miterlimit="10" stroke-linecap="round" stroke-linejoin="round"/>
<path d="M334.189 369.378C341.473 369.378 347.378 363.473 347.378 356.189C347.378 348.905 341.473 343 334.189 343C326.905 343 321 348.905 321 356.189C321 363.473 326.905 369.378 334.189 369.378Z" fill="#26A151"/>
<path d="M341.776 356.189C341.776 360.378 338.378 363.776 334.189 363.776C330 363.776 326.603 360.378 326.603 356.189C326.603 352 330 348.603 334.189 348.603C338.38 348.603 341.776 351.999 341.776 356.189Z" stroke="white" stroke-miterlimit="10"/>
<path d="M334.19 369.378V378.494" stroke="#26A151" stroke-miterlimit="10" stroke-linecap="round" stroke-linejoin="round"/>
<path d="M336.573 381.224C336.573 382.54 335.506 383.607 334.19 383.607C332.874 383.607 331.807 382.54 331.807 381.224C331.807 379.907 332.874 378.841 334.19 378.841C335.506 378.841 336.573 379.907 336.573 381.224Z" stroke="#26A151" stroke-miterlimit="10" stroke-linecap="round" stroke-linejoin="round"/>
<path d="M244.189 435.378C251.473 435.378 257.378 429.473 257.378 422.189C257.378 414.905 251.473 409 244.189 409C236.905 409 231 414.905 231 422.189C231 429.473 236.905 435.378 244.189 435.378Z" fill="#26A151"/>
<path d="M251.775 422.189C251.775 426.378 248.378 429.776 244.189 429.776C240 429.776 236.603 426.378 236.603 422.189C236.603 418 240 414.603 244.189 414.603C248.38 414.603 251.775 417.999 251.775 422.189Z" stroke="white" stroke-miterlimit="10"/>
<path d="M244.19 435.378V444.494" stroke="#26A151" stroke-miterlimit="10" stroke-linecap="round" stroke-linejoin="round"/>
<path d="M246.573 447.224C246.573 448.54 245.506 449.607 244.19 449.607C242.873 449.607 241.807 448.54 241.807 447.224C241.807 445.907 242.873 444.841 244.19 444.841C245.506 444.841 246.573 445.907 246.573 447.224Z" stroke="#26A151" stroke-miterlimit="10" stroke-linecap="round" stroke-linejoin="round"/>
<path d="M167.189 601.378C174.473 601.378 180.378 595.473 180.378 588.189C180.378 580.905 174.473 575 167.189 575C159.905 575 154 580.905 154 588.189C154 595.473 159.905 601.378 167.189 601.378Z" fill="#26A151"/>
<path d="M174.775 588.189C174.775 592.378 171.378 595.776 167.189 595.776C163 595.776 159.603 592.378 159.603 588.189C159.603 584 163 580.603 167.189 580.603C171.38 580.603 174.775 583.999 174.775 588.189Z" stroke="white" stroke-miterlimit="10"/>
<path d="M167.19 601.378V610.494" stroke="#26A151" stroke-miterlimit="10" stroke-linecap="round" stroke-linejoin="round"/>
<path d="M169.573 613.224C169.573 614.54 168.506 615.607 167.19 615.607C165.873 615.607 164.807 614.54 164.807 613.224C164.807 611.907 165.873 610.841 167.19 610.841C168.506 610.841 169.573 611.907 169.573 613.224Z" stroke="#26A151" stroke-miterlimit="10" stroke-linecap="round" stroke-linejoin="round"/>
<path d="M65.1889 303.378C72.4729 303.378 78.3777 297.473 78.3777 290.189C78.3777 282.905 72.4729 277 65.1889 277C57.9048 277 52 282.905 52 290.189C52 297.473 57.9048 303.378 65.1889 303.378Z" fill="#26A151"/>
<path d="M72.7753 290.189C72.7753 294.378 69.3782 297.776 65.1892 297.776C61.0001 297.776 57.603 294.378 57.603 290.189C57.603 286 61.0001 282.603 65.1892 282.603C69.3799 282.603 72.7753 285.999 72.7753 290.189Z" stroke="white" stroke-miterlimit="10"/>
<path d="M65.1902 303.378V312.494" stroke="#26A151" stroke-miterlimit="10" stroke-linecap="round" stroke-linejoin="round"/>
<path d="M67.5726 315.224C67.5726 316.54 66.5062 317.607 65.1897 317.607C63.8733 317.607 62.8069 316.54 62.8069 315.224C62.8069 313.907 63.8733 312.841 65.1897 312.841C66.5062 312.841 67.5726 313.907 67.5726 315.224Z" stroke="#26A151" stroke-miterlimit="10" stroke-linecap="round" stroke-linejoin="round"/>
<path d="M175.189 164.378C182.473 164.378 188.378 158.473 188.378 151.189C188.378 143.905 182.473 138 175.189 138C167.905 138 162 143.905 162 151.189C162 158.473 167.905 164.378 175.189 164.378Z" fill="#26A151"/>
<path d="M182.775 151.189C182.775 155.378 179.378 158.776 175.189 158.776C171 158.776 167.603 155.378 167.603 151.189C167.603 147 171 143.603 175.189 143.603C179.38 143.603 182.775 146.999 182.775 151.189Z" stroke="white" stroke-miterlimit="10"/>
<path d="M175.19 164.378V173.494" stroke="#26A151" stroke-miterlimit="10" stroke-linecap="round" stroke-linejoin="round"/>
<path d="M177.573 176.224C177.573 177.54 176.506 178.607 175.19 178.607C173.873 178.607 172.807 177.54 172.807 176.224C172.807 174.907 173.873 173.841 175.19 173.841C176.506 173.841 177.573 174.907 177.573 176.224Z" stroke="#26A151" stroke-miterlimit="10" stroke-linecap="round" stroke-linejoin="round"/>
<path d="M149.189 126.378C156.473 126.378 162.378 120.473 162.378 113.189C162.378 105.905 156.473 100 149.189 100C141.905 100 136 105.905 136 113.189C136 120.473 141.905 126.378 149.189 126.378Z" fill="#26A151"/>
<path d="M156.775 113.189C156.775 117.378 153.378 120.776 149.189 120.776C145 120.776 141.603 117.378 141.603 113.189C141.603 109 145 105.603 149.189 105.603C153.38 105.603 156.775 108.999 156.775 113.189Z" stroke="white" stroke-miterlimit="10"/>
<path d="M149.19 126.378V135.494" stroke="#26A151" stroke-miterlimit="10" stroke-linecap="round" stroke-linejoin="round"/>
<path d="M151.573 138.224C151.573 139.54 150.506 140.607 149.19 140.607C147.873 140.607 146.807 139.54 146.807 138.224C146.807 136.907 147.873 135.841 149.19 135.841C150.506 135.841 151.573 136.907 151.573 138.224Z" stroke="#26A151" stroke-miterlimit="10" stroke-linecap="round" stroke-linejoin="round"/>
<path d="M186.189 109.378C193.473 109.378 199.378 103.473 199.378 96.1889C199.378 88.9049 193.473 83 186.189 83C178.905 83 173 88.9049 173 96.1889C173 103.473 178.905 109.378 186.189 109.378Z" fill="#26A151"/>
<path d="M193.775 96.1894C193.775 100.378 190.378 103.776 186.189 103.776C182 103.776 178.603 100.378 178.603 96.1894C178.603 92.0004 182 88.6033 186.189 88.6033C190.38 88.6033 193.775 91.9986 193.775 96.1894Z" stroke="white" stroke-miterlimit="10"/>
<path d="M186.19 109.378V118.494" stroke="#26A151" stroke-miterlimit="10" stroke-linecap="round" stroke-linejoin="round"/>
<path d="M188.573 121.224C188.573 122.54 187.506 123.607 186.19 123.607C184.873 123.607 183.807 122.54 183.807 121.224C183.807 119.907 184.873 118.841 186.19 118.841C187.506 118.841 188.573 119.907 188.573 121.224Z" stroke="#26A151" stroke-miterlimit="10" stroke-linecap="round" stroke-linejoin="round"/>
<path d="M228.189 142.378C235.473 142.378 241.378 136.473 241.378 129.189C241.378 121.905 235.473 116 228.189 116C220.905 116 215 121.905 215 129.189C215 136.473 220.905 142.378 228.189 142.378Z" fill="#26A151"/>
<path d="M235.775 129.189C235.775 133.378 232.378 136.776 228.189 136.776C224 136.776 220.603 133.378 220.603 129.189C220.603 125 224 121.603 228.189 121.603C232.38 121.603 235.775 124.999 235.775 129.189Z" stroke="white" stroke-miterlimit="10"/>
<path d="M228.19 142.378V151.494" stroke="#26A151" stroke-miterlimit="10" stroke-linecap="round" stroke-linejoin="round"/>
<path d="M230.573 154.224C230.573 155.54 229.506 156.607 228.19 156.607C226.873 156.607 225.807 155.54 225.807 154.224C225.807 152.907 226.873 151.841 228.19 151.841C229.506 151.841 230.573 152.907 230.573 154.224Z" stroke="#26A151" stroke-miterlimit="10" stroke-linecap="round" stroke-linejoin="round"/>
<path d="M207.189 55.3777C214.473 55.3777 220.378 49.4729 220.378 42.1889C220.378 34.9049 214.473 29 207.189 29C199.905 29 194 34.9049 194 42.1889C194 49.4729 199.905 55.3777 207.189 55.3777Z" fill="#26A151"/>
<path d="M214.775 42.1894C214.775 46.3784 211.378 49.7755 207.189 49.7755C203 49.7755 199.603 46.3784 199.603 42.1894C199.603 38.0004 203 34.6033 207.189 34.6033C211.38 34.6033 214.775 37.9986 214.775 42.1894Z" stroke="white" stroke-miterlimit="10"/>
<path d="M207.19 55.3779V64.4941" stroke="#26A151" stroke-miterlimit="10" stroke-linecap="round" stroke-linejoin="round"/>
<path d="M209.573 67.2239C209.573 68.5403 208.506 69.6067 207.19 69.6067C205.873 69.6067 204.807 68.5403 204.807 67.2239C204.807 65.9074 205.873 64.8411 207.19 64.8411C208.506 64.8411 209.573 65.9074 209.573 67.2239Z" stroke="#26A151" stroke-miterlimit="10" stroke-linecap="round" stroke-linejoin="round"/>
<path d="M360.189 255.378C367.473 255.378 373.378 249.473 373.378 242.189C373.378 234.905 367.473 229 360.189 229C352.905 229 347 234.905 347 242.189C347 249.473 352.905 255.378 360.189 255.378Z" fill="#26A151"/>
<path d="M367.775 242.189C367.775 246.378 364.378 249.776 360.189 249.776C356 249.776 352.603 246.378 352.603 242.189C352.603 238 356 234.603 360.189 234.603C364.38 234.603 367.775 237.999 367.775 242.189Z" stroke="white" stroke-miterlimit="10"/>
<path d="M360.19 255.378V264.494" stroke="#26A151" stroke-miterlimit="10" stroke-linecap="round" stroke-linejoin="round"/>
<path d="M362.573 267.224C362.573 268.54 361.506 269.607 360.19 269.607C358.873 269.607 357.807 268.54 357.807 267.224C357.807 265.907 358.873 264.841 360.19 264.841C361.506 264.841 362.573 265.907 362.573 267.224Z" stroke="#26A151" stroke-miterlimit="10" stroke-linecap="round" stroke-linejoin="round"/>
<path d="M403.189 303.378C410.473 303.378 416.378 297.473 416.378 290.189C416.378 282.905 410.473 277 403.189 277C395.905 277 390 282.905 390 290.189C390 297.473 395.905 303.378 403.189 303.378Z" fill="#26A151"/>
<path d="M410.775 290.189C410.775 294.378 407.378 297.776 403.189 297.776C399 297.776 395.603 294.378 395.603 290.189C395.603 286 399 282.603 403.189 282.603C407.38 282.603 410.775 285.999 410.775 290.189Z" stroke="white" stroke-miterlimit="10"/>
<path d="M403.19 303.378V312.494" stroke="#26A151" stroke-miterlimit="10" stroke-linecap="round" stroke-linejoin="round"/>
<path d="M405.573 315.224C405.573 316.54 404.506 317.607 403.19 317.607C401.873 317.607 400.807 316.54 400.807 315.224C400.807 313.907 401.873 312.841 403.19 312.841C404.506 312.841 405.573 313.907 405.573 315.224Z" stroke="#26A151" stroke-miterlimit="10" stroke-linecap="round" stroke-linejoin="round"/>
<path d="M530.189 169.378C537.473 169.378 543.378 163.473 543.378 156.189C543.378 148.905 537.473 143 530.189 143C522.905 143 517 148.905 517 156.189C517 163.473 522.905 169.378 530.189 169.378Z" fill="#26A151"/>
<path d="M537.775 156.189C537.775 160.378 534.378 163.776 530.189 163.776C526 163.776 522.603 160.378 522.603 156.189C522.603 152 526 148.603 530.189 148.603C534.38 148.603 537.775 151.999 537.775 156.189Z" stroke="white" stroke-miterlimit="10"/>
<path d="M530.19 169.378V178.494" stroke="#26A151" stroke-miterlimit="10" stroke-linecap="round" stroke-linejoin="round"/>
<path d="M532.573 181.224C532.573 182.54 531.506 183.607 530.19 183.607C528.873 183.607 527.807 182.54 527.807 181.224C527.807 179.907 528.873 178.841 530.19 178.841C531.506 178.841 532.573 179.907 532.573 181.224Z" stroke="#26A151" stroke-miterlimit="10" stroke-linecap="round" stroke-linejoin="round"/>
<path d="M519.189 258.378C526.473 258.378 532.378 252.473 532.378 245.189C532.378 237.905 526.473 232 519.189 232C511.905 232 506 237.905 506 245.189C506 252.473 511.905 258.378 519.189 258.378Z" fill="#26A151"/>
<path d="M526.775 245.189C526.775 249.378 523.378 252.776 519.189 252.776C515 252.776 511.603 249.378 511.603 245.189C511.603 241 515 237.603 519.189 237.603C523.38 237.603 526.775 240.999 526.775 245.189Z" stroke="white" stroke-miterlimit="10"/>
<path d="M519.19 258.378V267.494" stroke="#26A151" stroke-miterlimit="10" stroke-linecap="round" stroke-linejoin="round"/>
<path d="M521.573 270.224C521.573 271.54 520.506 272.607 519.19 272.607C517.873 272.607 516.807 271.54 516.807 270.224C516.807 268.907 517.873 267.841 519.19 267.841C520.506 267.841 521.573 268.907 521.573 270.224Z" stroke="#26A151" stroke-miterlimit="10" stroke-linecap="round" stroke-linejoin="round"/>
<path d="M503.579 219.97C510.863 219.97 516.767 214.065 516.767 206.781C516.767 199.497 510.863 193.593 503.579 193.593C496.294 193.593 490.39 199.497 490.39 206.781C490.39 214.065 496.294 219.97 503.579 219.97Z" fill="#26A151"/>
<path d="M511.165 206.781C511.165 210.97 507.768 214.368 503.579 214.368C499.39 214.368 495.993 210.97 495.993 206.781C495.993 202.592 499.39 199.195 503.579 199.195C507.768 199.195 511.165 202.592 511.165 206.781Z" stroke="white" stroke-miterlimit="10"/>
<path d="M503.579 219.972V229.088" stroke="#26A151" stroke-miterlimit="10" stroke-linecap="round" stroke-linejoin="round"/>
<path d="M505.962 231.816C505.962 233.133 504.895 234.199 503.579 234.199C502.262 234.199 501.196 233.133 501.196 231.816C501.196 230.5 502.262 229.434 503.579 229.434C504.895 229.434 505.962 230.502 505.962 231.816Z" stroke="#26A151" stroke-miterlimit="10" stroke-linecap="round" stroke-linejoin="round"/>
<path d="M192.189 303.378C199.473 303.378 205.378 297.473 205.378 290.189C205.378 282.905 199.473 277 192.189 277C184.905 277 179 282.905 179 290.189C179 297.473 184.905 303.378 192.189 303.378Z" fill="#26A151"/>
<path d="M199.775 290.189C199.775 294.378 196.377 297.775 192.188 297.775C187.999 297.775 184.602 294.378 184.602 290.189C184.602 286 187.999 282.603 192.188 282.603C196.379 282.603 199.775 285.998 199.775 290.189Z" stroke="white" stroke-miterlimit="10"/>
<path d="M192.189 303.377V312.494" stroke="#26A151" stroke-miterlimit="10" stroke-linecap="round" stroke-linejoin="round"/>
<path d="M194.572 315.224C194.572 316.541 193.505 317.607 192.189 317.607C190.873 317.607 189.806 316.541 189.806 315.224C189.806 313.908 190.873 312.841 192.189 312.841C193.505 312.841 194.572 313.908 194.572 315.224Z" stroke="#26A151" stroke-miterlimit="10" stroke-linecap="round" stroke-linejoin="round"/>
<path d="M223.189 503.378C230.473 503.378 236.378 497.473 236.378 490.189C236.378 482.905 230.473 477 223.189 477C215.905 477 210 482.905 210 490.189C210 497.473 215.905 503.378 223.189 503.378Z" fill="#26A151"/>
<path d="M230.775 490.189C230.775 494.378 227.377 497.775 223.188 497.775C218.999 497.775 215.602 494.378 215.602 490.189C215.602 486 218.999 482.603 223.188 482.603C227.379 482.603 230.775 485.998 230.775 490.189Z" stroke="white" stroke-miterlimit="10"/>
<path d="M223.189 503.377V512.494" stroke="#26A151" stroke-miterlimit="10" stroke-linecap="round" stroke-linejoin="round"/>
<path d="M225.572 515.224C225.572 516.541 224.505 517.607 223.189 517.607C221.873 517.607 220.806 516.541 220.806 515.224C220.806 513.908 221.873 512.841 223.189 512.841C224.505 512.841 225.572 513.908 225.572 515.224Z" stroke="#26A151" stroke-miterlimit="10" stroke-linecap="round" stroke-linejoin="round"/>
<path d="M220.428 569.829C221.592 562.639 216.706 555.867 209.516 554.703C202.326 553.539 195.554 558.424 194.39 565.614C193.226 572.804 198.111 579.576 205.301 580.74C212.491 581.904 219.264 577.019 220.428 569.829Z" fill="#26A151"/>
<path d="M215.034 567.697C215.034 571.886 211.637 575.283 207.448 575.283C203.259 575.283 199.862 571.886 199.862 567.697C199.862 563.508 203.259 560.111 207.448 560.111C211.637 560.111 215.034 563.508 215.034 567.697Z" stroke="white" stroke-miterlimit="10"/>
<path d="M207.447 580.886V590.002" stroke="#26A151" stroke-miterlimit="10" stroke-linecap="round" stroke-linejoin="round"/>
<path d="M209.829 592.732C209.829 594.049 208.763 595.115 207.447 595.115C206.13 595.115 205.064 594.049 205.064 592.732C205.064 591.416 206.13 590.349 207.447 590.349C208.763 590.349 209.829 591.416 209.829 592.732Z" stroke="#26A151" stroke-miterlimit="10" stroke-linecap="round" stroke-linejoin="round"/>
</svg>
