<svg width="33" height="33" viewBox="0 0 33 33" fill="none" xmlns="http://www.w3.org/2000/svg">
<mask id="path-1-inside-1_665_191" fill="white">
<path fill-rule="evenodd" clip-rule="evenodd" d="M2.05105 0.0955739C1.36642 0.282284 0.836835 0.678503 0.439453 1.30117C-0.0217111 2.02373 0.000164245 1.51564 0.000164245 11.5124C0.000164245 17.2353 0.0231843 20.5843 0.0640735 20.8062C0.212114 21.6096 0.810126 22.4305 1.48636 22.7586C2.03038 23.0226 2.04017 23.0189 2.17136 22.5056C2.32163 21.9173 2.32385 21.9322 2.07419 21.8408C1.95585 21.7974 1.72908 21.6213 1.5703 21.4493C1.04605 20.8818 1.08122 21.591 1.08122 11.5804C1.08122 5.40943 1.10239 2.60756 1.15066 2.37944C1.23759 1.96879 1.53201 1.57128 1.9369 1.31772L2.24767 1.12315H13.5719H24.8961L25.1505 1.2624C25.73 1.57972 26.0175 2.05992 26.0597 2.78158L26.0889 3.28072H26.6212H27.1536V2.87561C27.1536 2.04807 26.8508 1.30684 26.2953 0.774788C25.9123 0.407938 25.4779 0.170284 25.0043 0.0684594C24.7616 0.0163559 21.5476 -0.00277238 13.5261 0.000319052C4.13512 0.00386132 2.33237 0.0188677 2.05105 0.0955739ZM2.16227 2.73328V3.28072H2.70279H3.24332V2.73328V2.18583H2.70279H2.16227V2.73328ZM4.38796 2.73328V3.28072H4.92849H5.46901V2.73328V2.18583H4.92849H4.38796V2.73328ZM6.55006 2.73328V3.28072H7.09059H7.63112V2.73328V2.18583H7.09059H6.55006V2.73328ZM5.47588 4.44529C4.31579 4.67599 3.45203 5.64715 3.30392 6.88739C3.26112 7.24535 3.2451 10.5107 3.25756 16.3227C3.27531 24.581 3.28453 25.2341 3.38773 25.5422C3.64706 26.3165 4.29474 26.9974 5.07526 27.3164C5.43671 27.4641 5.44256 27.4644 9.2368 27.4839L13.0364 27.5035V26.9552V26.407L9.33218 26.3884C5.72999 26.3704 5.62011 26.3662 5.34113 26.2354C4.98438 26.0681 4.65905 25.7444 4.50694 25.4052C4.39616 25.1583 4.3907 24.717 4.38936 15.9503C4.38815 7.83717 4.39941 6.72664 4.48532 6.51848C4.64112 6.14075 4.85707 5.89949 5.22291 5.69423L5.5644 5.50269H16.8201C27.074 5.50269 28.0959 5.51203 28.3029 5.60734C28.626 5.75612 28.9823 6.09096 29.1446 6.39824L29.2839 6.66197V15.9363V25.2106L29.1091 25.5246L28.9343 25.8385L29.2308 26.1042C29.7392 26.5595 29.7335 26.5575 29.8855 26.3413C29.9592 26.2366 30.0971 25.9828 30.1922 25.7773L30.365 25.4038V15.9363V6.46876L30.1614 6.03345C29.9209 5.51911 29.439 4.97927 29.0088 4.74213C28.3149 4.35963 28.9026 4.37695 16.8201 4.38359C10.7344 4.38694 5.62952 4.41469 5.47588 4.44529ZM5.46901 7.11023V7.66025H6.01208H6.55522L6.53671 7.12891L6.51827 6.59757L5.99364 6.57889L5.46901 6.56015V7.11023ZM7.63112 7.11023V7.66025H8.17418H8.71732L8.69881 7.12891L8.68037 6.59757L8.15574 6.57889L7.63112 6.56015V7.11023ZM9.79322 7.11281V7.66025H10.3337H10.8743V7.11281V6.56537H10.3337H9.79322V7.11281ZM21.7484 11.3716V13.9236L21.5451 13.8825C21.4332 13.8598 21.19 13.8232 21.0046 13.8011L20.6673 13.761V11.8377V9.91442H20.095H19.5227V11.8377V13.761L19.1855 13.8011C19 13.8232 18.7568 13.8598 18.6449 13.8825L18.4416 13.9236V13.0139V12.1042H17.9011H17.3606L17.3605 13.183L17.3605 14.2618L16.8722 14.4872C16.6037 14.6111 16.3604 14.7222 16.3317 14.734C16.303 14.7459 16.2795 14.0285 16.2795 13.14V11.5245H15.739H15.1985L15.1967 13.5372L15.1949 15.5498L14.6562 16.1106L14.1174 16.6714V14.6454V12.6194H13.5769H13.0364V15.6041C13.0364 18.4405 13.03 18.6079 12.9067 18.9693C12.6133 19.8304 12.5594 20.2064 12.5594 21.3946V22.5378H9.01423H5.46901V23.0852V23.6327L9.14141 23.6339L12.8138 23.6351L13.0518 24.2658C13.4121 25.2203 13.911 25.9905 14.6897 26.7944C16.1719 28.3246 17.9919 29.1068 20.0708 29.107C21.5098 29.1071 22.958 28.6872 24.1533 27.923C24.2981 27.8304 24.4382 27.7546 24.4646 27.7546C24.4909 27.7546 25.6728 28.9284 27.0908 30.363C28.9717 32.2658 29.7082 32.9714 29.8135 32.9714C29.893 32.9714 30.0352 32.9303 30.1297 32.88C30.4021 32.7352 31.9713 31.0911 32.0184 30.9012C32.0443 30.7965 32.0235 30.6603 31.9641 30.547C31.9111 30.4458 30.7125 29.195 29.3005 27.7675L26.7333 25.1719L26.9101 24.8048C27.0074 24.6029 27.1518 24.2566 27.231 24.0352L27.3751 23.6327H27.8049H28.2347V23.0852V22.5378H27.9326H27.6306V21.3946C27.6306 20.2064 27.5767 19.8304 27.2833 18.9693C27.1609 18.6101 27.1536 18.4387 27.1536 15.894V13.1991H26.6131H26.0726V14.9352V16.6714L25.5338 16.1106L24.9951 15.5498L24.9933 13.2796L24.9915 11.0093H24.451H23.9105V12.8824C23.9105 13.9178 23.8857 14.7459 23.8552 14.734C23.8248 14.7222 23.5825 14.6111 23.3168 14.4872L22.8338 14.2618L22.8316 11.5406L22.8294 8.81954H22.2889H21.7484V11.3716ZM8.71217 18.1235V21.4429H9.25327H9.79436L9.77789 18.1421L9.76142 14.8414L9.2368 14.8227L8.71217 14.804V18.1235ZM19.375 14.8795C17.191 15.1131 15.2241 16.5298 14.2418 18.5769C13.8007 19.4959 13.665 20.0643 13.6263 21.1531C13.6021 21.8344 13.6201 22.1937 13.6999 22.6232C14.0849 24.6971 15.3346 26.3674 17.2016 27.3033C18.1425 27.775 18.8045 27.9526 19.7854 27.9963C21.7014 28.0817 23.3338 27.4438 24.6782 26.084C25.5416 25.2107 26.0738 24.2807 26.406 23.0643C26.519 22.6507 26.5416 22.386 26.5446 21.4429C26.5488 20.1049 26.4471 19.6168 25.9473 18.5769C24.9378 16.4765 23.0155 15.1141 20.7258 14.8762C20.3714 14.8393 20.0345 14.8131 19.977 14.8178C19.9195 14.8225 19.6486 14.8503 19.375 14.8795ZM19.5863 15.9752C17.6221 16.1434 15.8474 17.4674 15.0818 19.3356C14.4207 20.9487 14.5997 22.933 15.5381 24.3942C16.1206 25.3009 16.8089 25.9107 17.7739 26.3748C18.6585 26.8002 19.0243 26.8798 20.095 26.8798C21.1658 26.8798 21.5315 26.8002 22.4161 26.3748C23.678 25.768 24.6104 24.7675 25.1235 23.4698C25.5743 22.3296 25.6246 20.9157 25.2551 19.7684C24.4583 17.2936 22.1585 15.7548 19.5863 15.9752ZM10.8743 18.9633V21.4429H11.4148H11.9553V18.9633V16.4837H11.4148H10.8743V18.9633ZM19.0592 17.1644C18.3798 17.3311 18.4416 17.1055 18.4416 19.4164V21.4429H17.9011H17.3606L17.3579 19.7201L17.3552 17.9972L16.9207 18.4616C16.4049 19.0129 16.0091 19.766 15.8593 20.4813C15.7581 20.9644 15.7615 22.1765 15.8648 22.4251C15.9087 22.5308 16.1713 22.5378 20.1006 22.5378H24.2896L24.3385 22.3607C24.3654 22.2633 24.387 21.8213 24.3864 21.3785C24.3856 20.7123 24.3601 20.4957 24.2385 20.1226C24.0249 19.4668 23.6976 18.9117 23.2381 18.4253L22.8337 17.9972L22.8315 19.7201L22.8294 21.4429H22.2898H21.7502L21.7334 19.398L21.7166 17.3532L21.3986 17.2491C21.2237 17.1919 20.988 17.1274 20.8748 17.1059L20.669 17.0669L20.6523 19.2388L20.6355 21.4107H20.095H19.5545L19.5378 19.237C19.5285 18.0415 19.4999 17.0657 19.4742 17.0687C19.4484 17.0717 19.2616 17.1148 19.0592 17.1644ZM6.55006 19.8006V21.4429H7.09059H7.63112V19.8006V18.1582H7.09059H6.55006V19.8006ZM16.6093 24.0302C17.3369 25.0845 18.7721 25.8224 20.095 25.8224C21.4179 25.8224 22.8531 25.0845 23.5807 24.0302L23.855 23.6327H20.095H16.335L16.6093 24.0302ZM25.7092 26.5848L25.3199 27.0252L27.6039 29.3376L29.8878 31.6502L30.3167 31.2158L30.7457 30.7813L28.4571 28.4629C27.1985 27.1877 26.1528 26.1445 26.1336 26.1445C26.1143 26.1445 25.9233 26.3426 25.7092 26.5848Z"/>
</mask>
<path fill-rule="evenodd" clip-rule="evenodd" d="M2.05105 0.0955739C1.36642 0.282284 0.836835 0.678503 0.439453 1.30117C-0.0217111 2.02373 0.000164245 1.51564 0.000164245 11.5124C0.000164245 17.2353 0.0231843 20.5843 0.0640735 20.8062C0.212114 21.6096 0.810126 22.4305 1.48636 22.7586C2.03038 23.0226 2.04017 23.0189 2.17136 22.5056C2.32163 21.9173 2.32385 21.9322 2.07419 21.8408C1.95585 21.7974 1.72908 21.6213 1.5703 21.4493C1.04605 20.8818 1.08122 21.591 1.08122 11.5804C1.08122 5.40943 1.10239 2.60756 1.15066 2.37944C1.23759 1.96879 1.53201 1.57128 1.9369 1.31772L2.24767 1.12315H13.5719H24.8961L25.1505 1.2624C25.73 1.57972 26.0175 2.05992 26.0597 2.78158L26.0889 3.28072H26.6212H27.1536V2.87561C27.1536 2.04807 26.8508 1.30684 26.2953 0.774788C25.9123 0.407938 25.4779 0.170284 25.0043 0.0684594C24.7616 0.0163559 21.5476 -0.00277238 13.5261 0.000319052C4.13512 0.00386132 2.33237 0.0188677 2.05105 0.0955739ZM2.16227 2.73328V3.28072H2.70279H3.24332V2.73328V2.18583H2.70279H2.16227V2.73328ZM4.38796 2.73328V3.28072H4.92849H5.46901V2.73328V2.18583H4.92849H4.38796V2.73328ZM6.55006 2.73328V3.28072H7.09059H7.63112V2.73328V2.18583H7.09059H6.55006V2.73328ZM5.47588 4.44529C4.31579 4.67599 3.45203 5.64715 3.30392 6.88739C3.26112 7.24535 3.2451 10.5107 3.25756 16.3227C3.27531 24.581 3.28453 25.2341 3.38773 25.5422C3.64706 26.3165 4.29474 26.9974 5.07526 27.3164C5.43671 27.4641 5.44256 27.4644 9.2368 27.4839L13.0364 27.5035V26.9552V26.407L9.33218 26.3884C5.72999 26.3704 5.62011 26.3662 5.34113 26.2354C4.98438 26.0681 4.65905 25.7444 4.50694 25.4052C4.39616 25.1583 4.3907 24.717 4.38936 15.9503C4.38815 7.83717 4.39941 6.72664 4.48532 6.51848C4.64112 6.14075 4.85707 5.89949 5.22291 5.69423L5.5644 5.50269H16.8201C27.074 5.50269 28.0959 5.51203 28.3029 5.60734C28.626 5.75612 28.9823 6.09096 29.1446 6.39824L29.2839 6.66197V15.9363V25.2106L29.1091 25.5246L28.9343 25.8385L29.2308 26.1042C29.7392 26.5595 29.7335 26.5575 29.8855 26.3413C29.9592 26.2366 30.0971 25.9828 30.1922 25.7773L30.365 25.4038V15.9363V6.46876L30.1614 6.03345C29.9209 5.51911 29.439 4.97927 29.0088 4.74213C28.3149 4.35963 28.9026 4.37695 16.8201 4.38359C10.7344 4.38694 5.62952 4.41469 5.47588 4.44529ZM5.46901 7.11023V7.66025H6.01208H6.55522L6.53671 7.12891L6.51827 6.59757L5.99364 6.57889L5.46901 6.56015V7.11023ZM7.63112 7.11023V7.66025H8.17418H8.71732L8.69881 7.12891L8.68037 6.59757L8.15574 6.57889L7.63112 6.56015V7.11023ZM9.79322 7.11281V7.66025H10.3337H10.8743V7.11281V6.56537H10.3337H9.79322V7.11281ZM21.7484 11.3716V13.9236L21.5451 13.8825C21.4332 13.8598 21.19 13.8232 21.0046 13.8011L20.6673 13.761V11.8377V9.91442H20.095H19.5227V11.8377V13.761L19.1855 13.8011C19 13.8232 18.7568 13.8598 18.6449 13.8825L18.4416 13.9236V13.0139V12.1042H17.9011H17.3606L17.3605 13.183L17.3605 14.2618L16.8722 14.4872C16.6037 14.6111 16.3604 14.7222 16.3317 14.734C16.303 14.7459 16.2795 14.0285 16.2795 13.14V11.5245H15.739H15.1985L15.1967 13.5372L15.1949 15.5498L14.6562 16.1106L14.1174 16.6714V14.6454V12.6194H13.5769H13.0364V15.6041C13.0364 18.4405 13.03 18.6079 12.9067 18.9693C12.6133 19.8304 12.5594 20.2064 12.5594 21.3946V22.5378H9.01423H5.46901V23.0852V23.6327L9.14141 23.6339L12.8138 23.6351L13.0518 24.2658C13.4121 25.2203 13.911 25.9905 14.6897 26.7944C16.1719 28.3246 17.9919 29.1068 20.0708 29.107C21.5098 29.1071 22.958 28.6872 24.1533 27.923C24.2981 27.8304 24.4382 27.7546 24.4646 27.7546C24.4909 27.7546 25.6728 28.9284 27.0908 30.363C28.9717 32.2658 29.7082 32.9714 29.8135 32.9714C29.893 32.9714 30.0352 32.9303 30.1297 32.88C30.4021 32.7352 31.9713 31.0911 32.0184 30.9012C32.0443 30.7965 32.0235 30.6603 31.9641 30.547C31.9111 30.4458 30.7125 29.195 29.3005 27.7675L26.7333 25.1719L26.9101 24.8048C27.0074 24.6029 27.1518 24.2566 27.231 24.0352L27.3751 23.6327H27.8049H28.2347V23.0852V22.5378H27.9326H27.6306V21.3946C27.6306 20.2064 27.5767 19.8304 27.2833 18.9693C27.1609 18.6101 27.1536 18.4387 27.1536 15.894V13.1991H26.6131H26.0726V14.9352V16.6714L25.5338 16.1106L24.9951 15.5498L24.9933 13.2796L24.9915 11.0093H24.451H23.9105V12.8824C23.9105 13.9178 23.8857 14.7459 23.8552 14.734C23.8248 14.7222 23.5825 14.6111 23.3168 14.4872L22.8338 14.2618L22.8316 11.5406L22.8294 8.81954H22.2889H21.7484V11.3716ZM8.71217 18.1235V21.4429H9.25327H9.79436L9.77789 18.1421L9.76142 14.8414L9.2368 14.8227L8.71217 14.804V18.1235ZM19.375 14.8795C17.191 15.1131 15.2241 16.5298 14.2418 18.5769C13.8007 19.4959 13.665 20.0643 13.6263 21.1531C13.6021 21.8344 13.6201 22.1937 13.6999 22.6232C14.0849 24.6971 15.3346 26.3674 17.2016 27.3033C18.1425 27.775 18.8045 27.9526 19.7854 27.9963C21.7014 28.0817 23.3338 27.4438 24.6782 26.084C25.5416 25.2107 26.0738 24.2807 26.406 23.0643C26.519 22.6507 26.5416 22.386 26.5446 21.4429C26.5488 20.1049 26.4471 19.6168 25.9473 18.5769C24.9378 16.4765 23.0155 15.1141 20.7258 14.8762C20.3714 14.8393 20.0345 14.8131 19.977 14.8178C19.9195 14.8225 19.6486 14.8503 19.375 14.8795ZM19.5863 15.9752C17.6221 16.1434 15.8474 17.4674 15.0818 19.3356C14.4207 20.9487 14.5997 22.933 15.5381 24.3942C16.1206 25.3009 16.8089 25.9107 17.7739 26.3748C18.6585 26.8002 19.0243 26.8798 20.095 26.8798C21.1658 26.8798 21.5315 26.8002 22.4161 26.3748C23.678 25.768 24.6104 24.7675 25.1235 23.4698C25.5743 22.3296 25.6246 20.9157 25.2551 19.7684C24.4583 17.2936 22.1585 15.7548 19.5863 15.9752ZM10.8743 18.9633V21.4429H11.4148H11.9553V18.9633V16.4837H11.4148H10.8743V18.9633ZM19.0592 17.1644C18.3798 17.3311 18.4416 17.1055 18.4416 19.4164V21.4429H17.9011H17.3606L17.3579 19.7201L17.3552 17.9972L16.9207 18.4616C16.4049 19.0129 16.0091 19.766 15.8593 20.4813C15.7581 20.9644 15.7615 22.1765 15.8648 22.4251C15.9087 22.5308 16.1713 22.5378 20.1006 22.5378H24.2896L24.3385 22.3607C24.3654 22.2633 24.387 21.8213 24.3864 21.3785C24.3856 20.7123 24.3601 20.4957 24.2385 20.1226C24.0249 19.4668 23.6976 18.9117 23.2381 18.4253L22.8337 17.9972L22.8315 19.7201L22.8294 21.4429H22.2898H21.7502L21.7334 19.398L21.7166 17.3532L21.3986 17.2491C21.2237 17.1919 20.988 17.1274 20.8748 17.1059L20.669 17.0669L20.6523 19.2388L20.6355 21.4107H20.095H19.5545L19.5378 19.237C19.5285 18.0415 19.4999 17.0657 19.4742 17.0687C19.4484 17.0717 19.2616 17.1148 19.0592 17.1644ZM6.55006 19.8006V21.4429H7.09059H7.63112V19.8006V18.1582H7.09059H6.55006V19.8006ZM16.6093 24.0302C17.3369 25.0845 18.7721 25.8224 20.095 25.8224C21.4179 25.8224 22.8531 25.0845 23.5807 24.0302L23.855 23.6327H20.095H16.335L16.6093 24.0302ZM25.7092 26.5848L25.3199 27.0252L27.6039 29.3376L29.8878 31.6502L30.3167 31.2158L30.7457 30.7813L28.4571 28.4629C27.1985 27.1877 26.1528 26.1445 26.1336 26.1445C26.1143 26.1445 25.9233 26.3426 25.7092 26.5848Z" fill="#363636" stroke="#363636" stroke-width="2.14736" mask="url(#path-1-inside-1_665_191)"/>
</svg>
