<svg width="36" height="34" viewBox="0 0 36 34" fill="none" xmlns="http://www.w3.org/2000/svg">
<path fill-rule="evenodd" clip-rule="evenodd" d="M17.3972 0.0463252C17.0519 0.127378 16.8029 0.268029 7.31719 5.7391C3.72817 7.80915 0.694658 9.59139 0.576062 9.69964C-0.129374 10.3438 -0.17308 11.545 0.484325 12.2188C0.624471 12.3626 1.26321 12.7803 1.90362 13.1471C2.54403 13.5139 3.12965 13.8549 3.205 13.9048C3.32481 13.9842 3.18739 14.0833 2.10477 14.6983C0.743903 15.4714 0.24053 15.8966 0.0883953 16.4021C-0.0280012 16.7888 -0.0291394 17.0236 0.0831597 17.4675C0.220802 18.0118 0.68358 18.413 2.10477 19.2203C3.18739 19.8353 3.32481 19.9344 3.205 20.0138C3.12965 20.0637 2.54403 20.4047 1.90362 20.7715C1.26321 21.1383 0.624471 21.556 0.484325 21.6998C-0.17308 22.3736 -0.129222 23.5773 0.576062 24.218C0.694658 24.3257 2.20872 25.2302 3.94063 26.228C5.67254 27.2258 9.25701 29.2929 11.9061 30.8218C14.5552 32.3506 16.8771 33.6703 17.0658 33.7545C17.5699 33.9794 18.2769 33.9644 18.8127 33.7172C19.4961 33.4021 34.9938 24.4364 35.2282 24.2206C35.6914 23.7941 35.9162 22.9984 35.7346 22.4274C35.5454 21.8323 35.2966 21.5822 34.3338 21.0201C33.8308 20.7263 33.2044 20.36 32.9419 20.2062L32.4647 19.9264L33.6956 19.2215C35.0704 18.4343 35.3652 18.2083 35.6023 17.7596C35.8283 17.3319 35.8283 16.5867 35.6023 16.159C35.3652 15.7103 35.0704 15.4843 33.6958 14.6972L32.465 13.9924L32.6765 13.8648C32.7928 13.7946 33.3785 13.4536 33.9781 13.107C34.5777 12.7604 35.1822 12.36 35.3215 12.2172C35.9774 11.5449 35.933 10.3464 35.2282 9.6982C34.9988 9.48723 19.4928 0.513906 18.8506 0.220516C18.3966 0.0130129 17.8286 -0.0550469 17.3972 0.0463252ZM17.5449 1.94641C16.5737 2.46823 1.89656 10.9623 1.89444 11.0037C1.89307 11.0311 3.12973 11.7671 4.6425 12.6394C7.38025 14.2179 10.1889 15.8392 15.164 18.7127C17.1696 19.8711 17.8209 20.2133 17.9715 20.188C18.182 20.1525 33.8563 11.1226 33.8906 11.017C33.9018 10.9824 33.7833 10.884 33.6271 10.7983C33.471 10.7128 29.9254 8.66862 25.7481 6.25593C21.5708 3.84325 18.0872 1.84844 18.0068 1.82298C17.9214 1.79601 17.7293 1.84738 17.5449 1.94641ZM3.4664 16.001C2.6004 16.5053 1.89193 16.9363 1.89193 16.9585C1.89193 17.0264 17.6846 26.1224 17.8562 26.1534C17.9616 26.1725 19.0754 25.5697 21.1269 24.3834C22.838 23.394 26.4149 21.3283 29.0758 19.7928C31.7366 18.2573 33.9048 16.9757 33.8941 16.9447C33.8692 16.8733 30.7471 15.0709 30.6484 15.0709C30.6081 15.0709 28.0226 16.5445 24.9026 18.3457C21.7827 20.1469 19.0763 21.6986 18.8885 21.794C18.4066 22.0388 17.6768 22.0804 17.1813 21.8914C16.9726 21.8118 14.198 20.2446 11.0154 18.4087C7.83286 16.5729 5.18662 15.0738 5.13487 15.0774C5.0832 15.081 4.33231 15.4967 3.4664 16.001ZM27.7662 22.6364C19.413 27.4759 18.7667 27.8385 18.3303 27.9296C17.494 28.1043 17.5962 28.154 11.1555 24.4403C7.91041 22.5692 5.21121 21.0384 5.15741 21.0384C5.03593 21.0384 1.8911 22.8473 1.89421 22.9153C1.89914 23.0214 17.7202 32.0868 17.9021 32.0878C18.0857 32.0888 33.9065 23.0224 33.9104 22.914C33.9121 22.8707 31.1946 21.2711 30.7634 21.0616C30.6372 21.0003 30.1336 21.2648 27.7662 22.6364Z" fill="#363636"/>
</svg>
