<svg width="56" height="51" viewBox="0 0 56 51" fill="none" xmlns="http://www.w3.org/2000/svg">
<path fill-rule="evenodd" clip-rule="evenodd" d="M27.2424 0.104288C26.7382 0.30191 26.7001 0.653923 26.7521 4.64257C26.779 6.71653 26.7769 8.41329 26.7474 8.41329C26.7178 8.41329 25.7171 7.81212 24.5235 7.07721L22.3535 5.74113L22.3497 4.782C22.3466 3.93558 22.313 3.79259 22.0645 3.56468C21.6782 3.21053 21.2063 3.23262 20.8947 3.61943C20.6535 3.9186 20.6424 4.07429 20.6424 7.17638C20.6424 9.77859 20.6098 10.4393 20.4776 10.5154C20.0893 10.7393 20.0339 11.1369 20.0339 13.7011C20.0339 16.2248 20.0288 16.2771 19.7601 16.4895C19.4887 16.7042 19.4863 16.7337 19.4863 19.834C19.4863 24.4669 19.4931 24.4794 23.347 26.8717C24.7342 27.7327 26.0045 28.5614 26.1702 28.7133C26.5857 29.0943 26.8488 29.9235 26.8484 30.8509L26.8479 31.6314L25.7481 31.8399C23.9394 32.1825 22.2254 33.0328 20.8947 34.2475L20.3119 34.7796L17.2827 33.135L14.2535 31.4903L14.1927 23.8124L14.1318 16.1345L11.1342 13.1943L8.13664 10.2541L8.42663 9.64783C9.0615 8.32054 8.86217 6.65263 7.91991 5.40836C6.7704 3.89033 4.5091 3.36374 2.70902 4.19484C1.83235 4.59958 0.907239 5.58496 0.56005 6.48375C0.190469 7.44051 0.259347 8.92101 0.713504 9.78453C1.13249 10.5808 1.88954 11.3008 2.7336 11.7053C3.34097 11.9963 3.56026 12.0354 4.57895 12.035C5.59947 12.0345 5.80829 11.9967 6.36005 11.7132L6.98494 11.3921L9.79787 14.1722L12.6107 16.9525V24.5958C12.6107 30.5269 12.6447 32.2831 12.7628 32.4351C12.8465 32.5428 13.8185 33.1199 14.9228 33.7175C16.0272 34.3152 17.4626 35.0942 18.1126 35.4487L19.2945 36.0934L18.8797 36.8315C18.2902 37.8801 17.8553 39.4726 17.7498 40.9679L17.6609 42.2285L11.6723 39.0677L5.68356 35.9069L5.67893 30.5329C5.6748 25.8159 5.6967 25.1589 5.85806 25.1589C6.19637 25.1589 7.12063 24.6662 7.6736 24.1913C8.00825 23.9038 8.37613 23.4133 8.62073 22.9283C8.97924 22.2178 9.02049 22.0303 9.01806 21.1234C9.0149 19.8846 8.6671 19.0476 7.80697 18.2081C6.9404 17.3623 6.08612 17.0235 4.82234 17.0242C3.47021 17.0249 2.53439 17.4172 1.66186 18.3489C0.83179 19.2352 0.52914 20.0648 0.585483 21.2991C0.672007 23.1901 1.79401 24.5706 3.75753 25.2017C3.95637 25.2656 3.97049 25.646 3.97049 30.9538V36.6374L4.2443 36.8806C4.39483 37.0144 7.60569 38.7578 11.3794 40.755L18.2408 44.3863L18.5179 45.0518C19.0106 46.235 19.5855 47.0471 20.7032 48.1386C21.9205 49.3276 23.0337 50.0133 24.5366 50.5004C29.2769 52.0366 34.3702 49.9333 36.5858 45.5245L37.0643 44.5724L39.106 43.4897C40.2288 42.8942 43.3929 41.2183 46.137 39.7655C48.8812 38.3127 51.2496 37.0145 51.4002 36.8808L51.674 36.6374V30.9538C51.674 25.6469 51.6882 25.2655 51.887 25.1997C53.8817 24.5403 54.9722 23.1995 55.059 21.2991C55.1128 20.1216 54.8202 19.2666 54.0836 18.4499C53.4547 17.7527 52.8743 17.3914 51.9711 17.1352C50.0115 16.5793 47.8373 17.5754 46.9514 19.435C46.6833 19.9975 46.6287 20.2817 46.6265 21.1234C46.624 22.0303 46.6653 22.2178 47.0238 22.9283C47.2684 23.4133 47.6363 23.9038 47.9709 24.1913C48.5239 24.6662 49.4482 25.1589 49.7865 25.1589C49.9478 25.1589 49.9699 25.8162 49.9664 30.5329L49.9624 35.9069L43.8963 39.1087C40.5598 40.8698 37.7688 42.3305 37.6939 42.355C37.5997 42.3856 37.5577 42.0441 37.5577 41.2461C37.5577 39.7876 37.2151 38.3204 36.5921 37.1098L36.1265 36.2055L39.3666 34.4529C41.1487 33.489 42.7029 32.6067 42.8203 32.4925C43.0195 32.2986 43.0339 31.7699 43.0339 24.6226V16.9607L45.8456 14.1759L48.6574 11.391L49.2834 11.7128C49.8364 11.9968 50.0446 12.0345 51.0656 12.035C52.0843 12.0354 52.3036 11.9963 52.9109 11.7053C53.755 11.3008 54.512 10.5808 54.931 9.78453C55.3852 8.92101 55.4541 7.44051 55.0845 6.48375C54.7373 5.58496 53.8122 4.59958 52.9355 4.19484C51.1354 3.36374 48.8741 3.89033 47.7246 5.40836C46.7824 6.65263 46.583 8.32054 47.2179 9.64783L47.5079 10.2541L44.5104 13.1943L41.5127 16.1345L41.4519 23.8121L41.391 31.4896L38.2577 33.1917L35.1244 34.894L34.546 34.3488C33.1176 33.0024 31.3762 32.1405 29.3272 31.7656L28.4916 31.6128L28.522 30.6719C28.5742 29.0523 28.6595 28.9556 31.7201 27.0449C35.8481 24.4678 35.854 24.4574 35.854 19.7512V16.7439L35.5498 16.5104L35.2455 16.2768V13.5414V10.8058L34.9413 10.5723L34.6371 10.3387V7.06011C34.6371 3.93985 34.6253 3.77002 34.3937 3.54402C34.0936 3.25115 33.6515 3.23903 33.314 3.51433C33.0987 3.6901 33.0543 3.87584 33.0268 4.71656L32.9942 5.71108L30.7429 7.117L28.4916 8.52279L28.4596 4.49685L28.4276 0.471028L28.1085 0.22602C27.7592 -0.0421462 27.6536 -0.0569918 27.2424 0.104288ZM3.48457 5.63341C1.9454 6.28483 1.4607 8.2614 2.52965 9.52705C3.03771 10.1286 3.72747 10.4492 4.51336 10.4492C7.29392 10.4492 8.13287 6.91795 5.64863 5.67082C5.10077 5.39589 4.08744 5.37831 3.48457 5.63341ZM50.0312 5.64125C48.7134 6.31808 48.1708 7.73171 48.7504 8.97789C49.5489 10.6947 51.8808 10.9882 53.1149 9.52705C54.1934 8.25 53.6933 6.2644 52.1326 5.62807C51.5564 5.39304 50.5015 5.39969 50.0312 5.64125ZM22.3546 9.27433C22.3594 10.1398 22.4016 10.9427 22.4484 11.0585C22.5177 11.2293 26.5985 13.8764 26.7926 13.8764C26.9019 13.8764 26.8456 11.3166 26.7272 10.9005C26.661 10.6682 26.4559 10.3416 26.2714 10.1748C25.9634 9.89629 22.5294 7.70072 22.4017 7.70072C22.3712 7.70072 22.35 8.4089 22.3546 9.27433ZM30.9254 8.92362C28.5376 10.4162 28.5269 10.4317 28.4512 12.4994C28.4025 13.8281 28.4127 13.9086 28.6204 13.8308C28.9505 13.7071 32.47 11.5042 32.7483 11.247C32.9609 11.0505 32.9946 10.8296 33.0359 9.36257C33.0616 8.44857 33.0353 7.70202 32.9775 7.70369C32.9199 7.70523 31.9963 8.25427 30.9254 8.92362ZM21.76 14.6937C21.7949 16.526 21.8218 16.7407 22.0549 17.0449C22.1959 17.2291 23.3185 18.0053 24.5496 18.7699L26.7879 20.1601L26.8224 18.4731C26.8729 16.0123 26.766 15.8088 24.7799 14.5866C24.211 14.2365 23.2902 13.6637 22.7336 13.3136L21.7214 12.6771L21.76 14.6937ZM31.2297 14.1696C28.4861 15.9005 28.5333 15.8293 28.4548 18.3501C28.4237 19.3515 28.4309 20.1708 28.4708 20.1708C28.5107 20.1708 29.5883 19.5224 30.8653 18.7297C32.5505 17.6839 33.2423 17.1873 33.3878 16.9186C33.6634 16.4096 33.785 12.8024 33.5259 12.8168C33.4342 12.8218 32.401 13.4305 31.2297 14.1696ZM3.85245 18.7591C2.65961 19.2237 1.96889 20.503 2.26363 21.702C2.79141 23.8489 5.76448 24.3623 6.93833 22.5093C7.77801 21.1839 7.31838 19.5618 5.90358 18.8574C5.4005 18.6069 4.36976 18.5575 3.85245 18.7591ZM21.1299 20.5384C21.1303 21.61 21.1895 22.6938 21.2616 22.9471C21.4633 23.6565 22.097 24.1892 24.5154 25.6822C25.7419 26.4395 26.7688 27.0591 26.7971 27.0591C26.9092 27.0591 26.8394 23.1712 26.7197 22.7507C26.6495 22.5039 26.4369 22.1298 26.2474 21.9194C25.9318 21.5688 21.9043 18.9832 21.674 18.9832C21.6191 18.9832 21.4742 18.8947 21.3517 18.7866C21.137 18.597 21.1292 18.6584 21.1299 20.5384ZM33.9864 18.7233C33.9297 18.809 33.7654 18.9259 33.6213 18.9833C33.4772 19.0406 32.401 19.692 31.2297 20.4308C28.4688 22.1723 28.5265 22.077 28.4518 25.0218C28.406 26.8265 28.4227 27.0874 28.5808 27.0283C28.8803 26.9161 33.2158 24.1969 33.5084 23.9377C34.0563 23.4524 34.1609 22.893 34.1238 20.6459C34.104 19.4538 34.0455 18.6339 33.9864 18.7233ZM49.7878 18.8174C48.8369 19.3229 48.2739 20.1858 48.2693 21.145C48.258 23.5109 51.3193 24.5473 52.8758 22.7047C53.839 21.5643 53.5576 19.8519 52.2703 19.0206C51.6321 18.6084 50.3746 18.5055 49.7878 18.8174ZM26.3324 33.3575C22.3624 34.0098 19.4255 37.3916 19.4255 41.3106C19.4255 45.92 23.3804 49.5991 28.0657 49.3481C30.2679 49.2302 31.9111 48.507 33.4877 46.9623C35.1295 45.3535 35.8837 43.6032 35.8976 41.37C35.9067 39.895 35.7369 39.1814 35.0377 37.7557C34.5814 36.8254 34.32 36.4713 33.4952 35.6663C32.6863 34.8769 32.2883 34.5941 31.3487 34.1415C29.6809 33.3379 28.0257 33.0793 26.3324 33.3575ZM31.0903 37.5993C30.8527 37.8443 29.6559 39.1937 28.4309 40.598C27.2058 42.0024 26.1305 43.2287 26.0414 43.3233C25.9024 43.4707 25.7246 43.3475 24.7977 42.4622C24.2028 41.8942 23.6506 41.4294 23.5707 41.4294C23.3746 41.4294 22.9148 41.6716 22.8043 41.8332C22.7551 41.905 22.7141 42.127 22.713 42.3264C22.7114 42.633 22.9335 42.9033 24.1524 44.0781C25.3741 45.2557 25.6515 45.4673 25.9744 45.4673C26.3224 45.4673 26.6053 45.1828 29.2513 42.1716C30.8441 40.3591 32.2694 38.7218 32.4186 38.5333C32.766 38.0946 32.7627 37.7372 32.4084 37.4121C31.9888 37.0275 31.5901 37.0841 31.0903 37.5993Z" fill="white"/>
</svg>
