<svg width="54" height="49" viewBox="0 0 54 49" fill="none" xmlns="http://www.w3.org/2000/svg">
<path fill-rule="evenodd" clip-rule="evenodd" d="M25.7311 0.165694C25.3912 0.270448 25.0671 0.482552 24.7303 0.820486C23.8638 1.69029 23.9064 1.12748 23.9064 11.6949V20.9679H13.109H2.31158L1.75674 21.2572C1.15226 21.5724 0.617277 22.2434 0.429538 22.9221C0.360442 23.1715 0.323618 27.3569 0.323308 34.9911C0.322584 48.2271 0.263418 47.2887 1.15474 48.1833C2.02185 49.0535 1.10188 48.9993 15.0108 48.9993C28.9355 48.9993 27.9982 49.0551 28.8764 48.1737C29.7413 47.3055 29.6989 47.8661 29.6989 37.3006V28.0277H40.4597C52.1315 28.0277 51.5059 28.0576 52.2832 27.4625C52.629 27.1977 53.1571 26.353 53.2043 25.9892C53.2181 25.8826 53.2566 30.4908 53.2898 36.2294C53.323 41.9681 53.3323 36.6888 53.3105 24.4978C53.2658 -0.4701 53.3447 1.70981 52.453 0.814776C51.5823 -0.0591805 52.515 -0.00467513 38.5498 0.00352665C27.9369 0.00975585 26.1642 0.032181 25.7311 0.165694ZM26.0186 1.74926C25.8434 1.85651 25.6449 2.07827 25.5774 2.24209C25.4849 2.46697 25.4616 5.39386 25.4823 14.2022L25.5097 25.8645L25.8475 26.1674L26.1853 26.4704H38.6065H51.0277L51.3794 26.1174L51.7311 25.7644V14.121C51.7311 1.33502 51.7667 2.04982 51.1139 1.71105C50.8476 1.57287 49.3097 1.55356 38.5738 1.55397C26.7846 1.55429 26.3255 1.56145 26.0186 1.74926ZM38.6654 5.18902C37.8522 5.43404 37.2648 6.25723 37.1723 7.28214L37.1176 7.88658L35.2443 7.88907C34.214 7.89042 33.194 7.93278 32.9778 7.98313C31.4297 8.3438 30.7799 10.2329 31.7836 11.4549C32.1738 11.9301 32.5947 12.153 33.2571 12.2351L33.7718 12.2989L34.0687 13.3371C34.3833 14.4369 35.0276 15.8963 35.6599 16.941L36.0419 17.5721L34.9866 18.5567C34.4062 19.0982 33.856 19.6871 33.7637 19.8652C33.6668 20.0527 33.5959 20.439 33.5956 20.7824C33.5946 21.9614 34.5703 22.9553 35.7287 22.9553C36.4703 22.9553 36.7978 22.7787 37.8525 21.8105C39.1409 20.6275 39.0075 20.6766 39.6481 21.1504C40.4595 21.7506 41.7958 22.5141 42.2524 22.6384C43.6011 23.0055 45.0032 21.7526 44.8823 20.2883C44.8157 19.4823 44.4349 18.9813 43.4561 18.4114C43.0294 18.1631 42.6118 17.9165 42.5281 17.8637C42.4067 17.7869 42.5441 17.5918 43.2085 16.8972C44.3987 15.6527 44.9042 14.4768 44.9042 12.952V12.247L45.3438 12.2461C46.3851 12.2437 47.3867 11.2049 47.3867 10.1273C47.3867 9.25576 46.9809 8.58529 46.1972 8.16201C45.8186 7.95749 45.6009 7.93569 43.6371 7.90506L41.4908 7.87152L41.4885 7.33405C41.4821 5.80956 40.0975 4.75755 38.6654 5.18902ZM38.9048 6.84838C38.727 7.02684 38.698 7.19441 38.698 8.04231C38.698 9.51863 38.8527 9.44388 35.7971 9.44388H33.3098L33.056 9.69876C32.7624 9.99329 32.7423 10.1428 32.9553 10.4479C33.0849 10.6336 33.2353 10.6733 33.9274 10.7049C34.9479 10.7514 35.1108 10.8784 35.2795 11.7585C35.6016 13.4399 36.4233 15.3696 37.4184 16.7818C37.8552 17.4016 37.9382 17.6592 37.8096 17.9953C37.7762 18.0827 37.1737 18.6724 36.4706 19.3057C35.7676 19.939 35.164 20.547 35.1293 20.6567C34.9989 21.0689 35.5132 21.5505 35.9183 21.3956C36.011 21.3602 36.655 20.8174 37.3496 20.1892C38.0441 19.5611 38.7123 19.0096 38.8345 18.9638C39.1206 18.8562 39.3721 18.9758 40.1705 19.5994C40.9438 20.2035 42.3031 21.0379 42.66 21.1278C43.0997 21.2386 43.5344 20.5674 43.2735 20.1804C43.2317 20.1184 42.8714 19.8777 42.4726 19.6454C41.342 18.9868 40.4687 18.302 40.3979 18.0186C40.2914 17.593 40.4174 17.4102 41.5385 16.3639C42.4061 15.5541 42.6855 15.2191 42.9597 14.6603C43.2797 14.0079 43.3029 13.8872 43.3323 12.7165C43.3494 12.03 43.4108 11.346 43.4685 11.1964C43.6124 10.8235 43.9614 10.6897 44.7896 10.6897C45.3395 10.6897 45.5301 10.6483 45.664 10.4998C45.8941 10.2445 45.8798 9.90401 45.6283 9.65152C45.4327 9.45519 45.2835 9.44388 42.8947 9.44388H40.368L40.1536 9.17031C39.972 8.93859 39.9392 8.75078 39.9392 7.94056C39.9392 7.14603 39.9072 6.95531 39.75 6.81256C39.4957 6.58156 39.1564 6.59589 38.9048 6.84838ZM19.5103 10.2448C16.6454 10.6425 14.0902 12.7346 13.0929 15.4991L12.8711 16.1138L12.6349 15.7302C12.2131 15.0452 11.4521 15.0224 11.178 15.6867C11.0159 16.0792 11.0695 16.1972 12.0708 17.6505C12.9057 18.8625 13.1186 19.0515 13.5323 18.9474C13.784 18.8839 15.8884 17.4767 16.2016 17.1624C16.4583 16.9047 16.3958 16.3429 16.0829 16.0959C15.7189 15.8086 15.555 15.8234 14.9674 16.1975C14.6937 16.3717 14.4493 16.4938 14.4244 16.4688C14.3995 16.4437 14.4934 16.1407 14.6333 15.7953C15.5549 13.5187 17.6488 11.9831 20.1289 11.7649C20.9939 11.6888 21.3205 11.4623 21.3205 10.9387C21.3205 10.2934 20.7462 10.0732 19.5103 10.2448ZM36.9413 10.8202C36.8 10.8936 36.6389 11.0833 36.5834 11.2418C36.329 11.9677 37.5164 14.9489 38.5517 16.1839C38.9372 16.6437 39.3874 16.6234 39.9648 16.1203C41.8964 14.4372 42.1089 14.0675 42.1104 12.3883C42.1119 10.6557 42.2586 10.7482 39.4572 10.7142C37.7736 10.6938 37.1326 10.7208 36.9413 10.8202ZM38.3374 12.4806C38.4737 12.9558 39.2529 14.5311 39.3515 14.5311C39.4075 14.5311 39.7024 14.2812 40.0067 13.9758C40.5447 13.4358 40.5598 13.4046 40.5598 12.8338V12.247H39.4151C38.277 12.247 38.2707 12.2484 38.3374 12.4806ZM2.22594 22.8782L1.87425 23.2312V34.8746C1.87425 47.6605 1.83867 46.9457 2.49146 47.2845C2.75771 47.4227 4.29396 47.442 15.0108 47.442C25.7276 47.442 27.2639 47.4227 27.5301 47.2845C28.1764 46.9491 28.1474 47.4212 28.1474 37.2728V28.0277L27.0354 28.0254C25.7789 28.0228 25.3267 27.8799 24.7535 27.3046C24.0441 26.5926 23.9633 26.3014 23.9244 24.3161L23.8893 22.5252H13.2334H2.57762L2.22594 22.8782ZM0.372648 34.9836C0.372648 41.5217 0.38506 44.1964 0.400266 40.9273C0.415367 37.6583 0.415367 32.309 0.400266 29.0399C0.38506 25.7709 0.372648 28.4455 0.372648 34.9836ZM14.3097 25.8911C13.7565 26.0709 13.2313 26.4672 12.9606 26.9094C12.8462 27.0962 11.5331 30.4637 10.0426 34.3929C7.42408 41.2952 7.33399 41.5572 7.37619 42.144C7.43494 42.9587 7.78528 43.4861 8.50759 43.8474C9.39508 44.2913 10.2743 44.1892 10.9607 43.5625C11.2723 43.2782 11.4449 42.9434 11.9049 41.7319L12.2794 40.7456H15.0115H17.7436L18.164 41.8648C18.6444 43.1439 18.9941 43.6442 19.601 43.9208C20.6742 44.4099 22.0722 43.8737 22.5245 42.7994C22.8497 42.0272 22.8085 41.8915 19.9319 34.2368C16.9988 26.4316 17.0388 26.5178 16.1377 26.0515C15.6215 25.7844 14.8474 25.7165 14.3097 25.8911ZM14.591 27.4495C14.4455 27.5313 14.2658 27.7298 14.1919 27.8907C13.7985 28.7462 8.90799 41.7955 8.90799 41.9897C8.90799 42.4499 9.64571 42.7655 9.92685 42.4255C9.98912 42.3501 10.2751 41.661 10.5624 40.8942C10.8546 40.114 11.1798 39.4197 11.3007 39.3181C11.4972 39.1529 11.8345 39.1364 15.0108 39.1364C18.187 39.1364 18.5244 39.1529 18.7209 39.3181C18.8418 39.4197 19.167 40.114 19.4592 40.8942C19.7465 41.661 20.0325 42.3501 20.0947 42.4255C20.3809 42.7715 21.1136 42.448 21.1136 41.9757C21.1136 41.6405 15.8678 27.8035 15.6627 27.5976C15.4044 27.3383 14.9105 27.2701 14.591 27.4495ZM39.9457 30.0754C39.6949 30.1748 37.5166 31.6833 37.3791 31.853C37.1493 32.1365 37.2212 32.6619 37.5224 32.8996C37.8864 33.187 38.0503 33.1721 38.638 32.7981C38.9117 32.6239 39.156 32.5018 39.1809 32.5268C39.2058 32.5518 39.1154 32.8463 38.9798 33.181C38.0589 35.4551 35.9562 37.0117 33.5138 37.2272C32.6092 37.307 32.2848 37.526 32.2848 38.0569C32.2848 38.3012 32.3636 38.4572 32.5693 38.621C32.8226 38.8228 32.9331 38.8404 33.5778 38.782C36.7917 38.4905 39.4386 36.4731 40.5125 33.4965L40.7342 32.8818L40.9548 33.24C41.2436 33.7089 41.6351 33.8928 42.0115 33.7363C42.2836 33.6231 42.5251 33.2569 42.5251 32.9574C42.5251 32.7665 41.0321 30.5395 40.6993 30.2338C40.4488 30.0039 40.2384 29.9596 39.9457 30.0754ZM14.5623 30.7529C14.2141 31.074 11.9849 36.971 12.0751 37.332C12.2066 37.8577 12.3792 37.8906 15.0108 37.8906C17.6477 37.8906 17.8148 37.8585 17.948 37.3257C17.9943 37.1402 17.6912 36.2108 16.8717 34.027C15.7121 30.9363 15.491 30.5193 15.0108 30.5193C14.9033 30.5193 14.7015 30.6244 14.5623 30.7529ZM14.5058 34.8554C14.2564 35.5254 14.0304 36.1322 14.0034 36.2035C13.9661 36.302 14.2083 36.3333 15.0108 36.3333C15.8106 36.3333 16.0566 36.3017 16.0231 36.2035C15.7486 35.3971 15.0556 33.6342 15.0135 33.6355C14.9836 33.6363 14.7551 34.1853 14.5058 34.8554Z" fill="#26A151"/>
</svg>
