<svg width="53" height="49" viewBox="0 0 53 49" fill="none" xmlns="http://www.w3.org/2000/svg">
<path fill-rule="evenodd" clip-rule="evenodd" d="M25.4088 0.165694C25.0689 0.270448 24.7448 0.482552 24.408 0.820486C23.5415 1.69029 23.5841 1.12748 23.5841 11.6949V20.9679H12.7867H1.98932L1.43448 21.2572C0.82999 21.5724 0.295012 22.2434 0.107273 22.9221C0.0381765 23.1715 0.00135283 27.3569 0.00104252 34.9911C0.000318454 48.2271 -0.0588477 47.2887 0.832472 48.1833C1.69959 49.0535 0.779616 48.9993 14.6885 48.9993C28.6133 48.9993 27.6759 49.0551 28.5541 48.1737C29.4191 47.3055 29.3766 47.8661 29.3766 37.3006V28.0277H40.1374C51.8092 28.0277 51.1836 28.0576 51.961 27.4625C52.3067 27.1977 52.8348 26.353 52.8821 25.9892C52.8958 25.8826 52.9343 30.4908 52.9675 36.2294C53.0007 41.9681 53.01 36.6888 52.9882 24.4978C52.9435 -0.470098 53.0224 1.70981 52.1307 0.814776C51.2601 -0.0591805 52.1928 -0.00467513 38.2276 0.00352665C27.6146 0.00975585 25.842 0.032181 25.4088 0.165694ZM25.6963 1.74926C25.5211 1.85651 25.3226 2.07827 25.2552 2.24209C25.1626 2.46697 25.1393 5.39386 25.16 14.2022L25.1874 25.8645L25.5253 26.1674L25.8631 26.4704H38.2843H50.7054L51.0571 26.1174L51.4088 25.7644V14.121C51.4088 1.33502 51.4444 2.04982 50.7916 1.71105C50.5253 1.57287 48.9874 1.55356 38.2516 1.55397C26.4623 1.55429 26.0032 1.56145 25.6963 1.74926ZM38.3431 5.18902C37.5299 5.43404 36.9426 6.25723 36.85 7.28214L36.7954 7.88658L34.922 7.88907C33.8917 7.89042 32.8717 7.93278 32.6555 7.98313C31.1075 8.3438 30.4577 10.2329 31.4613 11.4549C31.8515 11.9301 32.2725 12.153 32.9348 12.2351L33.4495 12.2989L33.7465 13.3371C34.061 14.4369 34.7053 15.8963 35.3376 16.941L35.7196 17.5721L34.6644 18.5567C34.084 19.0982 33.5337 19.6871 33.4414 19.8652C33.3445 20.0527 33.2736 20.439 33.2733 20.7824C33.2723 21.9614 34.248 22.9553 35.4064 22.9553C36.1481 22.9553 36.4756 22.7787 37.5302 21.8105C38.8186 20.6275 38.6852 20.6766 39.3259 21.1504C40.1372 21.7506 41.4735 22.5141 41.9301 22.6384C43.2788 23.0055 44.6809 21.7526 44.56 20.2883C44.4934 19.4823 44.1126 18.9813 43.1338 18.4114C42.7071 18.1631 42.2896 17.9165 42.2059 17.8637C42.0844 17.7869 42.2218 17.5918 42.8862 16.8972C44.0764 15.6527 44.5819 14.4768 44.5819 12.952V12.247L45.0216 12.2461C46.0629 12.2437 47.0644 11.2049 47.0644 10.1273C47.0644 9.25576 46.6587 8.58529 45.8749 8.16201C45.4963 7.95749 45.2786 7.93569 43.3148 7.90506L41.1685 7.87152L41.1662 7.33405C41.1598 5.80956 39.7752 4.75755 38.3431 5.18902ZM38.5826 6.84838C38.4048 7.02684 38.3757 7.19441 38.3757 8.04231C38.3757 9.51863 38.5304 9.44388 35.4748 9.44388H32.9875L32.7337 9.69876C32.4401 9.99329 32.4201 10.1428 32.6331 10.4479C32.7627 10.6336 32.9131 10.6733 33.6052 10.7049C34.6257 10.7514 34.7885 10.8784 34.9572 11.7585C35.2793 13.4399 36.101 15.3696 37.0962 16.7818C37.5329 17.4016 37.6159 17.6592 37.4874 17.9953C37.454 18.0827 36.8514 18.6724 36.1484 19.3057C35.4453 19.939 34.8418 20.547 34.807 20.6567C34.6767 21.0689 35.191 21.5505 35.596 21.3956C35.6887 21.3602 36.3327 20.8174 37.0273 20.1892C37.7219 19.5611 38.3901 19.0096 38.5122 18.9638C38.7983 18.8562 39.0498 18.9758 39.8482 19.5994C40.6215 20.2035 41.9808 21.0379 42.3378 21.1278C42.7775 21.2386 43.2121 20.5674 42.9512 20.1804C42.9095 20.1184 42.5491 19.8777 42.1503 19.6454C41.0198 18.9868 40.1464 18.302 40.0756 18.0186C39.9691 17.593 40.0951 17.4102 41.2162 16.3639C42.0838 15.5541 42.3632 15.2191 42.6374 14.6603C42.9575 14.0079 42.9806 13.8872 43.01 12.7165C43.0272 12.03 43.0885 11.346 43.1462 11.1964C43.2901 10.8235 43.6391 10.6897 44.4673 10.6897C45.0172 10.6897 45.2078 10.6483 45.3417 10.4998C45.5718 10.2445 45.5576 9.90401 45.306 9.65152C45.1104 9.45519 44.9612 9.44388 42.5725 9.44388H40.0457L39.8314 9.17031C39.6497 8.93859 39.6169 8.75078 39.6169 7.94056C39.6169 7.14603 39.585 6.95531 39.4278 6.81256C39.1734 6.58156 38.8341 6.59589 38.5826 6.84838ZM19.1881 10.2448C16.3232 10.6425 13.7679 12.7346 12.7706 15.4991L12.5488 16.1138L12.3127 15.7302C11.8909 15.0452 11.1299 15.0224 10.8558 15.6867C10.6937 16.0792 10.7473 16.1972 11.7485 17.6505C12.5835 18.8625 12.7964 19.0515 13.21 18.9474C13.4618 18.8839 15.5661 17.4767 15.8793 17.1624C16.136 16.9047 16.0736 16.3429 15.7607 16.0959C15.3967 15.8086 15.2327 15.8234 14.6451 16.1975C14.3714 16.3717 14.1271 16.4938 14.1021 16.4688C14.0772 16.4437 14.1711 16.1407 14.311 15.7953C15.2326 13.5187 17.3265 11.9831 19.8066 11.7649C20.6717 11.6888 20.9982 11.4623 20.9982 10.9387C20.9982 10.2934 20.4239 10.0732 19.1881 10.2448ZM36.619 10.8202C36.4777 10.8936 36.3167 11.0833 36.2611 11.2418C36.0068 11.9677 37.1941 14.9489 38.2294 16.1839C38.6149 16.6437 39.0651 16.6234 39.6425 16.1203C41.5741 14.4372 41.7866 14.0675 41.7881 12.3883C41.7896 10.6557 41.9363 10.7482 39.1349 10.7142C37.4514 10.6938 36.8104 10.7208 36.619 10.8202ZM38.0151 12.4806C38.1514 12.9558 38.9306 14.5311 39.0292 14.5311C39.0853 14.5311 39.3802 14.2812 39.6844 13.9758C40.2225 13.4358 40.2376 13.4046 40.2376 12.8338V12.247H39.0928C37.9547 12.247 37.9484 12.2484 38.0151 12.4806ZM1.90367 22.8782L1.55198 23.2312V34.8746C1.55198 47.6605 1.5164 46.9457 2.16919 47.2845C2.43544 47.4227 3.97169 47.442 14.6885 47.442C25.4054 47.442 26.9416 47.4227 27.2079 47.2845C27.8541 46.9491 27.8251 47.4212 27.8251 37.2728V28.0277L26.7131 28.0254C25.4567 28.0228 25.0044 27.8799 24.4312 27.3046C23.7218 26.5926 23.641 26.3014 23.6021 24.3161L23.5671 22.5252H12.9112H2.25536L1.90367 22.8782ZM0.0503822 34.9836C0.0503822 41.5217 0.0627946 44.1964 0.0779999 40.9273C0.0931018 37.6583 0.0931018 32.309 0.0779999 29.0399C0.0627946 25.7709 0.0503822 28.4455 0.0503822 34.9836ZM13.9874 25.8911C13.4342 26.0709 12.909 26.4672 12.6383 26.9094C12.5239 27.0962 11.2109 30.4637 9.72033 34.3929C7.10181 41.2952 7.01172 41.5572 7.05392 42.144C7.11267 42.9587 7.46302 43.4861 8.18532 43.8474C9.07281 44.2913 9.95203 44.1892 10.6384 43.5625C10.95 43.2782 11.1226 42.9434 11.5826 41.7319L11.9572 40.7456H14.6893H17.4213L17.8417 41.8648C18.3222 43.144 18.6718 43.6442 19.2788 43.9208C20.3519 44.4099 21.7499 43.8737 22.2022 42.7994C22.5274 42.0272 22.4863 41.8915 19.6097 34.2368C16.6765 26.4316 16.7165 26.5178 15.8155 26.0515C15.2992 25.7844 14.5251 25.7165 13.9874 25.8911ZM14.2688 27.4495C14.1232 27.5313 13.9436 27.7298 13.8696 27.8907C13.4762 28.7462 8.58573 41.7955 8.58573 41.9897C8.58573 42.4499 9.32344 42.7655 9.60458 42.4255C9.66685 42.3501 9.95286 41.661 10.2401 40.8942C10.5323 40.114 10.8575 39.4197 10.9784 39.3181C11.175 39.1529 11.5123 39.1364 14.6885 39.1364C17.8648 39.1364 18.2021 39.1529 18.3986 39.3181C18.5195 39.4197 18.8447 40.114 19.137 40.8942C19.4242 41.661 19.7102 42.3501 19.7725 42.4255C20.0586 42.7715 20.7913 42.448 20.7913 41.9757C20.7913 41.6405 15.5455 27.8035 15.3404 27.5976C15.0821 27.3383 14.5882 27.2701 14.2688 27.4495ZM39.6235 30.0754C39.3726 30.1748 37.1943 31.6833 37.0569 31.853C36.827 32.1365 36.8989 32.6619 37.2001 32.8996C37.5641 33.187 37.7281 33.1721 38.3157 32.7981C38.5894 32.6239 38.8337 32.5018 38.8586 32.5268C38.8836 32.5518 38.7932 32.8462 38.6576 33.181C37.7367 35.4551 35.6339 37.0117 33.1915 37.2272C32.287 37.307 31.9626 37.526 31.9626 38.0569C31.9626 38.3012 32.0413 38.4572 32.247 38.621C32.5003 38.8228 32.6108 38.8404 33.2555 38.782C36.4694 38.4905 39.1163 36.4731 40.1902 33.4965L40.412 32.8818L40.6325 33.24C40.9213 33.7089 41.3128 33.8928 41.6892 33.7363C41.9614 33.6231 42.2029 33.2569 42.2029 32.9574C42.2029 32.7665 40.7099 30.5395 40.377 30.2338C40.1266 30.0039 39.9161 29.9596 39.6235 30.0754ZM14.24 30.7529C13.8919 31.074 11.6627 36.971 11.7529 37.332C11.8843 37.8577 12.057 37.8906 14.6885 37.8906C17.3255 37.8906 17.4925 37.8585 17.6257 37.3257C17.6721 37.1402 17.3689 36.2109 16.5495 34.027C15.3898 30.9363 15.1687 30.5193 14.6885 30.5193C14.5811 30.5193 14.3793 30.6244 14.24 30.7529ZM14.1835 34.8554C13.9342 35.5254 13.7082 36.1322 13.6812 36.2035C13.6438 36.302 13.8861 36.3333 14.6885 36.3333C15.4883 36.3333 15.7343 36.3017 15.7009 36.2035C15.4264 35.3971 14.7333 33.6342 14.6912 33.6355C14.6613 33.6363 14.4328 34.1853 14.1835 34.8554Z" fill="white"/>
</svg>
