<svg width="47" height="46" viewBox="0 0 47 46" fill="none" xmlns="http://www.w3.org/2000/svg">
<path fill-rule="evenodd" clip-rule="evenodd" d="M17.3593 0.0906043C10.51 0.797392 4.51824 5.22316 1.829 11.5618C-0.333082 16.6581 -0.1618 22.3849 2.30083 27.3323C6.15019 35.0657 14.5187 39.1632 23.0618 37.4977C24.2635 37.2635 25.6443 36.8207 25.8666 36.5984C26.119 36.3461 26.096 35.8425 25.8195 35.5661C25.5396 35.2861 25.2568 35.2859 24.4373 35.5647C21.1517 36.6821 16.7217 36.5731 13.288 35.2901C6.96648 32.9282 2.61245 27.2961 1.9356 20.6053C1.3846 15.1592 3.60272 9.5264 7.71934 5.91798C12.4324 1.78664 18.844 0.47229 24.7359 2.42974C31.1059 4.54597 35.6366 10.0538 36.5313 16.7692C36.7412 18.3447 36.6587 20.7894 36.3453 22.2819C35.4619 26.4885 33.3567 29.9444 30.0651 32.5913C29.1857 33.2986 29.028 33.5242 29.1311 33.9284C29.1594 34.0398 31.7648 36.7052 34.9207 39.8517C39.5099 44.4272 40.7488 45.6149 41.1085 45.7836C41.4657 45.9512 41.7159 45.9957 42.3246 45.9999C43.403 46.0072 43.9801 45.7161 45.0453 44.6276C46.0832 43.567 46.3277 43.0642 46.3222 42.002C46.3155 40.7066 46.3959 40.8093 41.7501 36.1677C38.0487 32.4698 37.6591 32.1068 37.3913 32.1068C36.9754 32.1068 36.6555 32.4462 36.6555 32.8875C36.6555 33.2145 36.7972 33.3685 40.6102 37.187C43.3137 39.8944 44.6087 41.2532 44.7034 41.4819C45.0005 42.1997 44.7898 42.7551 43.8847 43.6399C42.9887 44.5158 42.4645 44.6888 41.7382 44.3481C41.4951 44.234 39.6994 42.4967 36.2057 38.9956L31.0331 33.8119L31.5728 33.3502C35.1772 30.2665 37.5091 25.8654 38.0925 21.0445C38.1433 20.6253 38.1848 19.6862 38.1848 18.9576C38.1848 15.3639 37.2178 11.9714 35.3221 8.91497C33.8549 6.54948 31.5522 4.27115 29.099 2.75772C25.7299 0.679279 21.3335 -0.319597 17.3593 0.0906043ZM17.5149 4.40968C14.2703 4.78696 10.9794 6.44288 8.69468 8.84804C1.88666 16.0149 3.94133 27.6047 12.8094 32.0584C13.8209 32.5663 15.4768 33.1178 16.6396 33.3339C17.8951 33.5673 20.7885 33.568 21.9472 33.3351C27.8489 32.1493 32.3383 27.7186 33.6149 21.8201C33.8863 20.5659 33.9069 17.675 33.654 16.3195C32.9619 12.6094 30.8011 9.20292 27.7658 7.03686C27.3414 6.73398 27.1142 6.63116 26.8693 6.63116C26.3424 6.63116 25.9905 7.16964 26.1854 7.67762C26.2157 7.75651 26.6125 8.10077 27.0671 8.44243C29.6802 10.4064 31.4306 13.1767 32.1295 16.4544C32.3763 17.6119 32.3573 20.4132 32.0947 21.5831C30.8879 26.9595 26.746 30.9399 21.408 31.853C20.5002 32.0084 20.0912 32.0298 18.8436 31.9877C17.2249 31.9329 16.5033 31.8085 15.0967 31.3415C13.1603 30.6985 11.5631 29.6954 10.022 28.1543C8.10635 26.2388 6.99526 24.1846 6.41844 21.492C6.15118 20.2444 6.12851 17.8248 6.37257 16.5926C7.06336 13.1041 9.00216 10.1187 11.8389 8.17517C13.3082 7.16856 14.9563 6.46627 16.7127 6.09852C17.714 5.88893 19.7619 5.82128 20.9815 5.95756C21.6284 6.02989 21.6377 6.02791 21.9036 5.76209C22.2408 5.42484 22.2474 5.11386 21.9247 4.76636C21.7042 4.52896 21.5892 4.48965 20.8677 4.40536C19.9396 4.29697 18.468 4.29886 17.5149 4.40968ZM23.9263 10.925C23.7284 10.9991 23.3033 11.2834 22.9817 11.557C21.8911 12.4845 21.1635 12.6774 18.1239 12.8449C16.998 12.9069 16.2295 12.9963 15.7479 13.1212C14.9094 13.3389 13.8552 13.885 13.2108 14.4353C12.257 15.2501 11.297 16.7652 10.9626 17.9837C10.7111 18.9004 10.7507 20.4187 11.0526 21.4296C11.291 22.2279 11.6121 22.9467 11.9347 23.4038L12.1094 23.6515L11.7985 24.1684C11.2836 25.0248 11.1071 25.4274 11.1071 25.7456C11.1071 26.1471 11.4157 26.4396 11.8394 26.4396C12.2237 26.4396 12.3924 26.2679 12.856 25.4051C13.2025 24.7603 13.9388 23.699 14.4714 23.0769L14.7703 22.7277L15.3882 23.0319C16.4388 23.5491 17.1344 23.3876 17.1344 22.6265C17.1344 22.211 16.9249 21.9763 16.3976 21.8011L15.9308 21.6461L16.1953 21.4297C17.0415 20.7373 18.4611 19.9223 19.887 19.3103C20.2549 19.1525 20.4629 18.8642 20.4629 18.5122C20.4629 18.2823 19.993 17.8037 19.7672 17.8037C19.5098 17.8037 18.5794 18.1894 17.6274 18.6905C16.7967 19.1278 16.7745 19.1339 16.7745 18.9264C16.7745 18.5652 16.3995 18.2175 16.0099 18.2175C15.7523 18.2175 15.6209 18.2766 15.4584 18.4655C15.2727 18.6814 15.2452 18.8057 15.2452 19.4305V20.1477L14.1558 21.2246C13.5566 21.8169 13.0556 22.3016 13.0424 22.3016C12.9922 22.3016 12.6461 21.4245 12.492 20.9072C12.2581 20.1219 12.2801 18.8334 12.5402 18.0789C12.9848 16.7889 14.0575 15.5254 15.1757 14.9745C16.0156 14.5607 16.8223 14.4201 19.0235 14.3039C21.5701 14.1694 22.7275 13.8188 23.8412 12.8443C24.7099 12.084 25.135 12.1539 25.4777 13.1133C26.1251 14.9251 26.2697 17.4163 25.8258 19.1073C25.1542 21.6659 23.4507 23.6702 20.9684 24.8222C20.0042 25.2697 19.1542 25.45 18.0094 25.45C17.1499 25.45 17.0603 25.4666 16.8802 25.6582C16.6715 25.8804 16.6207 26.3321 16.7727 26.616C17.0546 27.1427 19.2137 27.1056 20.8227 26.5464C22.1156 26.0972 23.6496 25.1212 24.7072 24.0749C27.1679 21.6408 28.1432 18.1012 27.384 14.3608C26.9818 12.379 26.5815 11.5462 25.8156 11.0974C25.306 10.7987 24.4681 10.7223 23.9263 10.925Z" fill="#26A151"/>
</svg>
