<svg width="46" height="46" viewBox="0 0 46 46" fill="none" xmlns="http://www.w3.org/2000/svg">
<path fill-rule="evenodd" clip-rule="evenodd" d="M17.037 0.0906043C10.1877 0.797392 4.19597 5.22316 1.50673 11.5618C-0.655348 16.6581 -0.484065 22.3849 1.97857 27.3323C5.82792 35.0657 14.1965 39.1632 22.7395 37.4977C23.9412 37.2635 25.3221 36.8207 25.5444 36.5984C25.7967 36.3461 25.7738 35.8425 25.4972 35.5661C25.2174 35.2861 24.9345 35.2859 24.115 35.5647C20.8294 36.6821 16.3994 36.5731 12.9657 35.2901C6.64421 32.9282 2.29019 27.2961 1.61333 20.6053C1.06233 15.1592 3.28046 9.5264 7.39708 5.91798C12.1101 1.78664 18.5217 0.47229 24.4137 2.42974C30.7837 4.54597 35.3143 10.0538 36.209 16.7692C36.4189 18.3447 36.3364 20.7894 36.023 22.2819C35.1397 26.4885 33.0345 29.9444 29.7428 32.5913C28.8634 33.2986 28.7057 33.5242 28.8088 33.9284C28.8371 34.0398 31.4425 36.7052 34.5984 39.8517C39.1877 44.4272 40.4265 45.6149 40.7862 45.7836C41.1435 45.9512 41.3936 45.9957 42.0023 45.9999C43.0807 46.0072 43.6578 45.7161 44.723 44.6276C45.761 43.567 46.0054 43.0642 45.9999 42.002C45.9933 40.7066 46.0737 40.8093 41.4278 36.1677C37.7265 32.4698 37.3368 32.1068 37.069 32.1068C36.6532 32.1068 36.3333 32.4462 36.3333 32.8875C36.3333 33.2145 36.4749 33.3685 40.288 37.187C42.9914 39.8944 44.2865 41.2532 44.3811 41.4819C44.6782 42.1997 44.4675 42.7551 43.5625 43.6399C42.6665 44.5158 42.1422 44.6888 41.416 44.3481C41.1729 44.234 39.3771 42.4967 35.8835 38.9956L30.7108 33.8119L31.2506 33.3502C34.855 30.2665 37.1868 25.8654 37.7703 21.0445C37.821 20.6253 37.8626 19.6862 37.8626 18.9576C37.8626 15.3639 36.8955 11.9714 34.9998 8.91497C33.5326 6.54948 31.23 4.27115 28.7767 2.75772C25.4076 0.679279 21.0112 -0.319597 17.037 0.0906043ZM17.1926 4.40968C13.948 4.78696 10.6571 6.44288 8.37242 8.84804C1.5644 16.0149 3.61906 27.6047 12.4872 32.0584C13.4987 32.5663 15.1545 33.1178 16.3173 33.3339C17.5728 33.5673 20.4663 33.568 21.6249 33.3351C27.5266 32.1493 32.016 27.7186 33.2926 21.8201C33.564 20.5659 33.5846 17.675 33.3318 16.3195C32.6396 12.6094 30.4788 9.20292 27.4436 7.03686C27.0192 6.73398 26.7919 6.63116 26.547 6.63116C26.0202 6.63116 25.6682 7.16964 25.8632 7.67762C25.8934 7.75651 26.2902 8.10077 26.7449 8.44243C29.3579 10.4064 31.1083 13.1767 31.8072 16.4544C32.054 17.6119 32.035 20.4132 31.7724 21.5831C30.5656 26.9595 26.4237 30.9399 21.0857 31.853C20.1779 32.0084 19.7689 32.0298 18.5213 31.9877C16.9026 31.9329 16.1811 31.8085 14.7745 31.3415C12.8381 30.6985 11.2409 29.6954 9.69976 28.1543C7.78408 26.2388 6.673 24.1846 6.09618 21.492C5.82891 20.2444 5.80624 17.8248 6.0503 16.5926C6.7411 13.1041 8.6799 10.1187 11.5167 8.17517C12.986 7.16856 14.634 6.46627 16.3904 6.09852C17.3917 5.88893 19.4396 5.82128 20.6592 5.95756C21.3061 6.02989 21.3155 6.02791 21.5813 5.76209C21.9186 5.42484 21.9251 5.11386 21.6024 4.76636C21.382 4.52896 21.2669 4.48965 20.5454 4.40536C19.6173 4.29697 18.1458 4.29886 17.1926 4.40968ZM23.604 10.925C23.4061 10.9991 22.9811 11.2834 22.6595 11.557C21.5688 12.4845 20.8412 12.6774 17.8017 12.8449C16.6757 12.9069 15.9072 12.9963 15.4257 13.1212C14.5872 13.3389 13.5329 13.885 12.8885 14.4353C11.9347 15.2501 10.9748 16.7652 10.6404 17.9837C10.3889 18.9004 10.4284 20.4187 10.7303 21.4296C10.9687 22.2279 11.2899 22.9467 11.6124 23.4038L11.7871 23.6515L11.4762 24.1684C10.9614 25.0248 10.7849 25.4274 10.7849 25.7456C10.7849 26.1471 11.0934 26.4396 11.5171 26.4396C11.9014 26.4396 12.0701 26.2679 12.5337 25.4051C12.8803 24.7603 13.6165 23.699 14.1491 23.0769L14.448 22.7277L15.0659 23.0319C16.1166 23.5491 16.8121 23.3876 16.8121 22.6265C16.8121 22.211 16.6026 21.9763 16.0754 21.8011L15.6086 21.6461L15.873 21.4297C16.7192 20.7373 18.1388 19.9223 19.5648 19.3103C19.9326 19.1525 20.1406 18.8642 20.1406 18.5122C20.1406 18.2823 19.6708 17.8037 19.445 17.8037C19.1876 17.8037 18.2571 18.1894 17.3051 18.6905C16.4744 19.1278 16.4523 19.1339 16.4523 18.9264C16.4523 18.5652 16.0772 18.2175 15.6876 18.2175C15.4301 18.2175 15.2986 18.2766 15.1362 18.4655C14.9504 18.6814 14.923 18.8057 14.923 19.4305V20.1477L13.8336 21.2246C13.2344 21.8169 12.7334 22.3016 12.7201 22.3016C12.6699 22.3016 12.3238 21.4245 12.1698 20.9072C11.9359 20.1219 11.9578 18.8334 12.2179 18.0789C12.6626 16.7889 13.7352 15.5254 14.8534 14.9745C15.6933 14.5607 16.5 14.4201 18.7013 14.3039C21.2478 14.1694 22.4052 13.8188 23.5189 12.8443C24.3877 12.084 24.8127 12.1539 25.1555 13.1133C25.8028 14.9251 25.9475 17.4163 25.5035 19.1073C24.832 21.6659 23.1284 23.6702 20.6461 24.8222C19.6819 25.2697 18.832 25.45 17.6872 25.45C16.8276 25.45 16.738 25.4666 16.5579 25.6582C16.3492 25.8804 16.2985 26.3321 16.4504 26.616C16.7323 27.1427 18.8914 27.1056 20.5004 26.5464C21.7933 26.0972 23.3273 25.1212 24.385 24.0749C26.8456 21.6408 27.821 18.1012 27.0617 14.3608C26.6595 12.379 26.2593 11.5462 25.4934 11.0974C24.9837 10.7987 24.1459 10.7223 23.604 10.925Z" fill="white"/>
</svg>
