<svg width="40" height="47" viewBox="0 0 40 47" fill="none" xmlns="http://www.w3.org/2000/svg">
<path fill-rule="evenodd" clip-rule="evenodd" d="M1.61965 0.218091C0.654287 0.668828 0.250212 1.67176 0.332712 3.41209C0.410999 5.06456 1.02677 6.6903 2.05816 7.96759L2.52798 8.54935L2.2422 10.3549C1.49705 15.0629 1.11101 19.5485 1.11101 23.5C1.11101 27.4515 1.49705 31.9371 2.2422 36.6451L2.52798 38.4506L2.05816 39.0324C1.02677 40.3097 0.410999 41.9354 0.332712 43.5879C0.250212 45.3282 0.654287 46.3312 1.61965 46.7819C2.17939 47.0432 2.62165 47.0606 3.75394 46.8655C5.19526 46.6171 6.51434 46.0862 7.70568 45.275L8.25581 44.9003L9.43305 45.1318C14.8754 46.2021 20.2257 46.4421 25.4897 45.852C26.8911 45.6949 29.2443 45.3282 30.5028 45.0711L31.3499 44.8979L32.1061 45.3922C33.3088 46.1784 34.4301 46.6171 35.8714 46.8655C37.0557 47.0696 37.4586 47.0486 38.0399 46.7531C38.6376 46.4492 38.9805 45.9861 39.1763 45.2188C39.6434 43.388 38.9585 40.7555 37.5667 39.0319L37.0964 38.4495L37.3326 36.9659C37.8474 33.7327 38.1932 30.6332 38.4098 27.3105C38.723 22.5067 38.3615 16.5361 37.3831 10.3549L37.0973 8.54935L37.5657 7.96896C38.6576 6.61574 39.3159 4.77808 39.3159 3.08366C39.3159 1.59464 38.9084 0.688478 38.0399 0.246922C37.4586 -0.0486426 37.0557 -0.0695773 35.8714 0.134536C34.43 0.382905 33.111 0.913801 31.9196 1.72502L31.3695 2.09973L30.1922 1.86826C28.6398 1.56305 26.4505 1.2415 24.5282 1.03647C22.3308 0.802057 17.2945 0.802057 15.0971 1.03647C13.1772 1.24132 10.9858 1.56296 9.43919 1.86706L8.26808 2.09725L7.5155 1.60538C6.31656 0.821707 5.1937 0.38263 3.75394 0.134536C2.62165 -0.060579 2.17939 -0.0432253 1.61965 0.218091ZM2.26885 1.62558C1.89911 1.87321 1.77165 3.05336 1.99003 4.20871C2.1326 4.96337 2.74224 6.45699 2.87427 6.37508C2.91081 6.3525 2.96877 6.15793 3.0031 5.94271C3.03735 5.72758 3.153 5.45809 3.25994 5.34387C3.52511 5.06088 4.05509 5.06042 4.30863 5.34286C4.59038 5.65669 4.60768 5.78726 4.46548 6.52291C3.22469 12.9439 2.48311 20.8529 2.69526 25.403C2.93059 30.4508 3.51449 35.4504 4.43316 40.2845C4.59752 41.1493 4.60073 41.2537 4.47116 41.505C4.22504 41.9823 3.62776 42.0695 3.24374 41.6844C3.14787 41.5883 3.04129 41.3208 3.00677 41.0899C2.97216 40.859 2.9054 40.6701 2.85825 40.6701C2.69004 40.6701 2.1348 42.0251 1.99086 42.7869C1.83108 43.6322 1.86047 44.6726 2.05614 45.1025C2.11987 45.2427 2.27086 45.3821 2.39163 45.4125C2.66953 45.4825 3.83598 45.2963 4.6129 45.058C5.7723 44.7025 6.42021 44.3428 5.90149 44.3428C5.66809 44.3428 5.34542 43.9212 5.34542 43.6164C5.34542 43.3141 5.57223 42.9792 5.84811 42.8741C5.99361 42.8186 6.41572 42.8772 7.22744 43.0656C9.87046 43.6788 12.6722 44.1334 15.7838 44.4538C17.4956 44.6301 22.5073 44.6005 24.3451 44.4033C27.1304 44.1042 29.9782 43.6337 32.2507 43.0972C32.7713 42.9743 33.3378 42.8737 33.5097 42.8737C33.8584 42.8737 34.1518 43.1088 34.2392 43.4583C34.3151 43.7614 34.0554 44.2349 33.7746 44.3056C33.6496 44.3371 33.5473 44.3966 33.5473 44.438C33.5473 44.5665 35.0172 45.0908 35.8822 45.2708C36.7594 45.4533 37.1931 45.4838 37.3564 45.3744C37.7319 45.123 37.8575 43.9276 37.6295 42.7767C37.4766 42.0048 36.9301 40.6701 36.767 40.6701C36.7199 40.6701 36.6531 40.859 36.6185 41.0899C36.5177 41.7642 36.0234 42.0994 35.5007 41.8482C35.0388 41.6263 34.9869 41.3642 35.1915 40.2887C36.4141 33.8614 37.1419 26.0883 36.9336 21.6852C36.6885 16.5055 36.1122 11.5517 35.1915 6.71132C34.9869 5.63585 35.0388 5.37371 35.5007 5.15178C36.0234 4.90057 36.5177 5.2358 36.6185 5.91011C36.6531 6.14104 36.7199 6.32991 36.767 6.32991C36.9301 6.32991 37.4766 4.99523 37.6295 4.22331C37.8771 2.97339 37.711 1.73154 37.2777 1.59372C37.0561 1.52311 36.2455 1.61594 35.516 1.79535C34.8426 1.9609 33.5473 2.46783 33.5473 2.56571C33.5473 2.6051 33.6496 2.66295 33.7746 2.69444C34.0554 2.76514 34.3151 3.23856 34.2392 3.54165C34.1518 3.8912 33.8584 4.12626 33.5097 4.12626C33.3378 4.12626 32.7701 4.02508 32.248 3.9013C29.9054 3.34626 26.8832 2.85907 23.8415 2.54624C22.3376 2.39162 17.2877 2.39162 15.7838 2.54624C12.7421 2.85907 9.71992 3.34626 7.37724 3.9013C6.85514 4.02508 6.28744 4.12626 6.11557 4.12626C5.76689 4.12626 5.47352 3.8912 5.38608 3.54165C5.31017 3.23856 5.56985 2.76514 5.85067 2.69444C5.97566 2.66295 6.07794 2.60345 6.07794 2.56204C6.07794 2.43349 4.60805 1.90921 3.74304 1.72924C2.86585 1.54671 2.4322 1.51622 2.26885 1.62558ZM18.3018 6.29437C16.0557 6.40658 13.585 6.71059 11.6176 7.11661C9.31521 7.59177 6.14863 8.54145 5.79427 8.863C5.52947 9.10338 5.56041 9.67569 5.85425 9.97034C6.14817 10.2651 6.18855 10.2589 8.32127 9.59507C15.6878 7.30208 23.4948 7.26986 31.037 9.50114C31.9732 9.77807 32.8222 10.0493 32.924 10.1039C33.2022 10.2532 33.7081 10.1222 33.8823 9.85565C34.1009 9.52098 34.0611 9.0774 33.7915 8.84482C33.3087 8.42842 29.4259 7.34561 26.7441 6.87944C24.2517 6.44633 20.4852 6.18529 18.3018 6.29437ZM18.5765 11.8032C15.5706 12.2583 13.5219 13.2572 11.56 15.2245C9.69484 17.0949 8.60055 19.2668 8.22312 21.8473C7.80421 24.7118 8.47895 27.6304 10.1336 30.1109C10.7238 30.9957 12.3377 32.614 13.22 33.2059C17.2615 35.9166 22.3638 35.9166 26.4053 33.2059C27.2876 32.614 28.9014 30.9957 29.4917 30.1109C32.1959 26.0569 32.1959 20.9431 29.4917 16.8891C28.9014 16.0043 27.2876 14.386 26.4053 13.7941C25.1308 12.9393 23.777 12.354 22.2849 12.0129C21.5256 11.8394 19.2047 11.7081 18.5765 11.8032ZM18.3934 13.4034C13.0016 14.2457 9.17054 19.1304 9.72423 24.4569C9.89426 26.0927 10.4181 27.645 11.2214 28.8939L11.5312 29.3755L11.8491 29.1135C12.887 28.2581 14.3043 27.9913 15.5527 28.4162L15.9837 28.563L16.5621 28.0061C17.2711 27.3234 18.1903 26.8591 19.1356 26.7061L19.8126 26.5967L19.8121 25.9895C19.8115 25.3964 19.5879 23.6554 19.4923 23.5003C19.4659 23.4574 19.2654 23.5226 19.0468 23.6451C18.0843 24.1845 16.9567 24.412 16.1144 24.2367C15.0667 24.0185 13.9422 22.9907 13.2613 21.6284C12.6221 20.3497 12.9942 19.5266 14.5902 18.6888C16.1968 17.8453 17.5757 17.879 18.7886 18.7911C18.9555 18.9167 19.1049 19.0049 19.1207 18.9872C19.1363 18.9695 19.2405 18.7735 19.3521 18.5517C20.0625 17.1395 21.6471 16.454 23.6369 16.6981C24.5749 16.8131 25.0223 17.065 25.3166 17.6434C25.494 17.9923 25.5085 18.1301 25.4635 19.0436C25.4068 20.1936 25.2599 20.7566 24.8286 21.4768C24.2637 22.4204 23.1493 23.0114 21.7543 23.1073L21.0307 23.1571L21.1563 23.7188C21.2253 24.0277 21.3076 24.8718 21.3392 25.5945L21.3965 26.9085L21.9519 27.1896C22.2573 27.3442 22.7625 27.7165 23.0745 28.0168L23.6416 28.563L24.0726 28.4162C25.321 27.9912 26.7383 28.2581 27.7763 29.1135L28.0942 29.3756L28.4853 28.7563C30.2895 25.8987 30.4417 22.0929 28.8774 18.955C27.1952 15.5809 23.8917 13.4645 20.1331 13.3529C19.4784 13.3336 18.6956 13.3562 18.3934 13.4034ZM22.1316 18.2704C21.3646 18.4225 20.9218 18.8044 20.5965 19.5942C20.402 20.0666 20.3195 20.91 20.4378 21.2148C20.519 21.4235 20.6003 21.4625 21.0646 21.5148C21.7572 21.5928 22.6059 21.4348 23.0484 21.1455C23.5618 20.8099 23.8532 20.1172 23.9114 19.0949L23.9569 18.2947L23.4642 18.2354C22.8733 18.1642 22.6354 18.1705 22.1316 18.2704ZM15.8754 19.8317C15.5984 19.9315 15.1863 20.1294 14.9597 20.2717C14.4601 20.5851 14.454 20.756 14.9172 21.4567C15.275 21.9977 15.9333 22.5275 16.4461 22.6871C16.8971 22.8276 17.7678 22.5988 18.4783 22.1532C18.9383 21.8646 18.9828 21.809 18.9299 21.5877C18.7842 20.9774 18.2716 20.3181 17.62 19.903C17.1256 19.588 16.6103 19.5669 15.8754 19.8317ZM18.485 28.5389C17.8871 28.8265 17.4872 29.1996 17.0361 29.8905C16.6453 30.4892 16.3512 30.5911 15.8442 30.3034C14.9815 29.8138 14.914 29.7915 14.3188 29.7974C13.6872 29.8037 13.1944 29.9942 12.7693 30.3967L12.5476 30.6065L13.0878 31.0987C15.2241 33.0456 18.2836 33.9927 21.1464 33.5934C22.1624 33.4517 23.3054 33.1007 24.2614 32.637C25.1041 32.2281 26.3282 31.3758 26.8017 30.8684L27.0607 30.5907L26.8475 30.3888C26.2045 29.7798 25.0668 29.5984 24.3451 29.9898C24.1437 30.0991 23.8445 30.2615 23.6804 30.3508C23.2625 30.5779 22.9526 30.4472 22.5892 29.8905C22.1128 29.1609 21.4425 28.55 21.1181 28.55C21.0757 28.55 20.9897 28.742 20.9272 28.9767C20.6076 30.1749 20.2058 30.651 19.6229 30.5227C19.0473 30.3959 18.95 29.898 19.3071 28.9055L19.534 28.2746L19.2842 28.2747C19.1468 28.2747 18.7871 28.3937 18.485 28.5389ZM5.85443 37.0295C5.53459 37.3502 5.50795 37.8307 5.79354 38.1255C6.12079 38.4633 9.35193 39.4195 11.8923 39.9304C17.9372 41.1459 24.0564 40.9627 30.1137 39.3848C31.9143 38.9158 33.6295 38.3331 33.8447 38.1173C34.2008 37.7603 33.9821 36.9724 33.4928 36.8492C33.3348 36.8095 32.8655 36.918 32.0668 37.1791C28.1014 38.4752 24.0023 39.132 19.8584 39.1354C15.8309 39.1386 12.1571 38.588 8.27549 37.3992C6.10422 36.7343 6.14295 36.7402 5.85443 37.0295Z" fill="#26A151"/>
</svg>
