<svg width="39" height="47" viewBox="0 0 39 47" fill="none" xmlns="http://www.w3.org/2000/svg">
<path fill-rule="evenodd" clip-rule="evenodd" d="M1.29739 0.218091C0.332021 0.668828 -0.0720539 1.67176 0.0104459 3.41209C0.0887337 5.06456 0.704506 6.6903 1.73589 7.96759L2.20571 8.54935L1.91994 10.3549C1.17478 15.0629 0.788746 19.5485 0.788746 23.5C0.788746 27.4515 1.17478 31.9371 1.91994 36.6451L2.20571 38.4506L1.73589 39.0324C0.704506 40.3097 0.0887337 41.9354 0.0104459 43.5879C-0.0720539 45.3282 0.332021 46.3312 1.29739 46.7819C1.85712 47.0432 2.29938 47.0606 3.43167 46.8655C4.87299 46.6171 6.19207 46.0862 7.38342 45.275L7.93354 44.9003L9.11079 45.1318C14.5531 46.2021 19.9034 46.4421 25.1674 45.852C26.5688 45.6949 28.922 45.3282 30.1806 45.0711L31.0276 44.8979L31.7839 45.3922C32.9866 46.1784 34.1079 46.6171 35.5491 46.8655C36.7335 47.0696 37.1364 47.0486 37.7176 46.7531C38.3153 46.4492 38.6583 45.9861 38.854 45.2188C39.3211 43.388 38.6362 40.7555 37.2444 39.0319L36.7741 38.4495L37.0104 36.9659C37.5251 33.7327 37.8709 30.6332 38.0875 27.3105C38.4007 22.5067 38.0392 16.5361 37.0608 10.3549L36.775 8.54935L37.2434 7.96896C38.3353 6.61574 38.9937 4.77808 38.9937 3.08366C38.9937 1.59464 38.5861 0.688478 37.7176 0.246922C37.1364 -0.0486426 36.7335 -0.0695773 35.5491 0.134536C34.1078 0.382905 32.7887 0.913801 31.5973 1.72502L31.0472 2.09973L29.87 1.86826C28.3176 1.56305 26.1283 1.2415 24.206 1.03647C22.0085 0.802057 16.9723 0.802057 14.7748 1.03647C12.855 1.24132 10.6635 1.56296 9.11692 1.86706L7.94581 2.09725L7.19324 1.60538C5.99429 0.821707 4.87143 0.38263 3.43167 0.134536C2.29938 -0.060579 1.85712 -0.0432253 1.29739 0.218091ZM1.94658 1.62558C1.57684 1.87321 1.44939 3.05336 1.66777 4.20871C1.81033 4.96337 2.41997 6.45699 2.55201 6.37508C2.58854 6.3525 2.6465 6.15793 2.68084 5.94271C2.71508 5.72758 2.83073 5.45809 2.93768 5.34387C3.20285 5.06088 3.73283 5.06042 3.98637 5.34286C4.26811 5.65669 4.28542 5.78726 4.14322 6.52291C2.90243 12.9439 2.16084 20.8529 2.373 25.403C2.60832 30.4508 3.19223 35.4504 4.1109 40.2845C4.27526 41.1493 4.27846 41.2537 4.1489 41.505C3.90277 41.9823 3.30549 42.0695 2.92147 41.6844C2.8256 41.5883 2.71902 41.3208 2.6845 41.0899C2.64989 40.859 2.58314 40.6701 2.53598 40.6701C2.36778 40.6701 1.81253 42.0251 1.66859 42.7869C1.50881 43.6322 1.5382 44.6726 1.73388 45.1025C1.79761 45.2427 1.9486 45.3821 2.06937 45.4125C2.34727 45.4825 3.51371 45.2963 4.29064 45.058C5.45003 44.7025 6.09794 44.3428 5.57923 44.3428C5.34583 44.3428 5.02316 43.9212 5.02316 43.6164C5.02316 43.3141 5.24996 42.9792 5.52585 42.8741C5.67134 42.8186 6.09346 42.8772 6.90518 43.0656C9.54819 43.6788 12.3499 44.1334 15.4615 44.4538C17.1733 44.6301 22.185 44.6005 24.0228 44.4033C26.8081 44.1042 29.656 43.6337 31.9284 43.0972C32.4491 42.9743 33.0156 42.8737 33.1874 42.8737C33.5361 42.8737 33.8295 43.1088 33.9169 43.4583C33.9929 43.7614 33.7332 44.2349 33.4523 44.3056C33.3274 44.3371 33.2251 44.3966 33.2251 44.438C33.2251 44.5665 34.695 45.0908 35.56 45.2708C36.4372 45.4533 36.8708 45.4838 37.0342 45.3744C37.4096 45.123 37.5352 43.9276 37.3072 42.7767C37.1543 42.0048 36.6078 40.6701 36.4448 40.6701C36.3976 40.6701 36.3309 40.859 36.2963 41.0899C36.1954 41.7642 35.7012 42.0994 35.1784 41.8482C34.7166 41.6263 34.6647 41.3642 34.8692 40.2887C36.0918 33.8614 36.8196 26.0883 36.6113 21.6852C36.3662 16.5055 35.7899 11.5517 34.8692 6.71132C34.6647 5.63585 34.7166 5.37371 35.1784 5.15178C35.7012 4.90057 36.1954 5.2358 36.2963 5.91011C36.3309 6.14104 36.3976 6.32991 36.4448 6.32991C36.6078 6.32991 37.1543 4.99523 37.3072 4.22331C37.5548 2.97339 37.3887 1.73154 36.9554 1.59372C36.7338 1.52311 35.9232 1.61594 35.1937 1.79535C34.5204 1.9609 33.2251 2.46783 33.2251 2.56571C33.2251 2.6051 33.3274 2.66295 33.4523 2.69444C33.7332 2.76514 33.9929 3.23856 33.9169 3.54165C33.8295 3.8912 33.5361 4.12626 33.1874 4.12626C33.0156 4.12626 32.4479 4.02508 31.9258 3.9013C29.5831 3.34626 26.5609 2.85907 23.5192 2.54624C22.0154 2.39162 16.9654 2.39162 15.4615 2.54624C12.4198 2.85907 9.39766 3.34626 7.05498 3.9013C6.53287 4.02508 5.96517 4.12626 5.79331 4.12626C5.44463 4.12626 5.15125 3.8912 5.06381 3.54165C4.9879 3.23856 5.24758 2.76514 5.52841 2.69444C5.65339 2.66295 5.75567 2.60345 5.75567 2.56204C5.75567 2.43349 4.28578 1.90921 3.42077 1.72924C2.54358 1.54671 2.10993 1.51622 1.94658 1.62558ZM17.9796 6.29437C15.7335 6.40658 13.2627 6.71059 11.2953 7.11661C8.99294 7.59177 5.82636 8.54145 5.47201 8.863C5.2072 9.10338 5.23815 9.67569 5.53198 9.97034C5.8259 10.2651 5.86628 10.2589 7.99901 9.59507C15.3656 7.30208 23.1726 7.26986 30.7147 9.50114C31.6509 9.77807 32.5 10.0493 32.6017 10.1039C32.88 10.2532 33.3859 10.1222 33.56 9.85565C33.7787 9.52098 33.7388 9.0774 33.4693 8.84482C32.9865 8.42842 29.1037 7.34561 26.4218 6.87944C23.9294 6.44633 20.1629 6.18529 17.9796 6.29437ZM18.2543 11.8032C15.2484 12.2583 13.1996 13.2572 11.2377 15.2245C9.37257 17.0949 8.27828 19.2668 7.90085 21.8473C7.48194 24.7118 8.15668 27.6304 9.81135 30.1109C10.4016 30.9957 12.0154 32.614 12.8977 33.2059C16.9392 35.9166 22.0416 35.9166 26.083 33.2059C26.9654 32.614 28.5792 30.9957 29.1694 30.1109C31.8736 26.0569 31.8736 20.9431 29.1694 16.8891C28.5792 16.0043 26.9654 14.386 26.083 13.7941C24.8085 12.9393 23.4548 12.354 21.9626 12.0129C21.2034 11.8394 18.8825 11.7081 18.2543 11.8032ZM18.0711 13.4034C12.6793 14.2457 8.84827 19.1304 9.40196 24.4569C9.572 26.0927 10.0958 27.645 10.8991 28.8939L11.2089 29.3755L11.5268 29.1135C12.5647 28.2581 13.982 27.9913 15.2304 28.4162L15.6614 28.563L16.2398 28.0061C16.9488 27.3234 17.868 26.8591 18.8133 26.7061L19.4904 26.5967L19.4898 25.9895C19.4893 25.3964 19.2657 23.6554 19.1701 23.5003C19.1436 23.4574 18.9431 23.5226 18.7245 23.6451C17.762 24.1845 16.6345 24.412 15.7922 24.2367C14.7444 24.0185 13.62 22.9907 12.939 21.6284C12.2998 20.3497 12.6719 19.5266 14.2679 18.6888C15.8746 17.8453 17.2535 17.879 18.4663 18.7911C18.6332 18.9167 18.7827 19.0049 18.7984 18.9872C18.8141 18.9695 18.9182 18.7735 19.0298 18.5517C19.7403 17.1395 21.3248 16.454 23.3147 16.6981C24.2527 16.8131 24.7 17.065 24.9943 17.6434C25.1718 17.9923 25.1862 18.1301 25.1412 19.0436C25.0845 20.1936 24.9377 20.7566 24.5064 21.4768C23.9414 22.4204 22.827 23.0114 21.432 23.1073L20.7085 23.1571L20.834 23.7188C20.903 24.0277 20.9854 24.8718 21.0169 25.5945L21.0743 26.9085L21.6296 27.1896C21.9351 27.3442 22.4402 27.7165 22.7522 28.0168L23.3193 28.563L23.7503 28.4162C24.9987 27.9912 26.4161 28.2581 27.454 29.1135L27.7719 29.3756L28.163 28.7563C29.9672 25.8987 30.1195 22.0929 28.5551 18.955C26.873 15.5809 23.5694 13.4645 19.8109 13.3529C19.1562 13.3336 18.3733 13.3562 18.0711 13.4034ZM21.8093 18.2704C21.0423 18.4225 20.5995 18.8044 20.2743 19.5942C20.0798 20.0666 19.9972 20.91 20.1156 21.2148C20.1967 21.4235 20.278 21.4625 20.7423 21.5148C21.4349 21.5928 22.2837 21.4348 22.7262 21.1455C23.2395 20.8099 23.5309 20.1172 23.5891 19.0949L23.6346 18.2947L23.142 18.2354C22.551 18.1642 22.3131 18.1705 21.8093 18.2704ZM15.5531 19.8317C15.2761 19.9315 14.8641 20.1294 14.6374 20.2717C14.1379 20.5851 14.1317 20.756 14.595 21.4567C14.9527 21.9977 15.6111 22.5275 16.1238 22.6871C16.5749 22.8276 17.4456 22.5988 18.156 22.1532C18.616 21.8646 18.6605 21.809 18.6076 21.5877C18.4619 20.9774 17.9493 20.3181 17.2978 19.903C16.8033 19.588 16.288 19.5669 15.5531 19.8317ZM18.1627 28.5389C17.5649 28.8265 17.1649 29.1996 16.7139 29.8905C16.3231 30.4892 16.029 30.5911 15.522 30.3034C14.6592 29.8138 14.5918 29.7915 13.9965 29.7974C13.365 29.8037 12.8722 29.9942 12.447 30.3967L12.2254 30.6065L12.7655 31.0987C14.9018 33.0456 17.9613 33.9927 20.8241 33.5934C21.8401 33.4517 22.9831 33.1007 23.9391 32.637C24.7818 32.2281 26.0059 31.3758 26.4794 30.8684L26.7385 30.5907L26.5252 30.3888C25.8822 29.7798 24.7445 29.5984 24.0228 29.9898C23.8214 30.0991 23.5222 30.2615 23.3582 30.3508C22.9403 30.5779 22.6303 30.4472 22.2669 29.8905C21.7906 29.1609 21.1202 28.55 20.7958 28.55C20.7534 28.55 20.6674 28.742 20.6049 28.9767C20.2853 30.1749 19.8836 30.651 19.3007 30.5227C18.725 30.3959 18.6277 29.898 18.9848 28.9055L19.2117 28.2746L18.962 28.2747C18.8245 28.2747 18.4649 28.3937 18.1627 28.5389ZM5.53216 37.0295C5.21233 37.3502 5.18568 37.8307 5.47127 38.1255C5.79852 38.4633 9.02966 39.4195 11.57 39.9304C17.615 41.1459 23.7341 40.9627 29.7914 39.3848C31.592 38.9158 33.3072 38.3331 33.5224 38.1173C33.8785 37.7603 33.6598 36.9724 33.1705 36.8492C33.0126 36.8095 32.5432 36.918 31.7446 37.1791C27.7792 38.4752 23.68 39.132 19.5362 39.1354C15.5086 39.1386 11.8348 38.588 7.95323 37.3992C5.78195 36.7343 5.82068 36.7402 5.53216 37.0295Z" fill="white"/>
</svg>
