<svg width="59" height="46" viewBox="0 0 59 46" fill="none" xmlns="http://www.w3.org/2000/svg">
<path fill-rule="evenodd" clip-rule="evenodd" d="M53.6358 0.157532C52.7561 0.448371 51.9439 1.18794 51.4785 2.12181C51.2623 2.5556 49.3264 6.82223 47.1765 11.6033C43.9471 18.7846 43.2106 20.3271 42.9404 20.4753C42.6911 20.6119 42.4542 21.0333 41.9452 22.2454C41.4023 23.5382 41.2389 23.8211 41.0729 23.7557C39.0886 22.9742 34.2899 21.4119 33.8737 21.4119C33.7558 21.4119 33.5454 21.5339 33.406 21.6831C33.0194 22.097 28.8837 31.0867 28.5126 32.3199C28.3331 32.9165 28.1731 33.4431 28.1572 33.4902C28.1412 33.5372 27.843 33.3928 27.4944 33.1692C25.2607 31.7361 22.2307 31.948 20.2247 33.6775L19.7635 34.075L19.5716 33.559C19.1933 32.5415 19.0973 32.1838 18.9157 31.1146C18.1564 26.6434 19.7716 22.209 23.3099 19.0497C24.3116 18.1553 24.4926 18.0459 25.4729 17.7412C28.7115 16.7345 31.3056 14.0321 32.2464 10.6847C32.6207 9.35312 32.6478 7.07908 32.3047 5.80327C32.0037 4.68391 31.1797 3.05387 30.753 2.73302C30.335 2.41891 29.8815 2.46881 28.3443 2.9983C24.9576 4.16503 22.3435 7.2107 21.6993 10.7403C21.3366 12.7271 21.5445 14.527 22.3429 16.3137L22.7845 17.3024L21.9059 18.0944C21.4227 18.53 20.7874 19.1834 20.4942 19.5466C20.2011 19.9096 19.9242 20.2066 19.8789 20.2066C19.8336 20.2066 19.7289 19.8005 19.6463 19.3041C19.3796 17.7027 18.401 15.8141 17.1193 14.4274C15.1571 12.3045 12.2624 11.0507 9.31526 11.0473C8.29463 11.0461 8.05988 11.2354 7.74503 12.3137C7.21232 14.1382 7.3367 16.3645 8.07603 18.2414C9.02677 20.6547 11.3004 22.9632 13.7478 23.9999C14.6774 24.3937 16.333 24.7848 17.0749 24.7859L17.6267 24.7867L17.5389 25.1785C16.9496 27.8083 16.9525 30.5402 17.5471 32.815C17.611 33.0593 17.5849 33.0559 16.8671 32.7268C14.1014 31.4584 10.5409 32.6393 9.15796 35.2834C8.94188 35.6965 8.76515 36.1227 8.76515 36.2304C8.76515 36.384 8.55071 36.4539 7.77454 36.5531C5.10244 36.8949 2.98449 38.844 2.58411 41.3295C2.45191 42.1504 2.56292 43.3241 2.83829 44.0161C2.90666 44.1878 2.96254 44.3519 2.96254 44.3807C2.96254 44.4095 2.46049 44.4331 1.8468 44.4331C0.926082 44.4331 0.694608 44.4717 0.522296 44.6536C0.239104 44.9525 0.259287 45.466 0.565816 45.7589C0.816589 45.9986 0.986254 46 28.9893 46H57.1603L57.4346 45.7211C57.7584 45.3917 57.7829 45.07 57.5125 44.701L57.3162 44.4331H52.2144C48.8975 44.4331 47.1128 44.3909 47.1128 44.3126C47.1128 44.2463 47.1679 44.1921 47.2352 44.1921C47.3962 44.1921 48.8874 42.518 49.4578 41.6968C50.0946 40.7803 50.6244 39.7297 52.7788 35.1117C53.8253 32.8686 54.6814 30.8782 54.6814 30.6884C54.6814 30.4392 54.5675 30.2624 54.2715 30.052C53.7134 29.6553 51.1378 28.2257 49.4465 27.3738C48.6833 26.9893 48.0333 26.6549 48.0021 26.6307C47.9708 26.6065 48.2775 25.9448 48.6834 25.1603C49.2816 24.0044 49.4066 23.6622 49.3425 23.3563C49.2752 23.0341 49.9214 21.6255 53.7598 13.7281C57.9985 5.00766 58.2594 4.4314 58.3115 3.67399C58.3803 2.6742 58.1207 1.86653 57.5122 1.18722C56.6177 0.18863 54.9121 -0.264323 53.6358 0.157532ZM54.3175 1.64837C53.3943 1.85013 53.3141 1.99947 49.0809 11.4224C46.8884 16.3029 45.0945 20.3257 45.0945 20.3622C45.0945 20.3987 45.2768 20.4667 45.4994 20.5135C46.0856 20.6365 46.9775 21.0164 47.525 21.3763C47.7865 21.5482 48.0208 21.6672 48.0456 21.6408C48.0705 21.6143 50.0343 17.5846 52.4096 12.6859C56.4706 4.31063 56.7246 3.74691 56.6648 3.24069C56.5343 2.13483 55.4519 1.40056 54.3175 1.64837ZM29.1309 4.41055C26.3365 5.36117 24.1542 7.7009 23.4474 10.5039C23.0126 12.2287 23.2334 14.4873 23.9737 15.8829L24.2785 16.4579L24.9529 16.2362C27.7456 15.3181 29.9565 12.9588 30.6636 10.1423C30.9421 9.03299 30.9432 7.23674 30.666 6.22513C30.4716 5.51617 29.9016 4.16322 29.8065 4.18492C29.7853 4.18974 29.4813 4.29123 29.1309 4.41055ZM12.3768 13.8486C13.9239 15.3867 15.0347 16.9349 16.0303 18.941C16.7499 20.3912 16.7867 20.5657 16.4579 20.9651C16.1434 21.3472 15.5904 21.4021 15.2984 21.0804C15.1932 20.9644 14.8419 20.3294 14.5177 19.6694C13.6078 17.8166 12.4353 16.2291 10.832 14.6793C10.0437 13.9175 9.35538 13.346 9.27969 13.3908C9.07433 13.512 9.11595 15.8009 9.34011 16.7094C9.74932 18.3682 10.9019 20.109 12.3952 21.3235C13.6946 22.3804 15.9017 23.2116 17.4245 23.2178L17.9475 23.2198L18.0994 22.1976C18.5578 19.1125 16.943 15.83 14.0893 14.0456C13.2533 13.5229 11.9999 12.9748 11.6403 12.9748C11.5619 12.9748 11.8933 13.368 12.3768 13.8486ZM43.3985 23.0693C43.1248 23.7156 42.2568 25.6196 41.4695 27.3005C39.8474 30.7636 39.5082 31.652 39.2335 33.1571C39.0165 34.3458 38.9701 36.5987 39.1626 36.5987C39.2302 36.5987 39.8574 36.0741 40.5565 35.433C41.8328 34.2626 42.9686 32.8133 43.7107 31.4088C43.9766 30.9053 44.1632 30.7002 44.4083 30.6414C44.8227 30.542 45.3131 30.8238 45.4176 31.2213C45.5071 31.5624 44.86 32.8475 43.9235 34.1881C42.5713 36.1238 39.0116 39.0291 38.2237 38.8402C38.0498 38.7985 37.824 38.6426 37.7219 38.4936C37.4188 38.0518 37.2445 35.7084 37.403 34.2088C37.6559 31.8181 37.9765 30.8137 39.5545 27.4692C40.1059 26.3007 40.5136 25.3072 40.4605 25.2613C40.3697 25.1827 36.0027 23.6583 34.963 23.3422C34.6983 23.2617 34.4607 23.2157 34.4352 23.24C34.266 23.4018 30.4111 31.8436 30.1606 32.6013C29.6989 33.9976 29.5312 35.346 29.7455 35.9374L29.9172 36.411L30.8833 36.5537C34.2885 37.0568 36.6349 40.0822 35.9761 43.1202C35.8699 43.6102 35.7432 44.1062 35.6948 44.2222C35.612 44.4206 35.8608 44.4331 39.8792 44.4331H44.1518L44.7877 44.0239C46.2607 43.0761 47.7 41.5238 48.6547 39.853C49.2083 38.8842 52.8535 31.0725 52.7797 31.0128C52.7503 30.989 51.8747 30.5068 50.834 29.9414C48.7634 28.8164 47.4429 28.1616 47.2446 28.1616C47.1745 28.1616 46.9677 28.4464 46.7852 28.7944C46.3389 29.6452 46.1304 29.849 45.7057 29.849C45.3102 29.849 44.8422 29.4794 44.8422 29.1671C44.8422 29.0573 45.4704 27.7791 46.2384 26.3267C47.755 23.4579 47.7117 23.6497 46.9867 23.0095C46.4875 22.5689 45.5894 22.1679 44.7824 22.0253C44.3736 21.9531 44.0069 21.894 43.9675 21.8941C43.9283 21.8941 43.6722 22.4229 43.3985 23.0693ZM13.054 34.0062C12.2342 34.2618 11.2874 35.0009 10.815 35.7537C10.2875 36.5947 10.2935 36.792 10.8538 37.0157C11.1007 37.1142 11.4642 37.3047 11.6617 37.4391C11.8592 37.5735 12.076 37.6834 12.1437 37.6834C12.2113 37.6834 12.591 37.4969 12.9874 37.2687C13.697 36.8605 15.0679 36.4781 15.8225 36.4781C16.5734 36.4781 17.0137 37.3854 16.4849 37.8427C16.3598 37.9508 15.8858 38.0895 15.4315 38.151C13.4186 38.4234 11.9454 39.8738 11.7163 41.8088C11.6509 42.3602 11.5647 42.5636 11.3173 42.7495C10.9188 43.0491 10.7716 43.0471 10.359 42.7369C10.0834 42.5298 10.0266 42.3895 10.0266 41.9151C10.0266 41.2494 10.309 40.2681 10.7282 39.4772L11.0231 38.9206L10.3672 38.5732C9.76698 38.2553 9.604 38.2258 8.44979 38.2258C7.38653 38.2258 7.09539 38.2696 6.59636 38.5045C5.81301 38.8732 5.07003 39.5778 4.63887 40.3611C4.32704 40.9275 4.28819 41.1247 4.28768 42.143C4.28718 43.1007 4.33537 43.3817 4.5821 43.8606L4.87715 44.4331H19.2981H33.7191L34.0142 43.8606C34.2608 43.3822 34.3092 43.0999 34.3092 42.143C34.3092 40.8037 34.0416 40.1333 33.1772 39.3075C32.3005 38.4697 31.6172 38.2258 30.1465 38.2258C28.9923 38.2258 28.8293 38.2553 28.2291 38.5732L27.5732 38.9206L27.8681 39.4772C28.2873 40.2681 28.5697 41.2494 28.5697 41.9151C28.5697 42.3895 28.5129 42.5298 28.2373 42.7369C27.8215 43.0494 27.678 43.0494 27.2622 42.7369C27.0251 42.5588 26.9298 42.3749 26.9298 42.0959C26.9298 41.8808 26.8399 41.4153 26.73 41.0616C26.2273 39.4446 24.9366 38.3908 23.1648 38.151C22.7105 38.0895 22.2365 37.9508 22.1114 37.8427C21.5826 37.3854 22.0228 36.4781 22.7738 36.4781C23.5643 36.4781 24.907 36.8635 25.6874 37.3145L26.483 37.7741L26.8709 37.4914C27.0842 37.3359 27.4686 37.125 27.725 37.0227C28.2952 36.795 28.3076 36.6155 27.8101 35.7867C26.2176 33.1334 22.1086 33.2071 20.4519 35.9184C20.1857 36.3541 20.1601 36.4949 20.251 37.0205C20.4091 37.934 20.3951 38.0324 20.0607 38.3518C19.3881 38.9946 18.7746 38.598 18.5987 37.4069C18.452 36.4144 18.1182 35.7449 17.4243 35.0518C16.6163 34.2445 15.8349 33.9133 14.6308 33.8676C13.9821 33.8429 13.419 33.8924 13.054 34.0062Z" fill="#26A151"/>
</svg>
