<svg width="58" height="46" viewBox="0 0 58 46" fill="none" xmlns="http://www.w3.org/2000/svg">
<path fill-rule="evenodd" clip-rule="evenodd" d="M53.3136 0.157532C52.4338 0.448371 51.6216 1.18794 51.1562 2.12181C50.94 2.5556 49.0041 6.82223 46.8542 11.6033C43.6248 18.7846 42.8883 20.3271 42.6181 20.4753C42.3688 20.6119 42.1319 21.0333 41.6229 22.2454C41.08 23.5382 40.9167 23.8211 40.7507 23.7557C38.7663 22.9742 33.9677 21.4119 33.5514 21.4119C33.4336 21.4119 33.2232 21.5339 33.0838 21.6831C32.6971 22.097 28.5614 31.0867 28.1903 32.3199C28.0108 32.9165 27.8508 33.4431 27.8349 33.4902C27.8189 33.5372 27.5207 33.3928 27.1722 33.1692C24.9384 31.7361 21.9085 31.948 19.9024 33.6775L19.4412 34.075L19.2494 33.559C18.871 32.5415 18.7751 32.1838 18.5934 31.1146C17.8342 26.6434 19.4493 22.209 22.9876 19.0497C23.9893 18.1553 24.1703 18.0459 25.1506 17.7412C28.3892 16.7345 30.9834 14.0321 31.9241 10.6847C32.2984 9.35312 32.3255 7.07908 31.9824 5.80327C31.6814 4.68391 30.8575 3.05387 30.4307 2.73302C30.0127 2.41891 29.5592 2.46881 28.022 2.9983C24.6353 4.16503 22.0212 7.2107 21.377 10.7403C21.0144 12.7271 21.2222 14.527 22.0206 16.3137L22.4622 17.3024L21.5836 18.0944C21.1004 18.53 20.4651 19.1834 20.172 19.5466C19.8788 19.9096 19.6019 20.2066 19.5566 20.2066C19.5114 20.2066 19.4067 19.8005 19.324 19.3041C19.0574 17.7027 18.0787 15.8141 16.797 14.4274C14.8348 12.3045 11.9401 11.0507 8.993 11.0473C7.97237 11.0461 7.73762 11.2354 7.42276 12.3137C6.89006 14.1382 7.01443 16.3645 7.75376 18.2414C8.70451 20.6547 10.9781 22.9632 13.4256 23.9999C14.3551 24.3937 16.0107 24.7848 16.7526 24.7859L17.3045 24.7867L17.2167 25.1785C16.6273 27.8083 16.6302 30.5402 17.2249 32.815C17.2887 33.0593 17.2626 33.0559 16.5448 32.7268C13.7791 31.4584 10.2186 32.6393 8.8357 35.2834C8.61961 35.6965 8.44288 36.1227 8.44288 36.2304C8.44288 36.384 8.22844 36.4539 7.45228 36.5531C4.78018 36.8949 2.66223 38.844 2.26185 41.3295C2.12965 42.1504 2.24066 43.3241 2.51603 44.0161C2.5844 44.1878 2.64028 44.3519 2.64028 44.3807C2.64028 44.4095 2.13823 44.4331 1.52454 44.4331C0.603816 44.4331 0.372343 44.4717 0.200031 44.6536C-0.0831618 44.9525 -0.062979 45.466 0.24355 45.7589C0.494324 45.9986 0.663988 46 28.667 46H56.838L57.1124 45.7211C57.4362 45.3917 57.4606 45.07 57.1902 44.701L56.9939 44.4331H51.8922C48.5752 44.4331 46.7905 44.3909 46.7905 44.3126C46.7905 44.2463 46.8457 44.1921 46.9129 44.1921C47.074 44.1921 48.5651 42.518 49.1355 41.6968C49.7723 40.7803 50.3021 39.7297 52.4565 35.1117C53.503 32.8686 54.3592 30.8782 54.3592 30.6884C54.3592 30.4392 54.2452 30.2624 53.9492 30.052C53.3911 29.6553 50.8155 28.2257 49.1242 27.3738C48.361 26.9893 47.711 26.6549 47.6798 26.6307C47.6486 26.6065 47.9552 25.9448 48.3611 25.1603C48.9593 24.0044 49.0843 23.6622 49.0203 23.3563C48.9529 23.0341 49.5991 21.6255 53.4376 13.7281C57.6762 5.00766 57.9371 4.4314 57.9892 3.67399C58.0581 2.6742 57.7985 1.86653 57.1899 1.18722C56.2955 0.18863 54.5899 -0.264323 53.3136 0.157532ZM53.9952 1.64837C53.072 1.85013 52.9919 1.99947 48.7586 11.4224C46.5661 16.3029 44.7722 20.3257 44.7722 20.3622C44.7722 20.3987 44.9545 20.4667 45.1772 20.5135C45.7634 20.6365 46.6552 21.0164 47.2028 21.3763C47.4643 21.5482 47.6985 21.6672 47.7234 21.6408C47.7482 21.6143 49.712 17.5846 52.0873 12.6859C56.1484 4.31063 56.4023 3.74691 56.3425 3.24069C56.2121 2.13483 55.1296 1.40056 53.9952 1.64837ZM28.8086 4.41055C26.0142 5.36117 23.8319 7.7009 23.1251 10.5039C22.6903 12.2287 22.9112 14.4873 23.6514 15.8829L23.9563 16.4579L24.6306 16.2362C27.4233 15.3181 29.6343 12.9588 30.3413 10.1423C30.6198 9.03299 30.621 7.23674 30.3437 6.22513C30.1493 5.51617 29.5794 4.16322 29.4843 4.18492C29.4631 4.18974 29.1591 4.29123 28.8086 4.41055ZM12.0545 13.8486C13.6017 15.3867 14.7125 16.9349 15.708 18.941C16.4276 20.3912 16.4645 20.5657 16.1356 20.9651C15.8211 21.3472 15.2681 21.4021 14.9761 21.0804C14.8709 20.9644 14.5196 20.3294 14.1954 19.6694C13.2855 17.8166 12.113 16.2291 10.5097 14.6793C9.72148 13.9175 9.03311 13.346 8.95742 13.3908C8.75206 13.512 8.79369 15.8009 9.01785 16.7094C9.42706 18.3682 10.5796 20.109 12.0729 21.3235C13.3723 22.3804 15.5795 23.2116 17.1023 23.2178L17.6253 23.2198L17.7771 22.1976C18.2355 19.1125 16.6208 15.83 13.767 14.0456C12.9311 13.5229 11.6776 12.9748 11.3181 12.9748C11.2396 12.9748 11.571 13.368 12.0545 13.8486ZM43.0762 23.0693C42.8025 23.7156 41.9345 25.6196 41.1473 27.3005C39.5252 30.7636 39.186 31.652 38.9112 33.1571C38.6943 34.3458 38.6478 36.5987 38.8403 36.5987C38.908 36.5987 39.5351 36.0741 40.2342 35.433C41.5105 34.2626 42.6463 32.8133 43.3884 31.4088C43.6544 30.9053 43.8409 30.7002 44.086 30.6414C44.5004 30.542 44.9908 30.8238 45.0953 31.2213C45.1849 31.5624 44.5377 32.8475 43.6013 34.1881C42.249 36.1238 38.6893 39.0291 37.9015 38.8402C37.7275 38.7985 37.5017 38.6426 37.3997 38.4936C37.0965 38.0518 36.9222 35.7084 37.0808 34.2088C37.3337 31.8181 37.6542 30.8137 39.2323 27.4692C39.7836 26.3007 40.1913 25.3072 40.1382 25.2613C40.0474 25.1827 35.6804 23.6583 34.6408 23.3422C34.376 23.2617 34.1385 23.2157 34.113 23.24C33.9437 23.4018 30.0889 31.8436 29.8384 32.6013C29.3767 33.9976 29.2089 35.346 29.4232 35.9374L29.5949 36.411L30.561 36.5537C33.9663 37.0568 36.3127 40.0822 35.6538 43.1202C35.5476 43.6102 35.421 44.1062 35.3725 44.2222C35.2898 44.4206 35.5385 44.4331 39.557 44.4331H43.8296L44.4655 44.0239C45.9384 43.0761 47.3777 41.5238 48.3324 39.853C48.886 38.8842 52.5312 31.0725 52.4574 31.0128C52.428 30.989 51.5525 30.5068 50.5118 29.9414C48.4411 28.8164 47.1207 28.1616 46.9224 28.1616C46.8522 28.1616 46.6455 28.4464 46.4629 28.7944C46.0167 29.6452 45.8081 29.849 45.3834 29.849C44.9879 29.849 44.52 29.4794 44.52 29.1671C44.52 29.0573 45.1481 27.7791 45.9161 26.3267C47.4327 23.4579 47.3895 23.6497 46.6644 23.0095C46.1652 22.5689 45.2671 22.1679 44.4602 22.0253C44.0513 21.9531 43.6846 21.894 43.6453 21.8941C43.606 21.8941 43.35 22.4229 43.0762 23.0693ZM12.7318 34.0062C11.912 34.2618 10.9651 35.0009 10.4927 35.7537C9.96519 36.5947 9.97124 36.792 10.5316 37.0157C10.7784 37.1142 11.142 37.3047 11.3394 37.4391C11.5369 37.5735 11.7538 37.6834 11.8214 37.6834C11.889 37.6834 12.2687 37.4969 12.6652 37.2687C13.3747 36.8605 14.7456 36.4781 15.5002 36.4781C16.2512 36.4781 16.6914 37.3854 16.1626 37.8427C16.0375 37.9508 15.5636 38.0895 15.1092 38.151C13.0963 38.4234 11.6231 39.8738 11.394 41.8088C11.3287 42.3602 11.2424 42.5636 10.995 42.7495C10.5965 43.0491 10.4493 43.0471 10.0367 42.7369C9.76108 42.5298 9.70432 42.3895 9.70432 41.9151C9.70432 41.2494 9.98676 40.2681 10.4059 39.4772L10.7009 38.9206L10.0449 38.5732C9.44472 38.2553 9.28174 38.2258 8.12752 38.2258C7.06426 38.2258 6.77312 38.2696 6.2741 38.5045C5.49075 38.8732 4.74776 39.5778 4.3166 40.3611C4.00477 40.9275 3.96592 41.1247 3.96542 42.143C3.96491 43.1007 4.0131 43.3817 4.25984 43.8606L4.55489 44.4331H18.9759H33.3969L33.6919 43.8606C33.9385 43.3822 33.987 43.0999 33.987 42.143C33.987 40.8037 33.7193 40.1333 32.8549 39.3075C31.9783 38.4697 31.2949 38.2258 29.8242 38.2258C28.67 38.2258 28.507 38.2553 27.9068 38.5732L27.2509 38.9206L27.5458 39.4772C27.965 40.2681 28.2474 41.2494 28.2474 41.9151C28.2474 42.3895 28.1907 42.5298 27.915 42.7369C27.4993 43.0494 27.3557 43.0494 26.94 42.7369C26.7028 42.5588 26.6076 42.3749 26.6076 42.0959C26.6076 41.8808 26.5176 41.4153 26.4078 41.0616C25.9051 39.4446 24.6144 38.3908 22.8426 38.151C22.3882 38.0895 21.9143 37.9508 21.7891 37.8427C21.2603 37.3854 21.7006 36.4781 22.4515 36.4781C23.2421 36.4781 24.5847 36.8635 25.3652 37.3145L26.1608 37.7741L26.5487 37.4914C26.762 37.3359 27.1463 37.125 27.4028 37.0227C27.9729 36.795 27.9853 36.6155 27.4878 35.7867C25.8954 33.1334 21.7864 33.2071 20.1296 35.9184C19.8634 36.3541 19.8378 36.4949 19.9288 37.0205C20.0868 37.934 20.0728 38.0324 19.7384 38.3518C19.0658 38.9946 18.4524 38.598 18.2764 37.4069C18.1297 36.4144 17.7959 35.7449 17.102 35.0518C16.2941 34.2445 15.5126 33.9133 14.3086 33.8676C13.6598 33.8429 13.0967 33.8924 12.7318 34.0062Z" fill="white"/>
</svg>
