<svg width="55" height="43" viewBox="0 0 55 43" fill="none" xmlns="http://www.w3.org/2000/svg">
<path fill-rule="evenodd" clip-rule="evenodd" d="M3.75543 0.0875879C2.65382 0.347213 1.54811 1.30441 1.14227 2.34954C0.924945 2.90962 0.917802 3.43864 0.917802 19.0963V35.2647L1.20445 35.8433C1.56989 36.5812 2.28568 37.2923 3.02852 37.6553C3.49806 37.885 3.83213 37.9479 4.7526 37.9801L5.89425 38.02V39.6958V41.3715H3.32676H0.759141L0.509851 41.6864C0.218289 42.0547 0.269576 42.4825 0.642985 42.7964C0.872136 42.9889 2.31437 43 27.3223 43C52.3302 43 53.7724 42.9889 54.0015 42.7964C54.375 42.4825 54.4262 42.0547 54.1347 41.6864L53.8854 41.3715H51.3178H48.7503V39.6849V37.9983H49.7411C51.031 37.9983 51.8305 37.7104 52.592 36.9716C52.9002 36.6726 53.2815 36.1662 53.4395 35.8463L53.7267 35.2647V19.0963C53.7267 3.41049 53.7199 2.91055 53.5011 2.34663C53.2056 1.5852 52.2954 0.639408 51.5256 0.293473L50.9165 0.0198897L27.5565 0.00174409C14.1785 -0.00860836 4.008 0.0280322 3.75543 0.0875879ZM3.99629 1.70455C3.46024 1.86612 2.99843 2.26625 2.74281 2.79097C2.49891 3.29138 2.49856 3.31418 2.49856 19.0214C2.49856 34.4967 2.5023 34.7579 2.73169 35.2045C2.85991 35.4541 3.15861 35.8054 3.39561 35.985C3.77862 36.2753 3.94114 36.3162 4.86032 36.3522L5.89425 36.3929V33.4236V30.4543L6.20279 30.2133C6.49974 29.9812 6.64634 29.9722 10.1331 29.9722C13.7099 29.9722 14.112 30.0099 14.3525 30.3677C14.3998 30.4381 14.4392 31.8174 14.4403 33.4327L14.442 36.3698H15.8449H17.2477L17.2793 27.9844L17.3108 19.5992L17.5873 19.3768C17.8464 19.1683 18.0957 19.1545 21.5819 19.1545C25.1662 19.1545 25.3112 19.1632 25.6086 19.3956L25.9172 19.6366V28.0033V36.3698H27.3223H28.7274V32.2533C28.7274 28.3744 28.7403 28.121 28.9511 27.8623L29.1748 27.5876L32.8377 27.5537C36.743 27.5175 37.0232 27.55 37.2599 28.0663C37.3501 28.2628 37.3923 29.6315 37.3923 32.3622V36.3698H38.7974H40.2025L40.2043 27.0351C40.2053 21.9011 40.2448 17.6429 40.2921 17.5725C40.5326 17.2147 40.9347 17.177 44.5114 17.177C47.9982 17.177 48.1448 17.186 48.4417 17.4182L48.7503 17.6592V27.0261V36.3929L49.7842 36.3522C50.7104 36.3158 50.8642 36.2767 51.2606 35.9762C51.504 35.7917 51.8016 35.4253 51.922 35.1619C52.1323 34.702 52.1409 34.0657 52.1434 18.9877L52.146 3.29208L51.8976 2.78248C51.748 2.4754 51.4604 2.14866 51.1743 1.96057L50.6994 1.64836L27.5065 1.62871C14.7503 1.61789 4.17076 1.65209 3.99629 1.70455ZM20.5171 7.09445C18.6656 7.7826 17.7357 9.70815 18.4072 11.4636L18.6254 12.0341L15.3247 15.3115L12.0238 18.589L11.2716 18.336C10.3426 18.0237 9.53421 18.0779 8.64032 18.5124C6.51379 19.5459 6.12891 22.3913 7.90146 23.9744C9.60106 25.4925 12.2086 24.9838 13.2163 22.9377C13.5845 22.1903 13.6393 20.9997 13.3381 20.2923C13.2369 20.0544 13.154 19.8177 13.154 19.7663C13.154 19.7148 14.6464 18.2262 16.4704 16.4583L19.7869 13.2439L20.4223 13.4619C21.2287 13.7385 21.9413 13.7383 22.7491 13.4612L23.3865 13.2426L26.701 16.4481C28.5239 18.211 30.0154 19.7179 30.0154 19.7969C30.0154 19.8758 29.9364 20.1282 29.8398 20.3579C29.6072 20.9107 29.6168 21.9994 29.8604 22.7095C30.1344 23.5084 31.0537 24.4041 31.8791 24.6764C32.6744 24.9388 33.8566 24.8745 34.5235 24.5325C36.0076 23.7713 36.7559 22.0019 36.2376 20.4792L35.9956 19.7683L39.2779 16.5244C41.2113 14.6135 42.6411 13.288 42.7571 13.2991C42.8655 13.3094 43.1649 13.3987 43.4226 13.4976C44.8231 14.0348 46.6282 13.3238 47.4062 11.9286C47.7165 11.372 47.755 11.1937 47.755 10.3142C47.755 9.50471 47.7053 9.23055 47.4813 8.80202C47.0838 8.04187 46.5933 7.58451 45.7925 7.22752C45.1793 6.95405 44.9761 6.91962 44.2543 6.9665C42.9428 7.05153 41.9316 7.72618 41.3461 8.90671C41.004 9.59649 40.9822 10.977 41.304 11.5816L41.5143 11.9767L38.186 15.283L34.8578 18.5893L34.1381 18.3484C33.2534 18.0523 32.7232 18.0497 31.8889 18.337L31.2449 18.5588L30.8351 18.1905C30.6097 17.988 29.1041 16.5222 27.4892 14.9329L24.5533 12.0435L24.7631 11.4405C25.3165 9.84948 24.6675 8.1397 23.2113 7.35233C22.4784 6.95615 21.2147 6.83518 20.5171 7.09445ZM20.636 8.83343C19.5414 9.55985 19.5858 11.1502 20.7187 11.7954C22.2276 12.6546 23.9188 11.0503 23.136 9.50227C22.8422 8.92113 22.2571 8.56938 21.5847 8.56938C21.207 8.56938 20.9088 8.65232 20.636 8.83343ZM43.5963 8.78504C43.1248 9.03431 42.6661 9.75363 42.6633 10.2483C42.6602 10.8125 43.0813 11.5238 43.5848 11.8049C44.7668 12.4648 46.1749 11.6605 46.1738 10.326C46.1727 8.97953 44.7911 8.15354 43.5963 8.78504ZM41.7787 18.9509C41.748 19.0309 41.7364 24.0951 41.753 30.2048L41.7832 41.3134L44.4471 41.3447L47.111 41.3759V30.0907V18.8055H44.4728C42.4699 18.8055 41.821 18.8405 41.7787 18.9509ZM9.45973 19.8997C8.9526 20.1191 8.50578 20.6954 8.41105 21.2522C8.34641 21.6322 8.38599 21.8378 8.60496 22.2603C8.9731 22.9706 9.49556 23.2552 10.3183 23.1939C11.7415 23.0877 12.3975 21.517 11.4947 20.3769C11.0298 19.7899 10.1761 19.5897 9.45973 19.8997ZM32.2425 19.9399C32.0184 20.0516 31.7108 20.3264 31.5588 20.5503C31.1822 21.1055 31.2346 22.1407 31.6621 22.5953C32.1182 23.0804 32.5649 23.2578 33.1814 23.1989C33.9036 23.13 34.3984 22.7668 34.6455 22.1241C34.8923 21.482 34.805 20.9257 34.3779 20.4215C33.8133 19.7549 32.9865 19.5685 32.2425 19.9399ZM18.8916 31.0772V41.3715H21.5847H24.2778V31.0772V20.7829H21.5847H18.8916V31.0772ZM30.3667 35.2625V41.3715H33.0609H35.7551L35.7247 35.2938L35.6944 29.2161L33.0306 29.1848L30.3667 29.1535V35.2625ZM7.53356 36.4861V41.3759L10.1974 41.3447L12.8613 41.3134V36.4861V31.6588L10.1974 31.6275L7.53356 31.5963V36.4861ZM14.4932 38.1498C14.461 38.2331 14.4495 38.9791 14.4677 39.8074L14.5006 41.3134L15.8764 41.3462L17.2523 41.3789V39.6886V37.9983H15.9021C14.9006 37.9983 14.5367 38.0375 14.4932 38.1498ZM25.9172 39.6849V41.3715H27.3223H28.7274V39.6849V37.9983H27.3223H25.9172V39.6849ZM37.3923 39.6849V41.3789L38.7681 41.3462L40.1439 41.3134V39.6849V38.0564L38.7681 38.0236L37.3923 37.9909V39.6849Z" fill="#26A151"/>
</svg>
