<svg width="54" height="43" viewBox="0 0 54 43" fill="none" xmlns="http://www.w3.org/2000/svg">
<path fill-rule="evenodd" clip-rule="evenodd" d="M3.43317 0.0875879C2.33156 0.347213 1.22585 1.30441 0.820004 2.34954C0.602679 2.90962 0.595537 3.43864 0.595537 19.0963V35.2647L0.88218 35.8433C1.24763 36.5812 1.96342 37.2923 2.70625 37.6553C3.1758 37.885 3.50986 37.9479 4.43033 37.9801L5.57199 38.02V39.6958V41.3715H3.00449H0.436876L0.187585 41.6864C-0.103977 42.0547 -0.0526899 42.4825 0.32072 42.7964C0.54987 42.9889 1.9921 43 27 43C52.0079 43 53.4501 42.9889 53.6793 42.7964C54.0527 42.4825 54.104 42.0547 53.8124 41.6864L53.5631 41.3715H50.9955H48.428V39.6849V37.9983H49.4189C50.7088 37.9983 51.5083 37.7104 52.2697 36.9716C52.5779 36.6726 52.9593 36.1662 53.1172 35.8463L53.4045 35.2647V19.0963C53.4045 3.41049 53.3977 2.91055 53.1788 2.34663C52.8833 1.5852 51.9731 0.639408 51.2034 0.293473L50.5942 0.0198897L27.2342 0.00174409C13.8562 -0.00860836 3.68574 0.0280322 3.43317 0.0875879ZM3.67403 1.70455C3.13798 1.86612 2.67616 2.26625 2.42055 2.79097C2.17664 3.29138 2.17629 3.31418 2.17629 19.0214C2.17629 34.4967 2.18004 34.7579 2.40942 35.2045C2.53764 35.4541 2.83634 35.8054 3.07334 35.985C3.45635 36.2753 3.61888 36.3162 4.53806 36.3522L5.57199 36.3929V33.4236V30.4543L5.88053 30.2133C6.17748 29.9812 6.32407 29.9722 9.81087 29.9722C13.3876 29.9722 13.7897 30.0099 14.0302 30.3677C14.0775 30.4381 14.117 31.8174 14.118 33.4327L14.1198 36.3698H15.5227H16.9254L16.9571 27.9844L16.9886 19.5992L17.265 19.3768C17.5241 19.1683 17.7734 19.1545 21.2596 19.1545C24.844 19.1545 24.9889 19.1632 25.2863 19.3956L25.5949 19.6366V28.0033V36.3698H27H28.4051V32.2533C28.4051 28.3744 28.418 28.121 28.6289 27.8623L28.8525 27.5876L32.5154 27.5537C36.4207 27.5175 36.7009 27.55 36.9377 28.0663C37.0278 28.2628 37.07 29.6315 37.07 32.3622V36.3698H38.4751H39.8802L39.882 27.0351C39.883 21.9011 39.9225 17.6429 39.9698 17.5725C40.2103 17.2147 40.6124 17.177 44.1891 17.177C47.6759 17.177 47.8225 17.186 48.1195 17.4182L48.428 17.6592V27.0261V36.3929L49.4619 36.3522C50.3881 36.3158 50.5419 36.2767 50.9384 35.9762C51.1817 35.7917 51.4793 35.4253 51.5997 35.1619C51.81 34.702 51.8187 34.0657 51.8211 18.9877L51.8237 3.29208L51.5754 2.78248C51.4257 2.4754 51.1381 2.14866 50.8521 1.96057L50.3771 1.64836L27.1842 1.62871C14.4281 1.61789 3.8485 1.65209 3.67403 1.70455ZM20.1948 7.09445C18.3433 7.7826 17.4135 9.70815 18.0849 11.4636L18.3032 12.0341L15.0024 15.3115L11.7016 18.589L10.9494 18.336C10.0203 18.0237 9.21194 18.0779 8.31805 18.5124C6.19153 19.5459 5.80664 22.3913 7.57919 23.9744C9.2788 25.4925 11.8863 24.9838 12.894 22.9377C13.2622 22.1903 13.317 20.9997 13.0158 20.2923C12.9147 20.0544 12.8318 19.8177 12.8318 19.7663C12.8318 19.7148 14.3241 18.2262 16.1482 16.4583L19.4646 13.2439L20.1001 13.4619C20.9065 13.7385 21.619 13.7383 22.4268 13.4612L23.0643 13.2426L26.3787 16.4481C28.2016 18.211 29.6931 19.7179 29.6931 19.7969C29.6931 19.8758 29.6141 20.1282 29.5175 20.3579C29.285 20.9107 29.2946 21.9994 29.5381 22.7095C29.8121 23.5084 30.7314 24.4041 31.5568 24.6764C32.3521 24.9388 33.5344 24.8745 34.2012 24.5325C35.6854 23.7713 36.4336 22.0019 35.9153 20.4792L35.6733 19.7683L38.9557 16.5244C40.889 14.6135 42.3188 13.288 42.4348 13.2991C42.5433 13.3094 42.8427 13.3987 43.1003 13.4976C44.5008 14.0348 46.3059 13.3238 47.0839 11.9286C47.3942 11.372 47.4327 11.1937 47.4327 10.3142C47.4327 9.50471 47.3831 9.23054 47.1591 8.80202C46.7615 8.04187 46.271 7.58451 45.4702 7.22752C44.857 6.95405 44.6539 6.91962 43.932 6.9665C42.6206 7.05153 41.6093 7.72618 41.0239 8.90671C40.6817 9.59649 40.66 10.977 40.9817 11.5816L41.192 11.9767L37.8638 15.283L34.5355 18.5893L33.8159 18.3484C32.9311 18.0523 32.4009 18.0497 31.5666 18.337L30.9226 18.5588L30.5128 18.1905C30.2874 17.988 28.7818 16.5222 27.167 14.9329L24.231 12.0435L24.4408 11.4405C24.9942 9.84948 24.3453 8.1397 22.889 7.35233C22.1561 6.95615 20.8924 6.83518 20.1948 7.09445ZM20.3138 8.83343C19.2192 9.55985 19.2635 11.1502 20.3964 11.7954C21.9053 12.6546 23.5966 11.0503 22.8137 9.50227C22.5199 8.92113 21.9348 8.56938 21.2624 8.56938C20.8847 8.56938 20.5866 8.65232 20.3138 8.83343ZM43.274 8.78504C42.8025 9.03431 42.3439 9.75364 42.341 10.2483C42.3379 10.8125 42.7591 11.5238 43.2626 11.8049C44.4445 12.4648 45.8527 11.6605 45.8515 10.326C45.8504 8.97953 44.4689 8.15354 43.274 8.78504ZM41.4564 18.9509C41.4257 19.0309 41.4141 24.0951 41.4308 30.2048L41.461 41.3134L44.1248 41.3447L46.7887 41.3759V30.0907V18.8055H44.1505C42.1476 18.8055 41.4987 18.8405 41.4564 18.9509ZM9.13747 19.8997C8.63034 20.1191 8.18351 20.6954 8.08878 21.2522C8.02415 21.6322 8.06373 21.8378 8.28269 22.2603C8.65083 22.9706 9.1733 23.2552 9.99599 23.1939C11.4193 23.0877 12.0752 21.517 11.1724 20.3769C10.7076 19.7899 9.85384 19.5897 9.13747 19.8997ZM31.9202 19.9399C31.6961 20.0516 31.3885 20.3264 31.2365 20.5503C30.86 21.1055 30.9123 22.1407 31.3398 22.5953C31.7959 23.0804 32.2426 23.2578 32.8591 23.1989C33.5813 23.13 34.0762 22.7668 34.3232 22.1241C34.5701 21.482 34.4827 20.9257 34.0557 20.4215C33.491 19.7549 32.6643 19.5685 31.9202 19.9399ZM18.5693 31.0772V41.3715H21.2624H23.9556V31.0772V20.7829H21.2624H18.5693V31.0772ZM30.0444 35.2625V41.3715H32.7386H35.4328L35.4025 35.2938L35.3721 29.2161L32.7083 29.1848L30.0444 29.1535V35.2625ZM7.21129 36.4861V41.3759L9.87515 41.3447L12.539 41.3134V36.4861V31.6588L9.87515 31.6275L7.21129 31.5963V36.4861ZM14.1709 38.1498C14.1387 38.2331 14.1273 38.9791 14.1454 39.8074L14.1783 41.3134L15.5542 41.3462L16.93 41.3789V39.6886V37.9983H15.5798C14.5783 37.9983 14.2144 38.0375 14.1709 38.1498ZM25.5949 39.6849V41.3715H27H28.4051V39.6849V37.9983H27H25.5949V39.6849ZM37.07 39.6849V41.3789L38.4458 41.3462L39.8217 41.3134V39.6849V38.0564L38.4458 38.0236L37.07 37.9909V39.6849Z" fill="white"/>
</svg>
