<svg width="59" height="57" viewBox="0 0 59 57" fill="none" xmlns="http://www.w3.org/2000/svg">
<path d="M5.96541 24.7705C5.55782 23.3296 5.14449 21.9518 4.78282 20.5625C4.70245 20.2583 4.70819 19.7359 4.88615 19.6096C5.04142 19.5189 5.21582 19.4659 5.3953 19.4549C5.57478 19.444 5.75433 19.4753 5.91949 19.5464C6.54447 19.9452 7.14278 20.3844 7.7106 20.8611C7.76801 20.907 7.81967 20.9644 7.94597 21.0735C7.94597 20.8496 7.94597 20.7061 7.94597 20.5625C8.01486 18.2395 8.08566 15.9145 8.15838 13.5875C8.14304 13.4689 8.16512 13.3485 8.22153 13.2431C8.37652 13.0422 8.57171 12.7207 8.73819 12.7264C8.87232 12.7429 9.00025 12.7924 9.11048 12.8706C9.22071 12.9487 9.30978 13.0531 9.36967 13.1742C10.1504 15.8149 10.891 18.4729 11.666 21.1251C11.7662 20.9776 11.8838 20.8427 12.0162 20.7233C12.6993 20.1492 13.371 19.5751 14.1 19.1101C14.2324 19.0421 14.379 19.0067 14.5277 19.0067C14.6765 19.0067 14.8231 19.0421 14.9554 19.1101C15.1219 19.2135 15.1793 19.6383 15.1334 19.8966C14.743 22.0035 14.433 24.139 13.4112 26.2114C14.1747 26.0335 14.9612 25.9072 15.7075 25.6374C17.0278 25.1896 18.3137 24.6155 19.6456 24.1964C20.408 23.9981 21.1893 23.8807 21.9763 23.8462C22.1182 23.8587 22.2595 23.818 22.3731 23.7321C22.4866 23.6462 22.5641 23.5211 22.5906 23.3812C22.981 22.3307 23.4345 21.2974 23.8823 20.2698C24.043 19.8966 24.2899 19.5235 24.7836 19.7761C25.2773 20.0287 25.1337 20.4248 24.9213 20.8324C22.625 25.2298 22.5389 29.6788 24.795 34.1049C26.3082 36.9214 28.7418 39.1335 31.6895 40.3718C34.6372 41.6101 37.9205 41.7995 40.9911 40.9086C44.0617 40.0177 46.7336 38.1002 48.5608 35.4765C50.3879 32.8528 51.2596 29.6817 51.0302 26.4927C50.8097 23.4911 49.5981 20.6478 47.5858 18.4098C46.8337 17.5486 46.828 17.5486 47.5456 16.6875C50.5136 13.2144 53.4413 9.74124 56.3978 6.24513C56.6962 5.91868 56.922 5.53268 57.0603 5.11259C57.1986 4.6925 57.2462 4.24786 57.2001 3.808C57.154 3.36814 57.0151 2.94306 56.7927 2.5608C56.5703 2.17853 56.2693 1.84776 55.9097 1.59031C55.5501 1.33286 55.14 1.15458 54.7064 1.06722C54.2729 0.979864 53.8257 0.985419 53.3945 1.08352C52.9632 1.18162 52.5577 1.37004 52.2046 1.63634C51.8515 1.90265 51.5588 2.24079 51.346 2.62846C49.3444 5.86624 47.3504 9.11933 45.3641 12.3877C44.9278 13.0938 44.4973 13.8057 44.061 14.5061C43.6247 15.2064 43.5386 15.2064 42.821 14.8964C41.0911 14.1069 39.216 13.6855 37.3147 13.6588C35.4133 13.6321 33.5272 14.0008 31.7758 14.7414C31.0038 15.0796 30.2523 15.463 29.5254 15.8896C29.1408 16.102 28.7389 16.4636 28.3773 15.924C28.0156 15.3844 28.4978 15.1146 28.8882 14.8735C30.9078 13.559 33.2145 12.7506 35.6128 12.5167C38.0111 12.2829 40.4305 12.6305 42.666 13.5301L43.1424 13.6966L45.1345 10.4588C46.8567 7.63439 48.5789 4.8042 50.3413 1.99124C50.6551 1.49902 51.0657 1.07574 51.5481 0.747122C52.0305 0.418504 52.5747 0.191414 53.1477 0.0796538C53.7206 -0.0321067 54.3102 -0.0262038 54.8808 0.0970035C55.4514 0.220211 55.9909 0.458149 56.4667 0.796358C56.9424 1.13457 57.3444 1.56598 57.6483 2.06439C57.9521 2.56279 58.1514 3.11777 58.2341 3.6956C58.3168 4.27343 58.2812 4.86204 58.1293 5.42566C57.9775 5.98928 57.7126 6.51613 57.3508 6.97421C54.8249 10.0111 52.2587 13.0135 49.7099 16.0274L48.4297 17.5486C49.5981 18.8302 50.5188 20.3173 51.145 21.9346C51.5179 23.0337 51.8284 24.153 52.075 25.2872C52.1497 25.6201 52.2702 25.7866 52.5745 25.8268C53.5676 25.9646 54.5608 26.1196 55.5597 26.2114C56.26 26.2803 56.438 26.3951 56.438 27.1012V55.805C56.438 56.5225 56.2486 56.6718 55.4219 56.6718H1.5106C0.402636 56.6718 0.322266 56.5914 0.322266 55.5237V24.9083C0.322266 23.9037 0.408377 23.829 1.39578 23.8348C2.96576 23.8426 4.51871 24.1606 5.96541 24.7705ZM1.5106 42.4462C3.8069 42.3946 5.76449 43.2614 7.7393 44.1168C7.95507 44.2103 8.1777 44.287 8.40523 44.3464C11.1001 45.1462 13.9887 44.9879 16.58 43.8987C18.3061 43.0707 20.1709 42.5704 22.0797 42.4233C24.5555 42.3087 27.02 42.8222 29.2441 43.9159C30.5648 44.5002 31.9908 44.8088 33.4349 44.8229C35.6341 44.8754 37.8125 44.3865 39.7784 43.3992C41.9828 42.3774 44.3193 42.297 46.6673 42.5094C48.2522 42.7359 49.7897 43.2187 51.2197 43.9388C52.4717 44.4862 53.8202 44.7789 55.1865 44.7999V35.6779L50.5939 34.5872C50.5021 34.7364 50.4217 34.8972 50.3299 35.0522C47.3963 39.9892 43.0449 42.6185 37.3156 42.7907C34.3118 42.8498 31.3594 42.006 28.8406 40.3684C26.3218 38.7308 24.3525 36.3749 23.1876 33.6055C23.143 33.4397 23.0385 33.2963 22.8943 33.203C22.7501 33.1097 22.5765 33.0731 22.4069 33.1003C20.5687 33.1758 18.7679 33.6436 17.1254 34.4724C14.8291 35.5229 12.441 35.6205 9.98967 35.4024C8.44585 35.1692 6.94833 34.6946 5.55208 33.9959C4.28415 33.4407 2.91761 33.1459 1.53356 33.129C1.53356 33.2783 1.53356 33.3701 1.53356 33.4677L1.5106 42.4462ZM22.1773 25.0231L21.2645 25.092C19.6628 25.2298 18.2621 25.9187 16.8154 26.4927C13.9887 27.6367 10.8505 27.7545 7.94597 26.8257C6.72319 26.4583 5.57504 25.8555 4.35227 25.4766C3.43038 25.2395 2.49478 25.0593 1.55078 24.937V31.9292C3.6806 31.9292 5.5693 32.7157 7.44079 33.4735C10.3077 34.6419 13.518 34.6419 16.3849 33.4735C17.2118 33.1023 18.0567 32.7728 18.9165 32.4861C20.0647 32.1703 21.2932 31.9981 22.516 31.757C21.9079 29.5651 21.7864 27.2668 22.16 25.0231H22.1773ZM18.796 48.7668C19.2208 48.83 19.7087 48.8931 20.1852 48.9735C22.315 49.3294 24.4391 49.7485 26.3049 50.8851C26.6041 51.0984 26.9541 51.2292 27.3199 51.2645C27.6857 51.2998 28.0543 51.2382 28.3887 51.0861C29.3292 50.7871 30.288 50.5494 31.2591 50.3742C30.3901 49.1971 29.8492 47.8103 29.6919 46.3557C29.623 45.5003 29.1982 45.2075 28.4921 44.8803C26.4333 43.8857 24.1461 43.4596 21.8673 43.6461C21.7541 43.6579 21.6447 43.693 21.5459 43.7494C21.447 43.8057 21.361 43.8819 21.2932 43.9733C20.4493 45.5462 19.6341 47.1594 18.796 48.7668ZM11.8095 53.147C12.0334 53.7555 12.2975 54.3353 12.4525 54.9381C12.5615 55.3801 12.7797 55.4662 13.193 55.4662C15.5812 55.4662 17.9693 55.3974 20.3517 55.4662C21.5573 55.5064 22.5102 55.3227 23.2221 54.255C23.5995 53.8078 24.0428 53.4206 24.5367 53.1068C24.9902 52.7451 25.4839 52.4409 25.9949 52.085C25.8628 51.9988 25.7767 51.9185 25.6734 51.8668C23.2827 50.7324 20.6924 50.0789 18.0497 49.9437C17.8078 49.9779 17.5881 50.1031 17.4354 50.2938C16.3067 51.5147 14.8591 52.3956 13.2562 52.837C12.7854 52.9633 12.2975 53.0437 11.8095 53.147ZM19.9039 44.0824L19.8006 43.9159C19.1634 44.157 18.5089 44.3637 17.8947 44.645C16.2218 45.4627 14.3987 45.9278 12.5386 46.0112C12.3717 46.0269 12.2155 46.0999 12.0965 46.2179C11.0632 47.3661 10.0356 48.5142 9.02523 49.5992C9.5993 50.2364 10.2193 51.0057 10.8967 51.7462C10.9745 51.8152 11.0655 51.8676 11.1642 51.9002C11.2629 51.9328 11.3672 51.9449 11.4708 51.9357C12.9991 51.8475 14.4611 51.2812 15.65 50.3168C17.6823 48.652 18.796 46.3672 19.9039 44.0824ZM1.53356 50.4948C4.85745 50.9483 9.14578 48.474 10.7187 45.9424C8.46838 45.9424 6.57967 44.7942 4.55319 44.134C3.55605 43.8658 2.54391 43.6569 1.52208 43.5083L1.53356 50.4948ZM11.3617 55.4261C10.7729 53.426 9.58466 51.6547 7.95745 50.3512C7.87699 50.3157 7.78997 50.2973 7.70199 50.2973C7.614 50.2973 7.52699 50.3157 7.44653 50.3512C6.68041 50.7106 5.89236 51.0212 5.08708 51.2812C3.93893 51.5683 2.73912 51.6946 1.5393 51.8955V55.4203L11.3617 55.4261ZM45.9382 43.4968C46.7821 46.4533 52.6549 50.69 55.2152 50.4431V46.0974C54.1532 45.8964 53.1256 45.7874 52.1497 45.5233C51.1737 45.2592 50.2552 44.7368 49.2793 44.4211C48.1828 44.0479 47.0576 43.7953 45.9382 43.4968ZM30.7999 45.7931C31.0237 48.1525 32.1949 49.9781 33.8884 51.5338C35.7507 49.8127 37.9149 48.4503 40.2721 47.5153C39.4856 46.8666 38.7508 46.2351 37.9758 45.6496C37.7843 45.5658 37.571 45.5457 37.3673 45.5922C36.2765 45.7127 35.1858 45.9481 34.0893 45.9825C32.9928 46.017 31.9193 45.8677 30.7999 45.7931ZM49.0325 49.1801C48.9228 49.5561 48.8422 49.94 48.7913 50.3283C48.7746 51.673 49.1196 52.9974 49.7902 54.1631C50.2495 55.0874 50.8236 55.6959 51.9775 55.4777C52.4682 55.4317 52.9621 55.4317 53.4528 55.4777H55.2554C55.2554 54.2779 55.2554 53.1814 55.2554 52.0333C55.2554 51.9185 55.0258 51.7577 54.8765 51.7118C54.0556 51.4362 53.1945 51.264 52.408 50.9196C51.2828 50.4144 50.2265 49.8001 49.0325 49.1801ZM32.7747 55.4375H40.4558C40.5671 55.1237 40.6974 54.817 40.8462 54.519C40.8938 54.4579 40.9286 54.3877 40.9484 54.3127C40.9681 54.2377 40.9725 54.1595 40.9613 54.0828C40.95 54.0061 40.9233 53.9324 40.8828 53.8663C40.8423 53.8002 40.7888 53.743 40.7256 53.6981C40.2721 53.2044 39.9104 52.6188 39.4225 52.1653C38.819 51.6125 38.1762 51.104 37.4993 50.644C37.3971 50.6006 37.2859 50.5821 37.1751 50.5901C37.0644 50.5981 36.957 50.6323 36.8621 50.69C35.6747 51.4026 34.6453 52.35 33.8367 53.4742C33.4463 54.0483 33.1593 54.697 32.7747 55.4375ZM47.7006 49.1055C47.6318 49.102 47.5628 49.102 47.4939 49.1055C45.6823 49.2045 43.8696 48.933 42.1665 48.3075C42.0435 48.2477 41.9038 48.2315 41.7704 48.2616C40.6682 48.7094 39.5774 49.1744 38.59 49.5935L41.8106 53.0379C43.4237 51.419 45.4789 51.3157 47.5513 51.442L47.7006 49.1055ZM55.198 34.2829V27.4687L52.253 27.0668C52.325 29.2071 51.9476 31.3388 51.145 33.3242C52.4184 33.929 53.8058 34.2558 55.2152 34.2829H55.198ZM23.8765 55.4548C26.3737 55.4548 28.871 55.4548 31.3739 55.4548C31.4437 55.4434 31.5099 55.4163 31.5676 55.3755C31.6253 55.3347 31.6729 55.2813 31.7069 55.2194C32.1202 54.2951 32.5106 53.3537 32.9412 52.349C32.7924 52.061 32.5465 51.835 32.247 51.711C31.9475 51.587 31.6138 51.5731 31.305 51.6716C30.9204 51.7577 30.5186 51.752 30.1569 51.8266C27.7096 52.2806 25.4924 53.5615 23.8765 55.4548ZM6.2869 21.0103L6.04578 21.1481C6.4419 22.2274 6.82653 23.3181 7.23412 24.3974C7.38168 24.8593 7.6693 25.2638 8.0571 25.5549C8.44489 25.846 8.91365 26.0092 9.39838 26.022C10.0069 26.0737 10.6154 26.2114 11.2182 26.2114C11.365 26.2046 11.5089 26.168 11.6411 26.1038C11.7734 26.0397 11.8912 25.9493 11.9875 25.8383C13.0954 24.3514 13.3882 22.5833 13.6752 20.7922C13.3865 20.9875 13.129 21.2256 12.9117 21.4983C12.418 22.1412 11.976 22.8187 11.4536 23.4387C11.3578 23.5354 11.2416 23.6094 11.1134 23.6551C10.9852 23.7008 10.8483 23.7171 10.713 23.7027C10.5465 23.6224 10.3858 23.2779 10.3858 23.0483C10.2882 22.1699 10.3284 21.2687 10.1676 20.4075C9.93801 19.1561 9.59356 17.9275 9.26634 16.6933C9.18597 18.0998 9.16301 19.4833 9.19745 20.8611C9.19745 21.6648 9.36393 22.4685 9.37541 23.2779C9.37211 23.4193 9.33556 23.558 9.26874 23.6826C9.20193 23.8073 9.10671 23.9145 8.99078 23.9955C8.7956 24.0529 8.46838 23.8061 8.25023 23.6338C8.03208 23.4616 8.02634 23.2607 7.90004 23.0885C7.34893 22.3824 6.81504 21.6935 6.2869 20.9931V21.0103ZM47.6202 47.9172C46.3519 46.7906 45.318 45.425 44.5776 43.8987C44.5265 43.8268 44.4596 43.7676 44.3819 43.7258C44.3042 43.684 44.218 43.6606 44.1299 43.6575C42.3458 43.7215 40.6017 44.2032 39.0378 45.064C41.4662 47.1881 44.2562 48.0205 47.5915 47.9L47.6202 47.9172ZM49.1013 55.4433C48.7282 54.5937 48.3895 53.8014 48.0221 53.0207C47.9589 52.8829 47.8039 52.7107 47.6776 52.6992C46.34 52.5844 45.0025 52.527 43.7452 53.147C43.2796 53.3742 42.8662 53.6956 42.5312 54.0909C42.1962 54.4862 41.9469 54.9467 41.7991 55.4433H49.1013Z" fill="#26A151"/>
<path d="M37.0748 39.4098C34.7384 39.4029 32.4566 38.7024 30.5188 37.3971C28.581 36.0917 27.0745 34.2404 26.1902 32.0778C25.3058 29.9152 25.0836 27.5387 25.5516 25.2496C26.0196 22.9606 27.1567 20.862 28.8189 19.22C30.481 17.578 32.5933 16.4666 34.8879 16.0265C37.1826 15.5865 39.5562 15.8378 41.7078 16.7484C43.8595 17.659 45.6923 19.1881 46.9738 21.1417C48.2554 23.0952 48.928 25.3854 48.9064 27.7217C48.8837 30.8394 47.6253 33.8209 45.4072 36.012C43.1891 38.2032 40.1926 39.4251 37.0748 39.4098ZM26.7414 25.632C26.7414 25.632 26.6898 25.6952 26.684 25.7469C26.4218 27.1581 26.4531 28.6082 26.7761 30.0068C27.0991 31.4054 27.7068 32.7224 28.5613 33.8758C28.7664 34.1313 29.0481 34.3144 29.365 34.3982C32.7061 35.3052 36.007 35.2535 39.1874 33.7724C41.3792 32.7052 43.801 32.1964 46.237 32.2913C46.6101 32.2913 46.7479 32.142 46.8742 31.8435C47.8015 29.6859 47.9912 27.2827 47.4139 25.0063C47.395 24.8393 47.3121 24.6861 47.1825 24.579C47.0529 24.4719 46.8868 24.4193 46.7192 24.4322C44.2029 24.2752 41.6884 24.7674 39.417 25.8617C36.4889 27.1695 33.2085 27.4644 30.094 26.6998C28.9501 26.3971 27.8233 26.033 26.7185 25.6091L26.7414 25.632ZM27.0342 24.4208C28.0414 24.8346 29.0706 25.193 30.117 25.4943C33.287 26.2952 36.638 25.9495 39.5777 24.5183C41.6591 23.5428 43.9464 23.0877 46.2427 23.1922C46.3909 23.1897 46.5386 23.1763 46.6848 23.1521C45.3242 19.5411 40.812 16.7913 36.7246 17.0037C34.5389 17.0797 32.4312 17.8348 30.6945 19.1641C28.9578 20.4934 27.6784 22.3307 27.0342 24.4208ZM45.9327 33.4682C45.7433 33.4682 45.6342 33.4682 45.5194 33.4682C43.5983 33.451 41.6997 33.8814 39.9739 34.7254C37.9935 35.6846 35.8192 36.1757 33.6189 36.1606C32.6429 36.1606 31.6613 36.0572 30.6968 36.0056C34.4972 39.3409 42.0922 39.2319 45.9327 33.4682Z" fill="#26A151"/>
<path d="M48.6108 1.55515C48.4788 1.81923 48.3984 1.99719 48.3008 2.16367L44.9942 7.54849C44.776 7.91015 44.5177 8.24312 44.0527 7.96182C43.5877 7.68052 43.7484 7.30738 43.9781 6.93997C45.1262 5.11441 46.2112 3.27738 47.3651 1.46904C47.4557 1.35679 47.569 1.26499 47.6977 1.19969C47.8263 1.13438 47.9673 1.09705 48.1114 1.09015C48.2721 1.07867 48.4444 1.38867 48.6108 1.55515Z" fill="#26A151"/>
<path d="M43.6817 9.35029C43.6817 9.92436 43.1077 10.6592 42.8091 10.5673C42.6814 10.5251 42.5642 10.4562 42.4652 10.3651C42.3662 10.274 42.2878 10.1629 42.2351 10.0392C42.126 9.70047 42.7632 8.89103 43.0675 8.9714C43.2935 9.05947 43.5016 9.18785 43.6817 9.35029Z" fill="#26A151"/>
<path d="M25.8851 40.2071C25.4201 40.2071 24.9838 40.2071 25.0067 39.5986C25.0297 38.9901 25.4889 39.0245 25.9138 39.0245C26.3386 39.0245 26.7519 39.0992 26.7577 39.5986C26.7634 40.098 26.2869 40.2301 25.8851 40.2071Z" fill="#26A151"/>
<path d="M10.5868 37.8302C11.0518 37.8302 11.4996 37.8302 11.5053 38.4043C11.511 38.9783 11.0747 39.0128 10.6327 39.0128C10.1907 39.0128 9.75437 38.9726 9.76585 38.3928C9.77733 37.813 10.1734 37.7957 10.5868 37.8302Z" fill="#26A151"/>
<path d="M6.0753 40.8046C5.62178 40.8046 5.174 40.8046 5.17974 40.2306C5.18548 39.6565 5.63326 39.6565 6.06382 39.6565C6.49437 39.6565 6.91345 39.7254 6.92493 40.2306C6.93641 40.7358 6.51159 40.8448 6.0753 40.8046Z" fill="#26A151"/>
<path d="M53.6923 38.4111C53.2789 38.4111 52.8828 38.3422 52.8713 37.837C52.8599 37.3319 53.256 37.2228 53.698 37.263C54.14 37.3032 54.4787 37.1941 54.6108 37.6993C54.7428 38.2044 54.4213 38.4169 53.6923 38.4111Z" fill="#26A151"/>
<path d="M16.0328 37.4511C15.8545 37.4363 15.6818 37.3813 15.5276 37.2904C15.4527 37.2164 15.3961 37.1261 15.3622 37.0264C15.3283 36.9268 15.3182 36.8206 15.3325 36.7163C15.3669 36.5498 15.5736 36.3834 15.74 36.2858C15.8904 36.2388 16.0495 36.227 16.205 36.2513C16.6184 36.2513 17.0432 36.2513 17.0547 36.8254C17.0662 37.3995 16.6356 37.4454 16.0328 37.4511Z" fill="#26A151"/>
<path d="M19.2209 41.1659C18.7559 41.1659 18.3138 41.1659 18.3368 40.5573C18.3598 39.9488 18.7731 39.9833 19.1922 39.9833C19.6112 39.9833 20.082 40.0235 20.0877 40.5573C20.0935 41.0912 19.6399 41.1888 19.2209 41.1659Z" fill="#26A151"/>
<path d="M2.95642 35.8954C3.44439 35.8954 3.90364 35.8954 3.8979 36.4694C3.89216 37.0435 3.4329 37.0435 3.00809 37.0435C2.58327 37.0435 2.1642 36.9918 2.14698 36.4694C2.12976 35.947 2.56605 35.8781 2.95642 35.8954Z" fill="#26A151"/>
<path d="M51.7177 41.768C51.2814 41.768 50.8164 41.768 50.8164 41.194C50.8164 40.6199 51.2699 40.5854 51.7062 40.5854C52.1425 40.5854 52.5846 40.6371 52.5731 41.2112C52.5616 41.7853 52.1368 41.7853 51.7177 41.768Z" fill="#26A151"/>
<path d="M13.6802 41.5736C14.3116 41.5736 14.6216 41.8205 14.5298 42.2568C14.4379 42.6931 14.0418 42.7562 13.6572 42.7562C13.2726 42.7562 12.8765 42.7562 12.7789 42.2625C12.6813 41.7688 13.0028 41.5679 13.6802 41.5736Z" fill="#26A151"/>
<path d="M22.2404 35.2931C22.7628 35.2931 23.2163 35.2931 23.2163 35.8672C23.2163 36.4413 22.7972 36.4413 22.3781 36.4413C21.9591 36.4413 21.4826 36.4413 21.4654 35.8672C21.4481 35.2931 21.8672 35.2759 22.2404 35.2931Z" fill="#26A151"/>
</svg>
