<svg width="58" height="57" viewBox="0 0 58 57" fill="none" xmlns="http://www.w3.org/2000/svg">
<path d="M5.64315 24.7705C5.23556 23.3296 4.82222 21.9518 4.46056 20.5625C4.38019 20.2583 4.38593 19.7359 4.56389 19.6096C4.71915 19.5189 4.89355 19.4659 5.07303 19.4549C5.25252 19.444 5.43207 19.4753 5.59722 19.5464C6.22221 19.9452 6.82051 20.3844 7.38833 20.8611C7.44574 20.907 7.49741 20.9644 7.6237 21.0735C7.6237 20.8496 7.6237 20.7061 7.6237 20.5625C7.69259 18.2395 7.7634 15.9145 7.83611 13.5875C7.82077 13.4689 7.84285 13.3485 7.89926 13.2431C8.05426 13.0422 8.24944 12.7207 8.41593 12.7264C8.55005 12.7429 8.67798 12.7924 8.78821 12.8706C8.89844 12.9487 8.98751 13.0531 9.04741 13.1742C9.82815 15.8149 10.5687 18.4729 11.3437 21.1251C11.4439 20.9776 11.5615 20.8427 11.6939 20.7233C12.377 20.1492 13.0487 19.5751 13.7778 19.1101C13.9101 19.0421 14.0567 19.0067 14.2055 19.0067C14.3542 19.0067 14.5008 19.0421 14.6331 19.1101C14.7996 19.2135 14.857 19.6383 14.8111 19.8966C14.4207 22.0035 14.1107 24.139 13.0889 26.2114C13.8524 26.0335 14.6389 25.9072 15.3852 25.6374C16.7056 25.1896 17.9915 24.6155 19.3233 24.1964C20.0858 23.9981 20.867 23.8807 21.6541 23.8462C21.7959 23.8587 21.9373 23.818 22.0508 23.7321C22.1643 23.6462 22.2418 23.5211 22.2683 23.3812C22.6587 22.3307 23.1122 21.2974 23.56 20.2698C23.7207 19.8966 23.9676 19.5235 24.4613 19.7761C24.955 20.0287 24.8115 20.4248 24.5991 20.8324C22.3028 25.2298 22.2167 29.6788 24.4728 34.1049C25.9859 36.9214 28.4196 39.1335 31.3673 40.3718C34.315 41.6101 37.5983 41.7995 40.6688 40.9086C43.7394 40.0177 46.4114 38.1002 48.2385 35.4765C50.0656 32.8528 50.9373 29.6817 50.708 26.4927C50.4875 23.4911 49.2758 20.6478 47.2635 18.4098C46.5115 17.5486 46.5057 17.5486 47.2233 16.6875C50.1913 13.2144 53.1191 9.74124 56.0756 6.24513C56.3739 5.91868 56.5997 5.53268 56.738 5.11259C56.8763 4.6925 56.924 4.24786 56.8778 3.808C56.8317 3.36814 56.6929 2.94306 56.4704 2.5608C56.248 2.17853 55.9471 1.84776 55.5875 1.59031C55.2278 1.33286 54.8177 1.15458 54.3842 1.06722C53.9506 0.979864 53.5035 0.985419 53.0722 1.08352C52.641 1.18162 52.2354 1.37004 51.8823 1.63634C51.5292 1.90265 51.2366 2.24079 51.0237 2.62846C49.0221 5.86624 47.0281 9.11933 45.0419 12.3877C44.6056 13.0938 44.175 13.8057 43.7387 14.5061C43.3024 15.2064 43.2163 15.2064 42.4987 14.8964C40.7688 14.1069 38.8937 13.6855 36.9924 13.6588C35.091 13.6321 33.2049 14.0008 31.4535 14.7414C30.6815 15.0796 29.9301 15.463 29.2031 15.8896C28.8185 16.102 28.4167 16.4636 28.055 15.924C27.6933 15.3844 28.1756 15.1146 28.5659 14.8735C30.5855 13.559 32.8922 12.7506 35.2905 12.5167C37.6889 12.2829 40.1082 12.6305 42.3437 13.5301L42.8202 13.6966L44.8122 10.4588C46.5344 7.63439 48.2567 4.8042 50.0191 1.99124C50.3328 1.49902 50.7434 1.07574 51.2258 0.747122C51.7083 0.418504 52.2525 0.191414 52.8254 0.0796538C53.3983 -0.0321067 53.988 -0.0262038 54.5585 0.0970035C55.1291 0.220211 55.6687 0.458149 56.1444 0.796358C56.6202 1.13457 57.0222 1.56598 57.326 2.06439C57.6299 2.56279 57.8292 3.11777 57.9119 3.6956C57.9946 4.27343 57.9589 4.86204 57.807 5.42566C57.6552 5.98928 57.3903 6.51613 57.0285 6.97421C54.5026 10.0111 51.9365 13.0135 49.3876 16.0274L48.1074 17.5486C49.2758 18.8302 50.1965 20.3173 50.8228 21.9346C51.1956 23.0337 51.5061 24.153 51.7528 25.2872C51.8274 25.6201 51.948 25.7866 52.2522 25.8268C53.2454 25.9646 54.2385 26.1196 55.2374 26.2114C55.9378 26.2803 56.1157 26.3951 56.1157 27.1012V55.805C56.1157 56.5225 55.9263 56.6718 55.0996 56.6718H1.18833C0.0803705 56.6718 0 56.5914 0 55.5237V24.9083C0 23.9037 0.0861113 23.829 1.07352 23.8348C2.64349 23.8426 4.19644 24.1606 5.64315 24.7705ZM1.18833 42.4462C3.48463 42.3946 5.44222 43.2614 7.41704 44.1168C7.63281 44.2103 7.85544 44.287 8.08296 44.3464C10.7778 45.1462 13.6664 44.9879 16.2578 43.8987C17.9839 43.0707 19.8487 42.5704 21.7574 42.4233C24.2332 42.3087 26.6978 42.8222 28.9219 43.9159C30.2425 44.5002 31.6685 44.8088 33.1126 44.8229C35.3118 44.8754 37.4902 44.3865 39.4561 43.3992C41.6606 42.3774 43.997 42.297 46.345 42.5094C47.9299 42.7359 49.4675 43.2187 50.8974 43.9388C52.1495 44.4862 53.4979 44.7789 54.8643 44.7999V35.6779L50.2717 34.5872C50.1798 34.7364 50.0994 34.8972 50.0076 35.0522C47.0741 39.9892 42.7226 42.6185 36.9933 42.7907C33.9896 42.8498 31.0372 42.006 28.5183 40.3684C25.9995 38.7308 24.0302 36.3749 22.8654 33.6055C22.8207 33.4397 22.7162 33.2963 22.572 33.203C22.4278 33.1097 22.2542 33.0731 22.0846 33.1003C20.2464 33.1758 18.4457 33.6436 16.8032 34.4724C14.5069 35.5229 12.1187 35.6205 9.66741 35.4024C8.12358 35.1692 6.62606 34.6946 5.22982 33.9959C3.96189 33.4407 2.59534 33.1459 1.2113 33.129C1.2113 33.2783 1.2113 33.3701 1.2113 33.4677L1.18833 42.4462ZM21.855 25.0231L20.9422 25.092C19.3406 25.2298 17.9398 25.9187 16.4931 26.4927C13.6664 27.6367 10.5283 27.7545 7.6237 26.8257C6.40093 26.4583 5.25278 25.8555 4.03 25.4766C3.10811 25.2395 2.17252 25.0593 1.22852 24.937V31.9292C3.35833 31.9292 5.24704 32.7157 7.11852 33.4735C9.9854 34.6419 13.1957 34.6419 16.0626 33.4735C16.8895 33.1023 17.7344 32.7728 18.5943 32.4861C19.7424 32.1703 20.9709 31.9981 22.1937 31.757C21.5857 29.5651 21.4642 27.2668 21.8378 25.0231H21.855ZM18.4737 48.7668C18.8985 48.83 19.3865 48.8931 19.863 48.9735C21.9928 49.3294 24.1169 49.7485 25.9826 50.8851C26.2818 51.0984 26.6319 51.2292 26.9976 51.2645C27.3634 51.2998 27.732 51.2382 28.0665 51.0861C29.0069 50.7871 29.9657 50.5494 30.9369 50.3742C30.0678 49.1971 29.5269 47.8103 29.3696 46.3557C29.3007 45.5003 28.8759 45.2075 28.1698 44.8803C26.111 43.8857 23.8238 43.4596 21.545 43.6461C21.4319 43.6579 21.3224 43.693 21.2236 43.7494C21.1248 43.8057 21.0387 43.8819 20.9709 43.9733C20.127 45.5462 19.3119 47.1594 18.4737 48.7668ZM11.4872 53.147C11.7111 53.7555 11.9752 54.3353 12.1302 54.9381C12.2393 55.3801 12.4574 55.4662 12.8707 55.4662C15.2589 55.4662 17.647 55.3974 20.0294 55.4662C21.235 55.5064 22.188 55.3227 22.8998 54.255C23.2773 53.8078 23.7205 53.4206 24.2144 53.1068C24.668 52.7451 25.1617 52.4409 25.6726 52.085C25.5406 51.9988 25.4544 51.9185 25.3511 51.8668C22.9605 50.7324 20.3701 50.0789 17.7274 49.9437C17.4855 49.9779 17.2658 50.1031 17.1131 50.2938C15.9845 51.5147 14.5369 52.3956 12.9339 52.837C12.4631 52.9633 11.9752 53.0437 11.4872 53.147ZM19.5817 44.0824L19.4783 43.9159C18.8411 44.157 18.1867 44.3637 17.5724 44.645C15.8996 45.4627 14.0764 45.9278 12.2163 46.0112C12.0495 46.0269 11.8932 46.0999 11.7743 46.2179C10.7409 47.3661 9.71333 48.5142 8.70296 49.5992C9.27704 50.2364 9.89704 51.0057 10.5744 51.7462C10.6522 51.8152 10.7432 51.8676 10.8419 51.9002C10.9406 51.9328 11.045 51.9449 11.1485 51.9357C12.6769 51.8475 14.1388 51.2812 15.3278 50.3168C17.36 48.652 18.4737 46.3672 19.5817 44.0824ZM1.2113 50.4948C4.53519 50.9483 8.82352 48.474 10.3965 45.9424C8.14611 45.9424 6.25741 44.7942 4.23093 44.134C3.23379 43.8658 2.22165 43.6569 1.19981 43.5083L1.2113 50.4948ZM11.0394 55.4261C10.4506 53.426 9.26239 51.6547 7.63519 50.3512C7.55472 50.3157 7.46771 50.2973 7.37972 50.2973C7.29174 50.2973 7.20472 50.3157 7.12426 50.3512C6.35815 50.7106 5.5701 51.0212 4.76482 51.2812C3.61667 51.5683 2.41685 51.6946 1.21704 51.8955V55.4203L11.0394 55.4261ZM45.6159 43.4968C46.4598 46.4533 52.3326 50.69 54.893 50.4431V46.0974C53.8309 45.8964 52.8033 45.7874 51.8274 45.5233C50.8515 45.2592 49.933 44.7368 48.957 44.4211C47.8606 44.0479 46.7354 43.7953 45.6159 43.4968ZM30.4776 45.7931C30.7015 48.1525 31.8726 49.9781 33.5661 51.5338C35.4284 49.8127 37.5926 48.4503 39.9498 47.5153C39.1633 46.8666 38.4285 46.2351 37.6535 45.6496C37.4621 45.5658 37.2488 45.5457 37.045 45.5922C35.9543 45.7127 34.8635 45.9481 33.767 45.9825C32.6706 46.017 31.597 45.8677 30.4776 45.7931ZM48.7102 49.1801C48.6006 49.5561 48.52 49.94 48.4691 50.3283C48.4524 51.673 48.7974 52.9974 49.468 54.1631C49.9272 55.0874 50.5013 55.6959 51.6552 55.4777C52.1459 55.4317 52.6398 55.4317 53.1306 55.4777H54.9332C54.9332 54.2779 54.9332 53.1814 54.9332 52.0333C54.9332 51.9185 54.7035 51.7577 54.5543 51.7118C53.7333 51.4362 52.8722 51.264 52.0857 50.9196C50.9606 50.4144 49.9043 49.8001 48.7102 49.1801ZM32.4524 55.4375H40.1335C40.2448 55.1237 40.3752 54.817 40.5239 54.519C40.5715 54.4579 40.6063 54.3877 40.6261 54.3127C40.6459 54.2377 40.6503 54.1595 40.639 54.0828C40.6277 54.0061 40.6011 53.9324 40.5605 53.8663C40.52 53.8002 40.4666 53.743 40.4033 53.6981C39.9498 53.2044 39.5882 52.6188 39.1002 52.1653C38.4967 51.6125 37.854 51.104 37.177 50.644C37.0748 50.6006 36.9637 50.5821 36.8529 50.5901C36.7421 50.5981 36.6348 50.6323 36.5398 50.69C35.3525 51.4026 34.323 52.35 33.5144 53.4742C33.1241 54.0483 32.837 54.697 32.4524 55.4375ZM47.3783 49.1055C47.3095 49.102 47.2405 49.102 47.1717 49.1055C45.3601 49.2045 43.5473 48.933 41.8443 48.3075C41.7213 48.2477 41.5816 48.2315 41.4481 48.2616C40.3459 48.7094 39.2552 49.1744 38.2678 49.5935L41.4883 53.0379C43.1015 51.419 45.1567 51.3157 47.2291 51.442L47.3783 49.1055ZM54.8757 34.2829V27.4687L51.9307 27.0668C52.0028 29.2071 51.6253 31.3388 50.8228 33.3242C52.0961 33.929 53.4836 34.2558 54.893 34.2829H54.8757ZM23.5543 55.4548C26.0515 55.4548 28.5487 55.4548 31.0517 55.4548C31.1214 55.4434 31.1876 55.4163 31.2453 55.3755C31.303 55.3347 31.3507 55.2813 31.3846 55.2194C31.798 54.2951 32.1883 53.3537 32.6189 52.349C32.4701 52.061 32.2242 51.835 31.9247 51.711C31.6253 51.587 31.2916 51.5731 30.9828 51.6716C30.5981 51.7577 30.1963 51.752 29.8346 51.8266C27.3873 52.2806 25.1701 53.5615 23.5543 55.4548ZM5.96463 21.0103L5.72352 21.1481C6.11963 22.2274 6.50426 23.3181 6.91185 24.3974C7.05942 24.8593 7.34704 25.2638 7.73483 25.5549C8.12263 25.846 8.59138 26.0092 9.07611 26.022C9.68463 26.0737 10.2931 26.2114 10.8959 26.2114C11.0427 26.2046 11.1866 26.168 11.3189 26.1038C11.4511 26.0397 11.5689 25.9493 11.6652 25.8383C12.7731 24.3514 13.0659 22.5833 13.353 20.7922C13.0642 20.9875 12.8067 21.2256 12.5894 21.4983C12.0957 22.1412 11.6537 22.8187 11.1313 23.4387C11.0356 23.5354 10.9193 23.6094 10.7911 23.6551C10.6629 23.7008 10.5261 23.7171 10.3907 23.7027C10.2243 23.6224 10.0635 23.2779 10.0635 23.0483C9.96593 22.1699 10.0061 21.2687 9.84537 20.4075C9.61574 19.1561 9.2713 17.9275 8.94407 16.6933C8.8637 18.0998 8.84074 19.4833 8.87519 20.8611C8.87519 21.6648 9.04167 22.4685 9.05315 23.2779C9.04984 23.4193 9.0133 23.558 8.94648 23.6826C8.87966 23.8073 8.78444 23.9145 8.66852 23.9955C8.47333 24.0529 8.14611 23.8061 7.92796 23.6338C7.70982 23.4616 7.70407 23.2607 7.57778 23.0885C7.02667 22.3824 6.49278 21.6935 5.96463 20.9931V21.0103ZM47.298 47.9172C46.0296 46.7906 44.9957 45.425 44.2554 43.8987C44.2043 43.8268 44.1373 43.7676 44.0596 43.7258C43.982 43.684 43.8957 43.6606 43.8076 43.6575C42.0236 43.7215 40.2795 44.2032 38.7156 45.064C41.1439 47.1881 43.9339 48.0205 47.2693 47.9L47.298 47.9172ZM48.7791 55.4433C48.4059 54.5937 48.0672 53.8014 47.6998 53.0207C47.6367 52.8829 47.4817 52.7107 47.3554 52.6992C46.0178 52.5844 44.6802 52.527 43.423 53.147C42.9573 53.3742 42.5439 53.6956 42.2089 54.0909C41.8739 54.4862 41.6246 54.9467 41.4769 55.4433H48.7791Z" fill="white"/>
<path d="M36.7525 39.4098C34.4161 39.4029 32.1344 38.7024 30.1966 37.3971C28.2588 36.0917 26.7522 34.2404 25.8679 32.0778C24.9836 29.9152 24.7613 27.5387 25.2293 25.2496C25.6973 22.9606 26.8345 20.862 28.4966 19.22C30.1588 17.578 32.2711 16.4666 34.5657 16.0265C36.8603 15.5865 39.2339 15.8378 41.3855 16.7484C43.5372 17.659 45.37 19.1881 46.6516 21.1417C47.9331 23.0952 48.6058 25.3854 48.5842 27.7217C48.5614 30.8394 47.303 33.8209 45.0849 36.012C42.8669 38.2032 39.8703 39.4251 36.7525 39.4098ZM26.4192 25.632C26.4192 25.632 26.3675 25.6952 26.3618 25.7469C26.0995 27.1581 26.1308 28.6082 26.4538 30.0068C26.7768 31.4054 27.3845 32.7224 28.239 33.8758C28.4442 34.1313 28.7258 34.3144 29.0427 34.3982C32.3838 35.3052 35.6847 35.2535 38.8651 33.7724C41.057 32.7052 43.4787 32.1964 45.9147 32.2913C46.2879 32.2913 46.4257 32.142 46.552 31.8435C47.4792 29.6859 47.6689 27.2827 47.0916 25.0063C47.0727 24.8393 46.9898 24.6861 46.8602 24.579C46.7306 24.4719 46.5646 24.4193 46.397 24.4322C43.8806 24.2752 41.3661 24.7674 39.0947 25.8617C36.1666 27.1695 32.8862 27.4644 29.7718 26.6998C28.6278 26.3971 27.501 26.033 26.3962 25.6091L26.4192 25.632ZM26.712 24.4208C27.7192 24.8346 28.7483 25.193 29.7947 25.4943C32.9647 26.2952 36.3158 25.9495 39.2555 24.5183C41.3369 23.5428 43.6242 23.0877 45.9205 23.1922C46.0686 23.1897 46.2164 23.1763 46.3625 23.1521C45.002 19.5411 40.4897 16.7913 36.4023 17.0037C34.2166 17.0797 32.1089 17.8348 30.3722 19.1641C28.6355 20.4934 27.3561 22.3307 26.712 24.4208ZM45.6105 33.4682C45.421 33.4682 45.312 33.4682 45.1971 33.4682C43.2761 33.451 41.3774 33.8814 39.6516 34.7254C37.6713 35.6846 35.4969 36.1757 33.2966 36.1606C32.3207 36.1606 31.339 36.0572 30.3746 36.0056C34.1749 39.3409 41.7699 39.2319 45.6105 33.4682Z" fill="white"/>
<path d="M48.2886 1.55515C48.1565 1.81923 48.0762 1.99719 47.9786 2.16367L44.6719 7.54849C44.4538 7.91015 44.1954 8.24312 43.7304 7.96182C43.2654 7.68052 43.4262 7.30738 43.6558 6.93997C44.8039 5.11441 45.8889 3.27738 47.0428 1.46904C47.1334 1.35679 47.2468 1.26499 47.3754 1.19969C47.504 1.13438 47.645 1.09705 47.7891 1.09015C47.9499 1.07867 48.1221 1.38867 48.2886 1.55515Z" fill="white"/>
<path d="M43.3595 9.35029C43.3595 9.92436 42.7854 10.6592 42.4869 10.5673C42.3592 10.5251 42.2419 10.4562 42.1429 10.3651C42.044 10.274 41.9655 10.1629 41.9128 10.0392C41.8037 9.70047 42.441 8.89103 42.7452 8.9714C42.9712 9.05947 43.1793 9.18785 43.3595 9.35029Z" fill="white"/>
<path d="M25.5628 40.2071C25.0978 40.2071 24.6615 40.2071 24.6845 39.5986C24.7074 38.9901 25.1667 39.0245 25.5915 39.0245C26.0163 39.0245 26.4296 39.0992 26.4354 39.5986C26.4411 40.098 25.9646 40.2301 25.5628 40.2071Z" fill="white"/>
<path d="M10.2645 37.8302C10.7295 37.8302 11.1773 37.8302 11.183 38.4043C11.1888 38.9783 10.7525 39.0128 10.3104 39.0128C9.8684 39.0128 9.4321 38.9726 9.44358 38.3928C9.45506 37.813 9.85117 37.7957 10.2645 37.8302Z" fill="white"/>
<path d="M5.75303 40.8046C5.29951 40.8046 4.85174 40.8046 4.85748 40.2306C4.86322 39.6565 5.31099 39.6565 5.74155 39.6565C6.17211 39.6565 6.59118 39.7254 6.60266 40.2306C6.61414 40.7358 6.18933 40.8448 5.75303 40.8046Z" fill="white"/>
<path d="M53.37 38.4111C52.9567 38.4111 52.5606 38.3422 52.5491 37.837C52.5376 37.3319 52.9337 37.2228 53.3757 37.263C53.8178 37.3032 54.1565 37.1941 54.2885 37.6993C54.4206 38.2044 54.0991 38.4169 53.37 38.4111Z" fill="white"/>
<path d="M15.7106 37.4511C15.5322 37.4363 15.3595 37.3813 15.2054 37.2904C15.1305 37.2164 15.0738 37.1261 15.04 37.0264C15.0061 36.9268 14.9959 36.8206 15.0102 36.7163C15.0446 36.5498 15.2513 36.3834 15.4178 36.2858C15.5681 36.2388 15.7272 36.227 15.8828 36.2513C16.2961 36.2513 16.7209 36.2513 16.7324 36.8254C16.7439 37.3995 16.3133 37.4454 15.7106 37.4511Z" fill="white"/>
<path d="M18.8986 41.1659C18.4336 41.1659 17.9916 41.1659 18.0145 40.5573C18.0375 39.9488 18.4508 39.9833 18.8699 39.9833C19.289 39.9833 19.7597 40.0235 19.7655 40.5573C19.7712 41.0912 19.3177 41.1888 18.8986 41.1659Z" fill="white"/>
<path d="M2.63416 35.8954C3.12212 35.8954 3.58138 35.8954 3.57564 36.4694C3.5699 37.0435 3.11064 37.0435 2.68582 37.0435C2.26101 37.0435 1.84193 36.9918 1.82471 36.4694C1.80749 35.947 2.24379 35.8781 2.63416 35.8954Z" fill="white"/>
<path d="M51.3954 41.768C50.9591 41.768 50.4941 41.768 50.4941 41.194C50.4941 40.6199 50.9477 40.5854 51.384 40.5854C51.8203 40.5854 52.2623 40.6371 52.2508 41.2112C52.2393 41.7853 51.8145 41.7853 51.3954 41.768Z" fill="white"/>
<path d="M13.3579 41.5736C13.9894 41.5736 14.2994 41.8205 14.2075 42.2568C14.1157 42.6931 13.7196 42.7562 13.3349 42.7562C12.9503 42.7562 12.5542 42.7562 12.4566 42.2625C12.359 41.7688 12.6805 41.5679 13.3579 41.5736Z" fill="white"/>
<path d="M21.9181 35.2931C22.4405 35.2931 22.894 35.2931 22.894 35.8672C22.894 36.4413 22.4749 36.4413 22.0559 36.4413C21.6368 36.4413 21.1603 36.4413 21.1431 35.8672C21.1259 35.2931 21.5449 35.2759 21.9181 35.2931Z" fill="white"/>
</svg>
