<svg width="46" height="48" viewBox="0 0 46 48" fill="none" xmlns="http://www.w3.org/2000/svg">
<path fill-rule="evenodd" clip-rule="evenodd" d="M2.89329 5.13281L0.322266 10.2656L0.353968 12.7056L0.385765 15.1454L0.697242 15.7756C0.903733 16.1932 1.16545 16.5402 1.47335 16.8044L1.93788 17.2031L1.93798 24.5859V31.9688H1.13835H0.338728V39.9844V48H22.8223H45.3058V39.9844V31.9688H44.5062H43.7066V24.5859L43.7067 17.2031L44.1712 16.8044C44.4791 16.5402 44.7408 16.1932 44.9473 15.7756L45.2588 15.1454L45.2906 12.7056L45.3223 10.2656L42.7512 5.13281L40.1802 0H22.8223H5.46432L2.89329 5.13281ZM4.19593 6.09338C2.75115 8.97253 1.93798 10.6944 1.93798 10.8746V11.1562H3.65905H5.38022L6.71643 6.49012C7.45143 3.92372 8.05275 1.77216 8.05275 1.70888C8.05275 1.62694 7.82245 1.59375 7.25331 1.59375H6.45388L4.19593 6.09338ZM8.41502 6.375L7.04475 11.1562H8.56733H10.0899L10.729 6.67969C11.0806 4.21753 11.3897 2.06606 11.4162 1.89844L11.464 1.59375H10.6246H9.7852L8.41502 6.375ZM12.4393 6.11719C12.0854 8.60513 11.7738 10.7566 11.747 10.8984L11.6981 11.1562H13.2621H14.826V6.375V1.59375H13.9544H13.0829L12.4393 6.11719ZM16.4253 6.375V11.1562H18.0245H19.6238V6.375V1.59375H18.0245H16.4253V6.375ZM21.223 6.375V11.1562H22.8223H24.4215V6.375V1.59375H22.8223H21.223V6.375ZM26.0208 6.375V11.1562H27.62H29.2193V6.375V1.59375H27.62H26.0208V6.375ZM30.8185 6.375V11.1562H32.3825H33.9464L33.8975 10.8984C33.8707 10.7566 33.5591 8.60513 33.2052 6.11719L32.5617 1.59375H31.6901H30.8185V6.375ZM34.2284 1.89844C34.2548 2.06606 34.5639 4.21753 34.9155 6.67969L35.5546 11.1562H37.086H38.6176L38.4981 10.7578C38.4323 10.5386 37.811 8.38716 37.1173 5.97656L35.8559 1.59375H35.0182H34.1805L34.2284 1.89844ZM37.5918 1.70888C37.5918 1.77216 38.1931 3.92372 38.9281 6.49012L40.2643 11.1562H41.9855H43.7066V10.8746C43.7066 10.6944 42.8934 8.97253 41.4486 6.09338L39.1907 1.59375H38.3912C37.8221 1.59375 37.5918 1.62694 37.5918 1.70888ZM1.94005 13.7578C1.94155 14.4441 1.98558 14.7671 2.11634 15.0543C2.56084 16.0296 3.74738 16.2864 4.58059 15.5878C5.02546 15.2148 5.13647 14.8546 5.13647 13.7843V12.8438H3.53722H1.93798L1.94005 13.7578ZM6.75359 13.8598C6.7995 14.9707 6.9551 15.3771 7.46093 15.7073C8.01672 16.0702 8.86516 16.0508 9.33882 15.6642C9.8201 15.2715 9.93346 14.926 9.93384 13.8516L9.93421 12.8438H8.32292H6.71154L6.75359 13.8598ZM11.6279 13.8516C11.6283 14.926 11.7416 15.2715 12.2229 15.6642C12.6966 16.0508 13.545 16.0702 14.1008 15.7073C14.6067 15.3771 14.7622 14.9707 14.8082 13.8598L14.8502 12.8438H13.2388H11.6275L11.6279 13.8516ZM16.4253 13.7843C16.4253 14.8546 16.5363 15.2148 16.9812 15.5878C17.8144 16.2864 19.0009 16.0296 19.4454 15.0543C19.5762 14.7671 19.6202 14.4441 19.6217 13.7578L19.6238 12.8438H18.0245H16.4253V13.7843ZM21.223 13.7843C21.223 14.3665 21.2719 14.8414 21.3513 15.0308C21.6328 15.7022 22.4942 16.1265 23.1943 15.9386C23.6612 15.8134 24.1261 15.4292 24.2932 15.0308C24.3726 14.8414 24.4215 14.3665 24.4215 13.7843V12.8438H22.8223H21.223V13.7843ZM26.0228 13.7578C26.0243 14.4441 26.0684 14.7671 26.1991 15.0543C26.6436 16.0296 27.8302 16.2864 28.6634 15.5878C29.1083 15.2148 29.2193 14.8546 29.2193 13.7843V12.8438H27.62H26.0208L26.0228 13.7578ZM30.8364 13.8598C30.8823 14.9707 31.0379 15.3771 31.5437 15.7073C32.0995 16.0702 32.9479 16.0508 33.4216 15.6642C33.9029 15.2715 34.0162 14.926 34.0166 13.8516L34.017 12.8438H32.4057H30.7943L30.8364 13.8598ZM35.7107 13.8516C35.7111 14.926 35.8244 15.2715 36.3057 15.6642C36.7794 16.0508 37.6278 16.0702 38.1836 15.7073C38.6894 15.3771 38.845 14.9707 38.8909 13.8598L38.933 12.8438H37.3216H35.7103L35.7107 13.8516ZM40.5081 13.7843C40.5081 14.8546 40.6191 15.2148 41.0639 15.5878C41.8971 16.2864 43.0837 16.0296 43.5282 15.0543C43.659 14.7671 43.703 14.4441 43.7045 13.7578L43.7066 12.8438H42.1073H40.5081V13.7843ZM5.69423 16.7414C5.40825 17.0448 4.42283 17.5312 4.09433 17.5312C3.4915 17.5312 3.53722 16.9346 3.53722 24.8069V31.9688H4.76657H5.99593L5.79357 31.6855C5.29922 30.9937 4.99404 29.2688 5.21982 28.442C5.44165 27.6293 6.07824 27.1932 7.04785 27.1896L7.59517 27.1875L7.41399 26.9297C7.00467 26.3476 6.8075 25.5933 6.79508 24.5625C6.78153 23.4373 6.88398 23.1517 7.45726 22.7158C8.21982 22.136 10.4776 22.3822 11.46 23.1523L11.7011 23.3413L11.9449 23.0228C12.3259 22.525 12.8572 22.3688 13.9579 22.4307C15.4838 22.5166 16.5001 23.0519 17.2989 24.1905C17.7316 24.8071 17.9085 25.381 18.0012 26.4689L18.0716 27.2948L18.5607 27.4596C20.1504 27.9949 21.2169 29.5861 21.2216 31.4297L21.223 31.9688H22.8223H24.4215V28.7812V25.5938H25.6445H26.8674V24.1121C26.8674 22.7077 26.88 22.6053 27.11 22.1454C27.3653 21.6351 27.8841 21.1556 28.3605 20.9902C28.6147 20.9018 28.6754 20.7974 28.9444 19.9849C29.1095 19.4861 29.2606 19.0495 29.2802 19.0147C29.3074 18.9664 30.6763 19.3604 30.7948 19.4506C30.8076 19.4603 30.7124 19.7782 30.5831 20.1568C30.2923 21.009 30.2924 21.0358 30.5912 21.2309C30.8256 21.3839 30.8528 21.3801 31.3437 21.1245L31.8529 20.8594L32.148 19.9688C32.3103 19.4789 32.4591 19.0495 32.4787 19.0147C32.5057 18.9667 33.873 19.3598 33.9926 19.4499C34.0051 19.4593 33.9056 19.7917 33.7717 20.1888C33.5044 20.981 33.5113 21.0868 33.8414 21.2628C34.0379 21.3677 34.1278 21.3479 34.5906 21.0982C35.1102 20.8177 35.1187 20.8061 35.3217 20.1099C35.4347 19.7226 35.5664 19.3025 35.6145 19.1766L35.7019 18.9475L36.4352 19.1902C36.8384 19.3237 37.178 19.4398 37.1895 19.4483C37.2011 19.4569 37.0956 19.8131 36.9552 20.2401C36.702 21.0098 36.7014 21.0175 36.8871 21.1477C37.3036 21.4398 37.6281 21.8211 37.8384 22.2656C38.0411 22.6938 38.0604 22.8581 38.0612 24.1641L38.0622 25.5938H39.2851H40.5081V28.7812V31.9688H41.3077H42.1073V24.8069C42.1073 16.9346 42.153 17.5312 41.5502 17.5312C41.2229 17.5312 40.2367 17.0452 39.9527 16.744L39.7379 16.5161L39.2528 16.8828C38.0237 17.8117 36.3672 17.803 35.2944 16.862L34.8637 16.4841L34.4536 16.8438C33.9107 17.32 33.1934 17.5762 32.4149 17.5717C31.6835 17.5674 31.1439 17.3728 30.477 16.8727L29.9944 16.5109L29.7748 16.7438C29.654 16.872 29.28 17.1118 28.9439 17.2767C28.4139 17.5368 28.2384 17.5758 27.6235 17.5703C27.0316 17.5651 26.8131 17.5158 26.301 17.2718C25.9636 17.1112 25.5869 16.8728 25.4638 16.7423L25.2401 16.5051L24.9057 16.7977C23.9515 17.6327 22.6038 17.8191 21.4861 17.2707C21.1567 17.1091 20.7886 16.8723 20.6682 16.7446L20.4493 16.5123L19.9914 16.873C19.0515 17.6134 17.7997 17.7778 16.7334 17.3009C16.4189 17.1603 16.0474 16.9264 15.9078 16.7812L15.6539 16.5171L15.1694 16.8832C13.941 17.8117 12.2843 17.8028 11.2116 16.862L10.7809 16.4841L10.3708 16.8438C9.82791 17.32 9.1106 17.5762 8.33214 17.5717C7.60072 17.5674 7.06112 17.3728 6.39423 16.8727L5.91164 16.5109L5.69423 16.7414ZM28.7156 22.6361C28.4684 22.8645 28.4667 22.8755 28.4667 24.2299V25.5938H29.2733H30.0798L30.0494 24.226C30.0189 22.8595 30.0187 22.8581 29.7549 22.6323C29.4162 22.3421 29.0324 22.3435 28.7156 22.6361ZM31.9131 22.6534C31.6683 22.8975 31.6652 22.9172 31.6652 24.2471V25.5938H32.4648H33.2644V24.274V22.9543L32.9894 22.6803C32.6352 22.3273 32.2501 22.3177 31.9131 22.6534ZM35.1386 22.6803L34.8637 22.9543V24.274V25.5938H35.6633H36.4629V24.3325C36.4629 22.9775 36.3905 22.6764 36.0248 22.5103C35.6584 22.344 35.4327 22.3872 35.1386 22.6803ZM8.36705 24.7033C8.4376 25.5357 8.57664 25.9031 9.00458 26.3888C9.47786 26.9261 10.1133 27.1854 10.959 27.1866L11.6545 27.1875L11.5924 26.5216C11.4389 24.8754 10.5097 24 8.91587 24H8.3074L8.36705 24.7033ZM13.2268 24.6742C13.2268 25.5512 13.5387 26.2353 14.1463 26.6909C14.6407 27.0616 15.0693 27.1863 15.8509 27.1869L16.4525 27.1875L16.4004 26.5018C16.2811 24.9297 15.4735 24.1096 13.9559 24.0193L13.2268 23.9759V24.6742ZM26.0208 29.5781V31.9688H32.4648H38.9088V29.5781V27.1875H32.4648H26.0208V29.5781ZM6.75924 29.4465C6.82979 30.3728 7.03939 30.855 7.58332 31.3424C8.10627 31.811 8.55312 31.9688 9.35717 31.9688H9.93421V31.3095C9.93421 29.8048 9.05595 28.913 7.46723 28.8044L6.70637 28.7525L6.75924 29.4465ZM11.6445 29.5871C11.6789 30.281 11.7267 30.4852 11.9276 30.7969C12.4617 31.6252 13.1069 31.9636 14.1578 31.9667L14.8536 31.9688L14.7939 31.2639C14.6642 29.7352 13.8448 28.9213 12.3194 28.8063L11.6032 28.7524L11.6445 29.5871ZM16.4262 29.4609C16.4283 31.0085 17.3856 31.962 18.9417 31.9667L19.6238 31.9688V31.4702C19.6238 29.8507 18.5506 28.7812 16.9256 28.7812H16.4253L16.4262 29.4609ZM27.62 29.5773V30.375H32.4686H37.3172L37.2898 29.6016L37.2625 28.8281L32.4413 28.8038L27.62 28.7796V29.5773ZM1.93798 39.9844V46.4062H22.8223H43.7066V39.9844V33.5625H22.8223H1.93798V39.9844ZM30.1554 35.5815L29.2584 36.4754L28.792 36.2612C28.4099 36.0858 28.1638 36.047 27.4319 36.047C25.9506 36.0469 25.2918 36.4546 24.129 38.0912C23.7556 38.6168 23.4383 39.062 23.4239 39.0804C23.4095 39.0989 23.1095 38.8241 22.7572 38.4697C21.6072 37.3129 20.3972 36.8476 18.5323 36.8452C17.6028 36.8439 17.4537 36.8669 17.1769 37.0547C16.5265 37.4958 16.4718 37.6538 16.4765 39.0776C16.4799 40.1678 16.5128 40.4504 16.6964 40.9688C17.2984 42.6684 18.6988 44.0174 20.4234 44.5589C20.9802 44.7337 21.2999 44.7656 22.493 44.7656H23.9041L26.6611 43.3798C28.5505 42.4301 29.549 41.8738 29.8341 41.6119C30.3496 41.1383 30.7186 40.4059 30.7903 39.7141L30.8448 39.1875H31.6313H32.4178V38.3906V37.5938H31.4083H30.3987L31.3147 36.6773L32.2308 35.761L31.6866 35.2242C31.3873 34.929 31.1221 34.6875 31.0974 34.6875C31.0727 34.6875 30.6488 35.0898 30.1554 35.5815ZM26.5816 37.8047C26.2369 37.9779 25.9867 38.2582 25.1821 39.3724L24.2022 40.7291L24.3119 41.3662C24.3722 41.7168 24.4215 42.1504 24.4215 42.3299C24.4215 42.5093 24.4431 42.6562 24.4695 42.6562C24.5684 42.6562 28.3364 40.751 28.5864 40.5745C29.1182 40.1992 29.3662 39.3051 29.1189 38.6545C28.773 37.7446 27.5298 37.3282 26.5816 37.8047ZM18.0257 39.0594C18.0277 40.2821 18.4554 41.2945 19.3098 42.0998C20.0987 42.8434 21.1219 43.2167 22.3754 43.2182L22.8223 43.2188V42.6608C22.8223 40.9031 21.964 39.4743 20.4962 38.7881C19.9484 38.5321 19.7302 38.485 18.9417 38.453L18.0245 38.4157L18.0257 39.0594Z" fill="#26A151"/>
</svg>
