<svg width="45" height="48" viewBox="0 0 45 48" fill="none" xmlns="http://www.w3.org/2000/svg">
<path fill-rule="evenodd" clip-rule="evenodd" d="M2.57103 5.13281L0 10.2656L0.0317027 12.7056L0.0634995 15.1454L0.374977 15.7756C0.581468 16.1932 0.84318 16.5402 1.15108 16.8044L1.61562 17.2031L1.61571 24.5859V31.9688H0.816087H0.0164628V39.9844V48H22.5H44.9835V39.9844V31.9688H44.1839H43.3843V24.5859L43.3844 17.2031L43.8489 16.8044C44.1568 16.5402 44.4185 16.1932 44.625 15.7756L44.9365 15.1454L44.9683 12.7056L45 10.2656L42.429 5.13281L39.858 0H22.5H5.14205L2.57103 5.13281ZM3.87366 6.09338C2.42888 8.97253 1.61571 10.6944 1.61571 10.8746V11.1562H3.33678H5.05795L6.39417 6.49012C7.12916 3.92372 7.73048 1.77216 7.73048 1.70888C7.73048 1.62694 7.50019 1.59375 6.93105 1.59375H6.13161L3.87366 6.09338ZM8.09276 6.375L6.72248 11.1562H8.24506H9.76764L10.4068 6.67969C10.7583 4.21753 11.0675 2.06606 11.0939 1.89844L11.1418 1.59375H10.3024H9.46294L8.09276 6.375ZM12.117 6.11719C11.7631 8.60513 11.4516 10.7566 11.4247 10.8984L11.3758 11.1562H12.9398H14.5038V6.375V1.59375H13.6322H12.7606L12.117 6.11719ZM16.103 6.375V11.1562H17.7023H19.3015V6.375V1.59375H17.7023H16.103V6.375ZM20.9008 6.375V11.1562H22.5H24.0992V6.375V1.59375H22.5H20.9008V6.375ZM25.6985 6.375V11.1562H27.2977H28.897V6.375V1.59375H27.2977H25.6985V6.375ZM30.4962 6.375V11.1562H32.0602H33.6242L33.5753 10.8984C33.5485 10.7566 33.2369 8.60513 32.883 6.11719L32.2394 1.59375H31.3678H30.4962V6.375ZM33.9061 1.89844C33.9326 2.06606 34.2417 4.21753 34.5932 6.67969L35.2324 11.1562H36.7638H38.2953L38.1758 10.7578C38.1101 10.5386 37.4887 8.38716 36.795 5.97656L35.5337 1.59375H34.696H33.8582L33.9061 1.89844ZM37.2695 1.70888C37.2695 1.77216 37.8708 3.92372 38.6058 6.49012L39.9421 11.1562H41.6632H43.3843V10.8746C43.3843 10.6944 42.5711 8.97253 41.1263 6.09338L38.8684 1.59375H38.069C37.4998 1.59375 37.2695 1.62694 37.2695 1.70888ZM1.61778 13.7578C1.61928 14.4441 1.66331 14.7671 1.79407 15.0543C2.23857 16.0296 3.42512 16.2864 4.25833 15.5878C4.7032 15.2148 4.81421 14.8546 4.81421 13.7843V12.8438H3.21496H1.61571L1.61778 13.7578ZM6.43133 13.8598C6.47724 14.9707 6.63283 15.3771 7.13867 15.7073C7.69445 16.0702 8.5429 16.0508 9.01656 15.6642C9.49784 15.2715 9.6112 14.926 9.61157 13.8516L9.61195 12.8438H8.00066H6.38928L6.43133 13.8598ZM11.3056 13.8516C11.306 14.926 11.4194 15.2715 11.9007 15.6642C12.3743 16.0508 13.2228 16.0702 13.7786 15.7073C14.2844 15.3771 14.44 14.9707 14.4859 13.8598L14.5279 12.8438H12.9166H11.3053L11.3056 13.8516ZM16.103 13.7843C16.103 14.8546 16.214 15.2148 16.6589 15.5878C17.4921 16.2864 18.6786 16.0296 19.1231 15.0543C19.2539 14.7671 19.2979 14.4441 19.2994 13.7578L19.3015 12.8438H17.7023H16.103V13.7843ZM20.9008 13.7843C20.9008 14.3665 20.9497 14.8414 21.0291 15.0308C21.3105 15.7022 22.172 16.1265 22.8721 15.9386C23.3389 15.8134 23.8039 15.4292 23.9709 15.0308C24.0503 14.8414 24.0992 14.3665 24.0992 13.7843V12.8438H22.5H20.9008V13.7843ZM25.7006 13.7578C25.7021 14.4441 25.7461 14.7671 25.8769 15.0543C26.3214 16.0296 27.5079 16.2864 28.3411 15.5878C28.786 15.2148 28.897 14.8546 28.897 13.7843V12.8438H27.2977H25.6985L25.7006 13.7578ZM30.5141 13.8598C30.56 14.9707 30.7156 15.3771 31.2215 15.7073C31.7772 16.0702 32.6257 16.0508 33.0993 15.6642C33.5806 15.2715 33.694 14.926 33.6944 13.8516L33.6947 12.8438H32.0834H30.4721L30.5141 13.8598ZM35.3884 13.8516C35.3888 14.926 35.5022 15.2715 35.9834 15.6642C36.4571 16.0508 37.3055 16.0702 37.8613 15.7073C38.3672 15.3771 38.5228 14.9707 38.5687 13.8598L38.6107 12.8438H36.9993H35.3881L35.3884 13.8516ZM40.1858 13.7843C40.1858 14.8546 40.2968 15.2148 40.7417 15.5878C41.5749 16.2864 42.7614 16.0296 43.2059 15.0543C43.3367 14.7671 43.3807 14.4441 43.3822 13.7578L43.3843 12.8438H41.785H40.1858V13.7843ZM5.37197 16.7414C5.08598 17.0448 4.10056 17.5312 3.77206 17.5312C3.16924 17.5312 3.21496 16.9346 3.21496 24.8069V31.9688H4.44431H5.67366L5.47131 31.6855C4.97695 30.9937 4.67178 29.2688 4.89755 28.442C5.11938 27.6293 5.75597 27.1932 6.72559 27.1896L7.27291 27.1875L7.09172 26.9297C6.68241 26.3476 6.48523 25.5933 6.47281 24.5625C6.45927 23.4373 6.56171 23.1517 7.135 22.7158C7.89755 22.136 10.1553 22.3822 11.1377 23.1523L11.3788 23.3413L11.6227 23.0228C12.0037 22.525 12.5349 22.3688 13.6357 22.4307C15.1615 22.5166 16.1778 23.0519 16.9767 24.1905C17.4093 24.8071 17.5863 25.381 17.6789 26.4689L17.7493 27.2948L18.2385 27.4596C19.8281 27.9949 20.8946 29.5861 20.8993 31.4297L20.9008 31.9688H22.5H24.0992V28.7812V25.5938H25.3222H26.5452V24.1121C26.5452 22.7077 26.5578 22.6053 26.7878 22.1454C27.043 21.6351 27.5618 21.1556 28.0382 20.9902C28.2925 20.9018 28.3532 20.7974 28.6221 19.9849C28.7872 19.4861 28.9384 19.0495 28.958 19.0147C28.9851 18.9664 30.354 19.3604 30.4725 19.4506C30.4853 19.4603 30.3901 19.7782 30.2609 20.1568C29.97 21.009 29.9702 21.0358 30.269 21.2309C30.5033 21.3839 30.5306 21.3801 31.0215 21.1245L31.5307 20.8594L31.8258 19.9688C31.9881 19.4789 32.1369 19.0495 32.1564 19.0147C32.1834 18.9667 33.5507 19.3598 33.6704 19.4499C33.6828 19.4593 33.5834 19.7917 33.4494 20.1888C33.1821 20.981 33.189 21.0868 33.5191 21.2628C33.7156 21.3677 33.8056 21.3479 34.2683 21.0982C34.788 20.8177 34.7964 20.8061 34.9994 20.1099C35.1124 19.7226 35.2441 19.3025 35.2922 19.1766L35.3796 18.9475L36.1129 19.1902C36.5162 19.3237 36.8557 19.4398 36.8673 19.4483C36.8788 19.4569 36.7734 19.8131 36.6329 20.2401C36.3798 21.0098 36.3791 21.0175 36.5648 21.1477C36.9814 21.4398 37.3058 21.8211 37.5162 22.2656C37.7188 22.6938 37.7381 22.8581 37.7389 24.1641L37.7399 25.5938H38.9628H40.1858V28.7812V31.9688H40.9854H41.785V24.8069C41.785 16.9346 41.8308 17.5312 41.2279 17.5312C40.9007 17.5312 39.9144 17.0452 39.6305 16.744L39.4156 16.5161L38.9306 16.8828C37.7014 17.8117 36.045 17.803 34.9722 16.862L34.5414 16.4841L34.1313 16.8438C33.5884 17.32 32.8711 17.5762 32.0927 17.5717C31.3612 17.5674 30.8216 17.3728 30.1548 16.8727L29.6722 16.5109L29.4525 16.7438C29.3317 16.872 28.9578 17.1118 28.6216 17.2767C28.0916 17.5368 27.9161 17.5758 27.3012 17.5703C26.7093 17.5651 26.4909 17.5158 25.9787 17.2718C25.6413 17.1112 25.2646 16.8728 25.1416 16.7423L24.9179 16.5051L24.5834 16.7977C23.6293 17.6327 22.2816 17.8191 21.1639 17.2707C20.8344 17.1091 20.4663 16.8723 20.3459 16.7446L20.127 16.5123L19.6691 16.873C18.7293 17.6134 17.4774 17.7778 16.4111 17.3009C16.0966 17.1603 15.7251 16.9264 15.5855 16.7812L15.3316 16.5171L14.8471 16.8832C13.6187 17.8117 11.962 17.8028 10.8894 16.862L10.4586 16.4841L10.0485 16.8438C9.50564 17.32 8.78834 17.5762 8.00988 17.5717C7.27846 17.5674 6.73885 17.3728 6.07197 16.8727L5.58937 16.5109L5.37197 16.7414ZM28.3933 22.6361C28.1461 22.8645 28.1444 22.8755 28.1444 24.2299V25.5938H28.951H29.7576L29.7271 24.226C29.6966 22.8595 29.6964 22.8581 29.4326 22.6323C29.0939 22.3421 28.7102 22.3435 28.3933 22.6361ZM31.5909 22.6534C31.346 22.8975 31.3429 22.9172 31.3429 24.2471V25.5938H32.1425H32.9421V24.274V22.9543L32.6672 22.6803C32.313 22.3273 31.9278 22.3177 31.5909 22.6534ZM34.8164 22.6803L34.5414 22.9543V24.274V25.5938H35.341H36.1406V24.3325C36.1406 22.9775 36.0682 22.6764 35.7025 22.5103C35.3361 22.344 35.1104 22.3872 34.8164 22.6803ZM8.04478 24.7033C8.11533 25.5357 8.25438 25.9031 8.68231 26.3888C9.1556 26.9261 9.79106 27.1854 10.6368 27.1866L11.3323 27.1875L11.2702 26.5216C11.1167 24.8754 10.1874 24 8.5936 24H7.98514L8.04478 24.7033ZM12.9045 24.6742C12.9045 25.5512 13.2165 26.2353 13.8241 26.6909C14.3184 27.0616 14.747 27.1863 15.5286 27.1869L16.1302 27.1875L16.0782 26.5018C15.9588 24.9297 15.1513 24.1096 13.6336 24.0193L12.9045 23.9759V24.6742ZM25.6985 29.5781V31.9688H32.1425H38.5865V29.5781V27.1875H32.1425H25.6985V29.5781ZM6.43697 29.4465C6.50753 30.3728 6.71712 30.855 7.26105 31.3424C7.78401 31.811 8.23086 31.9688 9.0349 31.9688H9.61195V31.3095C9.61195 29.8048 8.73368 28.913 7.14497 28.8044L6.3841 28.7525L6.43697 29.4465ZM11.3222 29.5871C11.3566 30.281 11.4044 30.4852 11.6054 30.7969C12.1394 31.6252 12.7847 31.9636 13.8356 31.9667L14.5313 31.9688L14.4716 31.2639C14.342 29.7352 13.5225 28.9213 11.9971 28.8063L11.2809 28.7524L11.3222 29.5871ZM16.104 29.4609C16.106 31.0085 17.0633 31.962 18.6195 31.9667L19.3015 31.9688V31.4702C19.3015 29.8507 18.2283 28.7812 16.6033 28.7812H16.103L16.104 29.4609ZM27.2977 29.5773V30.375H32.1463H36.9949L36.9675 29.6016L36.9403 28.8281L32.119 28.8038L27.2977 28.7796V29.5773ZM1.61571 39.9844V46.4062H22.5H43.3843V39.9844V33.5625H22.5H1.61571V39.9844ZM29.8331 35.5815L28.9361 36.4754L28.4697 36.2612C28.0877 36.0858 27.8416 36.047 27.1096 36.047C25.6283 36.0469 24.9695 36.4546 23.8068 38.0912C23.4333 38.6168 23.116 39.062 23.1016 39.0804C23.0872 39.0989 22.7872 38.8241 22.4349 38.4697C21.285 37.3129 20.0749 36.8476 18.2101 36.8452C17.2805 36.8439 17.1314 36.8669 16.8547 37.0547C16.2042 37.4958 16.1496 37.6538 16.1542 39.0776C16.1577 40.1678 16.1905 40.4504 16.3741 40.9688C16.9761 42.6684 18.3766 44.0174 20.1011 44.5589C20.658 44.7337 20.9776 44.7656 22.1707 44.7656H23.5818L26.3389 43.3798C28.2282 42.4301 29.2267 41.8738 29.5119 41.6119C30.0274 41.1383 30.3963 40.4059 30.468 39.7141L30.5226 39.1875H31.309H32.0955V38.3906V37.5938H31.086H30.0765L30.9925 36.6773L31.9086 35.761L31.3643 35.2242C31.065 34.929 30.7998 34.6875 30.7752 34.6875C30.7504 34.6875 30.3265 35.0898 29.8331 35.5815ZM26.2594 37.8047C25.9147 37.9779 25.6644 38.2582 24.8598 39.3724L23.88 40.7291L23.9897 41.3662C24.05 41.7168 24.0992 42.1504 24.0992 42.3299C24.0992 42.5093 24.1208 42.6562 24.1472 42.6562C24.2461 42.6562 28.0141 40.751 28.2642 40.5745C28.796 40.1992 29.0439 39.3051 28.7966 38.6545C28.4507 37.7446 27.2075 37.3282 26.2594 37.8047ZM17.7034 39.0594C17.7055 40.2821 18.1331 41.2945 18.9875 42.0998C19.7764 42.8434 20.7996 43.2167 22.0532 43.2182L22.5 43.2188V42.6608C22.5 40.9031 21.6418 39.4743 20.1739 38.7881C19.6262 38.5321 19.4079 38.485 18.6195 38.453L17.7023 38.4157L17.7034 39.0594Z" fill="white"/>
</svg>
