<svg width="47" height="52" viewBox="0 0 47 52" fill="none" xmlns="http://www.w3.org/2000/svg">
<path fill-rule="evenodd" clip-rule="evenodd" d="M19.5747 0.0685133C17.3121 0.349056 15.0695 1.72108 13.8302 3.58289C12.9999 4.82998 12.6487 5.83019 12.435 7.5543L12.3629 8.13683L11.6548 8.33249C9.42359 8.94891 7.25172 10.0856 6.20929 11.1825C5.41322 12.02 5.11527 12.691 5.11527 13.6458C5.11527 15.8042 7.00019 17.4355 10.9539 18.6988C11.6436 18.9192 12.3041 19.1174 12.4214 19.1393C12.5813 19.169 12.706 19.4238 12.916 20.1488C14.0472 24.0532 17.2411 27.0005 21.2645 27.8528C22.472 28.1085 24.528 28.1085 25.7355 27.8528C29.7385 27.0048 32.9916 24.0097 34.0728 20.1766L34.3336 19.252L35.6519 18.8345C38.8625 17.8181 40.8832 16.4808 41.6065 14.8943C41.9096 14.2291 41.9187 13.0791 41.6258 12.4479C40.909 10.9036 38.9335 9.53886 35.9959 8.55861L34.5628 8.08036L34.4901 7.29783C34.1819 3.98436 31.7624 1.16604 28.464 0.278664C27.6589 0.0621243 27.2097 0.0348574 23.9586 0.0054226C21.9724 -0.0126033 19.9997 0.0158046 19.5747 0.0685133ZM19.0227 2.79431C18.6725 2.90589 18.1138 3.14456 17.7813 3.3247C16.5677 3.98197 15.3474 5.6893 15.1698 6.97838L15.0952 7.51995L15.6004 7.43781C18.8632 6.90719 22.6617 6.7081 25.9934 6.89304C28.1736 7.01409 29.9625 7.19195 31.4389 7.4345C31.8373 7.49988 31.8688 7.4847 31.8688 7.22766C31.8688 7.07513 31.7654 6.65117 31.639 6.28563C31.039 4.55001 29.7072 3.30725 27.8641 2.76316C26.9013 2.47874 19.9363 2.50338 19.0227 2.79431ZM19.7742 9.49174C19.585 9.51684 18.8628 9.59339 18.1692 9.66185C12.7302 10.199 7.68334 12.1293 7.68001 13.674C7.67933 13.997 8.46232 14.7654 9.27467 15.2389C9.95621 15.6362 12.0781 16.498 12.3748 16.498C12.4522 16.498 12.4945 15.9368 12.4945 14.9096C12.4945 13.3717 12.5039 13.31 12.788 12.9739C13.3359 12.3259 14.3583 12.4018 14.8005 13.1233C14.9914 13.435 15.0158 13.7236 15.0161 15.6757C15.0167 18.7449 15.2692 19.8694 16.3447 21.5932C17.4377 23.3452 19.4192 24.7685 21.4835 25.2844C24.9339 26.1467 28.7804 24.5987 30.6553 21.5932C31.7308 19.8694 31.9833 18.7449 31.9839 15.6757C31.9842 13.7236 32.0086 13.435 32.1995 13.1233C32.6417 12.4018 33.6641 12.3259 34.212 12.9739C34.4962 13.31 34.5055 13.3714 34.5055 14.9117V16.5023L34.8208 16.4253C36.1824 16.093 38.232 15.0541 38.8565 14.3801C39.3814 13.8133 39.4149 13.6303 39.091 13.1016C38.273 11.7664 34.2576 10.3634 29.3467 9.69687C28.1009 9.52779 20.6979 9.3691 19.7742 9.49174ZM20.8633 30.7209C15.604 31.003 10.0139 31.8753 7.4121 32.8198C3.71332 34.1627 1.02901 37.2877 0.215285 41.1981C0.0286497 42.0948 0.00147998 42.7786 0.000104293 46.5945C-0.00150068 51.4565 0.005951 51.5088 0.747678 51.8173C1.33361 52.0609 45.6664 52.0609 46.2523 51.8173C46.994 51.5088 47.0015 51.4565 46.9999 46.5945C46.9985 42.7786 46.9713 42.0948 46.7847 41.1981C46 37.4271 43.6007 34.509 40.017 32.9671C38.5289 32.3268 34.2757 31.4714 30.4931 31.0516C27.5229 30.722 23.4515 30.5822 20.8633 30.7209ZM19.4876 33.3395C16.4679 33.5989 11.5512 34.2838 11.3629 34.4712C11.3273 34.5066 11.582 35.9576 11.9291 37.6957L12.5598 40.8558H23.5H34.4402L35.0709 37.6957C35.418 35.9576 35.6748 34.5087 35.6416 34.4757C35.5378 34.3723 32.3451 33.8483 30.317 33.6018C28.7525 33.4117 27.554 33.3585 24.1878 33.3302C21.8864 33.311 19.7713 33.3151 19.4876 33.3395ZM7.49063 35.6025C5.66073 36.5189 4.36276 37.8189 3.49849 39.6009C2.64819 41.3543 2.60497 41.6335 2.54995 45.7331L2.50134 49.3554H5.66142H8.82161L8.87984 49.0987C8.91183 48.9575 9.2256 47.3465 9.57709 45.5187L10.2162 42.1954L9.57147 38.8446C8.82505 34.9649 8.85657 35.0944 8.6579 35.0944C8.57398 35.0944 8.0487 35.323 7.49063 35.6025ZM38.1314 35.294C38.0994 35.4038 37.7835 36.9994 37.4294 38.8397L36.7856 42.1857L37.4307 45.5709C37.7854 47.4328 38.1012 49.046 38.1325 49.1558C38.185 49.3397 38.4382 49.3554 41.3511 49.3554H44.5126L44.4448 45.7902C44.3722 41.9815 44.3074 41.4703 43.722 40.0851C43.1328 38.6908 41.9775 37.2389 40.6961 36.2825C40.2462 35.9466 38.5497 35.0944 38.3311 35.0944C38.2533 35.0944 38.1634 35.1843 38.1314 35.294ZM12.5542 43.5649C12.5277 43.6436 12.2529 44.9786 11.9435 46.5317L11.3811 49.3554H23.4994H35.6179L35.0277 46.4176L34.4374 43.4799L23.5199 43.4508C14.8436 43.4276 12.5925 43.4511 12.5542 43.5649Z" fill="white"/>
</svg>
