<svg width="61" height="61" viewBox="0 0 61 61" fill="none" xmlns="http://www.w3.org/2000/svg">
<path fill-rule="evenodd" clip-rule="evenodd" d="M27.8096 0.110725C26.9569 0.221837 26.5113 0.426774 25.9906 0.947642C25.4131 1.52526 25.299 1.84441 24.9663 3.81414C24.7958 4.8225 24.6193 5.67933 24.5738 5.71819C24.5285 5.75694 24.1158 5.88557 23.6569 6.00396C22.0134 6.4279 19.2658 7.60066 17.6199 8.58064L17.1858 8.83911L15.65 7.75731C14.8053 7.16229 13.9645 6.61853 13.7817 6.54903C13.1941 6.32549 12.124 6.39428 11.5752 6.69078C10.4158 7.31716 7.33164 10.4027 6.69972 11.5685C6.39908 12.1231 6.34258 13.0366 6.5674 13.7069C6.64215 13.9298 7.15676 14.7514 7.71107 15.5327C8.26539 16.3138 8.74412 17.0185 8.77476 17.0984C8.80539 17.1784 8.66533 17.5122 8.46351 17.8403C7.81061 18.9014 6.8895 20.9843 6.35605 22.6052C6.06972 23.4755 5.83547 24.2645 5.83547 24.3587C5.83547 24.6107 5.77539 24.6295 4.09732 24.9047C3.25035 25.0436 2.31231 25.2348 2.01299 25.3297C1.42351 25.5164 0.744983 26.1368 0.416329 26.7896C-0.158486 27.9307 -0.131188 33.1389 0.455548 34.2891C0.723525 34.8144 1.40634 35.4644 1.88508 35.6498C2.05805 35.7168 2.97356 35.9036 3.91946 36.065C5.78863 36.3841 5.83547 36.3984 5.83547 36.6509C5.83547 36.7451 6.06972 37.534 6.35605 38.4043C6.88712 40.0183 7.81014 42.1074 8.45612 43.1572C8.65388 43.4787 8.81565 43.7865 8.81565 43.8413C8.81565 43.8962 8.37768 44.5525 7.84244 45.3C6.60185 47.0325 6.3899 47.5023 6.45571 48.3749C6.48348 48.7425 6.59876 49.2361 6.712 49.4718C7.15581 50.3955 10.6738 53.892 11.6209 54.3505C12.1967 54.6292 13.2827 54.6663 13.8561 54.4267C14.0671 54.3386 14.8864 53.8041 15.677 53.2391L17.1141 52.2118L18.955 53.1373C20.7832 54.0564 22.2306 54.6285 23.7165 55.0195C24.1427 55.1317 24.5285 55.2546 24.5738 55.2927C24.6193 55.3308 24.7958 56.187 24.9663 57.1954C25.3005 59.1743 25.3983 59.4459 25.9937 60.0499C26.5849 60.6495 26.9806 60.8011 28.3184 60.9398C29.6635 61.0793 30.2221 60.9886 30.7956 60.5375C31.5243 59.9643 31.5246 59.9621 31.5246 55.0639C31.5246 52.605 31.4844 50.4498 31.4352 50.2745C31.32 49.8639 30.8103 49.2596 30.4001 49.0475C30.2234 48.9561 29.519 48.8206 28.8348 48.7464C27.3063 48.5804 25.8342 48.2682 24.5958 47.8472C21.7029 46.8638 18.6854 44.8378 16.7375 42.5709C12.4516 37.5832 11.114 30.8893 13.1673 24.7055C15.0024 19.179 19.3937 14.846 24.9682 13.0612C26.1744 12.675 27.755 12.3716 29.4623 12.1983C30.5169 12.0913 31.2484 11.4822 31.4701 10.5264C31.6062 9.93914 31.6091 2.37314 31.4734 1.67071C31.3413 0.986865 31.0307 0.580567 30.3897 0.252953C29.8268 -0.0347226 29.1932 -0.0696538 27.8096 0.110725ZM28.172 2.09799C27.3441 2.17357 27.2455 2.37791 26.8416 4.85612C26.5702 6.52089 26.4304 7.09946 26.2576 7.27233C26.1232 7.40669 25.4722 7.64048 24.6636 7.8447C22.5322 8.38309 20.5553 9.21655 18.4248 10.475C17.8689 10.8035 17.284 11.0721 17.125 11.0721C16.8104 11.0721 16.5978 10.9396 14.5177 9.44712C13.4655 8.69223 13.0338 8.44926 12.7442 8.44926C12.4085 8.44926 12.1221 8.68889 10.4098 10.4012C8.7527 12.0585 8.45802 12.4073 8.45802 12.7116C8.45802 12.976 8.80158 13.5547 9.7693 14.9201C10.676 16.1994 11.0806 16.872 11.0806 17.0999C11.0806 17.2871 10.7952 17.908 10.4201 18.5366C9.24908 20.4991 8.47638 22.3608 7.8552 24.716C7.65386 25.479 7.41389 26.118 7.27704 26.2549C7.09621 26.4356 6.53629 26.5729 4.81149 26.8595C1.86064 27.3499 2.08046 27.0564 2.08046 30.5048C2.08046 33.9562 1.85969 33.6616 4.82138 34.1618C6.50124 34.4454 7.11874 34.5964 7.28682 34.7645C7.41294 34.8907 7.66172 35.5634 7.85579 36.3032C8.47519 38.6642 9.22834 40.467 10.4822 42.5901C10.8196 43.1614 11.0805 43.7496 11.0803 43.9388C11.0802 44.1756 10.6938 44.8131 9.76906 46.1017C8.78263 47.4766 8.45802 48.0195 8.45802 48.2946C8.45802 48.6087 8.73435 48.9356 10.4154 50.6102C12.1403 52.3288 12.4187 52.5603 12.7598 52.5603C13.0557 52.5603 13.4739 52.3244 14.5333 51.5598C16.5997 50.0684 16.8093 49.9375 17.1304 49.9375C17.2924 49.9375 17.8617 50.1996 18.3952 50.5202C20.4622 51.7615 22.4222 52.5925 24.6127 53.1561C25.428 53.3659 26.1363 53.6182 26.2629 53.744C26.4294 53.9095 26.5734 54.5102 26.8402 56.1534C27.2683 58.7904 27.2844 58.8163 28.5742 58.9397L29.4384 59.0223V54.9147V50.8072L28.413 50.7284C25.5008 50.5045 21.9181 49.2299 19.289 47.4825C9.05036 40.6773 7.10777 26.4314 15.1541 17.1589C18.5049 13.2973 23.6072 10.6506 28.413 10.2812L29.4384 10.2024V6.10684V2.01143L29.051 2.0323C28.838 2.04374 28.4423 2.07331 28.172 2.09799ZM38.8551 2.12278C37.0151 2.68252 36.1 4.75919 36.9548 6.43505C37.197 6.90967 38.1953 7.85316 38.4554 7.85316C38.5882 7.85316 38.6174 8.4675 38.6174 11.2563V14.6595L38.3247 14.9521L38.0322 15.2447H34.643H31.254L31.0704 14.9645C30.8107 14.5682 30.1556 14.2909 29.48 14.2915C27.826 14.2929 25.1048 15.0223 23.2226 15.9686C18.6202 18.2829 15.3859 22.6304 14.4712 27.7319C14.2244 29.1076 14.2244 31.9019 14.4712 33.2777C15.6841 40.0425 21.0075 45.3722 27.7099 46.5321C29.6268 46.8639 30.6291 46.7186 31.0704 46.0451L31.254 45.7648H34.643H38.0322L38.3247 46.0575L38.6174 46.3501V49.7452C38.6174 53.0949 38.614 53.1414 38.3657 53.2202C37.9851 53.3411 37.1973 54.0993 36.9512 54.5816C36.2118 56.0312 36.8325 57.9123 38.2966 58.6593C38.9672 59.0015 39.8866 59.0708 40.6016 58.8334C43.1714 57.9797 43.4125 54.4629 40.9872 53.2086L40.6439 53.0311V49.5406V46.0501L40.3351 45.4304C40.1653 45.0896 39.833 44.6513 39.5968 44.4565C38.7926 43.7936 38.4248 43.7381 34.8411 43.7381H31.5842V42.7247V41.7114H37.3153H43.0464L43.3948 41.3629C43.7667 40.9909 43.8281 40.6629 43.6046 40.2431C43.307 39.6842 43.4008 39.6924 37.3359 39.6885L31.5842 39.6846V38.1348V36.5849H39.7421C44.8574 36.5849 48.0162 36.6292 48.2115 36.7034C48.7837 36.921 48.8692 37.3841 48.8692 40.2688C48.8692 42.842 48.8647 42.8889 48.6133 42.9686C48.2004 43.0998 47.3015 43.9968 47.0657 44.513C46.9299 44.8102 46.8469 45.2721 46.8453 45.7388C46.8409 46.9912 47.3459 47.8658 48.4078 48.4446C48.9322 48.7305 49.188 48.7931 49.8228 48.7907C51.5812 48.7841 52.8421 47.5205 52.849 45.7581C52.853 44.7288 52.3945 43.8599 51.5413 43.2804L50.9553 42.8823L50.8936 39.8827C50.8351 37.0383 50.8174 36.8535 50.5512 36.3135C50.3967 36.0002 50.0513 35.5563 49.7836 35.3272C48.8731 34.5477 49.008 34.5582 39.8473 34.5582H31.5842V33.068V31.5777H43.3712H55.1581L55.3059 31.9341C55.494 32.3884 56.2431 33.0675 56.8236 33.3101C57.9185 33.7677 59.4852 33.3967 60.2546 32.4978C61.6086 30.9158 61.0486 28.5071 59.1363 27.6877C58.5743 27.4469 57.3944 27.4505 56.8236 27.6949C56.2392 27.945 55.4928 28.6241 55.3059 29.0755L55.1581 29.4318H43.3712H31.5842V27.9416V26.4513H39.8473C49.0132 26.4513 48.8725 26.4623 49.7878 25.6788C50.0578 25.4476 50.4041 25.0038 50.5574 24.6925C50.8212 24.1567 50.8393 23.9664 50.8957 21.1269L50.9553 18.1272L51.5413 17.7291C52.7983 16.8753 53.2283 15.212 52.538 13.8737C52.3689 13.5459 52.1045 13.1629 51.9505 13.0229C50.3666 11.5816 47.8387 12.1377 47.0154 14.1083C46.7728 14.6891 46.7985 15.9117 47.0657 16.4965C47.3015 17.0128 48.2004 17.9098 48.6133 18.0409C48.8647 18.1207 48.8692 18.1675 48.8692 20.7407C48.8692 23.6255 48.7837 24.0885 48.2115 24.3061C48.0162 24.3804 44.8574 24.4246 39.7421 24.4246H31.5842V22.8748V21.3249L37.3359 21.3211C43.4008 21.3172 43.307 21.3254 43.6046 20.7665C43.8281 20.3466 43.7667 20.0186 43.3948 19.6467L43.0464 19.2982H37.3153H31.5842V18.2848V17.2715H34.8411C38.4248 17.2715 38.7926 17.2159 39.5968 16.5531C39.833 16.3582 40.1653 15.92 40.3351 15.5792L40.6439 14.9595V11.469V7.97846L40.9872 7.80095C42.0584 7.24694 42.6673 6.24943 42.6692 5.04508C42.6713 3.7413 41.8716 2.60669 40.6591 2.1936C40.0937 2.00094 39.3514 1.97185 38.8551 2.12278ZM39.0411 4.3064C38.5744 4.71711 38.5281 5.22522 38.9154 5.68552C39.6858 6.60125 41.0067 5.71855 40.5699 4.58001C40.4812 4.34896 39.9155 4.03816 39.5835 4.03816C39.4529 4.03816 39.2087 4.15893 39.0411 4.3064ZM49.1283 14.5669C48.623 15.1049 48.8799 15.9769 49.6209 16.2391C49.9766 16.365 50.6004 16.0275 50.7704 15.6171C50.9501 15.1831 50.7774 14.6022 50.4104 14.4057C50.0176 14.1955 49.4049 14.2725 49.1283 14.5669ZM27.7099 16.5601C24.7783 17.1764 22.3571 18.5105 20.3008 20.6425C18.6065 22.3991 17.5191 24.2553 16.868 26.5025C16.3908 28.149 16.2903 29.0622 16.3618 31.1009C16.4301 33.0453 16.6018 33.9451 17.2148 35.5716C18.4292 38.7935 21.0186 41.6594 24.136 43.2319C25.5555 43.948 28.1436 44.6918 29.2156 44.6918C29.432 44.6918 29.4384 44.2809 29.4384 30.5048V16.3177L29.1106 16.3261C28.9304 16.3307 28.3 16.436 27.7099 16.5601ZM57.7226 29.5244C57.5764 29.5478 57.3485 29.7047 57.216 29.8732C56.4272 30.876 57.8056 32.0695 58.7091 31.1658C59.403 30.472 58.7361 29.3623 57.7226 29.5244ZM49.644 44.7859C49.2031 44.8764 48.8692 45.2982 48.8692 45.7648C48.8692 46.4968 49.5526 46.9539 50.2262 46.6724C50.78 46.441 50.9978 45.8863 50.7438 45.3537C50.5478 44.9427 50.0736 44.6978 49.644 44.7859ZM38.9154 55.324C38.5281 55.7843 38.5744 56.2924 39.0411 56.7032C39.3957 57.0153 39.6889 57.0398 40.1585 56.797C41.05 56.336 40.6656 54.9447 39.6466 54.9447C39.3299 54.9447 39.1607 55.0324 38.9154 55.324Z" fill="white"/>
</svg>
