<svg width="49" height="49" viewBox="0 0 49 49" fill="none" xmlns="http://www.w3.org/2000/svg">
<path fill-rule="evenodd" clip-rule="evenodd" d="M23.5438 0.226164C22.6828 0.634083 22.2407 1.32243 22.2407 2.25523C22.2407 2.54648 22.3182 2.93879 22.4226 3.1751C22.6133 3.60714 23.1664 4.16131 23.5544 4.30908L23.7826 4.39599V7.17399V9.95199H21.0126H18.2425V8.71225V7.47251L18.5762 7.31382C18.9705 7.12632 19.4553 6.59905 19.6395 6.15754C19.8072 5.75527 19.8085 4.86765 19.642 4.46949C19.1898 3.38825 17.8961 2.80183 16.8481 3.20286C15.898 3.56646 15.3444 4.34229 15.3444 5.31002C15.3444 6.15754 15.7278 6.79785 16.547 7.31861L16.8097 7.48553V8.71876V9.95199H15.1104C13.8953 9.95199 13.2489 9.99381 12.8417 10.0986C11.6587 10.4034 10.6511 11.2874 10.21 12.4075C10.0115 12.9116 9.98607 13.1584 9.95245 14.905L9.9152 16.8432H8.68442H7.45354L7.316 16.5799C6.94117 15.8628 6.12371 15.3742 5.29947 15.3747C4.33347 15.3751 3.55928 15.93 3.19649 16.8816C2.79626 17.9318 3.38151 19.2281 4.46061 19.6812C4.85797 19.848 5.74383 19.8466 6.1453 19.6786C6.58593 19.494 7.11215 19.0083 7.29928 18.6132L7.45765 18.2788H8.69493H9.9322V21.0544V23.83H7.15972H4.38725L4.30051 23.6014C4.15303 23.2126 3.59997 22.6583 3.16879 22.4673C2.37951 22.1175 1.33423 22.283 0.726336 22.8541C0.33776 23.219 0 23.9846 0 24.5C0 25.0154 0.33776 25.781 0.726336 26.1459C1.32066 26.7043 2.33031 26.8753 3.13287 26.5536C3.5396 26.3906 4.2965 25.6374 4.2965 25.3958C4.2965 25.289 4.80305 25.2657 7.11435 25.2657H9.9322V27.9934V30.7212H8.69493H7.45765L7.29928 30.3868C7.11215 29.9917 6.58593 29.506 6.1453 29.3214C5.74383 29.1534 4.85797 29.152 4.46061 29.3188C2.98062 29.9403 2.61659 31.9441 3.78623 33.0313C4.24187 33.4547 4.67744 33.6257 5.29947 33.6253C6.14539 33.6249 6.78452 33.2407 7.30406 32.4201L7.47064 32.1568H8.69292H9.9152L9.95245 34.095C9.98607 35.8416 10.0115 36.0884 10.21 36.5925C10.6511 37.7126 11.6587 38.5966 12.8417 38.9014C13.2489 39.0062 13.8953 39.048 15.1104 39.048H16.8097V40.2812V41.5145L16.547 41.6814C15.7278 42.2022 15.3444 42.8425 15.3444 43.69C15.3444 44.9625 16.2817 45.8852 17.5738 45.8845C18.5284 45.884 19.2823 45.3905 19.642 44.5305C19.8085 44.1324 19.8072 43.2447 19.6395 42.8425C19.4553 42.4009 18.9705 41.8737 18.5762 41.6862L18.2425 41.5275V40.2878V39.048H21.0126H23.7826V41.826V44.604L23.5544 44.6909C23.1664 44.8387 22.6133 45.3929 22.4226 45.8249C22.0735 46.6158 22.2387 47.6631 22.8086 48.2722C23.1728 48.6616 23.9369 49 24.4513 49C25.2773 49 26.1841 48.3986 26.4999 47.6411C26.7006 47.1597 26.6863 46.2716 26.4701 45.7947C26.2846 45.3856 25.724 44.8341 25.3481 44.6909L25.1199 44.604V41.826V39.048H27.89H30.6601V40.2878V41.5275L30.3264 41.6862C29.9321 41.8737 29.4473 42.4009 29.2631 42.8425C29.0954 43.2447 29.0941 44.1324 29.2605 44.5305C29.6203 45.3905 30.3742 45.884 31.3287 45.8845C32.6208 45.8852 33.5578 44.9629 33.5585 43.69C33.559 42.8641 33.0713 42.045 32.3556 41.6694L32.0929 41.5316V40.2983V39.065L34.0272 39.0282C35.7333 38.9958 36.022 38.9671 36.4752 38.785C37.5397 38.3572 38.29 37.6134 38.6958 36.5837C38.8904 36.0901 38.9167 35.8328 38.9501 34.095L38.9874 32.1568H40.2182H41.449L41.5866 32.4201C41.9613 33.1369 42.7788 33.6256 43.6031 33.6256C44.873 33.6256 45.793 32.687 45.793 31.3912C45.793 30.4348 45.3005 29.6794 44.442 29.3188C44.0446 29.152 43.1587 29.1534 42.7573 29.3214C42.3166 29.506 41.7904 29.9917 41.6033 30.3868L41.4449 30.7212H40.2076H38.9704V27.9934V25.2657H41.7882C44.0995 25.2657 44.6061 25.289 44.6061 25.3958C44.6061 25.6374 45.363 26.3906 45.7697 26.5536C46.5725 26.8754 47.5848 26.7038 48.1742 26.1459C48.5799 25.762 49 24.8349 49 24.3235C49 24.0872 48.9722 23.9217 48.9382 23.9557C48.9043 23.9898 48.7808 23.8139 48.6638 23.5649C48.2711 22.7292 47.5728 22.285 46.6518 22.285C46.3612 22.285 45.9696 22.3627 45.7338 22.4673C45.3026 22.6583 44.7495 23.2126 44.6021 23.6014L44.5153 23.83H41.7428H38.9704V21.0544V18.2788H40.2076H41.4449L41.6033 18.6132C41.7904 19.0083 42.3166 19.494 42.7573 19.6786C43.1587 19.8466 44.0446 19.848 44.442 19.6812C45.922 19.0597 46.286 17.0559 45.1163 15.9687C44.661 15.5456 44.2251 15.3744 43.6031 15.3744C42.7788 15.3744 41.9613 15.8631 41.5866 16.5799L41.449 16.8432H40.2182H38.9874L38.9506 14.905C38.9182 13.1955 38.8897 12.9062 38.7079 12.4521C38.2809 11.3855 37.5386 10.6337 36.5109 10.2271C36.0183 10.0321 35.7616 10.0058 34.0272 9.97228L32.0929 9.93495V8.70172V7.46839L32.3556 7.33057C33.071 6.9551 33.5588 6.13601 33.5588 5.31002C33.5588 4.03755 32.622 3.11576 31.3287 3.11576C30.3743 3.11576 29.6204 3.60925 29.2605 4.46949C29.0941 4.86765 29.0954 5.75527 29.2631 6.15754C29.4473 6.59905 29.9321 7.12632 30.3264 7.31382L30.6601 7.47251V8.71225V9.95199H27.89H25.1199V7.17399V4.39599L25.3481 4.30908C25.724 4.1659 26.2846 3.61441 26.4701 3.20525C26.6863 2.72842 26.7006 1.84032 26.4999 1.3589C26.1841 0.601445 25.2773 0 24.4513 0C24.1978 0 23.8255 0.0927436 23.5438 0.226164ZM23.9217 1.65235C23.3818 2.1176 23.7365 3.06082 24.4513 3.06082C25.1567 3.06082 25.4917 2.18038 24.9809 1.66871C24.6824 1.36952 24.2575 1.36301 23.9217 1.65235ZM17.0461 4.71356C16.4857 5.19661 16.8389 6.12356 17.5835 6.12356C17.9825 6.12356 18.338 5.74723 18.338 5.32495C18.338 4.89502 18.0863 4.59966 17.6622 4.53161C17.3881 4.48768 17.2664 4.52367 17.0461 4.71356ZM30.9768 4.59286C30.5166 4.77864 30.4169 5.50566 30.7991 5.88859C31.2915 6.38198 32.1311 6.01733 32.1311 5.31002C32.1311 4.70504 31.567 4.35455 30.9768 4.59286ZM12.9716 11.5381C12.6838 11.6273 12.3691 11.8323 12.0887 12.1133C11.3144 12.8892 11.3585 12.0963 11.3874 24.6974C11.412 35.5005 11.4184 35.8532 11.5978 36.2153C11.8336 36.6917 12.2838 37.1428 12.7593 37.3791C13.1217 37.5593 13.4474 37.5645 24.4513 37.5645C35.4551 37.5645 35.7809 37.5593 36.1433 37.3791C36.6188 37.1428 37.0689 36.6917 37.3048 36.2153C37.4846 35.8521 37.4898 35.5258 37.4898 24.5C37.4898 13.4742 37.4846 13.1479 37.3048 12.7847C37.0689 12.3083 36.6188 11.8572 36.1433 11.6209C35.7815 11.4411 35.4374 11.4349 24.5946 11.4174C15.0687 11.402 13.3527 11.4199 12.9716 11.5381ZM13.2681 13.2945L12.9888 13.5743V21.8074V30.0405L13.2126 30.3011C13.5027 30.6391 13.9906 30.6592 14.2455 30.3437C14.4135 30.1358 14.4217 29.7624 14.4217 22.288V14.4504H24.4513H34.4809V15.4075C34.4809 16.508 34.6063 16.7474 35.1825 16.7474C35.7765 16.7474 35.8617 16.5351 35.8969 14.9667L35.9279 13.5884L35.6416 13.3016L35.3553 13.0147H24.4513H13.5473L13.2681 13.2945ZM4.99457 16.842C4.46233 17.062 4.34302 17.9081 4.79913 18.2282C5.32077 18.5943 6.11139 18.2269 6.11139 17.6185C6.11139 17.0745 5.48525 16.6391 4.99457 16.842ZM43.3029 16.8403C42.7824 17.056 42.6347 17.7479 43.0257 18.1396C43.499 18.6139 44.274 18.3608 44.38 17.6974C44.4729 17.1152 43.8452 16.6156 43.3029 16.8403ZM29.4183 17.7069C28.0342 17.9274 26.7997 18.5826 25.7408 19.6589C24.9382 20.4747 24.3686 21.3426 24.1051 22.1511C24.0187 22.4165 23.9391 22.6447 23.9282 22.6583C23.9174 22.6718 23.5668 22.3488 23.149 21.9405C21.9732 20.791 20.8472 20.2175 19.3587 20.0101C18.3167 19.8649 17.4979 19.9672 17.1839 20.2819C16.732 20.7346 16.7321 22.3511 17.184 23.6649C17.5378 24.6934 17.975 25.3818 18.8148 26.2325C20.041 27.4744 21.1832 28.039 22.8967 28.25L23.7852 28.3594L23.7601 31.4306L23.7349 34.5018L19.0783 34.5266L14.4217 34.5514V33.5935C14.4217 32.4919 14.2964 32.2526 13.7201 32.2526C13.1261 32.2526 13.0409 32.4649 13.0057 34.0333L12.9747 35.4116L13.261 35.6984L13.5473 35.9853H24.4513H35.3553L35.6345 35.7055L35.9137 35.4257V27.1926V18.9595L35.69 18.6989C35.3999 18.3609 34.912 18.3408 34.6571 18.6563C34.489 18.8642 34.4809 19.2376 34.4809 26.7128V34.5514L29.8243 34.5266L25.1677 34.5018V30.246V25.9902L25.7408 25.9615C26.9522 25.9006 27.9101 25.5829 28.9605 24.8936C30.2863 24.0236 31.283 22.7074 31.7833 21.1661C31.9735 20.5803 32.0225 20.2297 32.0262 19.4273C32.0311 18.3669 31.9541 18.0906 31.5881 17.8562C31.3171 17.6825 30.098 17.5987 29.4183 17.7069ZM29.3968 19.1905C27.2572 19.6172 25.487 21.5374 25.2253 23.7156C25.1288 24.5192 25.1963 24.5868 25.9983 24.4901C27.7621 24.2774 29.2671 23.1758 30.0873 21.4975C30.4596 20.7354 30.7455 19.5013 30.6235 19.1827C30.5599 19.0166 30.2594 19.0186 29.3968 19.1905ZM18.2817 21.4729C18.1942 21.7013 18.4184 22.9445 18.6443 23.4839C19.3764 25.2313 21.031 26.5418 22.8275 26.7971C23.7219 26.9242 23.7803 26.87 23.6766 26.0078C23.3875 23.6005 21.388 21.6729 18.8868 21.3899C18.4439 21.3397 18.3265 21.3559 18.2817 21.4729ZM1.88395 23.819C1.34559 24.0894 1.28389 24.8149 1.7719 25.1353C2.55679 25.6506 3.44131 24.731 2.8659 23.9981C2.6228 23.6885 2.27138 23.6244 1.88395 23.819ZM46.4467 23.713C46.3295 23.7317 46.1469 23.8577 46.0408 23.9929C45.4087 24.798 46.5132 25.7562 47.2372 25.0307C47.7932 24.4737 47.2589 23.5828 46.4467 23.713ZM0.0267457 24.5C0.0267457 24.7895 0.044608 24.9079 0.0664821 24.7632C0.0883563 24.6185 0.0883563 24.3815 0.0664821 24.2368C0.044608 24.0921 0.0267457 24.2105 0.0267457 24.5ZM4.78175 30.793C4.22161 31.2517 4.56998 32.1951 5.29947 32.1951C6.00536 32.1951 6.36929 31.3538 5.87689 30.8604C5.59462 30.5775 5.0833 30.546 4.78175 30.793ZM43.0257 30.8604C42.7236 31.163 42.7205 31.5853 43.0176 31.9314C43.5289 32.527 44.5037 32.077 44.38 31.3026C44.274 30.6392 43.499 30.3861 43.0257 30.8604ZM17.0347 43.1033C16.4403 43.6156 16.8893 44.5923 17.6622 44.4684C18.0863 44.4003 18.338 44.105 18.338 43.675C18.338 42.977 17.5713 42.6408 17.0347 43.1033ZM30.7991 43.1114C30.3257 43.5857 30.5782 44.3622 31.2404 44.4684C32.0132 44.5923 32.4623 43.6156 31.8679 43.1033C31.5225 42.8056 31.101 42.8088 30.7991 43.1114ZM23.9255 46.1545C23.4805 46.5381 23.6588 47.3878 24.2137 47.5273C24.7771 47.6689 25.2525 47.2728 25.2355 46.6758C25.2248 46.2977 24.8431 45.9392 24.4513 45.9392C24.2995 45.9392 24.063 46.036 23.9255 46.1545Z" fill="white"/>
</svg>
