<svg width="47" height="47" viewBox="0 0 47 47" fill="none" xmlns="http://www.w3.org/2000/svg">
<path fill-rule="evenodd" clip-rule="evenodd" d="M22.6847 0.129867C20.8326 0.791986 20.546 3.29013 22.2064 4.2991L22.6104 4.54457L22.6132 6.9552L22.6161 9.36582H21.0577H19.4992V6.88219V4.39847L19.2741 4.17311C18.9428 3.84122 18.4848 3.8651 18.1781 4.23023L17.9407 4.51271V6.93931V9.36582H16.3858H14.8309L14.8045 6.35093L14.778 3.33614L14.5138 2.98928C14.1346 2.49155 13.8078 2.38649 12.6389 2.38649H11.6398L11.3296 1.90703C10.8983 1.24068 10.3095 0.890248 9.53884 0.841025C7.27713 0.696755 6.15513 3.36525 7.83837 4.88527C8.88795 5.83309 10.5171 5.5979 11.2943 4.38634L11.5693 3.95767L12.4173 3.95261L13.2653 3.94766V6.64352V9.33938L12.5391 9.40008C11.3316 9.501 10.5476 9.89855 9.97155 10.702C9.58587 11.2401 9.42975 11.7192 9.35751 12.5872L9.29691 13.3147H6.60571H3.91451L3.91946 12.4652L3.9245 11.6157L4.35244 11.3402C5.24067 10.7685 5.63038 9.76686 5.34546 8.7881C4.94163 7.40105 3.40865 6.68769 2.12172 7.288C0.472125 8.05747 0.323978 10.3361 1.85724 11.3559L2.35604 11.6876V12.6878C2.35604 13.8579 2.46101 14.1855 2.95779 14.5652L3.30405 14.8299L6.31363 14.8564L9.32331 14.883V16.4406V17.9982H6.90099H4.47858L4.19659 18.2359C3.83209 18.5432 3.80826 19.002 4.13957 19.3339L4.36454 19.5593H6.84397H9.32331V21.1205V22.6817L6.91685 22.6787L4.51039 22.6759L4.26535 22.2713C3.34411 20.7499 1.19443 20.8153 0.268607 22.3928C0.0561049 22.755 0.0183349 22.9234 0.0183349 23.5082C0.0183349 24.093 0.0561049 24.2613 0.268607 24.6235C0.740181 25.4269 1.40739 25.8191 2.3102 25.8236C3.18423 25.828 3.93578 25.3958 4.33025 24.6621L4.50627 24.3347H6.91474H9.32331V25.8958V27.457H6.84397H4.36454L4.13957 27.6824C3.80826 28.0143 3.83209 28.4731 4.19659 28.7804L4.47858 29.0182H6.90099H9.32331V30.5757V32.1333L6.31363 32.1599L3.30405 32.1864L2.95779 32.4511C2.45917 32.8322 2.35604 33.1571 2.35604 34.3458V35.3632L2.06946 35.5197C1.23513 35.9751 0.79702 36.6921 0.798486 37.5996C0.80197 39.7769 3.39105 40.7599 4.85051 39.138C5.80154 38.0812 5.56814 36.4587 4.35244 35.6761L3.9245 35.4006L3.91946 34.5511L3.91451 33.7017H6.60571H9.29691L9.35751 34.4292C9.45826 35.6387 9.85512 36.4241 10.6572 37.0011C11.1943 37.3875 11.6727 37.5439 12.5391 37.6162L13.2653 37.6769V40.3728V43.0687L12.4173 43.0637L11.5693 43.0587L11.2943 42.63C10.9412 42.0795 10.4169 41.7173 9.78169 41.5851C8.40354 41.2982 7.03328 42.4499 7.03328 43.8952C7.03328 46.1817 9.98044 47.0535 11.2884 45.1538L11.6492 44.6298H12.6436C13.8074 44.6298 14.1349 44.5242 14.5138 44.027L14.778 43.6802L14.8045 40.6654L14.8309 37.6505H16.3858H17.9407V40.077V42.5036L18.1781 42.7861C18.4848 43.1512 18.9428 43.1751 19.2741 42.8432L19.4992 42.6179V40.1341V37.6505H21.0577H22.6161L22.6132 40.0611L22.6104 42.4717L22.2064 42.7172C20.8847 43.5203 20.7309 45.4116 21.9053 46.4187C23.4359 47.731 25.7564 46.6806 25.7556 44.6758C25.7553 43.7974 25.3238 43.0464 24.5932 42.6522L24.2663 42.4759V40.0632V37.6505H25.8248H27.3832V40.1341V42.6179L27.6083 42.8432C27.9396 43.1751 28.3976 43.1512 28.7043 42.7861L28.9417 42.5036V40.077V37.6505H30.4966H32.0515L32.078 40.6654L32.1045 43.6802L32.3687 44.027C32.7491 44.5265 33.0735 44.6298 34.2601 44.6298H35.2758L35.432 44.9169C35.8871 45.7536 36.6031 46.1923 37.5083 46.189C39.6854 46.1811 40.6644 43.5942 39.0441 42.1311C37.9891 41.1784 36.3694 41.4122 35.5881 42.63L35.3131 43.0587L34.4651 43.0637L33.6171 43.0687V40.3728V37.6769L34.3433 37.6162C35.2098 37.5439 35.6881 37.3875 36.2252 37.0011C37.0273 36.4241 37.4242 35.6387 37.5249 34.4292L37.5855 33.7017H40.2767H42.9679L42.963 34.5511L42.9579 35.4006L42.53 35.6761C41.6418 36.2478 41.252 37.2495 41.537 38.2282C42.1417 40.3057 44.9501 40.5564 45.8664 38.6147C46.4124 37.4576 45.9673 36.1498 44.813 35.5197L44.5264 35.3632V34.3458C44.5264 33.1571 44.4233 32.8322 43.9246 32.4511L43.5784 32.1864L40.5688 32.1599L37.5591 32.1333V30.5757V29.0182H39.9814H42.4038L42.6858 28.7804C43.0503 28.4731 43.0742 28.0143 42.7429 27.6824L42.5179 27.457H40.0385H37.5591V25.8958V24.3347L39.9656 24.3376L42.372 24.3404L42.6171 24.7451C43.4197 26.0706 45.3068 26.2232 46.3143 25.0441C46.4877 24.8412 46.677 24.5263 46.7349 24.3443C46.793 24.1622 46.8766 23.974 46.921 23.926C47.0247 23.8138 47.0271 22.9305 46.9235 22.9946C46.8806 23.0213 46.799 22.8875 46.7422 22.6975C46.5971 22.2125 46.0765 21.6392 45.5602 21.3958C45.0326 21.147 44.1817 21.1157 43.6885 21.327C43.2497 21.515 42.6515 22.0629 42.5092 22.4072L42.3956 22.6817H39.9774H37.5591V21.1205V19.5593H40.0385H42.5179L42.7429 19.3339C43.0742 19.002 43.0503 18.5432 42.6858 18.2359L42.4038 17.9982H39.9814H37.5591V16.4406V14.883L40.5688 14.8564L43.5784 14.8299L43.9246 14.5652C44.421 14.1858 44.5264 13.8577 44.5264 12.6918V11.6957L45.0495 11.3343C46.9474 10.023 46.0791 7.07798 43.793 7.07293C42.3519 7.06971 41.2004 8.44391 41.4869 9.82499C41.6189 10.4613 41.9805 10.9865 42.53 11.3402L42.9579 11.6157L42.963 12.4652L42.9679 13.3147H40.2767H37.5855L37.5249 12.5872C37.4527 11.7192 37.2966 11.2401 36.9109 10.702C36.3348 9.89855 35.5508 9.501 34.3433 9.40008L33.6171 9.33938V6.64352V3.94766L34.4651 3.95261L35.3131 3.95767L35.5881 4.38634C36.1589 5.27612 37.1588 5.6665 38.1358 5.38108C39.5198 4.97683 40.2356 3.43477 39.6325 2.15691C38.7982 0.389021 36.3804 0.355961 35.432 2.09942L35.2758 2.38649H34.2601C33.0735 2.38649 32.7491 2.4898 32.3687 2.98928L32.1045 3.33614L32.078 6.35093L32.0515 9.36582H30.4966H28.9417V6.93931V4.51271L28.7043 4.23023C28.3976 3.8651 27.9396 3.84122 27.6083 4.17311L27.3832 4.39847V6.88219V9.36582H25.8248H24.2663V6.95309V4.54044L24.5932 4.36412C25.3238 3.96988 25.7553 3.21896 25.7556 2.34057C25.7562 0.750844 24.1607 -0.397807 22.6847 0.129867ZM22.9329 1.78544C22.5923 2.12651 22.5984 2.60018 22.9472 2.91453C23.684 3.57858 24.6516 2.4887 23.9496 1.78544C23.8077 1.64328 23.6198 1.55999 23.4412 1.55999C23.2626 1.55999 23.0747 1.64328 22.9329 1.78544ZM8.81498 2.61194C8.5251 2.90222 8.52208 3.30739 8.80719 3.63946C9.29792 4.21094 10.2335 3.77923 10.1147 3.03621C10.0131 2.39962 9.26923 2.15681 8.81498 2.61194ZM37.0164 2.5472C36.4788 2.98735 36.8132 3.89256 37.5133 3.89256C38.1908 3.89256 38.54 3.08534 38.0675 2.61194C37.7966 2.34048 37.3058 2.31027 37.0164 2.5472ZM2.5811 8.85661C2.12676 9.31164 2.36915 10.0568 3.00464 10.1586C3.74638 10.2775 4.17734 9.34039 3.60685 8.8488C3.27535 8.5632 2.87088 8.56623 2.5811 8.85661ZM43.2756 8.8488C42.7051 9.34039 43.1361 10.2775 43.8778 10.1586C44.2848 10.0933 44.5264 9.80993 44.5264 9.39742C44.5264 8.72767 43.7906 8.40506 43.2756 8.8488ZM12.1088 11.0316C11.6085 11.1443 11.1149 11.6422 10.9829 12.1674C10.8405 12.7337 10.8405 34.2826 10.9829 34.8489C11.1244 35.4123 11.6012 35.8677 12.1795 35.992C12.8092 36.1273 34.0733 36.1273 34.7029 35.992C35.3177 35.8599 35.7716 35.4052 35.9035 34.7893C36.0385 34.1586 36.0385 12.8577 35.9035 12.227C35.7716 11.6112 35.3177 11.1564 34.7029 11.0243C34.126 10.9004 12.6608 10.9073 12.1088 11.0316ZM18.2189 16.5979C18.0441 16.6861 17.8298 16.8824 17.7425 17.0339C17.6553 17.1854 16.9568 20.1376 16.1901 23.5942C14.9054 29.387 14.8066 29.8974 14.9279 30.1144C15.1074 30.4352 15.5237 30.6269 15.8152 30.5228C16.232 30.374 16.3659 30.0332 16.822 27.9621L17.2669 25.9417L18.7498 25.9165C19.5653 25.9026 20.2326 25.9139 20.2326 25.9416C20.2326 26.0937 21.0837 29.8398 21.1673 30.0556C21.2888 30.369 21.7291 30.6148 22.0324 30.5386C22.376 30.4522 22.6161 30.1561 22.6161 29.819C22.6161 29.3951 19.9054 17.2328 19.7579 16.9948C19.6226 16.7764 18.9869 16.4369 18.7139 16.4372C18.6164 16.4372 18.3936 16.5095 18.2189 16.5979ZM24.6788 16.5408C24.3801 16.7081 24.2663 16.9105 24.2663 17.2744C24.2663 17.5357 24.3239 17.6629 24.5079 17.8078C24.7151 17.9712 24.8777 17.9982 25.6538 17.9982H26.5582V23.5082V29.0182H25.6538C24.8777 29.0182 24.7151 29.0452 24.5079 29.2085C24.0451 29.5731 24.2473 30.387 24.8375 30.5354C24.9526 30.5644 26.1695 30.5757 27.5418 30.5607C29.8966 30.535 30.0473 30.523 30.2206 30.3495C30.5344 30.0348 30.5532 29.6464 30.271 29.3104L30.0255 29.0182H29.071H28.1166V23.5082V17.9982H29.071H30.0255L30.271 17.7059C30.5532 17.3699 30.5344 16.9816 30.2205 16.6669C30.0466 16.4926 29.9002 16.4817 27.4496 16.4605C25.6736 16.4452 24.8047 16.4703 24.6788 16.5408ZM18.19 21.7929C17.8997 23.1151 17.663 24.2279 17.664 24.2658C17.6649 24.3037 18.1376 24.3347 18.7146 24.3347C19.2915 24.3347 19.7807 24.3037 19.8019 24.2658C19.8392 24.1989 18.8171 19.4882 18.7509 19.4219C18.7327 19.4038 18.4803 20.4707 18.19 21.7929ZM1.96578 22.8548C1.4491 23.1142 1.38988 23.8103 1.85825 24.1178C2.61154 24.6122 3.46044 23.7298 2.9082 23.0266C2.67488 22.7295 2.33761 22.6681 1.96578 22.8548ZM44.3678 22.753C44.2553 22.771 44.08 22.8919 43.9782 23.0216C43.3716 23.7941 44.4316 24.7135 45.1264 24.0174C45.66 23.4829 45.1472 22.6281 44.3678 22.753ZM0 23.5082C0 23.786 0.0171432 23.8996 0.0381367 23.7607C0.0591302 23.6219 0.0591302 23.3945 0.0381367 23.2556C0.0171432 23.1168 0 23.2304 0 23.5082ZM2.75162 36.9165C2.31002 37.0947 2.21431 37.7923 2.5811 38.1597C3.05368 38.6331 3.8595 38.2832 3.8595 37.6046C3.8595 37.0241 3.31807 36.6878 2.75162 36.9165ZM43.2865 37.0323C42.7486 37.4958 43.0876 38.3852 43.8022 38.3852C44.1852 38.3852 44.5264 38.0241 44.5264 37.6189C44.5264 37.2064 44.2848 36.923 43.8778 36.8577C43.6148 36.8155 43.498 36.8501 43.2865 37.0323ZM9.08102 43.1577C8.58148 43.3647 8.43975 44.0286 8.81498 44.4044C9.26923 44.8595 10.0131 44.6167 10.1147 43.9801C10.2039 43.4215 9.60145 42.9421 9.08102 43.1577ZM37.2207 43.1594C36.7098 43.3705 36.5953 44.1823 37.0331 44.4894C37.5337 44.8407 38.2925 44.4882 38.2925 43.9044C38.2925 43.3825 37.6916 42.9647 37.2207 43.1594ZM22.9366 44.1018C22.5095 44.4699 22.6807 45.2851 23.2132 45.419C23.7539 45.5549 24.2102 45.1748 24.1939 44.6019C24.1836 44.2392 23.8173 43.8952 23.4412 43.8952C23.2955 43.8952 23.0686 43.9881 22.9366 44.1018Z" fill="white"/>
</svg>
