<svg width="43" height="43" viewBox="0 0 43 43" fill="none" xmlns="http://www.w3.org/2000/svg">
<path fill-rule="evenodd" clip-rule="evenodd" d="M11.4442 0.0931867C9.86821 0.408002 8.56533 1.62629 8.1652 3.15947C7.97764 3.87794 7.97865 7.6009 8.16647 8.04948C8.31802 8.41149 8.5793 8.71102 8.87971 8.86704C9.04296 8.95186 9.11474 9.08462 9.18946 9.44033C9.35843 10.244 9.70142 10.8264 10.4531 11.5857L11.1497 12.2892V12.7668V13.2444L8.94871 13.7241C6.35752 14.2887 5.88814 14.4848 5.00685 15.3712C4.15787 16.2251 3.73536 17.16 3.61688 18.4467L3.56202 19.0416L2.89682 19.1292C1.67532 19.2902 0.764828 19.9361 0.259346 21.0006L0 21.5467V27.8027V34.0587L0.196487 34.5445C0.60545 35.5556 1.72572 36.4198 2.75587 36.5188L3.15558 36.5572V39.2473V41.9374L3.36477 42.2936C3.69834 42.8616 4.085 43.0022 5.30692 43C6.44419 42.9979 6.86948 42.8698 7.17873 42.4364C7.47863 42.0161 7.5271 41.5395 7.52929 38.9921L7.53131 36.5359H11.2339H14.9364V38.8299C14.9364 41.3892 14.9931 41.7658 15.458 42.2942C15.602 42.4579 15.8749 42.6747 16.0644 42.7758L16.409 42.9598L25.0763 42.9833C32.9656 43.0045 33.7765 42.9942 34.1101 42.868C34.5771 42.6912 35.0072 42.3144 35.2422 41.8762C35.4184 41.5475 35.4277 41.4198 35.4522 38.9921C35.4687 37.3566 35.508 36.4519 35.5627 36.4519C35.6094 36.4519 35.8541 36.3511 36.1065 36.2277C36.6828 35.9461 37.3447 35.2546 37.6401 34.6257L37.8669 34.1426L37.8934 31.5041C37.9081 30.0529 37.8973 28.7752 37.8695 28.6647C37.8035 28.4022 37.364 28.21 37.078 28.3185C36.658 28.4778 36.6523 28.5158 36.6495 31.1519C36.6476 32.8557 36.6147 33.7261 36.5432 33.9644C36.4389 34.3116 35.7599 35.1083 35.5683 35.1083C35.4949 35.1083 35.4683 34.6608 35.4673 33.4079C35.4656 31.4385 35.3706 30.8404 34.9122 29.9108C34.4252 28.9232 33.4276 28.0264 32.4175 27.6681C32.2212 27.5984 31.2087 27.3551 30.1673 27.1272C29.126 26.8994 28.1888 26.6929 28.0846 26.6684C27.9049 26.6261 27.8953 26.5839 27.8953 25.8346V25.0452L28.1761 24.8721C28.5512 24.6407 29.2245 23.9217 29.6135 23.3371C30.0113 22.7392 30.3961 21.6409 30.47 20.8926L30.5268 20.3174L32.8505 20.3443C35.0392 20.3694 35.1938 20.3815 35.5119 20.5515C35.6976 20.6508 35.9567 20.8389 36.0877 20.9697C36.597 21.4779 36.601 21.5011 36.6468 24.1623C36.6856 26.4176 36.7015 26.6238 36.8491 26.7864C37.0709 27.0306 37.49 27.0193 37.7317 26.7626C37.9198 26.5628 37.9203 26.5542 37.8937 24.0544L37.8669 21.5467L37.5988 20.9819C37.1308 19.996 36.2436 19.3277 35.1699 19.1523C34.8945 19.1072 33.7321 19.0702 32.5866 19.07L30.5039 19.0695V17.8671C30.5039 16.4518 30.3967 15.9928 29.9277 15.4011C29.5216 14.8886 28.8941 14.5445 28.1826 14.4439C27.7958 14.3893 27.4428 14.2612 26.9862 14.0101L26.3386 13.6538L25.0141 13.6237C23.2472 13.5836 22.4605 13.7305 21.6569 14.2507C21.4459 14.3872 21.4071 14.3857 20.8574 14.2181C20.5398 14.1212 19.4676 13.8671 18.4748 13.6532C17.4819 13.4393 16.6394 13.2457 16.6025 13.2229C16.5654 13.2001 16.5352 12.9894 16.5352 12.7547C16.5352 12.3331 16.5432 12.3201 17.1887 11.689C17.9229 10.9711 18.314 10.3191 18.5078 9.48962C18.5769 9.1942 18.6762 8.93825 18.7285 8.92087C18.913 8.85949 19.4066 8.37664 19.5478 8.11951C19.6728 7.89178 19.6906 7.56336 19.6896 5.50778C19.6885 3.24764 19.6809 3.1378 19.4939 2.67268C19.2602 2.09158 18.6739 1.46271 18.1148 1.19357C17.8959 1.08819 17.4415 0.964661 17.105 0.919147C16.6375 0.855831 16.3642 0.75943 15.9462 0.510114C15.6454 0.330747 15.2288 0.145166 15.0205 0.0978053C14.5805 -0.00229081 11.9394 -0.00573371 11.4442 0.0931867ZM29.6624 0.136601C29.1554 0.293631 28.7104 0.676717 28.4709 1.16208C28.2774 1.55407 28.2736 1.61302 28.248 4.52605C28.2306 6.50874 28.2536 7.64297 28.3175 7.94972C28.44 8.53896 28.8279 9.04742 29.3661 9.32394C29.7772 9.5353 29.8181 9.53908 32.1287 9.58048C35.0151 9.63212 34.7952 9.50852 34.796 11.0803C34.7965 12.3269 34.8774 12.684 35.2252 12.976C35.557 13.2546 36.101 13.2717 36.4297 13.0136C36.5541 12.916 37.1852 12.1428 37.8318 11.2957C38.4786 10.4485 39.054 9.7255 39.1106 9.68889C39.167 9.65236 39.7434 9.60198 40.3914 9.57687C41.3011 9.54169 41.6365 9.49651 41.864 9.37836C42.273 9.16599 42.6045 8.84236 42.8184 8.44684C42.9957 8.11893 43 8.03235 43 4.79401C43 1.5277 42.9971 1.47178 42.8131 1.12832C42.5672 0.669411 42.0888 0.283974 41.5752 0.131059C40.9769 -0.0470485 30.2391 -0.0420941 29.6624 0.136601ZM11.4803 1.38192C10.6448 1.6068 9.9351 2.20545 9.53944 3.01915C9.38713 3.3322 9.34329 3.59319 9.31526 4.3518L9.28034 5.29516L9.52084 5.39374C9.8661 5.53524 11.3842 5.58478 12.0153 5.47503C12.8063 5.33765 13.5045 5.09194 14.6876 4.53512C15.5785 4.11567 15.8146 4.0385 16.2022 4.0401C16.797 4.04245 17.2635 4.25784 17.8279 4.79048C18.0746 5.02334 18.3202 5.21387 18.3736 5.21387C18.5016 5.21387 18.5038 3.78322 18.3765 3.32448C18.1739 2.59467 17.7044 2.24567 16.7856 2.14197C16.3886 2.09712 16.0408 1.97528 15.45 1.67423L14.6512 1.26713L13.2581 1.27276C12.4371 1.27612 11.707 1.32096 11.4803 1.38192ZM29.9241 1.38436C29.5111 1.61277 29.5003 1.69875 29.4971 4.77721C29.4939 7.90261 29.5092 8.01807 29.9546 8.22053C30.1069 8.28981 30.8288 8.32088 32.2863 8.32088C34.6186 8.32088 34.8655 8.35884 35.3778 8.79642C35.9041 9.24593 36.0577 9.65807 36.0577 10.6196C36.0577 11.1018 36.0898 11.418 36.1359 11.3896C36.1789 11.3631 36.6123 10.8181 37.0989 10.1785C37.9901 9.00711 38.3502 8.63251 38.7458 8.46532C38.8641 8.41535 39.4995 8.35296 40.1578 8.32668C41.8872 8.25765 41.7318 8.5775 41.7631 5.02267C41.7771 3.44212 41.7655 2.02423 41.7375 1.87191C41.7024 1.6812 41.6029 1.54408 41.4177 1.43138C41.1582 1.27351 40.9547 1.26789 35.637 1.27041C31.2232 1.27259 30.0852 1.29526 29.9241 1.38436ZM15.134 5.71444C14.283 6.15656 13.0192 6.5849 12.1249 6.73421C11.5357 6.83263 9.72549 6.79853 9.44569 6.68382C9.31526 6.63033 9.29843 6.68005 9.29843 7.11948C9.29843 7.65036 9.39075 7.81704 9.68459 7.81704C10.0587 7.81704 10.229 8.07014 10.3594 8.82019C10.4296 9.22376 10.5781 9.70207 10.7062 9.93695C11.1752 10.7968 12.4728 11.7475 13.4427 11.9419C14.3238 12.1185 15.4207 11.6703 16.366 10.7474C16.9518 10.1754 17.2491 9.57821 17.3654 8.74016C17.4596 8.06149 17.6309 7.81704 18.0124 7.81704C18.2812 7.81704 18.4706 7.51491 18.4706 7.08597C18.4706 6.7395 18.457 6.72128 18.0358 6.50832C17.7967 6.3874 17.4085 6.10852 17.1733 5.88868C16.3955 5.16173 16.2256 5.1472 15.134 5.71444ZM12.4138 13.4679C12.417 14.3588 12.7989 14.9328 13.5169 15.1257C14.111 15.2853 14.8502 14.9392 15.1498 14.3612C15.2492 14.1693 15.3368 13.0232 15.252 13.0235C15.2404 13.0235 14.9497 13.0821 14.606 13.1536C13.9417 13.2919 13.3042 13.2593 12.7275 13.0573L12.4119 12.9469L12.4138 13.4679ZM9.08941 14.9672C7.07278 15.4175 6.59028 15.5968 6.01663 16.1092C5.32838 16.724 4.84528 17.8246 4.83998 18.7899L4.83855 19.0561L5.94014 19.0838C6.97972 19.1098 7.05074 19.1226 7.20237 19.3097C7.39238 19.5442 7.41031 19.8964 7.24377 20.1241C7.13236 20.2762 6.97778 20.2899 4.90865 20.3299C2.44393 20.3775 2.34135 20.3998 1.7497 21.0148C1.20854 21.5773 1.22016 21.4278 1.22016 27.8245C1.22016 31.9793 1.24776 33.7114 1.31785 33.9446C1.44828 34.3792 1.9313 34.9275 2.35145 35.1179C2.6729 35.2636 3.04921 35.2727 8.80591 35.2744L14.9191 35.2763L14.9573 33.2399C14.9989 31.013 15.0527 30.6997 15.5445 29.818C15.9207 29.1437 16.3321 28.6757 16.9106 28.2637C17.6316 27.7504 18.03 27.6152 20.2518 27.1298C21.3317 26.8939 22.2816 26.6818 22.3625 26.6584C22.4892 26.6217 22.5098 26.5064 22.5098 25.8351V25.0544L22.1644 24.8155C21.0224 24.0257 20.1006 22.3872 19.9358 20.8539L19.8795 20.3291H14.4267H8.97404L8.79968 20.1078C8.57257 19.8198 8.57955 19.6357 8.8283 19.3471L9.03135 19.1114L14.4663 19.0887L19.9012 19.0658V18.1061C19.9012 17.0219 19.999 16.4445 20.2854 15.8398C20.3939 15.6106 20.472 15.4124 20.4589 15.3993C20.4286 15.3691 16.6386 14.5349 16.5316 14.5349C16.4878 14.5349 16.3721 14.7044 16.2745 14.9116C16.0336 15.423 15.4932 15.9454 14.9441 16.1977C14.3744 16.4595 13.5871 16.4831 12.9177 16.2585C12.368 16.0741 11.5754 15.3385 11.3976 14.8479C11.3144 14.6183 11.2382 14.5374 11.1118 14.5445C11.0169 14.5498 10.1069 14.74 9.08941 14.9672ZM23.0568 14.9854C22.5101 15.1625 22.227 15.3396 21.8664 15.73C21.2535 16.3935 21.2055 16.6332 21.2055 19.0275C21.2055 21.0097 21.2164 21.1585 21.4021 21.695C21.923 23.1999 23.1264 24.2593 24.6285 24.5353C26.5605 24.8901 28.6186 23.4184 29.1121 21.3289C29.2069 20.9274 29.2395 20.2733 29.2404 18.7512C29.2416 16.8865 29.2275 16.6837 29.076 16.3874C28.8552 15.9556 28.4855 15.7492 27.7415 15.6427C27.2705 15.5752 27.0021 15.4786 26.6055 15.2336L26.0861 14.9129L24.7397 14.8946C23.819 14.8822 23.287 14.9109 23.0568 14.9854ZM23.772 26.0871V26.5431H25.2025H26.6331V26.0955V25.648L26.0651 25.767C25.4876 25.8879 24.575 25.8609 24.0365 25.7068L23.772 25.6311V26.0871ZM20.68 28.3084C19.0912 28.6616 18.349 28.8658 18.0348 29.0358C17.1594 29.5098 16.503 30.3993 16.2925 31.3966C16.2409 31.6414 16.1986 32.5619 16.1986 33.4421V35.0424L16.6885 34.5898C17.2038 34.1138 18.0307 33.6401 18.8072 33.3762C19.2423 33.2284 19.6239 33.2189 25.1605 33.2189C29.9522 33.2189 31.1294 33.2409 31.4716 33.3365C32.2347 33.5496 33.0935 34.0216 33.6584 34.5382L34.2065 35.0392V33.4478C34.2065 32.5724 34.1681 31.6528 34.1211 31.4039C33.9343 30.4135 33.2298 29.4626 32.3552 29.0203C32.0556 28.8688 31.1608 28.6297 29.6527 28.2983L27.398 27.8027L25.1432 27.81L22.8885 27.8173L20.68 28.3084ZM19.2368 34.5695C17.9605 34.9119 16.9605 35.8429 16.4481 37.1657C16.2735 37.6163 16.2491 37.8451 16.217 39.3313C16.1788 41.0954 16.222 41.3795 16.5655 41.6196C16.7166 41.7252 17.9217 41.7422 25.2166 41.7422H33.6921L33.9283 41.5398L34.1644 41.3373L34.1911 39.843C34.2065 38.9738 34.1777 38.1189 34.122 37.7992C33.8535 36.2582 32.6542 34.9609 31.1321 34.5653C30.4164 34.3793 19.9318 34.3829 19.2368 34.5695ZM4.43758 39.1152L4.45988 41.7002L5.32005 41.7242C6.15531 41.7473 6.18165 41.7425 6.22726 41.5562C6.25309 41.4507 6.26361 40.2874 6.25057 38.9711L6.22701 36.5779L5.32115 36.554L4.41537 36.5302L4.43758 39.1152Z" fill="white"/>
</svg>
