<svg width="38" height="53" viewBox="0 0 38 53" fill="none" xmlns="http://www.w3.org/2000/svg">
<path fill-rule="evenodd" clip-rule="evenodd" d="M0.202449 0.226907C-0.241841 0.719183 0.0914349 3.03393 0.836418 4.62998C1.95401 7.02429 4.02674 8.7798 6.67922 9.57853C7.47435 9.8179 7.81613 9.83843 11.7266 9.88183C15.7805 9.92685 15.9309 9.92067 16.2068 9.69576C16.468 9.48299 16.4901 9.39048 16.467 8.60797C16.3589 4.97201 13.8398 1.64646 10.2451 0.394071L9.27758 0.0570595L4.8512 0.0187974C0.470909 -0.0189983 0.4225 -0.0167818 0.202449 0.226907ZM28.5945 0.166597C26.6851 0.584099 24.7477 1.78866 23.5428 3.30748C22.3228 4.84556 21.5763 6.77955 21.5237 8.53868C21.4795 10.0187 21.1954 9.93805 26.2618 9.88183C30.183 9.83831 30.5125 9.81837 31.3167 9.57643C35.1592 8.42016 37.8507 5.0707 37.9806 1.28378C38.0276 -0.0884072 38.3196 -0.00628326 33.4348 0.00456549C30.4864 0.0112147 29.0915 0.057876 28.5945 0.166597ZM1.72197 2.05836C2.19873 4.71537 4.1153 6.9193 6.76195 7.85358L7.76481 8.20762L11.2973 8.25533L14.8297 8.30293L14.7453 7.79455C14.3113 5.18082 12.2679 2.82104 9.68487 1.95069C8.9841 1.71459 8.66037 1.69289 5.28537 1.65463L1.64215 1.61345L1.72197 2.05836ZM28.6949 1.85958C25.8875 2.59742 23.7428 4.95031 23.232 7.85288L23.1529 8.30304L26.6882 8.253C30.22 8.20307 30.2247 8.20272 31.21 7.86629C33.8205 6.97494 35.7902 4.71479 36.2651 2.06594L36.3436 1.62849L32.9345 1.63491C29.9908 1.64051 29.4121 1.67119 28.6949 1.85958ZM18.4124 8.51103C18.1813 8.74271 18.1797 8.89984 18.1797 30.6039C18.1797 51.6739 18.1875 52.4731 18.3943 52.7291C18.686 53.0903 19.3025 53.0903 19.5942 52.7291C19.801 52.4731 19.8088 51.6739 19.8088 30.6039C19.8088 8.89984 19.8072 8.74271 19.5761 8.51103C19.4468 8.38143 19.1882 8.27773 18.9942 8.27773C18.8003 8.27773 18.5417 8.38143 18.4124 8.51103ZM0.344766 11.6898C0.0175418 11.939 -0.0597264 12.3728 0.0416295 13.3918C0.412725 17.1178 3.24033 20.3426 6.90986 21.2245C7.78575 21.4349 8.28334 21.458 11.9746 21.4587L16.0682 21.4595L16.3142 21.146C16.5326 20.8676 16.5515 20.7398 16.4821 20.0086C16.3724 18.8523 16.0479 17.645 15.6138 16.7766C14.2398 14.0286 11.8989 12.2392 8.98666 11.7106C7.78901 11.4932 0.625677 11.476 0.344766 11.6898ZM28.9436 11.7163C24.8929 12.4687 21.906 15.7991 21.5064 20.0086C21.437 20.7398 21.4559 20.8676 21.6743 21.146L21.9203 21.4595L26.0139 21.4587C30.4277 21.4578 31.1206 21.3829 32.551 20.7512C35.4967 19.4505 37.6707 16.4663 37.9434 13.3493C38.0368 12.2806 37.9208 11.7592 37.5582 11.6198C37.1791 11.4739 29.8038 11.5566 28.9436 11.7163ZM1.72174 13.602C1.88291 14.4918 2.23899 15.4651 2.66978 16.1925C3.28932 17.2387 4.64884 18.5025 5.72838 19.0356C7.18169 19.7533 7.68591 19.8228 11.4595 19.8246C13.2996 19.8256 14.8042 19.787 14.8033 19.7389C14.7959 19.3629 14.3913 18.0497 14.1041 17.4693C13.1617 15.5653 11.6205 14.2186 9.63576 13.565C8.72065 13.2636 8.6023 13.254 5.16796 13.2038L1.64028 13.1521L1.72174 13.602ZM29.5804 13.291C26.6247 13.6734 24.0441 16.0067 23.3601 18.9151C23.2648 19.3201 23.1861 19.6908 23.1852 19.7389C23.1843 19.787 24.689 19.8256 26.529 19.8246C30.3026 19.8228 30.8068 19.7533 32.2601 19.0356C33.3396 18.5025 34.6992 17.2387 35.3187 16.1925C35.7474 15.4687 36.1057 14.4917 36.2644 13.6146L36.3436 13.1772L33.2836 13.1924C31.6007 13.2008 29.9342 13.2452 29.5804 13.291ZM0.195234 23.4489C0.0223125 23.6406 -0.0152742 23.8446 0.00776656 24.4688C0.136818 27.9749 2.49744 31.2444 5.80181 32.4939C7.28002 33.0529 8.00185 33.1249 12.1259 33.1249C16.6979 33.1249 16.5057 33.1802 16.4708 31.8731C16.3792 28.4453 14.1071 25.2115 10.8485 23.8713C9.36125 23.2596 8.91172 23.213 4.49547 23.2111C0.522576 23.2093 0.405626 23.2159 0.195234 23.4489ZM28.5945 23.3953C24.5746 24.3539 21.6241 27.8885 21.5177 31.8731C21.4828 33.1802 21.2906 33.1249 25.8626 33.1249C29.9866 33.1249 30.7085 33.0529 32.1867 32.4939C35.4707 31.2521 37.8621 27.9515 37.9806 24.4978C38.0276 23.1255 38.3196 23.2076 33.4348 23.219C30.2781 23.2265 29.1267 23.2684 28.5945 23.3953ZM1.65832 24.93C1.66716 25.2003 1.92759 26.153 2.14462 26.7089C2.94627 28.7625 4.68142 30.3945 6.81863 31.105C7.74654 31.4134 7.833 31.4204 11.2969 31.4659L14.829 31.5125L14.745 31.0063C14.2763 28.1833 11.82 25.6089 9.02984 25.0163C8.4395 24.891 7.37021 24.846 4.9429 24.8445C3.1349 24.8434 1.65681 24.8819 1.65832 24.93ZM28.905 25.0213C26.5995 25.523 24.4179 27.4729 23.5898 29.772C23.4456 30.1725 23.2898 30.7279 23.2435 31.0063L23.1595 31.5125L26.6916 31.4659C30.1555 31.4204 30.242 31.4134 31.1699 31.105C33.7771 30.2382 35.7885 27.9388 36.2651 25.2799L36.3436 24.8425L32.9926 24.8517C30.6162 24.8583 29.4276 24.9077 28.905 25.0213ZM0.410747 34.8927C0.0285969 35.0851 -0.0643808 35.5181 0.0426771 36.6058C0.408652 40.3208 3.10942 43.4376 6.84807 44.4594C7.70069 44.6924 8.05223 44.7106 11.8764 44.7209L15.988 44.7319L16.277 44.3957C16.5427 44.0863 16.5597 43.9979 16.4905 43.2875C16.0991 39.2728 13.5017 36.1322 9.70162 35.0788C8.88798 34.8533 8.46452 34.8294 4.73926 34.7981C1.93748 34.7747 0.586578 34.8042 0.410747 34.8927ZM29.0437 34.9302C27.9925 35.1215 27.4898 35.2856 26.6163 35.7227C23.6361 37.2143 21.8367 39.8743 21.4991 43.2875C21.4288 43.9987 21.4455 44.0859 21.7115 44.3957L22.0005 44.7319L26.1121 44.7209C29.9363 44.7106 30.2878 44.6924 31.1404 44.4594C34.8791 43.4376 37.5798 40.3208 37.9458 36.6058C38.0557 35.4907 37.9594 35.0807 37.5435 34.8908C37.121 34.6978 30.1433 34.7301 29.0437 34.9302ZM1.73035 36.4809C1.62399 36.6533 2.06153 38.2644 2.39236 38.9189C3.37671 40.8662 5.1256 42.2796 7.21276 42.8147C7.98311 43.0123 8.51165 43.0404 11.449 43.0404C13.2948 43.0404 14.8042 43.0011 14.8033 42.9529C14.8023 42.9047 14.7245 42.5376 14.6302 42.1369C14.142 40.0611 12.627 38.1763 10.679 37.2211C9.31575 36.5528 8.87809 36.4893 5.19088 36.4239C2.98816 36.385 1.77713 36.4049 1.73035 36.4809ZM29.7 36.5104C26.6495 36.8754 24.0548 39.1748 23.3601 42.1291C23.2648 42.5341 23.1861 42.9081 23.1852 42.9604C23.1843 43.0126 24.8199 43.0369 26.8199 43.0141C30.9057 42.9679 31.197 42.9189 32.7158 42.0227C34.5452 40.9434 36.0667 38.6898 36.2423 36.7994L36.2748 36.4495L33.3656 36.4347C31.7655 36.4265 30.116 36.4606 29.7 36.5104Z" fill="white"/>
</svg>
