<svg width="56" height="63" viewBox="0 0 56 63" fill="none" xmlns="http://www.w3.org/2000/svg">
<path fill-rule="evenodd" clip-rule="evenodd" d="M26.8581 0.0938117C24.0103 0.816131 22.5667 4.00981 23.8952 6.64916C24.7421 8.33153 26.5842 9.35542 28.4182 9.16304C29.901 9.00738 31.5405 7.8849 32.0983 6.64336C32.2251 6.36102 32.4011 6.12994 32.4893 6.12994C32.5774 6.12994 33.384 6.31973 34.2816 6.55167C43.1893 8.85296 50.1532 15.6592 52.6388 24.4929C53.1484 26.3042 53.3886 26.6441 54.1594 26.6441C54.5725 26.6441 54.7272 26.5721 55.0189 26.2443C55.4693 25.7385 55.4671 25.4822 54.9984 23.8068C52.8644 16.1784 47.5491 9.76236 40.4567 6.25367C37.9549 5.01596 35.3732 4.14402 32.9912 3.73227C32.7112 3.68384 32.4975 3.56787 32.4573 3.44266C32.0073 2.04115 31.066 0.92027 29.8816 0.376035C29.1275 0.0294796 27.6538 -0.108058 26.8581 0.0938117ZM27.0394 2.63739C25.8784 3.2117 25.4772 4.71377 26.1979 5.78733C26.5952 6.37901 27.2013 6.68046 27.9938 6.68046C28.8382 6.68046 29.4253 6.34413 29.824 5.63216C30.1948 4.96999 30.1507 3.91196 29.7274 3.31535C29.1605 2.51612 27.9179 2.20272 27.0394 2.63739ZM12.1649 4.47715C11.8471 4.74557 11.7871 4.88347 11.7871 5.34538C11.7871 6.05821 12.1342 6.41574 13.0943 6.69241C13.4896 6.80641 13.8561 6.92485 13.9088 6.95566C13.9613 6.98647 13.5193 7.31626 12.9265 7.68857C10.2685 9.35751 7.39406 11.9701 5.67978 14.275C1.90975 19.3441 0 25.1109 0 31.4265C0 34.8074 0.437227 37.5431 1.48223 40.6992C3.46835 46.6984 7.33439 51.6883 12.6871 55.1617C14.2053 56.1469 17.2233 57.6136 18.9084 58.1852C20.2339 58.6347 22.6421 59.2471 23.0846 59.2471C23.2413 59.2471 23.385 59.3729 23.4714 59.586C24.1581 61.2786 24.7906 62.0289 26.0298 62.6213C26.7412 62.9614 26.9478 63.0025 27.9329 62.9999C28.7912 62.9977 29.1956 62.9341 29.7436 62.7155C30.7271 62.3231 31.6739 61.4217 32.1192 60.4537C32.4377 59.7615 32.4759 59.5463 32.4759 58.446C32.4759 57.3337 32.4409 57.1421 32.1175 56.4808C31.1549 54.5131 28.9551 53.4684 26.8915 53.9991C25.5654 54.3401 24.5078 55.1697 23.9281 56.3235C23.7844 56.6097 23.6578 56.8551 23.647 56.8686C23.5912 56.9383 20.9062 56.2572 19.8907 55.9158C10.499 52.7595 3.9294 44.7615 2.64399 34.9195C2.40481 33.0877 2.40211 29.8436 2.63834 28.0424C3.53355 21.2154 7.05334 15.0722 12.3622 11.0711C13.5572 10.1703 15.1064 9.17401 15.1865 9.25461C15.2074 9.27543 15.0839 9.70407 14.9121 10.2069C14.552 11.2612 14.5854 11.7394 15.0496 12.177C15.268 12.383 15.5048 12.4713 15.8389 12.4713C16.672 12.4713 16.8531 12.1773 17.7536 9.36441C18.6114 6.68453 18.6435 6.38616 18.1255 5.89775C17.8133 5.60333 13.4692 4.15807 12.8965 4.15807C12.6949 4.15807 12.3801 4.29536 12.1649 4.47715ZM25.3788 14.4418C23.9484 14.9539 23.4102 15.7215 22.7173 18.2373C22.1909 20.1479 21.9626 20.5877 21.4273 20.7226C21.2711 20.7619 20.2766 20.5684 19.1982 20.289C16.97 19.7117 16.3683 19.7044 15.2746 20.2415C14.4571 20.643 14.1477 21.0168 13.0581 22.9198C12.05 24.6803 11.9099 25.0447 11.9099 25.9066C11.9099 27.0906 12.173 27.5662 13.7958 29.3161C14.6156 30.2 15.3307 31.0419 15.3848 31.1868C15.5704 31.6838 15.327 32.068 13.8813 33.5591C12.2964 35.1938 11.9091 35.8771 11.9106 37.0374C11.9116 37.9165 12.0744 38.3526 13.0266 40.0258C14.8278 43.1914 15.8113 43.6096 19.2768 42.6835C20.1884 42.4399 21.0577 42.2403 21.2086 42.2401C21.3595 42.2398 21.6464 42.3923 21.846 42.5786C22.1473 42.86 22.295 43.2305 22.7157 44.7592C22.9945 45.7719 23.2786 46.7059 23.3471 46.8343C23.6158 47.3384 24.3866 48.0668 24.9784 48.3763C25.5631 48.6819 25.7217 48.7041 27.6449 48.7486C29.9614 48.8022 30.6514 48.6749 31.5381 48.0302C32.3208 47.4611 32.694 46.7553 33.213 44.8627C33.7785 42.8005 33.889 42.5667 34.3977 42.3552C34.7608 42.2042 34.9606 42.2323 36.6442 42.6717C38.8666 43.2515 39.6091 43.2762 40.5741 42.8023C41.4537 42.3704 41.9001 41.8445 42.9382 40.0174C43.9335 38.2658 44.1375 37.6491 44.0289 36.7199C43.9084 35.6887 43.5633 35.1368 41.9906 33.4599C40.0374 31.3771 40.0335 31.4952 42.1268 29.3517C43.5201 27.9248 43.8935 27.327 44.0342 26.2966C44.1508 25.442 43.9038 24.7037 42.9154 22.9519C41.9384 21.2207 41.3921 20.5743 40.5665 20.1732C39.6145 19.7107 38.9567 19.7309 36.7495 20.2906C34.0119 20.985 34.0035 20.9804 33.2854 18.3721C33.0249 17.4265 32.6971 16.4271 32.5569 16.1512C32.2199 15.4879 31.3108 14.6993 30.6054 14.458C29.855 14.2013 26.0831 14.1897 25.3788 14.4418ZM25.8467 17.006C25.5952 17.2243 25.4156 17.6767 25.0033 19.1319C24.7153 20.1487 24.3909 21.1469 24.2825 21.3503C23.9872 21.9046 23.214 22.6017 22.5919 22.8745C21.5441 23.3342 21.1112 23.3224 18.982 22.7758C17.9083 22.5001 16.9221 22.2746 16.7903 22.2746C16.4118 22.2746 15.8244 22.9739 15.0663 24.3266C14.0697 26.1053 14.0572 26.0459 15.8127 27.863C17.5399 29.6507 17.8461 30.191 17.8488 31.4561C17.8514 32.6563 17.5312 33.3141 16.3489 34.5371C14.6416 36.3032 14.3655 36.6558 14.3655 37.0704C14.3655 37.314 14.6397 37.9289 15.1223 38.7678C16.0046 40.301 16.2387 40.5914 16.6572 40.6716C16.8265 40.7041 17.8029 40.5157 18.8269 40.2531C20.8744 39.7278 21.2899 39.6901 22.1546 39.9512C23.6818 40.4127 24.2417 41.1737 24.9857 43.7987C25.3307 45.0165 25.6299 45.837 25.7863 45.9942C26.01 46.2191 26.2193 46.2491 27.8022 46.2848C30.3608 46.3423 30.239 46.4421 31.008 43.657C31.626 41.4183 32.0471 40.7728 33.3121 40.125C34.2002 39.6703 34.9536 39.6945 37.1341 40.2479C39.6846 40.8953 39.5741 40.9366 40.7482 38.8959C41.2705 37.988 41.6231 37.2344 41.6231 37.026C41.6231 36.7475 41.3292 36.3708 40.1702 35.1647C38.5492 33.4774 38.1855 32.8742 38.0968 31.7255C37.9958 30.4147 38.3359 29.7502 39.9694 28.0669C41.3622 26.6317 41.6231 26.2883 41.6231 25.8909C41.6231 25.5548 40.1763 22.9978 39.7686 22.6135C39.5709 22.4272 39.2892 22.2746 39.1424 22.2746C38.9957 22.2746 38.1263 22.4767 37.2105 22.7237C34.9965 23.3209 34.298 23.3272 33.1894 22.7599C31.9701 22.1359 31.6193 21.569 30.9526 19.1452C30.2596 16.6261 30.3856 16.7287 27.9846 16.7287C26.2755 16.7287 26.1471 16.7454 25.8467 17.006ZM26.4119 25.5505C24.3139 26.1168 22.5934 27.8622 22.0432 29.9824C21.2019 33.2244 23.2678 36.7104 26.4597 37.4345C27.2662 37.6174 28.7601 37.6136 29.5291 37.4264C32.4938 36.7049 34.4834 33.7068 34.0372 30.6336C33.8373 29.2567 33.304 28.1989 32.3019 27.1907C31.4263 26.31 30.6109 25.8285 29.5054 25.5395C28.6303 25.3108 27.2823 25.3154 26.4119 25.5505ZM26.7166 28.0158C25.8114 28.3059 24.7627 29.4046 24.4889 30.3501C23.9588 32.1799 24.7279 33.9972 26.3758 34.8095C26.9575 35.0961 27.2264 35.1522 27.9943 35.1464C29.5125 35.1351 30.6468 34.4194 31.3189 33.0487C31.9294 31.8037 31.6342 29.9718 30.6586 28.9495C29.73 27.9765 28.0681 27.5828 26.7166 28.0158ZM54.047 30.2233C53.8466 30.3925 53.648 30.6694 53.6057 30.8385C53.4858 31.3179 53.8253 31.9783 54.3113 32.2109C55.5257 32.7921 56.5861 31.2359 55.6297 30.2758C55.1642 29.8085 54.5617 29.7885 54.047 30.2233ZM53.4855 36.1085C53.2542 36.3176 53.0893 36.7356 52.8144 37.8098C51.9514 41.1818 50.3592 44.4838 48.2717 47.231C47.5353 48.1998 45.2121 50.5914 44.2016 51.4207C43.3542 52.1161 41.2674 53.5779 41.1223 53.5779C41.0748 53.5779 41.1687 53.1481 41.331 52.6228C41.6753 51.5087 41.632 51.123 41.1136 50.6851C40.3906 50.0746 39.4482 50.4337 39.1269 51.4422C39.0226 51.7696 38.6541 52.9248 38.3081 54.0093C37.6298 56.1353 37.6008 56.542 38.095 56.9932C38.5079 57.3701 43.0556 58.7891 43.5517 58.6958C44.0708 58.5981 44.4471 58.1046 44.4471 57.5217C44.4471 56.8228 44.0855 56.4591 43.0884 56.1551C42.6201 56.0123 42.237 55.8794 42.237 55.8596C42.237 55.8399 42.8587 55.4078 43.6183 54.8995C49.312 51.0898 53.4346 45.2287 55.198 38.4366C55.5906 36.9244 55.583 36.6374 55.1386 36.1914C54.6768 35.7279 53.9469 35.6913 53.4855 36.1085ZM27.1962 56.4678C25.0887 57.2438 25.549 60.3888 27.7976 60.576C29.056 60.6807 29.9667 59.8965 30.0579 58.6293C30.1754 56.999 28.7265 55.9046 27.1962 56.4678Z" fill="white"/>
</svg>
