<svg width="66" height="64" viewBox="0 0 66 64" fill="none" xmlns="http://www.w3.org/2000/svg">
<path fill-rule="evenodd" clip-rule="evenodd" d="M30.1806 0.115269C29.6646 0.181609 29.2626 0.31032 29.1158 0.456192C28.9862 0.58503 28.5602 1.58026 28.1692 2.6677C27.7782 3.75515 27.4164 4.68237 27.3651 4.72835C27.3138 4.77433 27.0399 4.88396 26.7564 4.97207C26.4729 5.06018 25.7906 5.33489 25.2401 5.58258L24.2395 6.03287L22.3139 5.11768C21.2549 4.61437 20.2214 4.2025 20.0171 4.2025C19.0653 4.2025 14.5289 8.73938 14.5374 9.68287C14.5391 9.87356 14.9582 10.9047 15.4688 11.974L16.3973 13.9184L16.1713 14.3433C16.0471 14.5771 15.7378 15.2802 15.4842 15.9058L15.0229 17.0434L12.9755 17.7628C11.4353 18.3042 10.8706 18.5616 10.6963 18.8025C10.5231 19.0415 10.4321 19.5372 10.3372 20.7575C10.2012 22.5054 10.284 23.0579 10.7159 23.2876C10.8619 23.3652 13.7778 23.413 18.3707 23.413C26.8973 23.413 26.2174 23.5183 26.3676 22.1748C26.6441 19.7004 27.9662 17.7259 30.0428 16.6856C31.0371 16.1877 31.8853 15.988 33.0071 15.988C36.4981 15.988 39.2407 18.5436 39.6466 22.1748C39.7967 23.5183 39.1169 23.413 47.6435 23.413C52.2364 23.413 55.1523 23.3652 55.2983 23.2876C55.7302 23.0579 55.8129 22.5054 55.6769 20.7575C55.5821 19.5372 55.4911 19.0415 55.3179 18.8025C55.1435 18.5616 54.5789 18.3042 53.0386 17.7628L50.9913 17.0434L50.53 15.9058C50.2764 15.2802 49.967 14.5771 49.8428 14.3433L49.6169 13.9184L50.5453 11.974C51.056 10.9047 51.4751 9.87356 51.4767 9.68287C51.4852 8.73938 46.9488 4.2025 45.997 4.2025C45.7927 4.2025 44.7593 4.61437 43.7003 5.11768L41.7747 6.03287L40.774 5.58258C40.2236 5.33489 39.5413 5.06018 39.2578 4.97207C38.9742 4.88396 38.7004 4.77433 38.6491 4.72835C38.5978 4.68237 38.236 3.75515 37.845 2.6677C37.454 1.58026 37.0303 0.587463 36.9036 0.461442C36.7552 0.313906 36.3306 0.188269 35.7101 0.108225C34.566 -0.0391833 31.3502 -0.0352131 30.1806 0.115269ZM30.9922 1.73497L30.3306 1.78146L29.9973 2.70382C29.8141 3.21111 29.485 4.1245 29.2661 4.7336C29.0472 5.3427 28.77 5.9276 28.65 6.03364C28.53 6.13956 27.9296 6.40133 27.3157 6.61546C26.702 6.82947 25.8482 7.18102 25.4185 7.39656C24.9888 7.6121 24.4761 7.78679 24.2792 7.78474C24.0821 7.78269 23.0806 7.38516 22.0534 6.90144L20.1858 6.02199L19.798 6.29311C19.2774 6.65709 17.1588 8.75859 16.7151 9.35142L16.36 9.82567L17.273 11.7362C17.7751 12.7869 18.1859 13.7579 18.1859 13.8941C18.1859 14.0301 17.9632 14.5995 17.6911 15.1593C17.419 15.7191 17.0626 16.577 16.8991 17.0658C16.7357 17.5547 16.4799 18.0757 16.3306 18.2235C16.1814 18.3713 15.175 18.8036 14.0939 19.1843C12.4234 19.7725 12.1284 19.9158 12.1273 20.1398C12.1268 20.2848 12.0897 20.7059 12.045 21.0757L11.9637 21.7481H16.6037H21.2437L21.401 20.7782C22.1322 16.2744 25.4373 12.6513 30.0056 11.3456C30.8519 11.1037 31.3227 11.0587 33.0071 11.0587C34.6914 11.0587 35.1622 11.1037 36.0086 11.3456C40.5891 12.6547 43.8523 16.2301 44.6223 20.7833L44.7854 21.7481H49.4179H54.0505L53.9692 21.0757C53.9244 20.7059 53.8873 20.2848 53.8868 20.1398C53.8858 19.9158 53.5908 19.7725 51.9202 19.1843C50.8393 18.8036 49.8327 18.3713 49.6835 18.2235C49.5343 18.0757 49.2784 17.5547 49.115 17.0658C48.9516 16.577 48.5951 15.7191 48.323 15.1593C48.051 14.5995 47.8283 14.0301 47.8283 13.8941C47.8283 13.7579 48.2392 12.7868 48.7413 11.736L49.6543 9.82515L49.1084 9.12205C48.5589 8.41434 46.8284 6.72957 46.1782 6.26967L45.8283 6.02199L43.9607 6.90144C42.9335 7.38516 41.932 7.78269 41.735 7.78474C41.538 7.78679 41.0253 7.6121 40.5957 7.39656C40.166 7.18102 39.3121 6.82947 38.6984 6.61546C38.0846 6.40133 37.4862 6.14135 37.3686 6.03761C37.2512 5.934 36.8268 4.93928 36.4256 3.82725L35.6962 1.80528L34.7189 1.72319C33.7465 1.64148 32.2544 1.64622 30.9922 1.73497ZM31.6421 12.7895C28.3687 13.2141 25.2471 15.5426 23.8518 18.6003C23.4353 19.5133 23.0833 20.7726 23.0833 21.3503V21.7481H23.8541C24.5917 21.7481 24.6281 21.7328 24.6969 21.3959C24.9257 20.2761 25.2154 19.412 25.6161 18.6543C26.5666 16.8568 28.4061 15.3265 30.4326 14.6472C31.3833 14.3286 31.7171 14.2811 33.0071 14.2811C34.297 14.2811 34.6308 14.3286 35.5816 14.6472C37.6081 15.3265 39.4476 16.8568 40.3981 18.6543C40.7988 19.412 41.0885 20.2761 41.3173 21.3959C41.3861 21.7328 41.4224 21.7481 42.16 21.7481H42.9308V21.3503C42.9308 20.7726 42.5789 19.5133 42.1623 18.6003C41.0355 16.1308 38.7591 14.0841 36.1952 13.2351C34.6248 12.7151 33.2514 12.5807 31.6421 12.7895ZM30.2561 21.9823C30.07 22.1866 30.0428 22.6112 30.0428 25.3101V28.4038L18.1895 28.4378C6.36474 28.4716 6.33535 28.4724 6.06702 28.739C5.9152 28.89 5.75926 29.2652 5.709 29.6004L5.62007 30.1944L4.00907 28.971C3.12302 28.2981 2.38557 27.7087 2.37023 27.6615C2.35502 27.6141 3.07997 27.0148 3.98123 26.3299C4.88262 25.645 5.63077 25.1551 5.64365 25.2413C5.77949 26.1419 5.86339 26.4083 6.07837 26.6219C6.32234 26.8644 6.59866 26.8709 16.5655 26.8709H26.8021L27.0692 26.5334C27.4052 26.1091 27.4079 25.7893 27.0786 25.4621C26.8255 25.2106 26.649 25.206 17.1548 25.206H7.48883V24.173C7.48883 23.6048 7.43199 23.0346 7.36266 22.9057C7.20168 22.6069 6.59749 22.3948 6.26382 22.5201C5.784 22.7002 0.33792 26.949 0.143054 27.2952C-0.218584 27.9376 -0.222708 27.9335 4.23796 31.3104C5.84754 32.529 6.28238 32.7987 6.62121 32.7891C7.28533 32.7704 7.48883 32.4008 7.48883 31.2131V30.2047L19.3323 30.1706C30.7722 30.1378 31.185 30.1284 31.447 29.8927C31.7109 29.6553 31.7183 29.5481 31.7183 25.9104C31.7183 22.4513 31.7006 22.1561 31.4826 21.96C31.1698 21.6787 30.5219 21.6905 30.2561 21.9823ZM34.5092 21.9823C34.321 22.1889 34.2959 22.6544 34.2959 25.9326C34.2959 29.5477 34.3032 29.6554 34.5672 29.8927C34.8292 30.1284 35.242 30.1378 46.6819 30.1706L58.5253 30.2047V31.2131C58.5253 32.4008 58.7288 32.7704 59.3929 32.7891C59.7318 32.7987 60.1666 32.529 61.7762 31.3104C65.3049 28.639 65.6679 28.3445 65.8676 27.9896C66.0433 27.6776 66.0437 27.6019 65.8715 27.2967C65.6769 26.9518 60.2295 22.7016 59.7503 22.5206C59.417 22.3948 58.8126 22.6067 58.6515 22.9057C58.5822 23.0346 58.5253 23.6048 58.5253 24.173V25.206H48.8593C39.3651 25.206 39.1887 25.2106 38.9356 25.4621C38.6063 25.7893 38.609 26.1091 38.945 26.5334L39.212 26.8709H49.4487C59.4155 26.8709 59.6918 26.8644 59.9358 26.6219C60.1508 26.4083 60.2347 26.1419 60.3705 25.2413C60.3834 25.1551 61.1315 25.645 62.0329 26.3299C62.9342 27.0148 63.6591 27.6141 63.6439 27.6615C63.6286 27.7087 62.8911 28.2981 62.0051 28.971L60.3941 30.1944L60.3052 29.6004C60.2549 29.2652 60.0989 28.89 59.9471 28.739C59.6788 28.4724 59.6494 28.4716 47.8247 28.4378L35.9713 28.4038V25.2879C35.9713 22.4319 35.9516 22.1543 35.7356 21.96C35.4228 21.6787 34.7749 21.6905 34.5092 21.9823ZM12.0373 31.3854C11.6652 31.7899 9.18541 35.7663 8.82261 36.5402C7.94854 38.4046 9.06787 40.1991 11.4197 40.7037C11.7741 40.7798 12.2816 40.8993 12.5474 40.9692L13.0307 41.0965V45.6333C13.0307 49.9596 13.0436 50.2041 13.3072 50.9048C13.6436 51.7979 14.517 52.7643 15.4124 53.2341L16.0594 53.5735L21.8912 53.6105L27.723 53.6474V58.4919C27.723 63.199 27.7306 63.3459 27.9902 63.6737C28.3067 64.0736 28.7346 64.1075 29.1586 63.7665L29.4629 63.5217L29.4995 58.5796L29.5361 53.6375L32.657 53.6296L35.778 53.6216L38.6134 50.2969C40.1728 48.4684 41.4994 46.8619 41.5614 46.727C41.844 46.1124 41.2535 45.4454 40.5762 45.6143C40.3766 45.6641 39.2991 46.8195 37.5754 48.8323L34.886 51.9726H25.8875C16.0569 51.9726 16.3763 51.9957 15.5646 51.2294C14.7556 50.4659 14.7742 50.6069 14.7318 44.9096L14.6928 39.7035L12.9277 39.2893C11.957 39.0615 11.0347 38.8173 10.8785 38.7464C10.5076 38.5785 10.1841 37.893 10.2872 37.4931C10.3315 37.3212 10.928 36.2872 11.6127 35.1954C13.4605 32.2491 13.5766 32.0347 13.4833 31.7423C13.2677 31.0674 12.5033 30.8787 12.0373 31.3854ZM50.8749 31.3854C50.7751 31.5439 50.5983 32.1058 50.482 32.634C50.3658 33.1623 49.6051 35.9329 48.7917 38.7908L47.3128 43.9871V53.7379V63.4889L47.5949 63.7501C47.9528 64.0815 48.4 64.0834 48.7304 63.7551C48.9836 63.5035 48.9882 63.3282 48.9882 53.9615V44.4243L50.3503 39.6497C52.4265 32.3729 52.5631 31.7226 52.1034 31.3092C51.7533 30.9942 51.0953 31.0351 50.8749 31.3854Z" fill="white"/>
</svg>
