<svg width="53" height="53" viewBox="0 0 53 53" fill="none" xmlns="http://www.w3.org/2000/svg">
<path fill-rule="evenodd" clip-rule="evenodd" d="M22.8287 0.17818C18.1077 0.818662 13.2989 2.88513 9.76985 5.78965C8.63566 6.72315 6.3989 9.03878 6.24897 9.43486C6.003 10.0841 6.42425 10.6835 7.12653 10.6835C7.42011 10.6835 7.71287 10.4417 8.90615 9.21388C10.9898 7.0699 12.7688 5.74198 15.1947 4.51998C17.8097 3.20264 20.1371 2.4843 23.184 2.05398C24.845 1.81944 28.1952 1.82634 29.9344 2.06801C35.6256 2.8585 40.7297 5.49164 44.444 9.55326C45.3006 10.4898 45.5374 10.6835 45.8262 10.6835C46.3053 10.6835 46.5752 10.5158 46.7404 10.1155C46.8413 9.871 46.8458 9.68473 46.7562 9.44841C46.602 9.04127 44.382 6.73765 43.2302 5.78965C39.5802 2.78552 34.9544 0.818543 30.009 0.167838C28.275 -0.0602776 24.547 -0.0549281 22.8287 0.17818ZM24.3091 5.70275C21.1965 6.02846 17.8133 7.24274 15.0963 9.00942C14.0529 9.68782 13.7097 10.0617 13.7097 10.5199C13.7097 10.7963 14.3669 11.3967 14.6695 11.3967C14.8166 11.3967 15.3802 11.0976 15.9219 10.732C21.5214 6.95353 28.7909 6.46056 34.8673 9.44734C35.4663 9.74167 36.3897 10.2737 36.9195 10.6296C37.4492 10.9855 38.0131 11.3096 38.1728 11.3498C38.8003 11.5079 39.4287 10.7117 39.1704 10.0858C38.8838 9.39135 35.3422 7.40191 33.0701 6.6592C30.2288 5.73033 27.2026 5.39999 24.3091 5.70275ZM8.5286 13.3635C6.66016 13.8684 5.12627 15.2815 4.53662 17.0409C3.82001 19.1787 4.30627 21.5358 5.78852 23.1088C6.12699 23.4681 6.38244 23.7795 6.35603 23.8008C6.32962 23.8222 5.94793 24.0061 5.50797 24.2096C2.24515 25.7187 -0.31208 29.0511 0.0308885 31.347C0.255429 32.8498 1.12801 34.0604 2.42705 34.6714L3.11038 34.9928L8.86044 35.0268L14.6105 35.0607L14.7434 35.8395C15.0895 37.8676 16.6154 39.4242 18.6221 39.7967C19.5808 39.9745 33.4211 39.974 34.3833 39.7961C36.4316 39.4172 37.9024 37.9148 38.2566 35.8395L38.3895 35.0607L44.1396 35.0268L49.8896 34.9928L50.6002 34.6591C51.8832 34.0565 52.7441 32.8529 52.9691 31.347C53.3121 29.0511 50.7549 25.7187 47.492 24.2096C47.0521 24.0061 46.6704 23.8222 46.644 23.8008C46.6176 23.7795 46.8657 23.4759 47.1953 23.1261C48.9591 21.2541 49.2854 18.4886 48.023 16.1111C46.2758 12.8207 41.4276 12.1538 38.7037 14.8291C36.4199 17.0721 36.3735 20.8438 38.6009 23.1757C38.9218 23.5117 39.1682 23.7954 39.1485 23.8062C39.1287 23.8172 38.7691 23.9849 38.3492 24.179C37.2057 24.7079 36.2505 25.3633 35.3442 26.2407C34.7157 26.8492 33.9229 27.7951 33.6626 28.2467C33.6532 28.2629 33.2248 28.0356 32.7106 27.7415C32.1965 27.4473 31.7389 27.2067 31.6939 27.2067C31.6489 27.2067 31.3643 27.1001 31.0616 26.9699L30.5112 26.733L31.1998 26.0906C31.9819 25.3612 32.5512 24.4779 32.9905 23.3127C33.4053 22.2119 33.4298 20.3036 33.045 19.064C32.3626 16.866 30.7661 15.2642 28.5725 14.5764C27.4127 14.2128 25.5873 14.2128 24.4275 14.5764C22.0136 15.3333 20.3305 17.2033 19.796 19.7219C19.3113 22.0068 20.0963 24.5014 21.8002 26.0906L22.4888 26.733L21.9384 26.9699C21.6357 27.1001 21.3511 27.2067 21.3061 27.2067C21.2611 27.2067 20.8035 27.4473 20.2894 27.7415C19.7752 28.0356 19.3468 28.2629 19.3375 28.2467C19.0771 27.7951 18.2843 26.8492 17.6558 26.2407C16.7496 25.3633 15.7943 24.7079 14.6508 24.179C14.2309 23.9849 13.8713 23.8172 13.8515 23.8062C13.8318 23.7954 14.0782 23.5117 14.3991 23.1757C15.5573 21.9631 16.1666 20.2809 16.0263 18.6833C15.7902 15.9972 14.1784 14.0196 11.6809 13.3525C10.8801 13.1386 9.3409 13.1439 8.5286 13.3635ZM8.65307 15.3247C8.31448 15.4592 7.76533 15.8148 7.43267 16.1151C5.31742 18.024 5.79634 21.3537 8.38045 22.7058C8.83533 22.9438 9.08687 22.9848 10.0977 22.9857C11.4914 22.987 12.1186 22.7474 12.9759 21.8871C13.7668 21.0931 14.118 20.2238 14.1159 19.064C14.1131 17.4897 13.3998 16.2887 12.0321 15.5555C11.3775 15.2047 11.1537 15.1487 10.2753 15.1168C9.47627 15.0877 9.14171 15.1306 8.65307 15.3247ZM41.6404 15.2475C40.4535 15.673 39.6547 16.4066 39.1456 17.5388C38.7523 18.4135 38.7726 19.7941 39.192 20.692C39.5773 21.5172 40.3398 22.306 41.129 22.6957C41.6355 22.946 41.884 22.9866 42.9023 22.9857C43.9131 22.9848 44.1647 22.9438 44.6196 22.7058C47.2034 21.3538 47.6826 18.024 45.5678 16.1155C45.2342 15.8144 44.6721 15.4606 44.3133 15.3259C43.5607 15.0432 42.3121 15.0066 41.6404 15.2475ZM25.2565 16.3193C22.7753 16.9375 21.1971 19.3642 21.6181 21.9144C21.8914 23.5696 22.8619 24.8762 24.3397 25.579C25.0935 25.9374 25.2141 25.9585 26.5 25.9585C27.7859 25.9585 27.9065 25.9374 28.6603 25.579C30.15 24.8706 31.0883 23.5983 31.3751 21.8974C31.9696 18.372 28.7606 15.4465 25.2565 16.3193ZM8.20079 25.2406C6.78534 25.5677 5.65257 26.1178 4.44081 27.0667C3.12365 28.098 1.86392 29.9668 1.86949 30.881C1.87458 31.7229 2.56182 32.7342 3.32533 33.0238C3.54419 33.1068 5.62936 33.1503 9.39277 33.1503H15.1268L15.4123 32.5857C15.7815 31.8553 16.6001 30.7468 17.309 30.0175L17.8699 29.4405L17.5389 28.9477C16.5515 27.4771 14.6197 26.0513 12.8215 25.4658C11.6511 25.0847 9.35879 24.973 8.20079 25.2406ZM40.9915 25.2377C40.0661 25.4483 38.9927 25.8835 38.1442 26.3918C37.3729 26.854 35.9141 28.2365 35.4573 28.9381L35.1428 29.4213L35.6901 30.0079C36.4351 30.8066 37.2434 31.9045 37.5877 32.5857L37.8732 33.1503H43.6072C47.3706 33.1503 49.4558 33.1068 49.6747 33.0238C50.4382 32.7342 51.1254 31.7229 51.1305 30.881C51.1339 30.3196 50.582 29.2355 49.8184 28.3042C48.7407 26.9896 46.9385 25.8215 45.2709 25.3567C44.306 25.0877 41.9395 25.0218 40.9915 25.2377ZM24.7828 28.1623C21.6148 28.6581 18.6767 30.6536 17.1368 33.3552C16.6504 34.2084 16.6115 34.3392 16.6148 35.1105C16.6206 36.4804 17.3419 37.4675 18.6165 37.8492C19.514 38.118 33.5181 38.108 34.4242 37.8379C35.6818 37.463 36.5631 36.1046 36.407 34.7817C36.2616 33.549 34.5888 31.2853 32.9628 30.1206C31.9715 29.4106 30.4353 28.6884 29.2831 28.3908C28.1882 28.108 25.879 27.9907 24.7828 28.1623ZM3.88017 37.9903C3.5372 38.1139 3.1696 38.5438 3.1696 38.8214C3.1696 39.188 3.57332 39.9731 4.44069 41.293C8.29933 47.1655 14.1278 51.0603 21.2299 52.5122C25.0022 53.2833 29.6376 53.1329 33.5304 52.113C38.3065 50.8616 43.0448 47.9661 46.2076 44.3662C47.9704 42.3598 49.8304 39.5179 49.8304 38.8313C49.8304 38.1852 49.0098 37.7165 48.4841 38.0623C48.3307 38.1631 47.8813 38.7748 47.4853 39.4216C41.5184 49.1678 29.6521 53.5412 18.8531 49.9744C13.2773 48.1327 8.56958 44.4114 5.52585 39.4398C5.13598 38.8031 4.75275 38.2306 4.67423 38.1676C4.46745 38.0017 4.08529 37.9165 3.88017 37.9903ZM10.5495 38.0223C10.2238 38.1573 10.0384 38.4988 10.0384 38.9642C10.0384 39.2337 10.2144 39.5303 10.7308 40.1309C15.1009 45.2151 21.5799 47.8828 28.1876 47.3188C30.1246 47.1534 31.4233 46.8876 33.1846 46.2961C36.5785 45.1561 39.8863 42.9121 42.2697 40.1324C42.8167 39.4944 42.9616 39.2419 42.9616 38.9257C42.9616 38.342 42.6192 37.9765 42.0724 37.9765C41.681 37.9765 41.5681 38.0485 41.1497 38.5649C40.3403 39.5643 38.5505 41.2587 37.5317 41.9904C35.4206 43.5065 32.5521 44.6915 29.8371 45.1687C27.9275 45.5043 25.0758 45.5049 23.1709 45.17C18.6356 44.3728 14.9269 42.2137 11.873 38.593C11.3807 38.0093 10.9887 37.8404 10.5495 38.0223Z" fill="white"/>
</svg>
